<svg width="64" height="64" viewBox="0 0 64 64" fill="none" xmlns="http://www.w3.org/2000/svg">
  <rect width="64" height="64" fill="#65A740" />
  <path d="M0 4H7V5H0V4Z" fill="black" />
  <path d="M0 20H7V21H0V20Z" fill="black" />
  <path d="M0 36H7V37H0V36Z" fill="black" />
  <path d="M0 52H7V53H0V52Z" fill="black" />
  <path d="M16 4H23V5H16V4Z" fill="black" />
  <path d="M24 28H31V29H24V28Z" fill="black" />
  <path d="M16 36H23V37H16V36Z" fill="black" />
  <path d="M24 60H31V61H24V60Z" fill="black" />
  <path d="M32 4H39V5H32V4Z" fill="black" />
  <path d="M32 20H39V21H32V20Z" fill="black" />
  <path d="M48 20H55V21H48V20Z" fill="black" />
  <path d="M32 36H39V37H32V36Z" fill="black" />
  <path d="M32 52H39V53H32V52Z" fill="black" />
  <path d="M16 52H23V53H16V52Z" fill="black" />
  <path d="M48 4H55V5H48V4Z" fill="black" />
  <path d="M56 28H63V29H56V28Z" fill="black" />
  <path d="M48 36H55V37H48V36Z" fill="black" />
  <path d="M56 60H63V61H56V60Z" fill="black" />
  <path d="M56 12H63V13H56V12Z" fill="black" />
  <path d="M56 44H63V45H56V44Z" fill="black" />
  <path d="M40 12H47V13H40V12Z" fill="black" />
  <path d="M40 44H47V45H40V44Z" fill="black" />
  <path d="M40 28H47V29H40V28Z" fill="black" />
  <path d="M40 60H47V61H40V60Z" fill="black" />
  <path d="M24 12H31V13H24V12Z" fill="black" />
  <path d="M24 44H31V45H24V44Z" fill="black" />
  <path d="M8 12H15V13H8V12Z" fill="black" />
  <path d="M8 44H15V45H8V44Z" fill="black" />
  <path d="M8 28H15V29H8V28Z" fill="black" />
  <path d="M8 60H15V61H8V60Z" fill="black" />
  <path
    d="M19.5 21.5C20.0523 21.5 20.5 21.0523 20.5 20.5C20.5 19.9477 20.0523 19.5 19.5 19.5C18.9477 19.5 18.5 19.9477 18.5 20.5C18.5 21.0523 18.9477 21.5 19.5 21.5Z"
    fill="black"
  />
  <path
    fill-rule="evenodd"
    clip-rule="evenodd"
    d="M19.5 25C21.9853 25 24 22.9853 24 20.5C24 18.0147 21.9853 16 19.5 16C17.0147 16 15 18.0147 15 20.5C15 22.9853 17.0147 25 19.5 25ZM19.5 24C21.433 24 23 22.433 23 20.5C23 18.567 21.433 17 19.5 17C17.567 17 16 18.567 16 20.5C16 22.433 17.567 24 19.5 24Z"
    fill="black"
  />
  <path
    d="M51.5 53.5C52.0523 53.5 52.5 53.0523 52.5 52.5C52.5 51.9477 52.0523 51.5 51.5 51.5C50.9477 51.5 50.5 51.9477 50.5 52.5C50.5 53.0523 50.9477 53.5 51.5 53.5Z"
    fill="black"
  />
  <path
    fill-rule="evenodd"
    clip-rule="evenodd"
    d="M51.5 57C53.9853 57 56 54.9853 56 52.5C56 50.0147 53.9853 48 51.5 48C49.0147 48 47 50.0147 47 52.5C47 54.9853 49.0147 57 51.5 57ZM51.5 56C53.433 56 55 54.433 55 52.5C55 50.567 53.433 49 51.5 49C49.567 49 48 50.567 48 52.5C48 54.433 49.567 56 51.5 56Z"
    fill="black"
  />
</svg>
