<svg width="64" height="64" viewBox="0 0 64 64" fill="none" xmlns="http://www.w3.org/2000/svg">
  <rect width="64" height="64" fill="#65A740" />
  <path d="M0 4H7V5H0V4Z" fill="black" />
  <path d="M0 20H7V21H0V20Z" fill="black" />
  <path d="M0 36H7V37H0V36Z" fill="black" />
  <path d="M0 52H7V53H0V52Z" fill="black" />
  <path d="M8 12H15V13H8V12Z" fill="black" />
  <path d="M8 28H15V29H8V28Z" fill="black" />
  <path d="M8 44H15V45H8V44Z" fill="black" />
  <path d="M8 60H15V61H8V60Z" fill="black" />
  <path d="M16 4H23V5H16V4Z" fill="black" />
  <path d="M16 20H23V21H16V20Z" fill="black" />
  <path d="M16 36H23V37H16V36Z" fill="black" />
  <path d="M16 52H23V53H16V52Z" fill="black" />
  <path d="M24 12H31V13H24V12Z" fill="black" />
  <path d="M24 28H31V29H24V28Z" fill="black" />
  <path d="M24 44H31V45H24V44Z" fill="black" />
  <path d="M24 60H31V61H24V60Z" fill="black" />
  <path d="M32 4H39V5H32V4Z" fill="black" />
  <path d="M32 20H39V21H32V20Z" fill="black" />
  <path d="M32 36H39V37H32V36Z" fill="black" />
  <path d="M32 52H39V53H32V52Z" fill="black" />
  <path d="M40 12H47V13H40V12Z" fill="black" />
  <path d="M40 28H47V29H40V28Z" fill="black" />
  <path d="M40 44H47V45H40V44Z" fill="black" />
  <path d="M40 60H47V61H40V60Z" fill="black" />
  <path d="M48 4H55V5H48V4Z" fill="black" />
  <path d="M48 20H55V21H48V20Z" fill="black" />
  <path d="M48 36H55V37H48V36Z" fill="black" />
  <path d="M48 52H55V53H48V52Z" fill="black" />
  <path d="M56 12H63V13H56V12Z" fill="black" />
  <path d="M56 28H63V29H56V28Z" fill="black" />
  <path d="M56 44H63V45H56V44Z" fill="black" />
  <path d="M56 60H63V61H56V60Z" fill="black" />
  <path d="M19 42H20V47H19V42Z" fill="black" />
  <path d="M19 58H20V63H19V58Z" fill="black" />
  <path d="M19 26H20V31H19V26Z" fill="black" />
  <path d="M19 10H20V15H19V10Z" fill="black" />
  <path d="M3 42H4V47H3V42Z" fill="black" />
  <path d="M3 58H4V63H3V58Z" fill="black" />
  <path d="M3 26H4V31H3V26Z" fill="black" />
  <path d="M3 10H4V15H3V10Z" fill="black" />
  <path d="M35 42H36V47H35V42Z" fill="black" />
  <path d="M35 58H36V63H35V58Z" fill="black" />
  <path d="M35 26H36V31H35V26Z" fill="black" />
  <path d="M35 10H36V15H35V10Z" fill="black" />
  <path d="M51 42H52V47H51V42Z" fill="black" />
  <path d="M51 58H52V63H51V58Z" fill="black" />
  <path d="M51 26H52V31H51V26Z" fill="black" />
  <path d="M51 10H52V15H51V10Z" fill="black" />
  <path d="M11 34H12V39H11V34Z" fill="black" />
  <path d="M11 50H12V55H11V50Z" fill="black" />
  <path d="M11 18H12V23H11V18Z" fill="black" />
  <path d="M11 2H12V7H11V2Z" fill="black" />
  <path d="M27 34H28V39H27V34Z" fill="black" />
  <path d="M27 50H28V55H27V50Z" fill="black" />
  <path d="M27 18H28V23H27V18Z" fill="black" />
  <path d="M27 2H28V7H27V2Z" fill="black" />
  <path d="M43 34H44V39H43V34Z" fill="black" />
  <path d="M43 50H44V55H43V50Z" fill="black" />
  <path d="M43 18H44V23H43V18Z" fill="black" />
  <path d="M43 2H44V7H43V2Z" fill="black" />
  <path d="M59 34H60V39H59V34Z" fill="black" />
  <path d="M59 50H60V55H59V50Z" fill="black" />
  <path d="M59 18H60V23H59V18Z" fill="black" />
  <path d="M59 2H60V7H59V2Z" fill="black" />
</svg>
