<svg width="64" height="64" viewBox="0 0 64 64" fill="none" xmlns="http://www.w3.org/2000/svg">
  <rect width="64" height="64" fill="#65A740" />
  <path d="M0 4H7V5H0V4Z" fill="black" />
  <path d="M0 36H7V37H0V36Z" fill="black" />
  <path d="M0 20H7V21H0V20Z" fill="black" />
  <path d="M0 52H7V53H0V52Z" fill="black" />
  <path d="M16 4H23V5H16V4Z" fill="black" />
  <path d="M16 36H23V37H16V36Z" fill="black" />
  <path d="M16 20H23V21H16V20Z" fill="black" />
  <path d="M16 52H23V53H16V52Z" fill="black" />
  <path d="M32 4H39V5H32V4Z" fill="black" />
  <path d="M32 36H39V37H32V36Z" fill="black" />
  <path d="M32 20H39V21H32V20Z" fill="black" />
  <path d="M32 52H39V53H32V52Z" fill="black" />
  <path d="M48 4H55V5H48V4Z" fill="black" />
  <path d="M48 36H55V37H48V36Z" fill="black" />
  <path d="M48 20H55V21H48V20Z" fill="black" />
  <path d="M48 52H55V53H48V52Z" fill="black" />
  <path d="M40 12H47V13H40V12Z" fill="black" />
  <path d="M40 44H47V45H40V44Z" fill="black" />
  <path d="M56 28H63V29H56V28Z" fill="black" />
  <path d="M56 60H63V61H56V60Z" fill="black" />
  <path d="M8 12H15V13H8V12Z" fill="black" />
  <path d="M8 44H15V45H8V44Z" fill="black" />
  <path d="M24 28H31V29H24V28Z" fill="black" />
  <path d="M24 60H31V61H24V60Z" fill="black" />
  <path d="M56 43H63V44H60.7072L59.7072 45H63V46H56V45H58.293L59.293 44H56V43Z" fill="black" />
  <path d="M40 59H47V60H44.7072L43.7072 61H47V62H40V61H42.293L43.293 60H40V59Z" fill="black" />
  <path d="M8 59H15V60H12.7072L11.7072 61H15V62H8V61H10.293L11.293 60H8V59Z" fill="black" />
  <path d="M8 27H15V28H12.7072L11.7072 29H15V30H8V29H10.293L11.293 28H8V27Z" fill="black" />
  <path d="M40 27H47V28H44.7072L43.7072 29H47V30H40V29H42.293L43.293 28H40V27Z" fill="black" />
  <path d="M24 11H31V12H28.7072L27.7072 13H31V14H24V13H26.293L27.293 12H24V11Z" fill="black" />
  <path d="M56 11H63V12H60.7072L59.7072 13H63V14H56V13H58.293L59.293 12H56V11Z" fill="black" />
  <path d="M24 43H31V44H28.7072L27.7072 45H31V46H24V45H26.293L27.293 44H24V43Z" fill="black" />
</svg>
