<svg width="64" height="64" viewBox="0 0 64 64" fill="none" xmlns="http://www.w3.org/2000/svg">
  <rect width="64" height="64" fill="#65A740" />
  <path d="M0 4H7V5H0V4Z" fill="black" />
  <path d="M0 36H7V37H0V36Z" fill="black" />
  <path d="M0 20H7V21H0V20Z" fill="black" />
  <path d="M0 52H7V53H0V52Z" fill="black" />
  <path d="M16 4H23V5H16V4Z" fill="black" />
  <path d="M16 36H23V37H16V36Z" fill="black" />
  <path d="M16 20H23V21H16V20Z" fill="black" />
  <path d="M16 52H23V53H16V52Z" fill="black" />
  <path d="M32 4H39V5H32V4Z" fill="black" />
  <path d="M32 36H39V37H32V36Z" fill="black" />
  <path d="M32 20H39V21H32V20Z" fill="black" />
  <path d="M32 52H39V53H32V52Z" fill="black" />
  <path d="M48 4H55V5H48V4Z" fill="black" />
  <path d="M48 36H55V37H48V36Z" fill="black" />
  <path d="M48 20H55V21H48V20Z" fill="black" />
  <path d="M48 52H55V53H48V52Z" fill="black" />
  <path d="M40 12H47V13H40V12Z" fill="black" />
  <path d="M40 44H47V45H40V44Z" fill="black" />
  <path d="M56 28H63V29H56V28Z" fill="black" />
  <path d="M56 60H63V61H56V60Z" fill="black" />
  <path d="M8 12H15V13H8V12Z" fill="black" />
  <path d="M8 44H15V45H8V44Z" fill="black" />
  <path d="M24 28H31V29H24V28Z" fill="black" />
  <path d="M24 60H31V61H24V60Z" fill="black" />
  <path
    d="M60.5714 42L61.9497 42L59.4141 44.5357L61.8784 47L60.5 47L58.5 45L58 45V47H57V42H58V44L58.5714 44L60.5714 42Z"
    fill="black"
  />
  <path
    d="M44.5714 58L45.9497 58L43.4141 60.5357L45.8784 63L44.5 63L42.5 61L42 61V63H41V58H42V60L42.5714 60L44.5714 58Z"
    fill="black"
  />
  <path
    d="M12.5714 58L13.9497 58L11.4141 60.5357L13.8784 63L12.5 63L10.5 61L10 61V63H9V58H10V60L10.5714 60L12.5714 58Z"
    fill="black"
  />
  <path
    d="M12.5714 26L13.9497 26L11.4141 28.5357L13.8784 31L12.5 31L10.5 29L10 29V31H9V26H10V28L10.5714 28L12.5714 26Z"
    fill="black"
  />
  <path
    d="M44.5714 26L45.9497 26L43.4141 28.5357L45.8784 31L44.5 31L42.5 29L42 29V31H41V26H42V28L42.5714 28L44.5714 26Z"
    fill="black"
  />
  <path
    d="M28.5714 10L29.9497 10L27.4141 12.5357L29.8784 15L28.5 15L26.5 13L26 13V15H25V10H26V12L26.5714 12L28.5714 10Z"
    fill="black"
  />
  <path
    d="M60.5714 10L61.9497 10L59.4141 12.5357L61.8784 15L60.5 15L58.5 13L58 13V15H57V10H58V12L58.5714 12L60.5714 10Z"
    fill="black"
  />
  <path
    d="M28.5714 42L29.9497 42L27.4141 44.5357L29.8784 47L28.5 47L26.5 45L26 45V47H25V42H26V44L26.5714 44L28.5714 42Z"
    fill="black"
  />
</svg>
