<svg width="64" height="64" viewBox="0 0 64 64" fill="none" xmlns="http://www.w3.org/2000/svg">
  <rect width="64" height="64" fill="#65A740" />
  <path d="M0 4H7V5H0V4Z" fill="black" />
  <path d="M0 36H7V37H0V36Z" fill="black" />
  <path d="M0 20H7V21H0V20Z" fill="black" />
  <path d="M0 52H7V53H0V52Z" fill="black" />
  <path d="M16 4H23V5H16V4Z" fill="black" />
  <path d="M16 36H23V37H16V36Z" fill="black" />
  <path d="M16 20H23V21H16V20Z" fill="black" />
  <path d="M16 52H23V53H16V52Z" fill="black" />
  <path d="M32 4H39V5H32V4Z" fill="black" />
  <path d="M32 36H39V37H32V36Z" fill="black" />
  <path d="M32 20H39V21H32V20Z" fill="black" />
  <path d="M32 52H39V53H32V52Z" fill="black" />
  <path d="M48 4H55V5H48V4Z" fill="black" />
  <path d="M48 36H55V37H48V36Z" fill="black" />
  <path d="M48 20H55V21H48V20Z" fill="black" />
  <path d="M48 52H55V53H48V52Z" fill="black" />
  <path d="M40 12H47V13H40V12Z" fill="black" />
  <path d="M40 44H47V45H40V44Z" fill="black" />
  <path d="M56 28H63V29H56V28Z" fill="black" />
  <path d="M56 60H63V61H56V60Z" fill="black" />
  <path d="M8 12H15V13H8V12Z" fill="black" />
  <path d="M8 44H15V45H8V44Z" fill="black" />
  <path d="M24 28H31V29H24V28Z" fill="black" />
  <path d="M24 60H31V61H24V60Z" fill="black" />
  <path d="M56 42H57V47H56V42Z" fill="black" />
  <path d="M62 42H63V47H62V42Z" fill="black" />
  <path d="M60 42H59V47H60V42Z" fill="black" />
  <path d="M40 58H41V63H40V58Z" fill="black" />
  <path d="M46 58H47V63H46V58Z" fill="black" />
  <path d="M44 58H43V63H44V58Z" fill="black" />
  <path d="M8 58H9V63H8V58Z" fill="black" />
  <path d="M14 58H15V63H14V58Z" fill="black" />
  <path d="M12 58H11V63H12V58Z" fill="black" />
  <path d="M8 26H9V31H8V26Z" fill="black" />
  <path d="M14 26H15V31H14V26Z" fill="black" />
  <path d="M12 26H11V31H12V26Z" fill="black" />
  <path d="M40 26H41V31H40V26Z" fill="black" />
  <path d="M46 26H47V31H46V26Z" fill="black" />
  <path d="M44 26H43V31H44V26Z" fill="black" />
  <path d="M24 10H25V15H24V10Z" fill="black" />
  <path d="M30 10H31V15H30V10Z" fill="black" />
  <path d="M28 10H27V15H28V10Z" fill="black" />
  <path d="M56 10H57V15H56V10Z" fill="black" />
  <path d="M62 10H63V15H62V10Z" fill="black" />
  <path d="M60 10H59V15H60V10Z" fill="black" />
  <path d="M24 42H25V47H24V42Z" fill="black" />
  <path d="M30 42H31V47H30V42Z" fill="black" />
  <path d="M28 42H27V47H28V42Z" fill="black" />
</svg>
