<svg width="64" height="64" viewBox="0 0 64 64" fill="none" xmlns="http://www.w3.org/2000/svg">
  <rect width="64" height="64" fill="#65A740" />
  <path d="M0 4H7V5H0V4Z" fill="black" />
  <path d="M0 36H7V37H0V36Z" fill="black" />
  <path d="M0 20H7V21H0V20Z" fill="black" />
  <path d="M0 52H7V53H0V52Z" fill="black" />
  <path d="M16 4H23V5H16V4Z" fill="black" />
  <path d="M16 36H23V37H16V36Z" fill="black" />
  <path d="M16 20H23V21H16V20Z" fill="black" />
  <path d="M16 52H23V53H16V52Z" fill="black" />
  <path d="M32 4H39V5H32V4Z" fill="black" />
  <path d="M32 36H39V37H32V36Z" fill="black" />
  <path d="M32 20H39V21H32V20Z" fill="black" />
  <path d="M32 52H39V53H32V52Z" fill="black" />
  <path d="M48 4H55V5H48V4Z" fill="black" />
  <path d="M48 36H55V37H48V36Z" fill="black" />
  <path d="M48 20H55V21H48V20Z" fill="black" />
  <path d="M48 52H55V53H48V52Z" fill="black" />
  <path d="M40 12H47V13H40V12Z" fill="black" />
  <path d="M40 44H47V45H40V44Z" fill="black" />
  <path d="M56 28H63V29H56V28Z" fill="black" />
  <path d="M56 60H63V61H56V60Z" fill="black" />
  <path d="M8 12H15V13H8V12Z" fill="black" />
  <path d="M8 44H15V45H8V44Z" fill="black" />
  <path d="M24 28H31V29H24V28Z" fill="black" />
  <path d="M24 60H31V61H24V60Z" fill="black" />
  <path
    d="M57.5 42H56.5C55.6716 42 55 42.6716 55 43.5C55 44.3284 55.6716 45 56.5 45C56.7761 45 57 45.2239 57 45.5C57 45.7761 56.7761 46 56.5 46H55V47H56.5C57.3284 47 58 46.3284 58 45.5C58 44.6716 57.3284 44 56.5 44C56.2239 44 56 43.7761 56 43.5C56 43.2239 56.2239 43 56.5 43H57.5V42Z"
    fill="black"
  />
  <path
    d="M59 45.5V47H60V45.5C60 45.2239 60.2239 45 60.5 45C60.7761 45 61 45.2239 61 45.5V47H62V45.5C62 45.2239 62.2239 45 62.5 45C62.7761 45 63 45.2239 63 45.5V47H64V45.5C64 44.6716 63.3284 44 62.5 44C62.1158 44 61.7654 44.1444 61.5 44.3819C61.2346 44.1444 60.8842 44 60.5 44C59.6716 44 59 44.6716 59 45.5Z"
    fill="black"
  />
  <path
    d="M41.5 58H40.5C39.6716 58 39 58.6716 39 59.5C39 60.3284 39.6716 61 40.5 61C40.7761 61 41 61.2239 41 61.5C41 61.7761 40.7761 62 40.5 62H39V63H40.5C41.3284 63 42 62.3284 42 61.5C42 60.6716 41.3284 60 40.5 60C40.2239 60 40 59.7761 40 59.5C40 59.2239 40.2239 59 40.5 59H41.5V58Z"
    fill="black"
  />
  <path
    d="M43 61.5V63H44V61.5C44 61.2239 44.2239 61 44.5 61C44.7761 61 45 61.2239 45 61.5V63H46V61.5C46 61.2239 46.2239 61 46.5 61C46.7761 61 47 61.2239 47 61.5V63H48V61.5C48 60.6716 47.3284 60 46.5 60C46.1158 60 45.7654 60.1444 45.5 60.3819C45.2346 60.1444 44.8842 60 44.5 60C43.6716 60 43 60.6716 43 61.5Z"
    fill="black"
  />
  <path
    d="M9.5 58H8.5C7.67157 58 7 58.6716 7 59.5C7 60.3284 7.67157 61 8.5 61C8.77614 61 9 61.2239 9 61.5C9 61.7761 8.77614 62 8.5 62H7V63H8.5C9.32843 63 10 62.3284 10 61.5C10 60.6716 9.32843 60 8.5 60C8.22386 60 8 59.7761 8 59.5C8 59.2239 8.22386 59 8.5 59H9.5V58Z"
    fill="black"
  />
  <path
    d="M11 61.5V63H12V61.5C12 61.2239 12.2239 61 12.5 61C12.7761 61 13 61.2239 13 61.5V63H14V61.5C14 61.2239 14.2239 61 14.5 61C14.7761 61 15 61.2239 15 61.5V63H16V61.5C16 60.6716 15.3284 60 14.5 60C14.1158 60 13.7654 60.1444 13.5 60.3819C13.2346 60.1444 12.8842 60 12.5 60C11.6716 60 11 60.6716 11 61.5Z"
    fill="black"
  />
  <path
    d="M9.5 26H8.5C7.67157 26 7 26.6716 7 27.5C7 28.3284 7.67157 29 8.5 29C8.77614 29 9 29.2239 9 29.5C9 29.7761 8.77614 30 8.5 30H7V31H8.5C9.32843 31 10 30.3284 10 29.5C10 28.6716 9.32843 28 8.5 28C8.22386 28 8 27.7761 8 27.5C8 27.2239 8.22386 27 8.5 27H9.5V26Z"
    fill="black"
  />
  <path
    d="M11 29.5V31H12V29.5C12 29.2239 12.2239 29 12.5 29C12.7761 29 13 29.2239 13 29.5V31H14V29.5C14 29.2239 14.2239 29 14.5 29C14.7761 29 15 29.2239 15 29.5V31H16V29.5C16 28.6716 15.3284 28 14.5 28C14.1158 28 13.7654 28.1444 13.5 28.3819C13.2346 28.1444 12.8842 28 12.5 28C11.6716 28 11 28.6716 11 29.5Z"
    fill="black"
  />
  <path
    d="M41.5 26H40.5C39.6716 26 39 26.6716 39 27.5C39 28.3284 39.6716 29 40.5 29C40.7761 29 41 29.2239 41 29.5C41 29.7761 40.7761 30 40.5 30H39V31H40.5C41.3284 31 42 30.3284 42 29.5C42 28.6716 41.3284 28 40.5 28C40.2239 28 40 27.7761 40 27.5C40 27.2239 40.2239 27 40.5 27H41.5V26Z"
    fill="black"
  />
  <path
    d="M43 29.5V31H44V29.5C44 29.2239 44.2239 29 44.5 29C44.7761 29 45 29.2239 45 29.5V31H46V29.5C46 29.2239 46.2239 29 46.5 29C46.7761 29 47 29.2239 47 29.5V31H48V29.5C48 28.6716 47.3284 28 46.5 28C46.1158 28 45.7654 28.1444 45.5 28.3819C45.2346 28.1444 44.8842 28 44.5 28C43.6716 28 43 28.6716 43 29.5Z"
    fill="black"
  />
  <path
    d="M25.5 10H24.5C23.6716 10 23 10.6716 23 11.5C23 12.3284 23.6716 13 24.5 13C24.7761 13 25 13.2239 25 13.5C25 13.7761 24.7761 14 24.5 14H23V15H24.5C25.3284 15 26 14.3284 26 13.5C26 12.6716 25.3284 12 24.5 12C24.2239 12 24 11.7761 24 11.5C24 11.2239 24.2239 11 24.5 11H25.5V10Z"
    fill="black"
  />
  <path
    d="M27 13.5V15H28V13.5C28 13.2239 28.2239 13 28.5 13C28.7761 13 29 13.2239 29 13.5V15H30V13.5C30 13.2239 30.2239 13 30.5 13C30.7761 13 31 13.2239 31 13.5V15H32V13.5C32 12.6716 31.3284 12 30.5 12C30.1158 12 29.7654 12.1444 29.5 12.3819C29.2346 12.1444 28.8842 12 28.5 12C27.6716 12 27 12.6716 27 13.5Z"
    fill="black"
  />
  <path
    d="M57.5 10H56.5C55.6716 10 55 10.6716 55 11.5C55 12.3284 55.6716 13 56.5 13C56.7761 13 57 13.2239 57 13.5C57 13.7761 56.7761 14 56.5 14H55V15H56.5C57.3284 15 58 14.3284 58 13.5C58 12.6716 57.3284 12 56.5 12C56.2239 12 56 11.7761 56 11.5C56 11.2239 56.2239 11 56.5 11H57.5V10Z"
    fill="black"
  />
  <path
    d="M59 13.5V15H60V13.5C60 13.2239 60.2239 13 60.5 13C60.7761 13 61 13.2239 61 13.5V15H62V13.5C62 13.2239 62.2239 13 62.5 13C62.7761 13 63 13.2239 63 13.5V15H64V13.5C64 12.6716 63.3284 12 62.5 12C62.1158 12 61.7654 12.1444 61.5 12.3819C61.2346 12.1444 60.8842 12 60.5 12C59.6716 12 59 12.6716 59 13.5Z"
    fill="black"
  />
  <path
    d="M25.5 42H24.5C23.6716 42 23 42.6716 23 43.5C23 44.3284 23.6716 45 24.5 45C24.7761 45 25 45.2239 25 45.5C25 45.7761 24.7761 46 24.5 46H23V47H24.5C25.3284 47 26 46.3284 26 45.5C26 44.6716 25.3284 44 24.5 44C24.2239 44 24 43.7761 24 43.5C24 43.2239 24.2239 43 24.5 43H25.5V42Z"
    fill="black"
  />
  <path
    d="M27 45.5V47H28V45.5C28 45.2239 28.2239 45 28.5 45C28.7761 45 29 45.2239 29 45.5V47H30V45.5C30 45.2239 30.2239 45 30.5 45C30.7761 45 31 45.2239 31 45.5V47H32V45.5C32 44.6716 31.3284 44 30.5 44C30.1158 44 29.7654 44.1444 29.5 44.3819C29.2346 44.1444 28.8842 44 28.5 44C27.6716 44 27 44.6716 27 45.5Z"
    fill="black"
  />
</svg>
