<svg width="64" height="64" viewBox="0 0 64 64" fill="none" xmlns="http://www.w3.org/2000/svg">
  <rect width="64" height="64" fill="#65A740" />
  <path d="M0 4H7V5H0V4Z" fill="black" />
  <path d="M0 36H7V37H0V36Z" fill="black" />
  <path d="M0 20H7V21H0V20Z" fill="black" />
  <path d="M0 52H7V53H0V52Z" fill="black" />
  <path d="M8 28H15V29H8V28Z" fill="black" />
  <path d="M8 60H15V61H8V60Z" fill="black" />
  <path d="M16 4H23V5H16V4Z" fill="black" />
  <path d="M16 36H23V37H16V36Z" fill="black" />
  <path d="M16 20H23V21H16V20Z" fill="black" />
  <path d="M16 52H23V53H16V52Z" fill="black" />
  <path d="M24 28H31V29H24V28Z" fill="black" />
  <path d="M24 60H31V61H24V60Z" fill="black" />
  <path d="M32 4H39V5H32V4Z" fill="black" />
  <path d="M32 36H39V37H32V36Z" fill="black" />
  <path d="M32 20H39V21H32V20Z" fill="black" />
  <path d="M32 52H39V53H32V52Z" fill="black" />
  <path d="M40 28H47V29H40V28Z" fill="black" />
  <path d="M40 60H47V61H40V60Z" fill="black" />
  <path d="M48 4H55V5H48V4Z" fill="black" />
  <path d="M48 36H55V37H48V36Z" fill="black" />
  <path d="M48 20H55V21H48V20Z" fill="black" />
  <path d="M48 52H55V53H48V52Z" fill="black" />
  <path d="M56 28H63V29H56V28Z" fill="black" />
  <path d="M56 60H63V61H56V60Z" fill="black" />
  <path d="M24 12H31V13H24V12Z" fill="black" />
  <path d="M24 44H31V45H24V44Z" fill="black" />
  <path d="M56 12H63V13H56V12Z" fill="black" />
  <path d="M56 44H63V45H56V44Z" fill="black" />
  <path
    fill-rule="evenodd"
    clip-rule="evenodd"
    d="M11 11H10V14H11V11ZM13 11H12V14H13V11Z"
    fill="black"
  />
  <path
    fill-rule="evenodd"
    clip-rule="evenodd"
    d="M43 11H42V14H43V11ZM45 11H44V14H45V11Z"
    fill="black"
  />
  <path
    fill-rule="evenodd"
    clip-rule="evenodd"
    d="M11 43H10V46H11V43ZM13 43H12V46H13V43Z"
    fill="black"
  />
  <path
    fill-rule="evenodd"
    clip-rule="evenodd"
    d="M43 43H42V46H43V43ZM45 43H44V46H45V43Z"
    fill="black"
  />
</svg>
