<svg viewBox="0 0 64 64" fill="none" xmlns="http://www.w3.org/2000/svg">
  <path fill="#FFC100" d="M0 0h64v64H0z" />
  <g clip-path="url(#a)">
    <path
      fill-rule="evenodd"
      clip-rule="evenodd"
      d="M4.564-4.488c-.572-.043-1.179.032-1.916.207-.353.084-.73.161-1.117.24-.809.166-1.659.34-2.411.6-.547.191-.977.408-1.257.66-.264.235-.38.483-.361.787.009.144.015.277.022.402v.001c.011.224.022.421.039.61.026.288.064.507.13.69.116.32.346.609 1.012.906.574.255 1.782.538 3.051.715a17.39 17.39 0 0 0 1.798.164c.557.018.998-.008 1.277-.074C5.875 1.174 6.396.8 7.217.054c.132-.12.252-.225.362-.321.525-.46.803-.703.898-1.248.09-.518-.085-.927-.466-1.317-.402-.411-1.002-.764-1.687-1.12-.636-.332-1.194-.493-1.76-.536zm.075-.997c.72.054 1.409.26 2.147.645.684.356 1.415.772 1.94 1.308.545.558.894 1.276.736 2.187C9.302-.422 8.72.077 8.177.543c-.098.084-.195.167-.288.251-.884.802-1.554 1.299-2.828 1.6-.41.097-.959.119-1.54.1-.59-.02-1.25-.082-1.903-.173-1.287-.18-2.611-.477-3.32-.793-.837-.373-1.31-.833-1.545-1.479a3.723 3.723 0 0 1-.186-.94c-.019-.207-.03-.438-.043-.675l-.02-.368c-.04-.67.25-1.197.692-1.593.426-.38 1.001-.651 1.596-.858.815-.283 1.789-.483 2.628-.655.366-.075.706-.144.996-.213.791-.189 1.51-.286 2.223-.232zm4.492 9.283c.921-.238 1.684-.34 2.406-.282.716.06 1.421.28 2.223.733.849.48 1.61.965 2.127 1.537.497.552.75 1.165.625 1.95-.129.807-.525 1.182-1.18 1.803-.135.127-.28.265-.437.419-1.03 1.015-1.695 1.534-3.013 1.872-.813.208-1.476.266-2.113.19-.639-.074-1.28-.286-2.046-.656-1.864-.9-3.12-1.812-3.218-3.578-.061-1.105.441-1.919 1.293-2.56.871-.655 2.082-1.105 3.333-1.428zm5.12-.42c-.906-.512-1.75-.786-2.632-.858-.877-.072-1.76.057-2.738.31-1.293.334-2.655.823-3.684 1.597-1.05.79-1.775 1.898-1.69 3.415.132 2.38 1.907 3.517 3.781 4.422.827.4 1.58.658 2.364.75.787.093 1.578.015 2.478-.215 1.563-.401 2.378-1.057 3.467-2.129.122-.12.246-.236.37-.352.676-.63 1.346-1.256 1.533-2.425.182-1.143-.215-2.05-.87-2.776-.636-.705-1.527-1.257-2.378-1.738zm2.34 18.113c.729-.135 1.39-.343 1.998-.558.223-.078.435-.156.64-.23a24.34 24.34 0 0 1 1.063-.372c1.058-.332 2.003-.46 3.094-.015 1.242.504 2.383 1.023 3.159 1.641.76.606 1.078 1.226.911 1.974-.107.481-.36.829-.758 1.173-.283.245-.603.46-.979.714-.193.13-.401.271-.627.43-1.507 1.067-2.518 1.642-4.521 2.011-2.405.443-4.058.275-6.3-.504-1.367-.475-2.628-.96-3.523-1.575-.884-.607-1.315-1.267-1.241-2.096.12-1.352.405-2.059.732-2.428.301-.338.704-.464 1.303-.456.442.006.918.08 1.468.167.237.038.489.077.757.114.855.118 1.819.197 2.824.01zm7.172-2.102c-1.397-.567-2.605-.378-3.77-.012-.372.117-.757.258-1.14.398-.2.073-.4.146-.596.215-.588.207-1.193.397-1.848.518-.847.158-1.685.096-2.505-.017-.217-.03-.44-.065-.662-.1-.582-.092-1.169-.184-1.686-.19-.749-.011-1.493.148-2.065.791-.544.613-.855 1.586-.98 3.004-.12 1.338.638 2.3 1.67 3.008 1.022.701 2.406 1.225 3.762 1.696 2.395.832 4.223 1.019 6.809.543 2.193-.404 3.338-1.06 4.918-2.178.179-.126.363-.25.545-.374.407-.275.809-.547 1.137-.83.504-.437.913-.96 1.08-1.713.283-1.27-.346-2.241-1.264-2.973-.903-.72-2.171-1.285-3.405-1.786zm-.752-8.879c-.323-.036-.683.024-1.158.192-.663.233-2.07.807-3.291 1.55-.612.372-1.154.773-1.533 1.179-.387.414-.541.765-.53 1.049l.016.402c.02.577.034.98.118 1.32.087.357.247.62.642.88l.017.009.054.02c.048.014.114.028.2.04.172.023.394.032.659.027A15.57 15.57 0 0 0 20.051 17c1.343-.197 2.666-.501 3.08-.646.628-.22.95-.549 1.503-1.292.085-.115.164-.217.236-.31l.001-.001c.347-.448.544-.704.612-1.281.131-1.122-.516-1.78-1.419-2.478-.406-.313-.737-.447-1.053-.482zm.111-.994c.542.061 1.042.29 1.553.685.921.711 2 1.68 1.801 3.385-.102.872-.477 1.35-.843 1.817-.067.085-.133.17-.197.255-.584.786-1.056 1.318-1.974 1.64-.506.176-1.903.491-3.265.692-.686.1-1.383.175-1.972.188a5.352 5.352 0 0 1-.815-.037c-.229-.03-.483-.09-.685-.224-.608-.4-.917-.878-1.064-1.477-.11-.45-.128-.982-.148-1.56a55.926 55.926 0 0 0-.013-.36c-.027-.677.34-1.28.798-1.772.467-.5 1.096-.956 1.744-1.35 1.3-.791 2.775-1.392 3.478-1.64.545-.191 1.068-.302 1.602-.242zM2.648 27.72c.737-.175 1.344-.25 1.916-.207.566.043 1.124.204 1.76.535.685.357 1.285.71 1.687 1.12.381.39.555.8.466 1.318-.095.545-.373.788-.898 1.248-.11.096-.23.201-.362.32-.82.746-1.342 1.12-2.386 1.367-.279.066-.72.093-1.277.074a17.507 17.507 0 0 1-1.797-.164c-1.27-.177-2.478-.46-3.052-.715-.666-.297-.896-.586-1.012-.907a2.754 2.754 0 0 1-.13-.689 17.083 17.083 0 0 1-.04-.61c-.006-.125-.012-.258-.021-.403-.018-.304.097-.552.36-.788.281-.25.711-.468 1.258-.658.752-.262 1.602-.435 2.41-.6.388-.08.765-.157 1.118-.24zm4.138-.559c-.738-.385-1.427-.59-2.147-.645-.714-.054-1.432.043-2.223.232-.29.069-.63.138-.996.213-.84.172-1.813.372-2.628.655-.595.207-1.17.477-1.596.858-.442.396-.733.924-.692 1.593l.02.367c.012.238.024.469.043.676.029.321.077.64.186.94.234.646.708 1.107 1.546 1.48.708.315 2.032.612 3.32.792a18.5 18.5 0 0 0 1.902.173c.581.019 1.13-.003 1.54-.1 1.274-.301 1.944-.798 2.828-1.6.093-.084.19-.167.288-.251.543-.466 1.125-.965 1.285-1.888.158-.911-.191-1.63-.737-2.187-.524-.536-1.255-.952-1.939-1.308zm27.861.56c.738-.176 1.345-.251 1.917-.208.566.043 1.124.204 1.76.535.685.357 1.285.71 1.687 1.12.381.39.555.8.466 1.318-.095.545-.373.788-.898 1.248-.11.096-.23.201-.362.32-.82.746-1.342 1.12-2.386 1.367-.279.066-.72.093-1.277.074a17.507 17.507 0 0 1-1.797-.164c-1.27-.177-2.478-.46-3.052-.715-.666-.297-.896-.586-1.012-.907a2.757 2.757 0 0 1-.13-.689 16.22 16.22 0 0 1-.04-.609 44.805 44.805 0 0 0-.021-.404c-.018-.304.097-.552.36-.788.281-.25.711-.468 1.258-.658.752-.262 1.602-.435 2.41-.6.388-.08.765-.157 1.117-.24zm4.14-.56c-.74-.385-1.428-.59-2.148-.645-.714-.054-1.432.043-2.223.232-.29.069-.63.138-.996.213-.84.172-1.813.372-2.628.655-.595.207-1.17.477-1.596.858-.442.396-.733.924-.692 1.593l.02.367c.012.238.024.469.043.676.029.321.077.64.186.94.235.646.709 1.107 1.546 1.48.707.315 2.032.612 3.32.792.652.09 1.312.154 1.903.173.58.019 1.128-.003 1.539-.1 1.274-.301 1.944-.798 2.828-1.6.093-.084.19-.167.288-.251.543-.466 1.125-.965 1.285-1.888.158-.911-.191-1.63-.737-2.187-.525-.536-1.255-.952-1.939-1.308zM36.563-4.488c-.572-.043-1.179.032-1.916.207-.353.084-.73.161-1.117.24-.809.166-1.659.34-2.411.6-.547.191-.977.408-1.257.66-.264.235-.38.483-.361.787.009.145.015.278.022.403.011.224.022.421.039.61.026.288.064.507.13.69.116.32.346.609 1.012.906.574.255 1.782.538 3.052.715.626.087 1.25.147 1.797.164.557.018.998-.008 1.277-.074 1.045-.246 1.566-.62 2.387-1.366.132-.12.252-.225.362-.321.525-.46.803-.703.898-1.248.09-.518-.085-.927-.466-1.317-.402-.411-1.002-.764-1.687-1.12-.636-.332-1.194-.493-1.76-.536zm.075-.997c.72.054 1.408.26 2.147.645.684.356 1.414.772 1.94 1.308.545.558.894 1.276.736 2.187-.16.923-.742 1.422-1.285 1.888-.098.084-.195.167-.288.251-.884.802-1.554 1.299-2.828 1.6-.41.097-.959.119-1.54.1a18.49 18.49 0 0 1-1.903-.173c-1.287-.18-2.612-.477-3.32-.793-.836-.373-1.31-.833-1.545-1.479a3.723 3.723 0 0 1-.186-.94c-.019-.207-.03-.437-.043-.675a40.843 40.843 0 0 0-.02-.368c-.04-.67.25-1.197.692-1.593.425-.38 1.001-.651 1.596-.858.815-.283 1.789-.483 2.628-.655.366-.075.706-.144.996-.213.791-.189 1.51-.286 2.223-.232zM2.02 13.828c.691-.268 1.233-.372 1.73-.311.488.06.994.289 1.598.802 1.283 1.089 2.334 2.217 2.127 4.172-.107 1-.438 1.47-.94 2.183-.102.144-.211.298-.327.469-.8 1.185-1.296 1.75-2.25 2.116-.597.23-1.06.285-1.492.209-.44-.078-.904-.301-1.484-.722-.699-.508-1.291-1.021-1.723-1.67-.425-.641-.713-1.442-.754-2.55-.051-1.384.376-2.365 1.018-3.091.655-.74 1.559-1.243 2.496-1.607zm3.975-.271c-.705-.6-1.387-.942-2.123-1.033-.73-.09-1.45.075-2.214.372-1.012.392-2.08.97-2.884 1.876-.814.921-1.329 2.154-1.268 3.79.047 1.278.385 2.26.92 3.067.53.797 1.235 1.393 1.969 1.926.64.465 1.246.782 1.897.897.659.117 1.31.016 2.026-.26 1.255-.483 1.895-1.271 2.719-2.49.097-.143.195-.28.292-.417.52-.732 1.004-1.414 1.14-2.688.264-2.487-1.15-3.917-2.474-5.04zm29.754-.04c-.496-.061-1.038.043-1.73.311-.938.364-1.841.867-2.496 1.607-.642.726-1.07 1.707-1.018 3.09.041 1.109.329 1.91.754 2.55.432.65 1.024 1.163 1.723 1.67.58.422 1.043.645 1.484.723.432.076.895.021 1.493-.209.953-.367 1.448-.931 2.25-2.116.115-.17.224-.325.325-.47.503-.711.834-1.181.94-2.182.208-1.954-.843-3.083-2.126-4.172-.604-.513-1.11-.742-1.599-.802zm.123-.992c.736.09 1.418.432 2.123 1.031 1.324 1.125 2.738 2.554 2.474 5.04-.136 1.275-.62 1.957-1.14 2.689-.097.136-.195.274-.292.418-.824 1.218-1.464 2.006-2.719 2.49-.716.275-1.367.376-2.026.26-.65-.116-1.257-.433-1.897-.898-.733-.533-1.439-1.13-1.968-1.926-.536-.806-.874-1.789-.921-3.067-.06-1.636.454-2.869 1.268-3.79.803-.907 1.872-1.484 2.884-1.876.765-.297 1.485-.461 2.214-.372zM19.332-.485c.43-.065 1.182.066 2.182.376.973.3 2.098.743 3.228 1.222.922.39 1.838.801 2.673 1.175l.003.002.548.245c.961.43 1.798.796 2.326.97.999.33 1.906.667 2.517 1.063.304.197.496.385.598.558a.612.612 0 0 1 .065.505c-.067.245-.229.443-.543.664a8.244 8.244 0 0 1-.77.457c-.156.085-.325.178-.51.285-1.202.692-2.007 1.065-3.611 1.305-1.928.289-3.253.18-5.049-.328-.946-.268-1.51-.819-1.972-1.457a13.543 13.543 0 0 1-.492-.747 37.97 37.97 0 0 0-.169-.268c-.215-.338-.453-.689-.744-.98-1.507-1.514-2.12-2.75-2.113-3.57a1.18 1.18 0 0 1 .407-.918c.281-.249.74-.456 1.426-.559zm11.274 3.04c-.47-.154-1.254-.496-2.232-.933-.177-.079-.36-.16-.547-.245-.835-.374-1.763-.79-2.695-1.185-1.14-.483-2.3-.94-3.322-1.257-.994-.307-1.947-.511-2.627-.409-.8.12-1.466.38-1.94.8A2.173 2.173 0 0 0 16.5.982c-.012 1.247.86 2.734 2.404 4.285.21.21.399.481.61.813l.152.24c.163.261.343.548.542.823.54.747 1.273 1.484 2.51 1.833 1.926.544 3.394.666 5.469.355 1.762-.264 2.687-.694 3.961-1.427.14-.08.285-.16.43-.24.33-.181.66-.363.927-.551.41-.288.78-.658.933-1.218a1.61 1.61 0 0 0-.168-1.276c-.212-.36-.546-.65-.916-.89-.734-.476-1.76-.847-2.747-1.173zm-9.092 29.336c-1-.31-1.752-.44-2.182-.376-.686.104-1.145.31-1.426.56a1.175 1.175 0 0 0-.407.916c-.008.822.606 2.057 2.113 3.57.29.293.529.643.744.98l.17.27c.159.254.314.5.491.746.462.638 1.026 1.19 1.973 1.457 1.795.507 3.12.617 5.048.328 1.604-.24 2.41-.613 3.61-1.305.186-.107.355-.2.511-.285.298-.164.548-.3.77-.457.314-.221.476-.419.543-.664a.612.612 0 0 0-.065-.505c-.102-.173-.294-.36-.598-.558-.611-.396-1.518-.733-2.517-1.063-.528-.174-1.365-.54-2.326-.97l-.548-.245-.003-.002c-.835-.374-1.751-.785-2.673-1.175-1.13-.479-2.255-.921-3.228-1.222zm6.86 1.731c.978.437 1.762.779 2.232.934.987.326 2.013.697 2.747 1.173.37.24.704.53.916.89.222.378.295.811.168 1.276-.153.56-.523.93-.933 1.218-.267.188-.597.37-.926.55-.146.08-.291.16-.43.24-1.275.734-2.2 1.164-3.962 1.428-2.075.31-3.543.189-5.468-.355-1.238-.35-1.971-1.086-2.511-1.833a14.122 14.122 0 0 1-.542-.823 38.07 38.07 0 0 0-.152-.24c-.211-.332-.4-.603-.61-.813-1.543-1.55-2.416-3.038-2.404-4.285a2.173 2.173 0 0 1 .744-1.657c.474-.42 1.14-.678 1.94-.799.68-.103 1.633.102 2.627.41 1.021.316 2.182.773 3.322 1.256.932.395 1.86.81 2.695 1.185l.547.245zM-12.667-.484c.43-.065 1.182.066 2.182.376.973.3 2.098.743 3.228 1.222.922.39 1.838.801 2.673 1.175l.551.247c.961.43 1.798.796 2.326.97.999.33 1.906.667 2.517 1.063.304.197.496.385.598.558a.612.612 0 0 1 .065.505c-.067.245-.229.443-.543.664a8.236 8.236 0 0 1-.77.457c-.156.085-.325.178-.51.285-1.202.692-2.007 1.065-3.611 1.305-1.928.289-3.253.18-5.048-.328-.947-.268-1.511-.819-1.973-1.457a13.543 13.543 0 0 1-.492-.747 37.97 37.97 0 0 0-.169-.268c-.215-.338-.453-.689-.744-.98-1.507-1.514-2.12-2.75-2.113-3.57a1.18 1.18 0 0 1 .407-.918c.281-.249.74-.456 1.426-.559zm11.274 3.04c-.47-.154-1.254-.496-2.232-.933-.177-.079-.36-.16-.547-.245-.835-.374-1.763-.79-2.695-1.185-1.14-.483-2.3-.94-3.322-1.257-.994-.307-1.947-.511-2.627-.409-.8.12-1.466.38-1.94.8A2.173 2.173 0 0 0-15.5.982c-.012 1.247.86 2.734 2.404 4.285.21.21.399.481.61.813l.152.24c.163.261.343.548.542.823.54.747 1.273 1.484 2.51 1.833 1.926.544 3.394.666 5.469.355 1.762-.264 2.687-.694 3.962-1.427.139-.08.284-.16.43-.24.329-.181.659-.363.926-.551.41-.288.78-.658.933-1.218A1.61 1.61 0 0 0 2.27 4.62c-.212-.36-.546-.65-.916-.89-.734-.476-1.76-.847-2.747-1.173z"
      fill="#000"
    />
  </g>
  <g clip-path="url(#b)">
    <path
      fill-rule="evenodd"
      clip-rule="evenodd"
      d="M4.564 27.512c-.572-.043-1.179.032-1.916.207-.353.084-.73.161-1.117.24-.809.166-1.659.34-2.411.6-.547.191-.977.409-1.257.66-.264.235-.38.483-.361.787.009.144.015.277.022.402v.001c.011.224.022.421.039.61.026.288.064.507.13.69.116.32.346.609 1.012.906.574.255 1.782.538 3.051.715a17.39 17.39 0 0 0 1.798.164c.557.019.998-.008 1.277-.074 1.044-.246 1.565-.621 2.386-1.366.132-.12.252-.225.362-.321.525-.46.803-.703.898-1.248.09-.518-.085-.927-.466-1.317-.402-.411-1.002-.764-1.687-1.12-.636-.332-1.194-.493-1.76-.536zm.075-.997c.72.054 1.409.26 2.147.645.684.356 1.415.772 1.94 1.308.545.558.894 1.276.736 2.187-.16.923-.742 1.422-1.285 1.888-.098.084-.195.167-.288.251-.884.802-1.554 1.299-2.828 1.6-.41.097-.959.119-1.54.1a18.5 18.5 0 0 1-1.903-.173c-1.287-.18-2.611-.477-3.32-.793-.837-.372-1.31-.833-1.545-1.479a3.72 3.72 0 0 1-.186-.94c-.019-.207-.03-.438-.043-.675l-.02-.368c-.04-.67.25-1.197.692-1.593.426-.38 1.001-.651 1.596-.858.815-.283 1.789-.483 2.628-.655.366-.075.706-.144.996-.213.791-.189 1.51-.286 2.223-.232zm4.492 9.283c.921-.238 1.684-.34 2.406-.282.716.06 1.421.28 2.223.733.849.48 1.61.965 2.127 1.537.497.552.75 1.164.625 1.95-.129.807-.525 1.182-1.18 1.803-.135.127-.28.265-.437.419-1.03 1.015-1.695 1.534-3.013 1.872-.813.208-1.476.266-2.113.19-.639-.074-1.28-.286-2.046-.656-1.864-.9-3.12-1.812-3.218-3.578-.061-1.105.441-1.919 1.293-2.56.871-.655 2.082-1.105 3.333-1.428zm5.12-.42c-.906-.512-1.75-.786-2.632-.858-.877-.072-1.76.057-2.738.31-1.293.334-2.655.823-3.684 1.597-1.05.79-1.775 1.898-1.69 3.415.132 2.38 1.907 3.517 3.781 4.422.827.4 1.58.658 2.364.75.787.092 1.578.015 2.478-.216 1.563-.4 2.378-1.056 3.467-2.128.122-.12.246-.236.37-.352.676-.63 1.346-1.256 1.533-2.425.182-1.143-.215-2.05-.87-2.776-.636-.705-1.527-1.257-2.378-1.738zm2.34 18.114c.729-.136 1.39-.344 1.998-.559.223-.078.435-.156.64-.23a24.34 24.34 0 0 1 1.063-.372c1.058-.332 2.003-.46 3.094-.016 1.242.505 2.383 1.024 3.159 1.642.76.606 1.078 1.226.911 1.974-.107.481-.36.829-.758 1.173-.283.245-.603.46-.979.714-.193.13-.401.272-.627.43-1.507 1.068-2.518 1.642-4.521 2.011-2.405.443-4.058.275-6.3-.504-1.367-.475-2.628-.96-3.523-1.575-.884-.607-1.315-1.267-1.241-2.096.12-1.352.405-2.059.732-2.428.301-.338.704-.464 1.303-.456.442.006.918.08 1.468.167.237.038.489.077.757.114.855.118 1.819.197 2.824.01zm7.172-2.103c-1.397-.567-2.605-.378-3.77-.012-.372.117-.757.258-1.14.398-.2.073-.4.146-.596.215-.588.207-1.193.397-1.848.518-.847.157-1.685.096-2.505-.018-.217-.03-.44-.064-.662-.1-.582-.09-1.169-.183-1.686-.19-.749-.01-1.493.15-2.065.792-.544.613-.855 1.586-.98 3.004-.12 1.338.638 2.3 1.67 3.008 1.022.701 2.406 1.225 3.762 1.696 2.395.832 4.223 1.019 6.809.543 2.193-.404 3.338-1.06 4.918-2.178.179-.126.363-.25.545-.374.407-.276.809-.547 1.137-.83.504-.437.913-.96 1.08-1.713.283-1.27-.346-2.241-1.264-2.973-.903-.72-2.171-1.284-3.405-1.786zm-.752-8.879c-.323-.036-.683.024-1.158.192-.663.233-2.07.807-3.291 1.55-.612.372-1.154.773-1.533 1.179-.387.414-.541.765-.53 1.049l.016.402c.02.577.034.98.118 1.32.087.357.247.62.642.88a.472.472 0 0 0 .07.027c.05.016.115.03.2.042.173.023.395.032.66.027A15.57 15.57 0 0 0 20.051 49c1.343-.197 2.666-.501 3.08-.646.628-.22.95-.549 1.503-1.292.085-.115.164-.217.236-.31l.001-.001c.347-.448.544-.704.612-1.281.131-1.122-.516-1.78-1.419-2.478-.406-.313-.737-.447-1.053-.482zm.111-.994c.542.061 1.042.29 1.553.685.921.711 2 1.68 1.801 3.385-.102.872-.477 1.35-.843 1.817-.067.085-.133.17-.197.255-.584.786-1.056 1.318-1.974 1.64-.506.176-1.903.491-3.265.692-.686.1-1.383.175-1.972.188a5.352 5.352 0 0 1-.815-.036c-.229-.032-.483-.092-.685-.225-.608-.4-.917-.878-1.064-1.477-.11-.45-.128-.981-.148-1.56a55.926 55.926 0 0 0-.013-.36c-.027-.677.34-1.28.798-1.772.467-.5 1.096-.956 1.744-1.35 1.3-.791 2.775-1.392 3.478-1.64.545-.191 1.068-.302 1.602-.242zM2.648 59.72c.737-.175 1.344-.25 1.916-.207.566.043 1.124.204 1.76.535.685.357 1.285.71 1.687 1.12.381.39.555.8.466 1.318-.095.545-.373.788-.898 1.248-.11.096-.23.201-.362.32-.82.746-1.342 1.12-2.386 1.368-.279.065-.72.091-1.277.073a17.507 17.507 0 0 1-1.797-.164c-1.27-.177-2.478-.46-3.052-.715-.666-.297-.896-.586-1.012-.907a2.754 2.754 0 0 1-.13-.689 17.083 17.083 0 0 1-.04-.61c-.006-.125-.012-.258-.021-.403-.018-.304.097-.552.36-.788.281-.25.711-.468 1.258-.658.752-.262 1.602-.435 2.41-.6.388-.08.765-.157 1.118-.24zm4.138-.559c-.738-.385-1.427-.59-2.147-.645-.714-.054-1.432.043-2.223.231-.29.07-.63.14-.996.214-.84.172-1.813.372-2.628.655-.595.207-1.17.477-1.596.858-.442.396-.733.924-.692 1.593l.02.367c.012.238.024.469.043.676.029.321.077.64.186.94.234.646.708 1.106 1.546 1.48.708.315 2.032.612 3.32.792a18.5 18.5 0 0 0 1.902.173c.581.019 1.13-.003 1.54-.1 1.274-.301 1.944-.798 2.828-1.6.093-.084.19-.167.288-.251.543-.466 1.125-.965 1.285-1.888.158-.911-.191-1.63-.737-2.187-.524-.536-1.255-.952-1.939-1.308zm27.861.56c.738-.176 1.345-.251 1.917-.208.566.043 1.124.204 1.76.535.685.357 1.285.71 1.687 1.12.381.39.555.8.466 1.318-.095.545-.373.788-.898 1.248-.11.096-.23.201-.362.32-.82.746-1.342 1.12-2.386 1.368-.279.065-.72.091-1.277.073a17.507 17.507 0 0 1-1.797-.164c-1.27-.177-2.478-.46-3.052-.715-.666-.297-.896-.586-1.012-.907a2.757 2.757 0 0 1-.13-.689 16.22 16.22 0 0 1-.04-.609 44.805 44.805 0 0 0-.021-.404c-.018-.304.097-.552.36-.788.281-.25.711-.468 1.258-.658.752-.262 1.602-.435 2.41-.6.388-.08.765-.157 1.117-.24zm4.14-.56c-.74-.385-1.428-.59-2.148-.645-.714-.054-1.432.043-2.223.231-.29.07-.63.14-.996.214-.84.172-1.813.372-2.628.655-.595.207-1.17.477-1.596.858-.442.396-.733.924-.692 1.593l.02.367c.012.238.024.469.043.676.029.321.077.64.186.94.235.646.709 1.106 1.546 1.48.707.315 2.032.612 3.32.792.652.09 1.312.154 1.903.173.58.019 1.128-.003 1.539-.1 1.274-.301 1.944-.798 2.828-1.6.093-.084.19-.167.288-.251.543-.466 1.125-.965 1.285-1.888.158-.911-.191-1.63-.737-2.187-.525-.536-1.255-.952-1.939-1.308zm-2.223-31.648c-.572-.043-1.179.032-1.916.207-.353.084-.73.161-1.117.24-.809.166-1.659.34-2.411.6-.547.191-.977.409-1.257.66-.264.235-.38.483-.361.787.009.145.015.278.022.403.011.224.022.421.039.61.026.288.064.507.13.69.116.32.346.609 1.012.906.574.255 1.782.538 3.052.715.626.087 1.25.147 1.797.164.557.019.998-.008 1.277-.074 1.044-.246 1.565-.621 2.386-1.366.132-.12.252-.225.362-.321.525-.46.803-.703.898-1.248.09-.518-.085-.927-.466-1.317-.402-.411-1.002-.764-1.687-1.12-.636-.332-1.194-.493-1.76-.536zm.075-.997c.72.054 1.408.26 2.147.645.684.356 1.414.772 1.94 1.308.545.558.894 1.276.736 2.187-.16.923-.742 1.422-1.285 1.888a13.92 13.92 0 0 0-.288.251c-.884.802-1.554 1.299-2.828 1.6-.41.097-.959.119-1.54.1-.59-.02-1.25-.083-1.903-.173-1.287-.18-2.612-.477-3.32-.793-.836-.372-1.31-.833-1.545-1.479a3.723 3.723 0 0 1-.186-.94c-.019-.207-.03-.437-.043-.675a40.809 40.809 0 0 0-.02-.368c-.04-.67.25-1.197.692-1.593.425-.38 1.001-.651 1.596-.858.815-.283 1.789-.483 2.628-.655.366-.075.706-.144.996-.213.791-.189 1.51-.286 2.223-.232zM2.02 45.828c.691-.268 1.233-.372 1.73-.311.488.06.994.289 1.598.802 1.283 1.089 2.334 2.217 2.127 4.172-.107 1-.438 1.47-.94 2.182-.102.145-.211.3-.327.47-.8 1.185-1.296 1.75-2.25 2.116-.597.23-1.06.285-1.492.209-.44-.078-.904-.301-1.484-.722-.699-.508-1.291-1.021-1.723-1.67-.425-.641-.713-1.442-.754-2.55-.051-1.384.376-2.365 1.018-3.091.655-.74 1.559-1.243 2.496-1.607zm3.975-.272c-.705-.599-1.387-.94-2.123-1.031-.73-.09-1.45.074-2.214.37-1.012.393-2.08.97-2.884 1.877-.814.921-1.329 2.154-1.268 3.79.047 1.279.385 2.26.92 3.067.53.797 1.235 1.393 1.969 1.926.64.465 1.246.782 1.897.897.659.117 1.31.016 2.026-.26 1.255-.483 1.895-1.271 2.719-2.49.097-.143.195-.28.292-.417.52-.732 1.004-1.414 1.14-2.688.264-2.487-1.15-3.916-2.474-5.04zm29.754-.039c-.496-.061-1.038.043-1.73.311-.938.364-1.841.867-2.496 1.607-.642.726-1.07 1.707-1.018 3.09.041 1.109.329 1.91.754 2.55.432.65 1.024 1.163 1.723 1.67.58.422 1.043.645 1.484.723.432.076.895.021 1.493-.209.953-.367 1.448-.931 2.25-2.116.115-.17.224-.325.325-.47.503-.711.834-1.181.94-2.182.208-1.955-.843-3.083-2.126-4.172-.604-.513-1.11-.742-1.599-.802zm.123-.992c.736.09 1.418.432 2.123 1.032 1.324 1.123 2.738 2.553 2.474 5.04-.136 1.274-.62 1.956-1.14 2.688-.097.136-.195.274-.292.418-.824 1.218-1.464 2.006-2.719 2.49-.716.275-1.367.376-2.026.26-.65-.116-1.257-.433-1.897-.898-.733-.533-1.439-1.13-1.968-1.926-.536-.806-.874-1.788-.921-3.067-.06-1.636.454-2.869 1.268-3.79.803-.907 1.872-1.484 2.884-1.876.765-.297 1.485-.461 2.214-.371zm-16.54-13.009c.43-.065 1.182.066 2.182.376.973.3 2.098.743 3.228 1.222.922.39 1.838.801 2.673 1.175l.003.002.548.245c.961.43 1.798.796 2.326.97.999.33 1.906.667 2.517 1.063.304.197.496.385.598.558a.612.612 0 0 1 .065.505c-.067.245-.229.443-.543.664a8.256 8.256 0 0 1-.77.457c-.156.085-.325.178-.51.285-1.202.692-2.007 1.065-3.611 1.305-1.928.289-3.253.18-5.049-.328-.946-.268-1.51-.819-1.972-1.457a13.543 13.543 0 0 1-.492-.747 36.857 36.857 0 0 0-.169-.268c-.215-.338-.453-.688-.744-.98-1.507-1.514-2.12-2.75-2.113-3.57a1.18 1.18 0 0 1 .407-.918c.281-.249.74-.456 1.426-.559zm11.274 3.04c-.47-.154-1.254-.496-2.232-.933-.177-.079-.36-.16-.547-.245-.835-.374-1.763-.79-2.695-1.185-1.14-.483-2.3-.94-3.322-1.257-.994-.307-1.947-.512-2.627-.409-.8.12-1.466.38-1.94.8a2.173 2.173 0 0 0-.744 1.656c-.012 1.247.86 2.734 2.404 4.285.21.21.399.481.61.813l.152.24c.163.261.343.549.542.823.54.747 1.273 1.483 2.51 1.833 1.926.544 3.394.666 5.469.355 1.762-.264 2.687-.694 3.961-1.427.14-.08.285-.16.43-.24.33-.181.66-.363.927-.551.41-.288.78-.658.933-1.218a1.61 1.61 0 0 0-.168-1.276c-.212-.36-.546-.65-.916-.89-.734-.476-1.76-.847-2.747-1.173zm-9.092 29.336c-1-.31-1.752-.44-2.182-.376-.686.104-1.145.31-1.426.56a1.175 1.175 0 0 0-.407.916c-.008.822.606 2.057 2.113 3.57.29.293.529.643.744.98l.17.27c.159.254.314.5.491.746.462.638 1.026 1.19 1.973 1.457 1.795.507 3.12.617 5.048.328 1.604-.24 2.41-.613 3.61-1.305.186-.107.355-.2.511-.285.298-.164.548-.3.77-.457.314-.221.476-.419.543-.664a.612.612 0 0 0-.065-.505c-.102-.173-.294-.36-.598-.557-.611-.397-1.518-.734-2.517-1.064-.528-.174-1.365-.54-2.326-.97l-.548-.245-.003-.002c-.835-.374-1.751-.785-2.673-1.175-1.13-.479-2.255-.921-3.228-1.222zm6.86 1.731c.978.437 1.762.779 2.232.934.987.326 2.013.697 2.747 1.173.37.24.704.53.916.89.222.378.295.811.168 1.275-.153.56-.523.93-.933 1.219-.267.188-.597.37-.926.55-.146.08-.291.16-.43.24-1.275.734-2.2 1.164-3.962 1.428-2.075.31-3.543.189-5.468-.355-1.238-.35-1.971-1.086-2.511-1.833a14.469 14.469 0 0 1-.542-.823 38.07 38.07 0 0 0-.152-.24c-.211-.332-.4-.603-.61-.813-1.543-1.55-2.416-3.038-2.404-4.285a2.173 2.173 0 0 1 .744-1.657c.474-.42 1.14-.678 1.94-.799.68-.102 1.633.102 2.627.41 1.021.316 2.182.773 3.322 1.256.932.395 1.86.81 2.695 1.185l.547.245zm-41.042-34.107c.43-.065 1.182.066 2.182.376.973.3 2.098.743 3.228 1.222.922.39 1.838.801 2.673 1.175a459 459 0 0 0 .551.247c.961.43 1.798.796 2.326.97.999.33 1.906.667 2.517 1.063.304.197.496.385.598.558a.612.612 0 0 1 .065.505c-.067.245-.229.443-.543.664a8.247 8.247 0 0 1-.77.457c-.156.085-.325.178-.51.285-1.202.692-2.007 1.065-3.611 1.305-1.928.289-3.253.18-5.048-.328-.947-.268-1.511-.819-1.973-1.457a13.543 13.543 0 0 1-.492-.747 36.857 36.857 0 0 0-.169-.268c-.215-.338-.453-.688-.744-.98-1.507-1.514-2.12-2.75-2.113-3.57a1.18 1.18 0 0 1 .407-.918c.281-.249.74-.456 1.426-.559zm11.274 3.04c-.47-.154-1.254-.496-2.232-.933-.177-.079-.36-.16-.547-.245-.835-.374-1.763-.79-2.695-1.185-1.14-.483-2.3-.94-3.322-1.257-.994-.307-1.947-.512-2.627-.409-.8.12-1.466.38-1.94.8a2.173 2.173 0 0 0-.744 1.656c-.012 1.247.86 2.734 2.404 4.285.21.21.399.481.61.813l.152.24c.163.261.343.549.542.823.54.747 1.273 1.483 2.51 1.833 1.926.544 3.394.666 5.469.355 1.762-.264 2.687-.694 3.962-1.427.139-.08.284-.16.43-.24.329-.181.659-.363.926-.551.41-.288.78-.658.933-1.218a1.61 1.61 0 0 0-.168-1.276c-.212-.36-.546-.65-.916-.89-.734-.476-1.76-.847-2.747-1.173z"
      fill="#000"
    />
  </g>
  <g clip-path="url(#c)">
    <path
      fill-rule="evenodd"
      clip-rule="evenodd"
      d="M36.564-4.488c-.572-.043-1.179.032-1.916.207-.353.084-.73.161-1.117.24-.809.166-1.659.34-2.411.6-.547.191-.977.408-1.257.66-.264.235-.38.483-.361.787.009.144.015.277.022.402v.001c.011.224.022.421.039.61.026.288.064.507.13.69.116.32.346.609 1.012.906.574.255 1.782.538 3.052.715.626.087 1.25.147 1.797.164.557.018.998-.008 1.277-.074 1.044-.246 1.565-.62 2.386-1.366.132-.12.252-.225.362-.321.525-.46.803-.703.898-1.248.09-.518-.085-.927-.466-1.317-.402-.411-1.002-.764-1.687-1.12-.636-.332-1.194-.493-1.76-.536zm.075-.997c.72.054 1.408.26 2.147.645.684.356 1.414.772 1.94 1.308.545.558.894 1.276.736 2.187-.16.923-.742 1.422-1.285 1.888-.098.084-.195.167-.288.251-.884.802-1.554 1.299-2.828 1.6-.41.097-.959.119-1.54.1a18.49 18.49 0 0 1-1.903-.173c-1.287-.18-2.612-.477-3.32-.793-.836-.373-1.31-.833-1.545-1.479a3.723 3.723 0 0 1-.186-.94c-.019-.207-.03-.438-.043-.675a40.807 40.807 0 0 0-.02-.368c-.04-.67.25-1.197.692-1.593.425-.38 1.001-.651 1.596-.858.815-.283 1.789-.483 2.628-.655.366-.075.706-.144.996-.213.791-.189 1.51-.286 2.223-.232zm4.492 9.283c.921-.238 1.684-.34 2.406-.282.716.06 1.421.28 2.223.733.849.48 1.61.965 2.127 1.537.497.552.75 1.165.625 1.95-.129.807-.525 1.182-1.18 1.803-.135.127-.28.265-.437.419-1.03 1.015-1.695 1.534-3.013 1.872-.813.208-1.476.266-2.113.19-.639-.074-1.28-.286-2.046-.656-1.864-.9-3.12-1.812-3.218-3.578-.062-1.105.441-1.919 1.293-2.56.871-.655 2.082-1.105 3.333-1.428zm5.12-.42c-.906-.512-1.75-.786-2.632-.858-.877-.072-1.76.057-2.738.31-1.293.334-2.655.823-3.684 1.597-1.05.79-1.775 1.898-1.69 3.415.132 2.38 1.907 3.517 3.781 4.422.827.4 1.58.658 2.364.75.787.093 1.578.015 2.478-.215 1.563-.401 2.378-1.057 3.467-2.129.121-.12.246-.236.37-.352.676-.63 1.346-1.256 1.532-2.425.183-1.143-.214-2.05-.869-2.776-.636-.705-1.527-1.257-2.378-1.738zm2.34 18.113c.729-.135 1.39-.343 1.998-.558.223-.078.435-.156.64-.23a24.34 24.34 0 0 1 1.063-.372c1.058-.332 2.003-.46 3.094-.015 1.242.504 2.383 1.023 3.158 1.641.76.606 1.079 1.226.912 1.974-.107.481-.36.829-.758 1.173-.283.245-.603.46-.979.714-.193.13-.401.271-.627.43-1.507 1.067-2.518 1.642-4.521 2.011-2.404.443-4.058.275-6.3-.504-1.367-.475-2.628-.96-3.523-1.575-.884-.607-1.315-1.267-1.241-2.096.12-1.352.405-2.059.732-2.428.301-.338.704-.464 1.303-.456.442.006.918.08 1.468.167.237.038.489.077.757.114.855.118 1.819.197 2.824.01zm7.172-2.102c-1.397-.567-2.605-.378-3.77-.012-.372.117-.757.258-1.14.398-.2.073-.4.146-.596.215-.588.207-1.193.397-1.848.518-.847.158-1.685.096-2.505-.017-.218-.03-.44-.065-.662-.1-.582-.092-1.169-.184-1.686-.19-.749-.011-1.493.148-2.064.791-.545.613-.856 1.586-.982 3.004-.118 1.338.639 2.3 1.672 3.008 1.02.701 2.405 1.225 3.76 1.696 2.396.832 4.224 1.019 6.81.543 2.193-.404 3.338-1.06 4.918-2.178.179-.126.363-.25.545-.374.407-.275.809-.547 1.137-.83.504-.437.913-.96 1.08-1.713.283-1.27-.346-2.241-1.264-2.973-.903-.72-2.171-1.285-3.405-1.786zm-.752-8.879c-.323-.036-.683.024-1.158.192-.663.233-2.07.807-3.291 1.55-.612.372-1.154.773-1.533 1.179-.387.414-.541.765-.53 1.049l.016.402c.02.577.035.98.118 1.32.087.357.247.62.642.88l.017.009.054.02c.048.014.114.028.2.04.172.023.394.032.659.027A15.57 15.57 0 0 0 52.051 17c1.343-.197 2.666-.501 3.08-.646.628-.22.95-.549 1.503-1.292.085-.115.164-.217.236-.31l.001-.001c.347-.448.544-.704.612-1.281.131-1.122-.516-1.78-1.419-2.478-.406-.313-.737-.447-1.053-.482zm.111-.994c.542.061 1.042.29 1.553.685.921.711 2 1.68 1.801 3.385-.102.872-.477 1.35-.843 1.817-.067.085-.133.17-.197.255-.584.786-1.056 1.318-1.974 1.64-.506.176-1.903.491-3.265.692-.686.1-1.384.175-1.972.188a5.352 5.352 0 0 1-.815-.037c-.229-.03-.483-.09-.685-.224-.608-.4-.917-.878-1.064-1.477-.11-.45-.128-.982-.148-1.56a55.926 55.926 0 0 0-.013-.36c-.027-.677.34-1.28.798-1.772.467-.5 1.096-.956 1.744-1.35 1.3-.791 2.776-1.392 3.478-1.64.545-.191 1.068-.302 1.602-.242zM34.648 27.72c.737-.175 1.344-.25 1.916-.207.566.043 1.124.204 1.76.535.685.357 1.285.71 1.687 1.12.381.39.555.8.466 1.318-.095.545-.373.788-.898 1.248-.11.096-.23.201-.362.32-.82.746-1.342 1.12-2.386 1.367-.279.066-.72.093-1.277.074a17.507 17.507 0 0 1-1.797-.164c-1.27-.177-2.478-.46-3.052-.715-.666-.297-.896-.586-1.012-.907a2.757 2.757 0 0 1-.13-.689 17.083 17.083 0 0 1-.04-.61 44.78 44.78 0 0 0-.021-.403c-.018-.304.097-.552.36-.788.281-.25.711-.468 1.258-.658.752-.262 1.602-.435 2.41-.6.388-.08.765-.157 1.117-.24zm4.138-.559c-.739-.385-1.427-.59-2.147-.645-.714-.054-1.432.043-2.223.232-.29.069-.63.138-.996.213-.84.172-1.813.372-2.628.655-.595.207-1.17.477-1.596.858-.442.396-.733.924-.692 1.593l.02.367c.012.238.024.469.043.676.029.321.077.64.186.94.235.646.709 1.107 1.546 1.48.707.315 2.032.612 3.32.792.652.09 1.312.154 1.903.173.58.019 1.128-.003 1.539-.1 1.274-.301 1.944-.798 2.828-1.6.093-.084.19-.167.288-.251.543-.466 1.125-.965 1.285-1.888.158-.911-.191-1.63-.737-2.187-.525-.536-1.255-.952-1.939-1.308zm27.861.56c.738-.176 1.345-.251 1.917-.208.566.043 1.124.204 1.76.535.685.357 1.285.71 1.687 1.12.381.39.555.8.466 1.318-.095.545-.373.788-.898 1.248-.11.096-.23.201-.362.32-.82.746-1.342 1.12-2.386 1.367-.279.066-.72.093-1.277.074a17.507 17.507 0 0 1-1.797-.164c-1.27-.177-2.479-.46-3.052-.715-.666-.297-.896-.586-1.012-.907a2.757 2.757 0 0 1-.13-.689 16.22 16.22 0 0 1-.04-.609 44.805 44.805 0 0 0-.021-.404c-.018-.304.097-.552.36-.788.281-.25.711-.468 1.258-.658.752-.262 1.602-.435 2.41-.6.388-.08.765-.157 1.117-.24zm4.14-.56c-.74-.385-1.428-.59-2.148-.645-.714-.054-1.432.043-2.223.232-.29.069-.63.138-.996.213-.84.172-1.813.372-2.628.655-.595.207-1.17.477-1.596.858-.442.396-.733.924-.692 1.593l.02.367c.012.238.024.469.043.676.029.321.077.64.186.94.234.646.709 1.107 1.546 1.48.708.315 2.032.612 3.32.792.652.09 1.312.154 1.903.173.58.019 1.128-.003 1.539-.1 1.274-.301 1.944-.798 2.828-1.6.093-.084.19-.167.288-.251.543-.466 1.125-.965 1.285-1.888.158-.911-.191-1.63-.737-2.187-.524-.536-1.255-.952-1.939-1.308zM68.563-4.488c-.572-.043-1.179.032-1.916.207-.353.084-.73.161-1.117.24-.809.166-1.659.34-2.411.6-.547.191-.977.408-1.257.66-.264.235-.38.483-.361.787.009.145.015.278.022.403.011.224.022.421.039.61.026.288.064.507.13.69.116.32.346.609 1.012.906.574.255 1.782.538 3.052.715.626.087 1.25.147 1.797.164.557.018.998-.008 1.277-.074 1.045-.246 1.566-.62 2.387-1.366.132-.12.252-.225.362-.321.525-.46.803-.703.898-1.248.09-.518-.085-.927-.466-1.317-.402-.411-1.002-.764-1.687-1.12-.636-.332-1.194-.493-1.76-.536zm.075-.997c.72.054 1.409.26 2.147.645.684.356 1.415.772 1.94 1.308.545.558.894 1.276.736 2.187-.16.923-.742 1.422-1.285 1.888-.098.084-.195.167-.288.251-.884.802-1.554 1.299-2.828 1.6-.41.097-.959.119-1.54.1a18.49 18.49 0 0 1-1.903-.173c-1.287-.18-2.611-.477-3.32-.793-.837-.373-1.31-.833-1.545-1.479a3.723 3.723 0 0 1-.186-.94c-.019-.207-.03-.437-.043-.675a40.843 40.843 0 0 0-.02-.368c-.04-.67.25-1.197.692-1.593.425-.38 1.001-.651 1.596-.858.815-.283 1.789-.483 2.628-.655.366-.075.706-.144.996-.213.791-.189 1.51-.286 2.223-.232zM34.02 13.828c.691-.268 1.233-.372 1.73-.311.488.06.994.289 1.598.802 1.283 1.089 2.334 2.217 2.127 4.172-.107 1-.438 1.47-.94 2.183-.102.144-.211.298-.327.469-.8 1.185-1.296 1.75-2.25 2.116-.596.23-1.06.285-1.492.209-.44-.078-.904-.301-1.484-.722-.699-.508-1.291-1.021-1.723-1.67-.425-.641-.713-1.442-.754-2.55-.051-1.384.376-2.365 1.018-3.091.655-.74 1.559-1.243 2.496-1.607zm3.976-.271c-.706-.6-1.388-.942-2.124-1.033-.73-.09-1.45.075-2.214.372-1.012.392-2.08.97-2.884 1.876-.814.921-1.329 2.154-1.268 3.79.047 1.278.385 2.26.92 3.067.53.797 1.235 1.393 1.969 1.926.64.465 1.246.782 1.897.897.659.117 1.31.016 2.026-.26 1.255-.483 1.895-1.271 2.719-2.49.097-.143.195-.28.292-.417.52-.732 1.004-1.414 1.14-2.688.264-2.487-1.15-3.917-2.474-5.04zm29.753-.04c-.496-.061-1.038.043-1.73.311-.938.364-1.841.867-2.496 1.607-.642.726-1.07 1.707-1.018 3.09.041 1.109.329 1.91.754 2.55.432.65 1.024 1.163 1.723 1.67.58.422 1.043.645 1.484.723.432.076.895.021 1.493-.209.953-.367 1.448-.931 2.25-2.116.115-.17.224-.325.325-.47.503-.711.834-1.181.94-2.182.208-1.954-.843-3.083-2.126-4.172-.604-.513-1.11-.742-1.599-.802zm.123-.992c.736.09 1.418.432 2.124 1.031 1.323 1.125 2.737 2.554 2.473 5.04-.136 1.275-.62 1.957-1.14 2.689-.097.136-.195.274-.292.418-.824 1.218-1.464 2.006-2.719 2.49-.716.275-1.367.376-2.026.26-.65-.116-1.257-.433-1.897-.898-.734-.533-1.439-1.13-1.969-1.926-.535-.806-.873-1.789-.92-3.067-.06-1.636.454-2.869 1.268-3.79.803-.907 1.872-1.484 2.884-1.876.764-.297 1.485-.461 2.214-.372zM51.333-.485c.43-.065 1.182.066 2.182.376.974.3 2.098.743 3.228 1.222.922.39 1.838.801 2.673 1.175l.003.002.548.245c.961.43 1.797.796 2.326.97.999.33 1.906.667 2.517 1.063.304.197.496.385.598.558a.612.612 0 0 1 .065.505c-.067.245-.229.443-.543.664a8.244 8.244 0 0 1-.77.457c-.156.085-.325.178-.51.285-1.202.692-2.007 1.065-3.611 1.305-1.928.289-3.253.18-5.049-.328-.946-.268-1.51-.819-1.972-1.457a13.543 13.543 0 0 1-.492-.747 37.97 37.97 0 0 0-.169-.268c-.215-.338-.453-.689-.744-.98-1.507-1.514-2.12-2.75-2.113-3.57a1.18 1.18 0 0 1 .407-.918c.281-.249.74-.456 1.426-.559zm11.274 3.04c-.47-.154-1.254-.496-2.232-.933-.177-.079-.36-.16-.547-.245-.835-.374-1.763-.79-2.695-1.185-1.14-.483-2.3-.94-3.322-1.257-.994-.307-1.947-.511-2.627-.409-.8.12-1.466.38-1.94.8A2.173 2.173 0 0 0 48.5.982c-.012 1.247.86 2.734 2.404 4.285.21.21.399.481.61.813.049.076.1.157.151.24.164.261.344.548.543.823.54.747 1.273 1.484 2.51 1.833 1.926.544 3.394.666 5.469.355 1.762-.264 2.687-.694 3.962-1.427.139-.08.284-.16.43-.24.329-.181.659-.363.926-.551.41-.288.78-.658.933-1.218a1.61 1.61 0 0 0-.168-1.276c-.212-.36-.546-.65-.916-.89-.734-.476-1.76-.847-2.747-1.173zm-9.092 29.336c-1-.31-1.752-.44-2.182-.376-.686.104-1.145.31-1.426.56a1.175 1.175 0 0 0-.407.916c-.008.822.606 2.057 2.113 3.57.29.293.529.643.744.98l.17.27c.159.254.314.5.491.746.462.638 1.026 1.19 1.972 1.457 1.796.507 3.121.617 5.049.328 1.604-.24 2.41-.613 3.61-1.305.186-.107.355-.2.511-.285.298-.164.548-.3.77-.457.314-.221.476-.419.543-.664a.612.612 0 0 0-.065-.505c-.102-.173-.294-.36-.598-.558-.611-.396-1.518-.733-2.517-1.063-.529-.174-1.365-.54-2.326-.97l-.548-.245-.003-.002c-.835-.374-1.751-.785-2.673-1.175-1.13-.479-2.255-.921-3.228-1.222zm6.86 1.731c.978.437 1.762.779 2.232.934.987.326 2.013.697 2.747 1.173.37.24.704.53.916.89.222.378.295.811.168 1.276-.153.56-.523.93-.933 1.218-.267.188-.597.37-.926.55-.146.08-.291.16-.43.24-1.275.734-2.2 1.164-3.962 1.428-2.075.31-3.543.189-5.468-.355-1.238-.35-1.971-1.086-2.511-1.833a14.122 14.122 0 0 1-.542-.823 38.07 38.07 0 0 0-.152-.24c-.211-.332-.4-.603-.61-.813-1.543-1.55-2.416-3.038-2.404-4.285a2.173 2.173 0 0 1 .744-1.657c.474-.42 1.14-.678 1.94-.799.68-.103 1.633.102 2.627.41 1.021.316 2.182.773 3.322 1.256.932.395 1.86.81 2.695 1.185l.547.245zM19.333-.484c.43-.065 1.182.066 2.182.376.973.3 2.098.743 3.228 1.222.922.39 1.838.801 2.673 1.175l.551.247c.961.43 1.798.796 2.326.97.999.33 1.906.667 2.517 1.063.304.197.496.385.598.558a.612.612 0 0 1 .065.505c-.067.245-.229.443-.543.664a8.244 8.244 0 0 1-.77.457c-.156.085-.325.178-.51.285-1.202.692-2.007 1.065-3.611 1.305-1.928.289-3.253.18-5.049-.328-.946-.268-1.51-.819-1.972-1.457a13.543 13.543 0 0 1-.492-.747 37.97 37.97 0 0 0-.169-.268c-.215-.338-.453-.689-.744-.98-1.507-1.514-2.12-2.75-2.113-3.57a1.18 1.18 0 0 1 .407-.918c.281-.249.74-.456 1.426-.559zm11.274 3.04c-.47-.154-1.254-.496-2.232-.933-.177-.079-.36-.16-.547-.245-.835-.374-1.763-.79-2.695-1.185-1.14-.483-2.3-.94-3.322-1.257-.994-.307-1.947-.511-2.627-.409-.8.12-1.466.38-1.94.8A2.173 2.173 0 0 0 16.5.982c-.012 1.247.86 2.734 2.404 4.285.21.21.399.481.61.813l.152.24c.163.261.343.548.542.823.54.747 1.273 1.484 2.51 1.833 1.926.544 3.394.666 5.469.355 1.762-.264 2.687-.694 3.961-1.427.14-.08.285-.16.43-.24.33-.181.66-.363.927-.551.41-.288.78-.658.933-1.218a1.61 1.61 0 0 0-.168-1.276c-.212-.36-.546-.65-.916-.89-.734-.476-1.76-.847-2.747-1.173z"
      fill="#000"
    />
  </g>
  <g clip-path="url(#d)">
    <path
      fill-rule="evenodd"
      clip-rule="evenodd"
      d="M36.564 27.512c-.572-.043-1.179.032-1.916.207-.353.084-.73.161-1.117.24-.809.166-1.659.34-2.411.6-.547.191-.977.409-1.257.66-.264.235-.38.483-.361.787.009.144.015.277.022.402v.001c.011.224.022.421.039.61.026.288.064.507.13.69.116.32.346.609 1.012.906.574.255 1.782.538 3.052.715.626.087 1.25.147 1.797.164.557.019.998-.008 1.277-.074 1.044-.246 1.565-.621 2.386-1.366.132-.12.252-.225.362-.321.525-.46.803-.703.898-1.248.09-.518-.085-.927-.466-1.317-.402-.411-1.002-.764-1.687-1.12-.636-.332-1.194-.493-1.76-.536zm.075-.997c.72.054 1.408.26 2.147.645.684.356 1.414.772 1.94 1.308.545.558.894 1.276.736 2.187-.16.923-.742 1.422-1.285 1.888-.098.084-.195.167-.288.251-.884.802-1.554 1.299-2.828 1.6-.41.097-.959.119-1.54.1-.59-.02-1.25-.083-1.903-.173-1.287-.18-2.612-.477-3.32-.793-.836-.372-1.31-.833-1.545-1.479a3.723 3.723 0 0 1-.186-.94c-.019-.207-.03-.438-.043-.675a40.766 40.766 0 0 0-.02-.368c-.04-.67.25-1.197.692-1.593.425-.38 1.001-.651 1.596-.858.815-.283 1.789-.483 2.628-.655.366-.075.706-.144.996-.213.791-.189 1.51-.286 2.223-.232zm4.492 9.283c.921-.238 1.684-.34 2.406-.282.716.06 1.421.28 2.223.733.849.48 1.61.965 2.127 1.537.497.552.75 1.164.625 1.95-.129.807-.525 1.182-1.18 1.803-.135.127-.28.265-.437.419-1.03 1.015-1.695 1.534-3.013 1.872-.813.208-1.476.266-2.113.19-.639-.074-1.28-.286-2.046-.656-1.864-.9-3.12-1.812-3.218-3.578-.062-1.105.441-1.919 1.293-2.56.871-.655 2.082-1.105 3.333-1.428zm5.12-.42c-.906-.512-1.75-.786-2.632-.858-.877-.072-1.76.057-2.738.31-1.293.334-2.655.823-3.684 1.597-1.05.79-1.775 1.898-1.69 3.415.132 2.38 1.907 3.517 3.781 4.422.827.4 1.58.658 2.364.75.787.092 1.578.015 2.478-.216 1.563-.4 2.378-1.056 3.467-2.128.121-.12.246-.236.37-.352.676-.63 1.346-1.256 1.532-2.425.183-1.143-.214-2.05-.869-2.776-.636-.705-1.527-1.257-2.378-1.738zm2.34 18.114c.729-.136 1.39-.344 1.998-.559.223-.078.435-.156.64-.23a24.34 24.34 0 0 1 1.063-.372c1.058-.332 2.003-.46 3.094-.016 1.242.505 2.383 1.024 3.158 1.642.76.606 1.079 1.226.912 1.974-.107.481-.36.829-.758 1.173-.283.245-.603.46-.979.714-.193.13-.401.272-.627.43-1.507 1.068-2.518 1.642-4.521 2.011-2.404.443-4.058.275-6.3-.504-1.367-.475-2.628-.96-3.523-1.575-.884-.607-1.315-1.267-1.241-2.096.12-1.352.405-2.059.732-2.428.301-.338.704-.464 1.303-.456.442.006.918.08 1.468.167.237.038.489.077.757.114.855.118 1.819.197 2.824.01zm7.172-2.103c-1.397-.567-2.605-.378-3.77-.012-.372.117-.757.258-1.14.398-.2.073-.4.146-.596.215-.588.207-1.193.397-1.848.518-.847.157-1.685.096-2.505-.018-.218-.03-.44-.064-.662-.1-.582-.09-1.169-.183-1.686-.19-.749-.01-1.493.15-2.064.792-.545.613-.856 1.586-.982 3.004-.118 1.338.639 2.3 1.672 3.008 1.02.701 2.405 1.225 3.76 1.696 2.396.832 4.224 1.019 6.81.543 2.193-.404 3.338-1.06 4.918-2.178.179-.126.363-.25.545-.374.407-.276.809-.547 1.137-.83.504-.437.913-.96 1.08-1.713.283-1.27-.346-2.241-1.264-2.973-.903-.72-2.171-1.284-3.405-1.786zm-.752-8.879c-.323-.036-.683.024-1.158.192-.663.233-2.07.807-3.291 1.55-.612.372-1.154.773-1.533 1.179-.387.414-.541.765-.53 1.049l.016.402c.02.577.035.98.118 1.32.087.357.247.62.642.88a.472.472 0 0 0 .07.027c.05.016.115.03.2.042.173.023.395.032.66.027A15.57 15.57 0 0 0 52.051 49c1.343-.197 2.666-.501 3.08-.646.628-.22.95-.549 1.503-1.292.085-.115.164-.217.236-.31l.001-.001c.347-.448.544-.704.612-1.281.131-1.122-.516-1.78-1.419-2.478-.406-.313-.737-.447-1.053-.482zm.111-.994c.542.061 1.042.29 1.553.685.921.711 2 1.68 1.801 3.385-.102.872-.477 1.35-.843 1.817-.067.085-.133.17-.197.255-.584.786-1.056 1.318-1.974 1.64-.506.176-1.903.491-3.265.692-.686.1-1.384.175-1.972.188a5.352 5.352 0 0 1-.815-.036c-.229-.032-.483-.092-.685-.225-.608-.4-.917-.878-1.064-1.477-.11-.45-.128-.981-.148-1.56a55.926 55.926 0 0 0-.013-.36c-.027-.677.34-1.28.798-1.772.467-.5 1.096-.956 1.744-1.35 1.3-.791 2.776-1.392 3.478-1.64.545-.191 1.068-.302 1.602-.242zM34.648 59.72c.737-.175 1.344-.25 1.916-.207.566.043 1.124.204 1.76.535.685.357 1.285.71 1.687 1.12.381.39.555.8.466 1.318-.095.545-.373.788-.898 1.248-.11.096-.23.201-.362.32-.82.746-1.342 1.12-2.386 1.368-.279.065-.72.091-1.277.073a17.507 17.507 0 0 1-1.797-.164c-1.27-.177-2.478-.46-3.052-.715-.666-.297-.896-.586-1.012-.907a2.757 2.757 0 0 1-.13-.689 17.083 17.083 0 0 1-.04-.61 44.78 44.78 0 0 0-.021-.403c-.018-.304.097-.552.36-.788.281-.25.711-.468 1.258-.658.752-.262 1.602-.435 2.41-.6.388-.08.765-.157 1.117-.24zm4.138-.559c-.739-.385-1.427-.59-2.147-.645-.714-.054-1.432.043-2.223.231-.29.07-.63.14-.996.214-.84.172-1.813.372-2.628.655-.595.207-1.17.477-1.596.858-.442.396-.733.924-.692 1.593l.02.367c.012.238.024.469.043.676.029.321.077.64.186.94.235.646.709 1.106 1.546 1.48.707.315 2.032.612 3.32.792.652.09 1.312.154 1.903.173.58.019 1.128-.003 1.539-.1 1.274-.301 1.944-.798 2.828-1.6.093-.084.19-.167.288-.251.543-.466 1.125-.965 1.285-1.888.158-.911-.191-1.63-.737-2.187-.525-.536-1.255-.952-1.939-1.308zm27.861.56c.738-.176 1.345-.251 1.917-.208.566.043 1.124.204 1.76.535.685.357 1.285.71 1.687 1.12.381.39.555.8.466 1.318-.095.545-.373.788-.898 1.248-.11.096-.23.201-.362.32-.82.746-1.342 1.12-2.386 1.368-.279.065-.72.091-1.277.073a17.507 17.507 0 0 1-1.797-.164c-1.27-.177-2.479-.46-3.052-.715-.666-.297-.896-.586-1.012-.907a2.757 2.757 0 0 1-.13-.689 16.22 16.22 0 0 1-.04-.609 44.805 44.805 0 0 0-.021-.404c-.018-.304.097-.552.36-.788.281-.25.711-.468 1.258-.658.752-.262 1.602-.435 2.41-.6.388-.08.765-.157 1.117-.24zm4.14-.56c-.74-.385-1.428-.59-2.148-.645-.714-.054-1.432.043-2.223.231-.29.07-.63.14-.996.214-.84.172-1.813.372-2.628.655-.595.207-1.17.477-1.596.858-.442.396-.733.924-.692 1.593l.02.367c.012.238.024.469.043.676.029.321.077.64.186.94.234.646.709 1.106 1.546 1.48.708.315 2.032.612 3.32.792.652.09 1.312.154 1.903.173.58.019 1.128-.003 1.539-.1 1.274-.301 1.944-.798 2.828-1.6.093-.084.19-.167.288-.251.543-.466 1.125-.965 1.285-1.888.158-.911-.191-1.63-.737-2.187-.524-.536-1.255-.952-1.939-1.308zm-2.223-31.648c-.572-.043-1.179.032-1.916.207-.353.084-.73.161-1.117.24-.809.166-1.659.34-2.411.6-.547.191-.977.409-1.257.66-.264.235-.38.483-.361.787.009.145.015.278.022.403.011.224.022.421.039.61.026.288.064.507.13.69.116.32.346.609 1.012.906.574.255 1.782.538 3.052.715.626.087 1.25.147 1.797.164.557.019.998-.008 1.277-.074 1.044-.246 1.565-.621 2.386-1.366.132-.12.252-.225.362-.321.525-.46.803-.703.898-1.248.09-.518-.085-.927-.466-1.317-.402-.411-1.002-.764-1.687-1.12-.636-.332-1.194-.493-1.76-.536zm.075-.997c.72.054 1.409.26 2.147.645.684.356 1.415.772 1.94 1.308.545.558.894 1.276.736 2.187-.16.923-.742 1.422-1.285 1.888a13.92 13.92 0 0 0-.288.251c-.884.802-1.554 1.299-2.828 1.6-.41.097-.959.119-1.54.1-.59-.02-1.25-.083-1.903-.173-1.287-.18-2.611-.477-3.32-.793-.837-.372-1.31-.833-1.545-1.479a3.723 3.723 0 0 1-.186-.94c-.019-.207-.03-.437-.043-.675a40.809 40.809 0 0 0-.02-.368c-.04-.67.25-1.197.692-1.593.425-.38 1.001-.651 1.596-.858.815-.283 1.789-.483 2.628-.655.366-.075.706-.144.996-.213.791-.189 1.51-.286 2.223-.232zM34.02 45.828c.691-.268 1.233-.372 1.73-.311.488.06.994.289 1.598.802 1.283 1.089 2.334 2.217 2.127 4.172-.107 1-.438 1.47-.94 2.182-.102.145-.211.3-.327.47-.8 1.185-1.296 1.75-2.25 2.116-.596.23-1.06.285-1.492.209-.44-.078-.904-.301-1.484-.722-.699-.508-1.291-1.021-1.723-1.67-.425-.641-.713-1.442-.754-2.55-.051-1.384.376-2.365 1.018-3.091.655-.74 1.559-1.243 2.496-1.607zm3.976-.272c-.706-.599-1.388-.94-2.124-1.031-.73-.09-1.45.074-2.214.37-1.012.393-2.08.97-2.884 1.877-.814.921-1.329 2.154-1.268 3.79.047 1.279.385 2.26.92 3.067.53.797 1.235 1.393 1.969 1.926.64.465 1.246.782 1.897.897.659.117 1.31.016 2.026-.26 1.255-.483 1.895-1.271 2.719-2.49.097-.143.195-.28.292-.417.52-.732 1.004-1.414 1.14-2.688.264-2.487-1.15-3.916-2.474-5.04zm29.753-.039c-.496-.061-1.038.043-1.73.311-.938.364-1.841.867-2.496 1.607-.642.726-1.07 1.707-1.018 3.09.041 1.109.329 1.91.754 2.55.432.65 1.024 1.163 1.723 1.67.58.422 1.043.645 1.484.723.432.076.895.021 1.493-.209.953-.367 1.448-.931 2.25-2.116.115-.17.224-.325.325-.47.503-.711.834-1.181.94-2.182.208-1.955-.843-3.083-2.126-4.172-.604-.513-1.11-.742-1.599-.802zm.123-.992c.736.09 1.418.432 2.124 1.032 1.323 1.123 2.737 2.553 2.473 5.04-.136 1.274-.62 1.956-1.14 2.688-.097.136-.195.274-.292.418-.824 1.218-1.464 2.006-2.719 2.49-.716.275-1.367.376-2.026.26-.65-.116-1.257-.433-1.897-.898-.734-.533-1.439-1.13-1.969-1.926-.535-.806-.873-1.788-.92-3.067-.06-1.636.454-2.869 1.268-3.79.803-.907 1.872-1.484 2.884-1.876.764-.297 1.485-.461 2.214-.371zM51.333 31.516c.43-.065 1.182.066 2.182.376.974.3 2.098.743 3.228 1.222.922.39 1.838.801 2.673 1.175l.003.002.548.245c.961.43 1.797.796 2.326.97.999.33 1.906.667 2.517 1.063.304.197.496.385.598.558a.612.612 0 0 1 .065.505c-.067.245-.229.443-.543.664a8.256 8.256 0 0 1-.77.457c-.156.085-.325.178-.51.285-1.202.692-2.007 1.065-3.611 1.305-1.928.289-3.253.18-5.049-.328-.946-.268-1.51-.819-1.972-1.457a13.543 13.543 0 0 1-.492-.747 36.857 36.857 0 0 0-.169-.268c-.215-.338-.453-.688-.744-.98-1.507-1.514-2.12-2.75-2.113-3.57a1.18 1.18 0 0 1 .407-.918c.281-.249.74-.456 1.426-.559zm11.274 3.04c-.47-.154-1.254-.496-2.232-.933-.177-.079-.36-.16-.547-.245-.835-.374-1.763-.79-2.695-1.185-1.14-.483-2.3-.94-3.322-1.257-.994-.307-1.947-.512-2.627-.409-.8.12-1.466.38-1.94.8a2.173 2.173 0 0 0-.744 1.656c-.012 1.247.86 2.734 2.404 4.285.21.21.399.481.61.813.049.076.1.157.151.24.164.261.344.549.543.823.54.747 1.273 1.483 2.51 1.833 1.926.544 3.394.666 5.469.355 1.762-.264 2.687-.694 3.962-1.427.139-.08.284-.16.43-.24.329-.181.659-.363.926-.551.41-.288.78-.658.933-1.218a1.61 1.61 0 0 0-.168-1.276c-.212-.36-.546-.65-.916-.89-.734-.476-1.76-.847-2.747-1.173zm-9.092 29.336c-1-.31-1.752-.44-2.182-.376-.686.104-1.145.31-1.426.56a1.175 1.175 0 0 0-.407.916c-.008.822.606 2.057 2.113 3.57.29.293.529.643.744.98l.17.27c.159.254.314.5.491.746.462.638 1.026 1.19 1.972 1.457 1.796.507 3.121.617 5.049.328 1.604-.24 2.41-.613 3.61-1.305.186-.107.355-.2.511-.285.298-.164.548-.3.77-.457.314-.221.476-.419.543-.664a.612.612 0 0 0-.065-.505c-.102-.173-.294-.36-.598-.557-.611-.397-1.518-.734-2.517-1.064-.529-.174-1.365-.54-2.326-.97l-.548-.245-.003-.002c-.835-.374-1.751-.785-2.673-1.175-1.13-.479-2.255-.921-3.228-1.222zm6.86 1.731c.978.437 1.762.779 2.232.934.987.326 2.013.697 2.747 1.173.37.24.704.53.916.89.222.378.295.811.168 1.275-.153.56-.523.93-.933 1.219-.267.188-.597.37-.926.55-.146.08-.291.16-.43.24-1.275.734-2.2 1.164-3.962 1.428-2.075.31-3.543.189-5.468-.355-1.238-.35-1.971-1.086-2.511-1.833a14.469 14.469 0 0 1-.542-.823 38.07 38.07 0 0 0-.152-.24c-.211-.332-.4-.603-.61-.813-1.543-1.55-2.416-3.038-2.404-4.285a2.173 2.173 0 0 1 .744-1.657c.474-.42 1.14-.678 1.94-.799.68-.102 1.633.102 2.627.41 1.021.316 2.182.773 3.322 1.256.932.395 1.86.81 2.695 1.185l.547.245zM19.333 31.516c.43-.065 1.182.066 2.182.376.973.3 2.098.743 3.228 1.222.922.39 1.838.801 2.673 1.175l.551.247c.961.43 1.798.796 2.326.97.999.33 1.906.667 2.517 1.063.304.197.496.385.598.558a.612.612 0 0 1 .065.505c-.067.245-.229.443-.543.664a8.256 8.256 0 0 1-.77.457c-.156.085-.325.178-.51.285-1.202.692-2.007 1.065-3.611 1.305-1.928.289-3.253.18-5.049-.328-.946-.268-1.51-.819-1.972-1.457a13.543 13.543 0 0 1-.492-.747 36.857 36.857 0 0 0-.169-.268c-.215-.338-.453-.688-.744-.98-1.507-1.514-2.12-2.75-2.113-3.57a1.18 1.18 0 0 1 .407-.918c.281-.249.74-.456 1.426-.559zm11.274 3.04c-.47-.154-1.254-.496-2.232-.933-.177-.079-.36-.16-.547-.245-.835-.374-1.763-.79-2.695-1.185-1.14-.483-2.3-.94-3.322-1.257-.994-.307-1.947-.512-2.627-.409-.8.12-1.466.38-1.94.8a2.173 2.173 0 0 0-.744 1.656c-.012 1.247.86 2.734 2.404 4.285.21.21.399.481.61.813l.152.24c.163.261.343.549.542.823.54.747 1.273 1.483 2.51 1.833 1.926.544 3.394.666 5.469.355 1.762-.264 2.687-.694 3.961-1.427.14-.08.285-.16.43-.24.33-.181.66-.363.927-.551.41-.288.78-.658.933-1.218a1.61 1.61 0 0 0-.168-1.276c-.212-.36-.546-.65-.916-.89-.734-.476-1.76-.847-2.747-1.173z"
      fill="#000"
    />
  </g>
  <defs>
    <clipPath id="a">
      <path fill="#fff" d="M0 0h32v32H0z" />
    </clipPath>
    <clipPath id="b">
      <path fill="#fff" transform="translate(0 32)" d="M0 0h32v32H0z" />
    </clipPath>
    <clipPath id="c">
      <path fill="#fff" transform="translate(32)" d="M0 0h32v32H0z" />
    </clipPath>
    <clipPath id="d">
      <path fill="#fff" transform="translate(32 32)" d="M0 0h32v32H0z" />
    </clipPath>
  </defs>
</svg>
