<svg viewBox="0 0 64 64" fill="none" xmlns="http://www.w3.org/2000/svg">
  <path fill="#FFC100" d="M0 0h64v64H0z" />
  <g clip-path="url(#a)">
    <path
      fill-rule="evenodd"
      clip-rule="evenodd"
      d="M-12.667-.484c.43-.065 1.182.066 2.182.376.973.3 2.098.743 3.228 1.222.922.39 1.838.801 2.673 1.175l.551.247c.961.43 1.798.796 2.326.97.999.33 1.906.667 2.517 1.063.304.197.496.385.598.558a.612.612 0 0 1 .065.505c-.067.245-.229.443-.543.664-.222.156-.472.293-.77.457-.156.085-.325.178-.51.285-1.202.692-2.007 1.065-3.611 1.305-1.928.289-3.253.18-5.048-.328-.947-.268-1.511-.819-1.973-1.457a13.543 13.543 0 0 1-.492-.747 37.971 37.971 0 0 0-.169-.268c-.215-.338-.453-.689-.744-.98-1.507-1.514-2.12-2.75-2.113-3.57a1.18 1.18 0 0 1 .407-.918c.281-.249.74-.456 1.426-.559zm11.274 3.04c-.47-.154-1.254-.496-2.232-.933-.177-.079-.36-.16-.546-.245-.836-.374-1.764-.79-2.696-1.185-1.14-.483-2.3-.94-3.322-1.257-.994-.307-1.947-.511-2.627-.409-.8.12-1.466.38-1.94.8A2.173 2.173 0 0 0-15.5.982c-.012 1.247.86 2.734 2.404 4.285.21.21.399.481.61.813l.152.24c.163.261.343.548.542.823.54.747 1.273 1.484 2.51 1.833 1.926.544 3.394.666 5.469.355 1.762-.264 2.687-.694 3.962-1.427.139-.08.284-.16.43-.24.329-.181.659-.363.926-.551.41-.288.78-.658.933-1.218A1.61 1.61 0 0 0 2.27 4.62c-.212-.36-.546-.65-.916-.89-.734-.476-1.76-.847-2.747-1.173zm20.726-3.04c.43-.065 1.182.066 2.182.376.973.3 2.098.743 3.228 1.222.922.39 1.838.801 2.673 1.175l.003.001.548.246c.961.43 1.798.796 2.326.97.999.33 1.906.667 2.517 1.063.304.197.496.385.598.558a.612.612 0 0 1 .065.505c-.067.245-.229.443-.543.664a8.246 8.246 0 0 1-.77.457c-.156.085-.325.178-.51.285-1.202.692-2.007 1.065-3.611 1.305-1.928.289-3.253.18-5.049-.328-.946-.268-1.51-.819-1.972-1.457a13.543 13.543 0 0 1-.492-.747 37.97 37.97 0 0 0-.169-.268c-.215-.338-.453-.689-.744-.98-1.507-1.514-2.12-2.75-2.113-3.57a1.18 1.18 0 0 1 .407-.918c.281-.249.74-.456 1.426-.559zm11.274 3.04c-.47-.154-1.254-.496-2.232-.933-.177-.079-.36-.16-.546-.245h-.001c-.835-.374-1.763-.79-2.695-1.185-1.14-.483-2.3-.94-3.322-1.257-.994-.307-1.947-.511-2.627-.409-.8.12-1.466.38-1.94.8A2.173 2.173 0 0 0 16.5.982c-.012 1.247.86 2.734 2.404 4.285.21.21.399.481.61.813l.152.24c.163.261.343.548.542.823.54.747 1.273 1.484 2.51 1.833 1.926.544 3.394.666 5.469.355 1.762-.264 2.687-.694 3.961-1.427.14-.08.285-.16.43-.24.33-.181.66-.363.927-.551.41-.288.78-.658.933-1.218a1.61 1.61 0 0 0-.168-1.276c-.212-.36-.546-.65-.916-.89-.734-.476-1.76-.847-2.747-1.173zm-19.07.96c-.722-.059-1.485.044-2.406.282-1.251.323-2.462.773-3.333 1.428-.852.641-1.354 1.455-1.293 2.56.098 1.766 1.354 2.677 3.218 3.578.765.37 1.407.582 2.046.657.636.075 1.3.017 2.113-.191 1.318-.338 1.982-.857 3.013-1.872.157-.154.302-.292.436-.419.656-.621 1.052-.996 1.181-1.804.125-.784-.128-1.397-.625-1.949-.516-.572-1.278-1.057-2.127-1.537-.802-.453-1.507-.674-2.223-.733zm.082-.996c.882.072 1.726.346 2.633.859.85.48 1.742 1.033 2.378 1.738.655.726 1.052 1.633.87 2.776-.187 1.17-.857 1.795-1.533 2.425-.124.117-.248.233-.37.352-1.089 1.072-1.904 1.728-3.467 2.129-.9.23-1.69.308-2.478.215-.785-.092-1.537-.35-2.364-.75-1.874-.905-3.65-2.042-3.781-4.422-.085-1.517.64-2.626 1.69-3.415C6.226 3.653 7.588 3.164 8.88 2.83c.978-.253 1.861-.382 2.738-.31zm6.97 18.413c-.609.215-1.27.423-1.998.558-1.005.187-1.97.108-2.824-.01-.268-.037-.52-.076-.757-.114-.55-.086-1.026-.16-1.468-.167-.6-.008-1.002.118-1.303.456-.327.37-.612 1.076-.732 2.428-.074.83.357 1.489 1.24 2.096.896.614 2.157 1.1 3.524 1.575 2.242.78 3.895.947 6.3.504 2.003-.369 3.014-.944 4.521-2.01.226-.16.434-.3.627-.43.376-.254.696-.47.979-.715.398-.344.651-.692.758-1.173.167-.748-.151-1.368-.912-1.974-.775-.618-1.916-1.137-3.158-1.642-1.091-.443-2.036-.316-3.094.016-.351.11-.696.237-1.063.371-.205.075-.417.153-.64.231zm1.403-1.556c1.166-.366 2.374-.555 3.77.012 1.235.502 2.503 1.067 3.406 1.786.918.732 1.547 1.703 1.265 2.973-.168.754-.577 1.276-1.081 1.713-.328.283-.73.555-1.136.83-.184.123-.367.248-.546.374-1.58 1.118-2.725 1.774-4.918 2.178-2.586.476-4.414.289-6.81-.543-1.355-.471-2.74-.995-3.76-1.696-1.033-.709-1.79-1.67-1.672-3.008.126-1.418.437-2.39.981-3.004.572-.643 1.316-.802 2.065-.792.517.007 1.104.1 1.686.19.223.036.444.07.662.1.82.114 1.658.176 2.505.018a12.07 12.07 0 0 0 1.848-.518c.197-.07.396-.142.596-.215.383-.14.768-.281 1.14-.398zM2.018 13.828c.692-.268 1.234-.372 1.73-.311.489.06.995.289 1.6.802 1.282 1.089 2.333 2.217 2.126 4.172-.107 1-.438 1.47-.94 2.183-.102.144-.211.298-.327.469-.8 1.185-1.296 1.75-2.25 2.116-.597.23-1.06.285-1.492.209-.44-.078-.904-.301-1.484-.722-.699-.508-1.291-1.021-1.723-1.67-.425-.641-.713-1.442-.754-2.55-.051-1.384.376-2.365 1.018-3.091.655-.74 1.559-1.243 2.496-1.607zm3.976-.271c-.705-.6-1.387-.942-2.123-1.033-.73-.09-1.45.075-2.214.372-1.012.392-2.08.97-2.884 1.876-.814.921-1.329 2.154-1.268 3.79.047 1.278.385 2.26.92 3.067.53.797 1.235 1.393 1.969 1.926.64.465 1.246.782 1.897.897.659.117 1.31.016 2.026-.26 1.255-.483 1.895-1.271 2.719-2.49.097-.143.195-.28.292-.417.52-.732 1.004-1.414 1.14-2.688.264-2.487-1.15-3.917-2.474-5.04zm29.754-.04c-.496-.061-1.038.043-1.73.311-.938.364-1.841.867-2.496 1.607-.642.726-1.07 1.707-1.018 3.09.041 1.109.329 1.91.754 2.55.432.65 1.024 1.163 1.723 1.67.58.422 1.043.645 1.484.723.432.076.895.021 1.493-.209.953-.367 1.448-.931 2.25-2.116.115-.17.224-.325.325-.47.503-.711.834-1.181.94-2.182.208-1.954-.843-3.083-2.126-4.172-.604-.513-1.11-.742-1.599-.802zm.123-.992c.736.09 1.418.432 2.123 1.031 1.324 1.125 2.738 2.554 2.474 5.04-.136 1.275-.62 1.957-1.14 2.689-.097.136-.195.274-.292.418-.824 1.218-1.464 2.006-2.719 2.49-.716.275-1.367.376-2.026.26-.65-.116-1.257-.433-1.897-.898-.733-.533-1.439-1.13-1.968-1.926-.536-.806-.874-1.789-.921-3.067-.06-1.636.454-2.869 1.268-3.79.803-.907 1.872-1.484 2.884-1.876.765-.297 1.485-.461 2.214-.372zM21.514 31.892c-1-.31-1.752-.44-2.182-.376-.686.104-1.145.31-1.426.56a1.175 1.175 0 0 0-.407.916c-.008.822.606 2.057 2.113 3.57.29.293.529.643.744.98l.17.27c.159.254.314.5.491.746.462.638 1.026 1.19 1.973 1.457 1.795.507 3.12.617 5.048.328 1.604-.24 2.41-.613 3.61-1.305.186-.107.355-.2.511-.285.298-.164.548-.3.77-.457.314-.221.476-.419.543-.664a.612.612 0 0 0-.065-.505c-.102-.173-.294-.36-.598-.558-.611-.396-1.518-.733-2.517-1.063-.528-.174-1.365-.54-2.326-.97l-.548-.245-.003-.002c-.835-.374-1.751-.785-2.673-1.175-1.13-.479-2.255-.921-3.228-1.222zm6.86 1.731c.978.437 1.762.779 2.232.934.987.326 2.013.697 2.747 1.173.37.24.704.53.916.89.222.378.295.811.168 1.276-.153.56-.523.93-.933 1.218-.267.188-.597.37-.926.55-.146.08-.291.16-.43.24-1.275.734-2.2 1.164-3.962 1.428-2.075.31-3.543.189-5.468-.355-1.238-.35-1.971-1.086-2.511-1.833a14.122 14.122 0 0 1-.542-.823 38.07 38.07 0 0 0-.152-.24c-.211-.332-.4-.603-.61-.813-1.543-1.55-2.416-3.038-2.404-4.285a2.173 2.173 0 0 1 .744-1.657c.474-.42 1.14-.678 1.94-.799.68-.103 1.633.102 2.627.41 1.021.316 2.182.773 3.322 1.256.932.395 1.86.81 2.695 1.185l.547.245z"
      fill="#000"
    />
  </g>
  <g clip-path="url(#b)">
    <path
      fill-rule="evenodd"
      clip-rule="evenodd"
      d="M-12.667 31.516c.43-.065 1.182.066 2.182.376.973.3 2.098.743 3.228 1.222.922.39 1.838.801 2.673 1.175l.551.247c.961.43 1.798.796 2.326.97.999.33 1.906.667 2.517 1.063.304.197.496.385.598.558a.612.612 0 0 1 .065.505c-.067.245-.229.443-.543.664a8.247 8.247 0 0 1-.77.457c-.156.085-.325.178-.51.285-1.202.692-2.007 1.065-3.611 1.305-1.928.289-3.253.18-5.048-.328-.947-.268-1.511-.819-1.973-1.457a13.543 13.543 0 0 1-.492-.747c-.055-.088-.111-.178-.169-.268-.215-.338-.453-.689-.744-.98-1.507-1.514-2.12-2.75-2.113-3.57a1.18 1.18 0 0 1 .407-.918c.281-.249.74-.456 1.426-.559zm11.274 3.04c-.47-.154-1.254-.496-2.232-.933-.177-.079-.36-.16-.546-.245-.836-.374-1.764-.79-2.696-1.185-1.14-.483-2.3-.94-3.322-1.257-.994-.307-1.947-.512-2.627-.409-.8.12-1.466.38-1.94.8a2.173 2.173 0 0 0-.744 1.656c-.012 1.247.86 2.734 2.404 4.285.21.21.399.481.61.813l.152.24c.163.261.343.549.542.823.54.747 1.273 1.483 2.51 1.833 1.926.544 3.394.666 5.469.355 1.762-.264 2.687-.694 3.962-1.427.139-.08.284-.16.43-.24.329-.181.659-.363.926-.551.41-.288.78-.658.933-1.218a1.61 1.61 0 0 0-.168-1.276c-.212-.36-.546-.65-.916-.89-.734-.476-1.76-.847-2.747-1.173zm20.726-3.04c.43-.065 1.182.066 2.182.376.973.3 2.098.743 3.228 1.222.922.39 1.838.801 2.673 1.175l.003.002.548.245c.961.43 1.798.796 2.326.97.999.33 1.906.667 2.517 1.063.304.197.496.385.598.558a.612.612 0 0 1 .065.505c-.067.245-.229.443-.543.664a8.256 8.256 0 0 1-.77.457c-.156.085-.325.178-.51.285-1.202.692-2.007 1.065-3.611 1.305-1.928.289-3.253.18-5.049-.328-.946-.268-1.51-.819-1.972-1.457a13.543 13.543 0 0 1-.492-.747 36.857 36.857 0 0 0-.169-.268c-.215-.338-.453-.689-.744-.98-1.507-1.514-2.12-2.75-2.113-3.57a1.18 1.18 0 0 1 .407-.918c.281-.249.74-.456 1.426-.559zm11.274 3.04c-.47-.154-1.254-.496-2.232-.933-.177-.079-.36-.16-.546-.245h-.001c-.835-.374-1.763-.79-2.695-1.185-1.14-.483-2.3-.94-3.322-1.257-.994-.307-1.947-.512-2.627-.409-.8.12-1.466.38-1.94.8a2.173 2.173 0 0 0-.744 1.656c-.012 1.247.86 2.734 2.404 4.285.21.21.399.481.61.813l.152.24c.163.261.343.549.542.823.54.747 1.273 1.483 2.51 1.833 1.926.544 3.394.666 5.469.355 1.762-.264 2.687-.694 3.961-1.427.14-.08.285-.16.43-.24.33-.181.66-.363.927-.551.41-.288.78-.658.933-1.218a1.61 1.61 0 0 0-.168-1.276c-.212-.36-.546-.65-.916-.89-.734-.476-1.76-.847-2.747-1.173zm-19.07.96c-.722-.059-1.485.044-2.406.282-1.251.323-2.462.773-3.333 1.428-.852.641-1.354 1.455-1.293 2.56.098 1.766 1.354 2.677 3.218 3.578.765.37 1.407.582 2.046.657.636.075 1.3.017 2.113-.191 1.318-.338 1.982-.857 3.013-1.872.157-.154.302-.292.436-.419.656-.621 1.052-.996 1.181-1.804.125-.785-.128-1.397-.625-1.949-.516-.572-1.278-1.057-2.127-1.537-.802-.453-1.507-.674-2.223-.733zm.082-.996c.882.072 1.726.346 2.633.859.85.48 1.742 1.033 2.378 1.738.655.726 1.052 1.633.87 2.776-.187 1.17-.857 1.795-1.533 2.425-.124.117-.248.233-.37.352-1.089 1.072-1.904 1.728-3.467 2.128-.9.231-1.69.308-2.478.216-.785-.092-1.537-.35-2.364-.75-1.874-.905-3.65-2.043-3.781-4.422-.085-1.517.64-2.625 1.69-3.415 1.029-.774 2.391-1.263 3.684-1.597.978-.253 1.861-.382 2.738-.31zm6.97 18.413c-.609.215-1.27.423-1.998.559-1.005.186-1.97.107-2.824-.01-.268-.038-.52-.077-.757-.115-.55-.086-1.026-.16-1.468-.167-.6-.008-1.002.118-1.303.456-.327.37-.612 1.076-.732 2.428-.074.83.357 1.489 1.24 2.096.896.614 2.157 1.1 3.524 1.575 2.242.78 3.895.947 6.3.504 2.003-.369 3.014-.944 4.521-2.01.226-.16.434-.3.627-.43.376-.254.696-.47.979-.715.398-.344.651-.692.758-1.173.167-.748-.151-1.368-.912-1.974-.775-.618-1.916-1.137-3.158-1.642-1.091-.443-2.036-.316-3.094.016-.351.11-.696.237-1.063.371-.205.075-.417.153-.64.231zm1.403-1.556c1.166-.366 2.374-.555 3.77.012 1.235.502 2.503 1.067 3.406 1.786.918.732 1.547 1.703 1.265 2.973-.168.754-.577 1.276-1.081 1.713-.328.283-.73.555-1.136.83-.184.123-.367.248-.546.374-1.58 1.118-2.725 1.774-4.918 2.178-2.586.476-4.414.289-6.81-.543-1.355-.471-2.74-.995-3.76-1.696-1.033-.709-1.79-1.67-1.672-3.008.126-1.418.437-2.39.981-3.004.572-.643 1.316-.802 2.065-.792.517.007 1.104.1 1.686.19.223.036.444.07.662.1.82.114 1.658.175 2.505.018a12.07 12.07 0 0 0 1.848-.518c.197-.07.396-.142.596-.215.383-.14.768-.281 1.14-.398zM2.018 45.828c.692-.268 1.234-.372 1.73-.311.489.06.995.289 1.6.802 1.282 1.089 2.333 2.217 2.126 4.172-.107 1-.438 1.47-.94 2.182-.102.145-.211.3-.327.47-.8 1.185-1.296 1.75-2.25 2.116-.597.23-1.06.285-1.492.209-.44-.078-.904-.301-1.484-.722-.699-.508-1.291-1.021-1.723-1.67-.425-.641-.713-1.442-.754-2.55-.051-1.384.376-2.365 1.018-3.091.655-.74 1.559-1.243 2.496-1.607zm3.976-.272c-.705-.599-1.387-.94-2.123-1.031-.73-.09-1.45.074-2.214.37-1.012.393-2.08.97-2.884 1.877-.814.921-1.329 2.154-1.268 3.79.047 1.279.385 2.26.92 3.067.53.797 1.235 1.393 1.969 1.926.64.465 1.246.782 1.897.897.659.117 1.31.016 2.026-.26 1.255-.483 1.895-1.271 2.719-2.49.097-.143.195-.28.292-.417.52-.732 1.004-1.414 1.14-2.688.264-2.487-1.15-3.916-2.474-5.04zm29.754-.039c-.496-.061-1.038.043-1.73.311-.938.364-1.841.867-2.496 1.607-.642.726-1.07 1.707-1.018 3.09.041 1.109.329 1.91.754 2.55.432.65 1.024 1.163 1.723 1.67.58.422 1.043.645 1.484.723.432.076.895.021 1.493-.209.953-.367 1.448-.931 2.25-2.116.115-.17.224-.325.325-.47.503-.711.834-1.181.94-2.182.208-1.955-.843-3.083-2.126-4.172-.604-.513-1.11-.742-1.599-.802zm.123-.992c.736.09 1.418.432 2.123 1.032 1.324 1.123 2.738 2.553 2.474 5.04-.136 1.274-.62 1.956-1.14 2.688-.097.136-.195.274-.292.418-.824 1.218-1.464 2.006-2.719 2.49-.716.275-1.367.376-2.026.26-.65-.116-1.257-.433-1.897-.898-.733-.533-1.439-1.13-1.968-1.926-.536-.806-.874-1.788-.921-3.067-.06-1.636.454-2.869 1.268-3.79.803-.907 1.872-1.484 2.884-1.876.765-.297 1.485-.461 2.214-.371zM21.514 63.892c-1-.31-1.752-.44-2.182-.376-.686.104-1.145.31-1.426.56a1.175 1.175 0 0 0-.407.916c-.008.822.606 2.057 2.113 3.57.29.293.529.643.744.98l.17.27c.159.254.314.5.491.746.462.638 1.026 1.19 1.973 1.457 1.795.507 3.12.617 5.048.328 1.604-.24 2.41-.613 3.61-1.305.186-.107.355-.2.511-.285.298-.164.548-.3.77-.457.314-.221.476-.419.543-.664a.612.612 0 0 0-.065-.505c-.102-.173-.294-.36-.598-.557-.611-.397-1.518-.734-2.517-1.064-.528-.174-1.365-.54-2.326-.97l-.548-.245-.003-.002c-.835-.374-1.751-.785-2.673-1.175-1.13-.479-2.255-.921-3.228-1.222zm6.86 1.731c.978.437 1.762.779 2.232.934.987.326 2.013.697 2.747 1.173.37.24.704.53.916.89.222.378.295.811.168 1.275-.153.56-.523.93-.933 1.219-.267.188-.597.37-.926.55-.146.08-.291.16-.43.24-1.275.734-2.2 1.164-3.962 1.428-2.075.31-3.543.189-5.468-.355-1.238-.35-1.971-1.086-2.511-1.833a14.469 14.469 0 0 1-.542-.823 38.07 38.07 0 0 0-.152-.24c-.211-.332-.4-.603-.61-.813-1.543-1.55-2.416-3.038-2.404-4.285a2.173 2.173 0 0 1 .744-1.657c.474-.42 1.14-.678 1.94-.799.68-.102 1.633.102 2.627.41 1.021.316 2.182.773 3.322 1.256.932.395 1.86.81 2.695 1.185l.547.245z"
      fill="#000"
    />
  </g>
  <g clip-path="url(#c)">
    <path
      fill-rule="evenodd"
      clip-rule="evenodd"
      d="M68.564-4.488c-.572-.043-1.179.032-1.916.207-.353.084-.73.161-1.117.24-.809.166-1.659.34-2.411.6-.547.191-.977.408-1.257.66-.264.235-.38.483-.361.787.009.145.015.278.022.403.011.224.022.421.039.61.026.288.064.507.13.69.116.32.346.609 1.012.906.574.255 1.782.538 3.052.715.626.087 1.25.147 1.797.164.557.018.998-.008 1.277-.074 1.044-.246 1.565-.62 2.386-1.366.132-.12.252-.225.362-.321.525-.46.803-.703.898-1.248.09-.518-.085-.927-.466-1.317-.402-.411-1.002-.764-1.687-1.12-.636-.332-1.194-.493-1.76-.536zm.075-.997c.72.054 1.409.26 2.147.645.684.356 1.415.772 1.94 1.308.545.558.894 1.276.736 2.187-.16.923-.742 1.422-1.285 1.888-.098.084-.195.167-.288.251-.884.802-1.554 1.299-2.828 1.6-.41.097-.959.119-1.54.1a18.49 18.49 0 0 1-1.903-.173c-1.287-.18-2.611-.477-3.32-.793-.837-.373-1.31-.833-1.545-1.479a3.723 3.723 0 0 1-.186-.94c-.019-.207-.03-.437-.043-.675a40.843 40.843 0 0 0-.02-.368c-.04-.67.25-1.197.692-1.593.425-.38 1.001-.651 1.596-.858.815-.283 1.789-.483 2.628-.655.366-.075.706-.144.996-.213.791-.189 1.51-.286 2.223-.232zM41.131 3.798c.921-.238 1.684-.34 2.406-.282.716.06 1.421.28 2.223.733.849.48 1.61.965 2.127 1.537.497.552.75 1.165.625 1.95-.129.807-.525 1.182-1.18 1.803-.135.127-.28.265-.437.419-1.03 1.015-1.695 1.534-3.013 1.872-.813.208-1.476.266-2.113.19-.639-.074-1.28-.286-2.046-.656-1.864-.9-3.12-1.812-3.218-3.578-.062-1.105.441-1.919 1.293-2.56.871-.655 2.082-1.105 3.333-1.428zm5.12-.42c-.906-.512-1.75-.786-2.632-.858-.877-.072-1.76.057-2.738.31-1.293.334-2.655.823-3.684 1.597-1.05.79-1.775 1.898-1.69 3.415.132 2.38 1.907 3.517 3.781 4.422.827.4 1.58.658 2.364.75.787.093 1.578.015 2.478-.215 1.563-.401 2.378-1.057 3.467-2.129.121-.12.246-.236.37-.352.676-.63 1.346-1.256 1.532-2.425.183-1.143-.214-2.05-.869-2.776-.636-.705-1.527-1.257-2.378-1.738zm2.34 18.113c.729-.135 1.39-.343 1.998-.558.223-.078.435-.156.64-.23a24.34 24.34 0 0 1 1.063-.372c1.058-.332 2.003-.46 3.094-.015 1.242.504 2.383 1.023 3.158 1.641.76.606 1.079 1.226.912 1.974-.107.481-.36.829-.758 1.173-.283.245-.603.46-.979.714-.193.13-.401.271-.627.43-1.507 1.067-2.518 1.642-4.521 2.011-2.404.443-4.058.275-6.3-.504-1.367-.475-2.628-.96-3.523-1.575-.884-.607-1.315-1.267-1.241-2.096.12-1.352.405-2.059.732-2.428.301-.338.704-.464 1.303-.456.442.006.918.08 1.468.167.237.038.489.077.757.114.855.118 1.819.197 2.824.01zm7.172-2.102c-1.397-.567-2.605-.378-3.77-.012-.372.117-.757.258-1.14.398-.2.073-.4.146-.596.215-.588.207-1.193.397-1.848.518-.847.158-1.685.096-2.505-.017-.218-.03-.44-.065-.662-.1-.582-.092-1.169-.184-1.686-.19-.749-.011-1.493.148-2.064.791-.545.613-.856 1.586-.982 3.004-.118 1.338.639 2.3 1.672 3.008 1.02.701 2.405 1.225 3.76 1.696 2.396.832 4.224 1.019 6.81.543 2.193-.404 3.338-1.06 4.918-2.178.179-.126.363-.25.545-.374.407-.275.809-.547 1.137-.83.504-.437.913-.96 1.08-1.713.283-1.27-.346-2.241-1.264-2.973-.903-.72-2.171-1.285-3.405-1.786zm-21.745-5.561c.692-.268 1.234-.372 1.73-.311.489.06.995.289 1.6.802 1.282 1.089 2.333 2.217 2.126 4.172-.107 1-.438 1.47-.94 2.183-.102.144-.211.298-.327.469-.8 1.185-1.296 1.75-2.25 2.116-.596.23-1.06.285-1.492.209-.44-.078-.904-.301-1.484-.722-.699-.508-1.291-1.021-1.723-1.67-.425-.641-.713-1.442-.754-2.55-.051-1.384.376-2.365 1.018-3.091.655-.74 1.559-1.243 2.496-1.607zm3.977-.271c-.706-.6-1.388-.942-2.124-1.033-.73-.09-1.45.075-2.214.372-1.012.392-2.08.97-2.884 1.876-.814.921-1.329 2.154-1.268 3.79.047 1.278.385 2.26.92 3.067.53.797 1.235 1.393 1.969 1.926.64.465 1.246.782 1.897.897.659.117 1.31.016 2.026-.26 1.255-.483 1.895-1.271 2.719-2.49.097-.143.195-.28.292-.417.52-.732 1.004-1.414 1.14-2.688.264-2.487-1.15-3.917-2.474-5.04zm29.753-.04c-.496-.061-1.038.043-1.73.311-.938.364-1.841.867-2.496 1.607-.642.726-1.07 1.707-1.018 3.09.041 1.109.329 1.91.754 2.55.432.65 1.024 1.163 1.723 1.67.58.422 1.043.645 1.484.723.432.076.895.021 1.493-.209.953-.367 1.448-.931 2.25-2.116.115-.17.224-.325.325-.47.503-.711.834-1.181.94-2.182.208-1.954-.843-3.083-2.126-4.172-.604-.513-1.11-.742-1.599-.802zm.123-.992c.736.09 1.418.432 2.124 1.031 1.323 1.125 2.737 2.554 2.473 5.04-.136 1.275-.62 1.957-1.14 2.689-.097.136-.195.274-.292.418-.824 1.218-1.464 2.006-2.719 2.49-.716.275-1.367.376-2.026.26-.65-.116-1.257-.433-1.897-.898-.734-.533-1.439-1.13-1.969-1.926-.535-.806-.873-1.789-.92-3.067-.06-1.636.454-2.869 1.268-3.79.803-.907 1.872-1.484 2.884-1.876.764-.297 1.485-.461 2.214-.372zM51.333-.485c.43-.065 1.182.066 2.182.376.974.3 2.098.743 3.228 1.222.922.39 1.838.801 2.673 1.175l.003.002.548.245c.961.43 1.797.796 2.326.97.999.33 1.906.667 2.517 1.063.304.197.496.385.598.558a.612.612 0 0 1 .065.505c-.067.245-.229.443-.543.664a8.244 8.244 0 0 1-.77.457c-.156.085-.325.178-.51.285-1.202.692-2.007 1.065-3.611 1.305-1.928.289-3.253.18-5.049-.328-.946-.268-1.51-.819-1.972-1.457a13.543 13.543 0 0 1-.492-.747 37.97 37.97 0 0 0-.169-.268c-.215-.338-.453-.689-.744-.98-1.507-1.514-2.12-2.75-2.113-3.57a1.18 1.18 0 0 1 .407-.918c.281-.249.74-.456 1.426-.559zm11.274 3.04c-.47-.154-1.254-.496-2.232-.933-.177-.079-.36-.16-.547-.245-.835-.374-1.763-.79-2.695-1.185-1.14-.483-2.3-.94-3.322-1.257-.994-.307-1.947-.511-2.627-.409-.8.12-1.466.38-1.94.8A2.173 2.173 0 0 0 48.5.982c-.012 1.247.86 2.734 2.404 4.285.21.21.399.481.61.813.049.076.1.157.151.24.164.261.344.548.543.823.54.747 1.273 1.484 2.51 1.833 1.926.544 3.394.666 5.469.355 1.762-.264 2.687-.694 3.962-1.427.139-.08.284-.16.43-.24.329-.181.659-.363.926-.551.41-.288.78-.658.933-1.218a1.61 1.61 0 0 0-.168-1.276c-.212-.36-.546-.65-.916-.89-.734-.476-1.76-.847-2.747-1.173zm-9.092 29.336c-1-.31-1.752-.44-2.182-.376-.686.104-1.145.31-1.426.56a1.175 1.175 0 0 0-.407.916c-.008.822.606 2.057 2.113 3.57.29.293.529.643.744.98l.17.27c.159.254.314.5.491.746.462.638 1.026 1.19 1.972 1.457 1.796.507 3.121.617 5.049.328 1.604-.24 2.41-.613 3.61-1.305.186-.107.355-.2.511-.285.298-.164.548-.3.77-.457.314-.221.476-.419.543-.664a.612.612 0 0 0-.065-.505c-.102-.173-.294-.36-.598-.558-.611-.396-1.518-.733-2.517-1.063-.529-.174-1.365-.54-2.326-.97l-.548-.245-.003-.002c-.835-.374-1.751-.785-2.673-1.175-1.13-.479-2.255-.921-3.228-1.222zm6.86 1.731c.978.437 1.762.779 2.232.934.987.326 2.013.697 2.747 1.173.37.24.704.53.916.89.222.378.295.811.168 1.276-.153.56-.523.93-.933 1.218-.267.188-.597.37-.926.55-.146.08-.291.16-.43.24-1.275.734-2.2 1.164-3.962 1.428-2.075.31-3.543.189-5.468-.355-1.238-.35-1.971-1.086-2.511-1.833a14.122 14.122 0 0 1-.542-.823 38.07 38.07 0 0 0-.152-.24c-.211-.332-.4-.603-.61-.813-1.543-1.55-2.416-3.038-2.404-4.285a2.173 2.173 0 0 1 .744-1.657c.474-.42 1.14-.678 1.94-.799.68-.103 1.633.102 2.627.41 1.021.316 2.182.773 3.322 1.256.932.395 1.86.81 2.695 1.185l.547.245zM19.333-.484c.43-.065 1.182.066 2.182.376.973.3 2.098.743 3.228 1.222.922.39 1.838.801 2.673 1.175l.551.247c.961.43 1.798.796 2.326.97.999.33 1.906.667 2.517 1.063.304.197.496.385.598.558a.612.612 0 0 1 .065.505c-.067.245-.229.443-.543.664a8.244 8.244 0 0 1-.77.457c-.156.085-.325.178-.51.285-1.202.692-2.007 1.065-3.611 1.305-1.928.289-3.253.18-5.049-.328-.946-.268-1.51-.819-1.972-1.457a13.543 13.543 0 0 1-.492-.747 37.97 37.97 0 0 0-.169-.268c-.215-.338-.453-.689-.744-.98-1.507-1.514-2.12-2.75-2.113-3.57a1.18 1.18 0 0 1 .407-.918c.281-.249.74-.456 1.426-.559zm11.274 3.04c-.47-.154-1.254-.496-2.232-.933-.177-.079-.36-.16-.547-.245-.835-.374-1.763-.79-2.695-1.185-1.14-.483-2.3-.94-3.322-1.257-.994-.307-1.947-.511-2.627-.409-.8.12-1.466.38-1.94.8A2.173 2.173 0 0 0 16.5.982c-.012 1.247.86 2.734 2.404 4.285.21.21.399.481.61.813l.152.24c.163.261.343.548.542.823.54.747 1.273 1.484 2.51 1.833 1.926.544 3.394.666 5.469.355 1.762-.264 2.687-.694 3.961-1.427.14-.08.285-.16.43-.24.33-.181.66-.363.927-.551.41-.288.78-.658.933-1.218a1.61 1.61 0 0 0-.168-1.276c-.212-.36-.546-.65-.916-.89-.734-.476-1.76-.847-2.747-1.173z"
      fill="#000"
    />
  </g>
  <g clip-path="url(#d)">
    <path
      fill-rule="evenodd"
      clip-rule="evenodd"
      d="M19.333 31.516c.43-.065 1.182.066 2.182.376.973.3 2.098.743 3.228 1.222.922.39 1.838.801 2.673 1.175l.551.247c.961.43 1.798.796 2.326.97.999.33 1.906.667 2.517 1.063.304.197.496.385.598.558a.612.612 0 0 1 .065.505c-.067.245-.229.443-.543.664a8.256 8.256 0 0 1-.77.457c-.156.085-.325.178-.51.285-1.202.692-2.007 1.065-3.611 1.305-1.928.289-3.253.18-5.049-.328-.946-.268-1.51-.819-1.972-1.457a13.543 13.543 0 0 1-.492-.747c-.055-.088-.111-.178-.169-.268-.215-.338-.453-.689-.744-.98-1.507-1.514-2.12-2.75-2.113-3.57a1.18 1.18 0 0 1 .407-.918c.281-.249.74-.456 1.426-.559zm11.274 3.04c-.47-.154-1.254-.496-2.232-.933-.177-.079-.36-.16-.546-.245a142.19 142.19 0 0 0-2.696-1.185c-1.14-.483-2.3-.94-3.322-1.257-.994-.307-1.947-.512-2.627-.409-.8.12-1.466.38-1.94.8a2.173 2.173 0 0 0-.744 1.656c-.012 1.247.86 2.734 2.404 4.285.21.21.399.481.61.813l.152.24c.163.261.343.549.542.823.54.747 1.273 1.483 2.51 1.833 1.926.544 3.394.666 5.469.355 1.762-.264 2.687-.694 3.961-1.427.14-.08.285-.16.43-.24.33-.181.66-.363.927-.551.41-.288.78-.658.933-1.218a1.61 1.61 0 0 0-.168-1.276c-.212-.36-.546-.65-.916-.89-.734-.476-1.76-.847-2.747-1.173zm20.726-3.04c.43-.065 1.182.066 2.182.376.974.3 2.098.743 3.228 1.222.922.39 1.838.801 2.673 1.175l.003.002.548.245c.961.43 1.797.796 2.326.97.999.33 1.906.667 2.517 1.063.304.197.496.385.598.558a.612.612 0 0 1 .065.505c-.067.245-.229.443-.543.664a8.256 8.256 0 0 1-.77.457c-.156.085-.325.178-.51.285-1.202.692-2.007 1.065-3.611 1.305-1.928.289-3.253.18-5.049-.328-.946-.268-1.51-.819-1.972-1.457a13.543 13.543 0 0 1-.492-.747 36.857 36.857 0 0 0-.169-.268c-.215-.338-.453-.689-.744-.98-1.507-1.514-2.12-2.75-2.113-3.57a1.18 1.18 0 0 1 .407-.918c.281-.249.74-.456 1.426-.559zm11.274 3.04c-.47-.154-1.254-.496-2.232-.933-.177-.079-.36-.16-.546-.245h-.001c-.835-.374-1.763-.79-2.695-1.185-1.14-.483-2.3-.94-3.322-1.257-.994-.307-1.947-.512-2.627-.409-.8.12-1.466.38-1.94.8a2.173 2.173 0 0 0-.744 1.656c-.012 1.247.86 2.734 2.404 4.285.21.21.399.481.61.813.049.076.1.157.151.24.164.261.344.549.543.823.54.747 1.273 1.483 2.51 1.833 1.926.544 3.394.666 5.469.355 1.762-.264 2.687-.694 3.962-1.427.139-.08.284-.16.43-.24.329-.181.659-.363.926-.551.41-.288.78-.658.933-1.218a1.61 1.61 0 0 0-.168-1.276c-.212-.36-.546-.65-.916-.89-.734-.476-1.76-.847-2.747-1.173zm-19.07.96c-.722-.059-1.485.044-2.406.282-1.251.323-2.462.773-3.333 1.428-.852.641-1.355 1.455-1.293 2.56.098 1.766 1.354 2.677 3.218 3.578.765.37 1.407.582 2.046.657.637.075 1.3.017 2.113-.191 1.318-.338 1.983-.857 3.013-1.872.156-.154.302-.292.436-.419.656-.621 1.052-.996 1.181-1.804.125-.785-.128-1.397-.625-1.949-.516-.572-1.278-1.057-2.127-1.537-.802-.453-1.507-.674-2.223-.733zm.082-.996c.882.072 1.726.346 2.633.859.85.48 1.742 1.033 2.378 1.738.655.726 1.052 1.633.87 2.776-.187 1.17-.857 1.795-1.533 2.425-.124.117-.248.233-.37.352-1.089 1.072-1.904 1.728-3.467 2.128-.9.231-1.69.308-2.478.216-.785-.092-1.537-.35-2.364-.75-1.873-.905-3.65-2.043-3.781-4.422-.085-1.517.64-2.625 1.69-3.415 1.029-.774 2.391-1.263 3.684-1.597.978-.253 1.861-.382 2.738-.31zm6.97 18.413c-.609.215-1.27.423-1.998.559-1.005.186-1.97.107-2.824-.01-.268-.038-.52-.077-.757-.115-.55-.086-1.026-.16-1.468-.167-.6-.008-1.002.118-1.303.456-.327.37-.612 1.076-.732 2.428-.074.83.357 1.489 1.24 2.096.896.614 2.157 1.1 3.524 1.575 2.242.78 3.895.947 6.3.504 2.003-.369 3.014-.944 4.521-2.01.226-.16.434-.3.627-.43.376-.254.696-.47.979-.715.398-.344.651-.692.758-1.173.167-.748-.151-1.368-.912-1.974-.775-.618-1.916-1.137-3.158-1.642-1.091-.443-2.036-.316-3.094.016-.351.11-.696.237-1.063.371-.205.075-.417.153-.64.231zm1.403-1.556c1.166-.366 2.374-.555 3.77.012 1.235.502 2.503 1.067 3.406 1.786.918.732 1.547 1.703 1.264 2.973-.167.754-.576 1.276-1.08 1.713-.328.283-.73.555-1.136.83-.184.123-.367.248-.546.374-1.58 1.118-2.725 1.774-4.918 2.178-2.586.476-4.414.289-6.81-.543-1.355-.471-2.74-.995-3.76-1.696-1.033-.709-1.79-1.67-1.672-3.008.126-1.418.437-2.39.982-3.004.57-.643 1.315-.802 2.064-.792.517.007 1.104.1 1.686.19.223.036.445.07.662.1.82.114 1.658.175 2.505.018a12.07 12.07 0 0 0 1.848-.518c.197-.07.396-.142.596-.215.383-.14.768-.281 1.14-.398zm-17.974-5.549c.692-.268 1.234-.372 1.73-.311.489.06.995.289 1.6.802 1.282 1.089 2.333 2.217 2.126 4.172-.107 1-.438 1.47-.94 2.182-.102.145-.211.3-.327.47-.8 1.185-1.296 1.75-2.25 2.116-.596.23-1.06.285-1.492.209-.44-.078-.904-.301-1.484-.722-.699-.508-1.291-1.021-1.723-1.67-.425-.641-.713-1.442-.754-2.55-.051-1.384.376-2.365 1.018-3.091.655-.74 1.559-1.243 2.496-1.607zm3.977-.272c-.706-.599-1.388-.94-2.124-1.031-.73-.09-1.45.074-2.214.37-1.012.393-2.08.97-2.884 1.877-.814.921-1.329 2.154-1.268 3.79.047 1.279.385 2.26.92 3.067.53.797 1.235 1.393 1.969 1.926.64.465 1.246.782 1.897.897.659.117 1.31.016 2.026-.26 1.255-.483 1.895-1.271 2.719-2.49.097-.143.195-.28.292-.417.52-.732 1.004-1.414 1.14-2.688.264-2.487-1.15-3.916-2.474-5.04zm29.753-.039c-.496-.061-1.038.043-1.73.311-.938.364-1.841.867-2.496 1.607-.642.726-1.07 1.707-1.018 3.09.041 1.109.329 1.91.754 2.55.432.65 1.024 1.163 1.723 1.67.58.422 1.043.645 1.484.723.432.076.895.021 1.493-.209.953-.367 1.448-.931 2.25-2.116.115-.17.224-.325.325-.47.503-.711.834-1.181.94-2.182.208-1.955-.843-3.083-2.126-4.172-.604-.513-1.11-.742-1.599-.802zm.123-.992c.736.09 1.418.432 2.124 1.032 1.323 1.123 2.737 2.553 2.473 5.04-.136 1.274-.62 1.956-1.14 2.688-.097.136-.195.274-.292.418-.824 1.218-1.464 2.006-2.719 2.49-.716.275-1.367.376-2.026.26-.65-.116-1.257-.433-1.897-.898-.734-.533-1.439-1.13-1.969-1.926-.535-.806-.873-1.788-.92-3.067-.06-1.636.454-2.869 1.268-3.79.803-.907 1.872-1.484 2.884-1.876.764-.297 1.485-.461 2.214-.371zM53.515 63.892c-1-.31-1.752-.44-2.182-.376-.686.104-1.145.31-1.426.56a1.175 1.175 0 0 0-.407.916c-.008.822.606 2.057 2.113 3.57.29.293.529.643.744.98l.17.27c.159.254.314.5.491.746.462.638 1.026 1.19 1.972 1.457 1.796.507 3.121.617 5.049.328 1.604-.24 2.41-.613 3.61-1.305.186-.107.355-.2.511-.285.298-.164.548-.3.77-.457.314-.221.476-.419.543-.664a.612.612 0 0 0-.065-.505c-.102-.173-.294-.36-.598-.557-.611-.397-1.518-.734-2.517-1.064-.529-.174-1.365-.54-2.326-.97l-.548-.245-.003-.002c-.835-.374-1.751-.785-2.673-1.175-1.13-.479-2.255-.921-3.228-1.222zm6.86 1.731c.978.437 1.762.779 2.232.934.987.326 2.013.697 2.747 1.173.37.24.704.53.916.89.222.378.295.811.168 1.275-.153.56-.523.93-.933 1.219-.267.188-.597.37-.926.55-.146.08-.291.16-.43.24-1.275.734-2.2 1.164-3.962 1.428-2.075.31-3.543.189-5.468-.355-1.238-.35-1.971-1.086-2.511-1.833a14.469 14.469 0 0 1-.542-.823 38.07 38.07 0 0 0-.152-.24c-.211-.332-.4-.603-.61-.813-1.543-1.55-2.416-3.038-2.404-4.285a2.173 2.173 0 0 1 .744-1.657c.474-.42 1.14-.678 1.94-.799.68-.102 1.633.102 2.627.41 1.021.316 2.182.773 3.322 1.256.932.395 1.86.81 2.695 1.185l.547.245z"
      fill="#000"
    />
  </g>
  <path
    d="M1 3h7v1H1V3zm7 16h6v1H8v-1zM1 35h7v1H1v-1zm7 16h6v1H8v-1zm6-40h8v1h-8zM9 27h3v1H9zm5 16h8v1h-8zM9 59h3v1H9zm8-56h1v1h-1zm0 16h13v1H17zm0 16h1v1h-1zm0 16h13v1H17zm8-40h13v1H25v-1zm0 16h13v1H25v-1zm0 16h13v1H25v-1zm0 16h13v1H25v-1zm8-56h7v1h-7V3zm7 16h6v1h-6v-1zm-7 16h7v1h-7v-1zm7 16h6v1h-6v-1zm6-40h8v1h-8zm-5 16h3v1h-3zm5 16h8v1h-8zm-5 16h3v1h-3zm8-56h1v1h-1V3zm0 16h13v1H49v-1zm0 16h1v1h-1v-1zm0 16h13v1H49v-1zm8-40h7v1h-7zm0 16h7v1h-7zm0 16h7v1h-7zm0 16h7v1h-7zM0 11h6v1H0zm0 16h6v1H0zm0 16h6v1H0zm0 16h6v1H0z"
    fill="#000"
  />
  <defs>
    <clipPath id="a">
      <path fill="#fff" d="M0 0h32v32H0z" />
    </clipPath>
    <clipPath id="b">
      <path fill="#fff" transform="translate(0 32)" d="M0 0h32v32H0z" />
    </clipPath>
    <clipPath id="c">
      <path fill="#fff" transform="translate(32)" d="M0 0h32v32H0z" />
    </clipPath>
    <clipPath id="d">
      <path fill="#fff" transform="translate(32 32)" d="M0 0h32v32H0z" />
    </clipPath>
  </defs>
</svg>
