<svg viewBox="0 0 64 64" fill="none" xmlns="http://www.w3.org/2000/svg">
  <path fill="#FFF78F" d="M0 0h64v64H0z" />
  <path
    d="M0 1h1v1H0V1zm0 8h1v1H0V9zm0 8h1v1H0v-1zm0 8h1v1H0v-1zm0 8h1v1H0v-1zm0 8h1v1H0v-1zm0 8h1v1H0v-1zm0 8h1v1H0v-1zM4 5h1v1H4V5zm0 8h1v1H4v-1zm0 8h1v1H4v-1zm0 8h1v1H4v-1zm0 8h1v1H4v-1zm0 8h1v1H4v-1zm0 8h1v1H4v-1zm0 8h1v1H4v-1zM24 1h1v1h-1V1zm0 8h1v1h-1V9zm0 8h1v1h-1v-1zm0 16h1v1h-1v-1zm0 8h1v1h-1v-1zm0 8h1v1h-1v-1zm4-44h1v1h-1V5zm0 8h1v1h-1v-1zm0 8h1v1h-1v-1zm0 8h1v1h-1v-1zm0 8h1v1h-1v-1zm0 8h1v1h-1v-1zm0 8h1v1h-1v-1zm0 8h1v1h-1v-1zM8 1h1v1H8V1zm0 16h1v1H8v-1zm0 8h1v1H8v-1zm0 8h1v1H8v-1zm0 16h1v1H8v-1zm0 8h1v1H8v-1zm4-52h1v1h-1V5zm0 8h1v1h-1v-1zm0 8h1v1h-1v-1zm0 8h1v1h-1v-1zm0 8h1v1h-1v-1zm0 8h1v1h-1v-1zm0 8h1v1h-1v-1zm0 8h1v1h-1v-1zM32 1h1v1h-1V1zm0 8h1v1h-1V9zm0 8h1v1h-1v-1zm0 8h1v1h-1v-1zm0 8h1v1h-1v-1zm0 8h1v1h-1v-1zm0 8h1v1h-1v-1zm0 8h1v1h-1v-1zm4-52h1v1h-1V5zm0 8h1v1h-1v-1zm0 8h1v1h-1v-1zm0 8h1v1h-1v-1zm0 8h1v1h-1v-1zm0 8h1v1h-1v-1zm0 8h1v1h-1v-1zm0 8h1v1h-1v-1zM48 1h1v1h-1V1zm0 8h1v1h-1V9zm0 8h1v1h-1v-1zm0 8h1v1h-1v-1zm0 8h1v1h-1v-1zm0 8h1v1h-1v-1zm0 8h1v1h-1v-1zm0 8h1v1h-1v-1zm4-52h1v1h-1V5zm0 8h1v1h-1v-1zm0 8h1v1h-1v-1zm0 8h1v1h-1v-1zm0 8h1v1h-1v-1zm0 8h1v1h-1v-1zm0 8h1v1h-1v-1zm0 8h1v1h-1v-1zM16 1h1v1h-1V1zm0 8h1v1h-1V9zm0 8h1v1h-1v-1zm0 8h1v1h-1v-1zm0 8h1v1h-1v-1zm0 8h1v1h-1v-1zm0 8h1v1h-1v-1zm0 8h1v1h-1v-1zm4-52h1v1h-1V5zm0 8h1v1h-1v-1zm0 8h1v1h-1v-1zm0 8h1v1h-1v-1zm0 8h1v1h-1v-1zm0 8h1v1h-1v-1zm0 8h1v1h-1v-1zm0 8h1v1h-1v-1zM40 1h1v1h-1V1zm0 16h1v1h-1v-1zm0 8h1v1h-1v-1zm0 8h1v1h-1v-1zm0 16h1v1h-1v-1zm0 8h1v1h-1v-1zm4-52h1v1h-1V5zm0 8h1v1h-1v-1zm0 8h1v1h-1v-1zm0 8h1v1h-1v-1zm0 8h1v1h-1v-1zm0 8h1v1h-1v-1zm0 8h1v1h-1v-1zm0 8h1v1h-1v-1zM56 1h1v1h-1V1zm0 8h1v1h-1V9zm0 8h1v1h-1v-1zm0 16h1v1h-1v-1zm0 8h1v1h-1v-1zm0 8h1v1h-1v-1zm4-44h1v1h-1V5zm0 8h1v1h-1v-1zm0 8h1v1h-1v-1zm0 8h1v1h-1v-1zm0 8h1v1h-1v-1zm0 8h1v1h-1v-1zm0 8h1v1h-1v-1zm0 8h1v1h-1v-1zM10.792 9.5a2.5 2.5 0 1 1 0-2H9.618a1.5 1.5 0 1 0 0 2h1.174zm32 0a2.5 2.5 0 1 1 0-2h-1.174a1.5 1.5 0 1 0 0 2h1.174zm-16 16a2.5 2.5 0 1 1 0-2h-1.174a1.5 1.5 0 1 0 0 2h1.174zm32 0a2.5 2.5 0 1 1 0-2h-1.174a1.5 1.5 0 1 0 0 2h1.174zm-48 16a2.5 2.5 0 1 1 0-2H9.618a1.5 1.5 0 1 0 0 2h1.174zm32 0a2.5 2.5 0 1 1 0-2h-1.174a1.5 1.5 0 1 0 0 2h1.174zm-16 16a2.5 2.5 0 1 1 0-2h-1.174a1.5 1.5 0 1 0 0 2h1.174zm32 0a2.5 2.5 0 1 1 0-2h-1.174a1.5 1.5 0 1 0 0 2h1.174z"
    fill="#000"
  />
</svg>
