<svg viewBox="0 0 64 64" fill="none" xmlns="http://www.w3.org/2000/svg">
  <path fill="#FFF78F" d="M0 0h64v64H0z" />
  <path
    d="M1 1H0v1h1V1zm0 8H0v1h1V9zm-1 8h1v1H0v-1zm1 8H0v1h1v-1zm-1 8h1v1H0v-1zm1 8H0v1h1v-1zm-1 8h1v1H0v-1zm1 8H0v1h1v-1zM4 5h1v1H4V5zm1 8H4v1h1v-1zm-1 8h1v1H4v-1zm1 8H4v1h1v-1zm-1 8h1v1H4v-1zm1 8H4v1h1v-1zm-1 8h1v1H4v-1zm1 8H4v1h1v-1zM24 1h1v1h-1V1zm1 8h-1v1h1V9zm-1 8h1v1h-1v-1zm1 8h-1v1h1v-1zm-1 8h1v1h-1v-1zm1 8h-1v1h1v-1zm-1 8h1v1h-1v-1zm1 8h-1v1h1v-1zm3-52h1v1h-1V5zm1 8h-1v1h1v-1zm-1 8h1v1h-1v-1zm1 8h-1v1h1v-1zm-1 8h1v1h-1v-1zm1 8h-1v1h1v-1zm-1 8h1v1h-1v-1zm1 8h-1v1h1v-1zM8 1h1v1H8V1zm1 8H8v1h1V9zm-1 8h1v1H8v-1zm1 8H8v1h1v-1zm-1 8h1v1H8v-1zm1 8H8v1h1v-1zm-1 8h1v1H8v-1zm1 8H8v1h1v-1zm3-52h1v1h-1V5zm1 16h-1v1h1v-1zm-1 8h1v1h-1v-1zm1 8h-1v1h1v-1zm-1 16h1v1h-1v-1zm1 8h-1v1h1v-1zM32 1h1v1h-1V1zm1 8h-1v1h1V9zm-1 8h1v1h-1v-1zm1 8h-1v1h1v-1zm-1 8h1v1h-1v-1zm1 8h-1v1h1v-1zm-1 8h1v1h-1v-1zm1 8h-1v1h1v-1zm3-52h1v1h-1V5zm1 8h-1v1h1v-1zm-1 8h1v1h-1v-1zm1 8h-1v1h1v-1zm-1 8h1v1h-1v-1zm1 8h-1v1h1v-1zm-1 8h1v1h-1v-1zm1 8h-1v1h1v-1zM48 1h1v1h-1V1zm1 8h-1v1h1V9zm3 12h1v1h-1v-1zm-3 4h-1v1h1v-1zm-1 8h1v1h-1v-1zm1 8h-1v1h1v-1zm3 12h1v1h-1v-1zm-3 5v-1h-1v1h1zm3-53h1v1h-1V5zm1 8h-1v1h1v-1zm-9 0h1v1h-1v-1zm9 16h-1v1h1v-1zm-1 8h1v1h-1v-1zm1 8h-1v1h1v-1zm-9 0h1v1h-1v-1zm9 16h-1v1h1v-1zM16 1h1v1h-1V1zm1 8h-1v1h1V9zm3 12h1v1h-1v-1zm-4 4v1h1v-1h-1zm1 8v1h-1v-1h1zm-1 8v1h1v-1h-1zm4 12h1v1h-1v-1zm-4 4v1h1v-1h-1zm4-52h1v1h-1V5zm1 8h-1v1h1v-1zm-9 0h1v1h-1v-1zm9 16h-1v1h1v-1zm-1 8h1v1h-1v-1zm1 8h-1v1h1v-1zm-9 0h1v1h-1v-1zm9 16h-1v1h1v-1zM40 1h1v1h-1V1zm1 8h-1v1h1V9zm-1 8h1v1h-1v-1zm9 0h-1v1h1v-1zM17 49v1h-1v-1h1zm24-24h-1v1h1v-1zm-1 8h1v1h-1v-1zm1 8h-1v1h1v-1zm-1 8h1v1h-1v-1zm1 8h-1v1h1v-1zm3-52h1v1h-1V5zm1 16h-1v1h1v-1zm-1 8h1v1h-1v-1zm1 8h-1v1h1v-1zm-1 16h1v1h-1v-1zm1 8h-1v1h1v-1zM56 1h1v1h-1V1zm1 8h-1v1h1V9zm-1 8h1v1h-1v-1zm1 8h-1v1h1v-1zm-1 8h1v1h-1v-1zm1 8h-1v1h1v-1zm-1 8h1v1h-1v-1zm1 8h-1v1h1v-1zm3-52h1v1h-1V5zm1 8h-1v1h1v-1zm-1 8h1v1h-1v-1zm1 8h-1v1h1v-1zm-1 8h1v1h-1v-1zm1 8h-1v1h1v-1zm-1 8h1v1h-1v-1zm1 8h-1v1h1v-1zM14 20v-5h1l1.5 2.5L18 15h1v5h-1v-2.9l-1.5 2.4-1.5-2.4V20h-1zm32 32h1v-2.9l1.5 2.4 1.5-2.4V52h1v-5h-1l-1.5 2.5L47 47h-1v5z"
    fill="#000"
  />
</svg>
