<svg viewBox="0 0 64 64" fill="none" xmlns="http://www.w3.org/2000/svg">
  <path fill="#FFF78F" d="M0 0h64v64H0z" />
  <path
    d="M1 1H0v1h1V1zm0 8H0v1h1V9zm-1 8h1v1H0v-1zm1 8H0v1h1v-1zm-1 8h1v1H0v-1zm1 8H0v1h1v-1zm-1 8h1v1H0v-1zm1 8H0v1h1v-1zM4 5h1v1H4V5zm1 8H4v1h1v-1zm-1 8h1v1H4v-1zm1 8H4v1h1v-1zm-1 8h1v1H4v-1zm1 8H4v1h1v-1zm-1 8h1v1H4v-1zm1 8H4v1h1v-1zM24 1h1v1h-1V1zm1 8h-1v1h1V9zm-1 8h1v1h-1v-1zm1 8h-1v1h1v-1zm-1 8h1v1h-1v-1zm1 8h-1v1h1v-1zm-1 8h1v1h-1v-1zm1 8h-1v1h1v-1zm3-52h1v1h-1V5zm1 8h-1v1h1v-1zm-1 8h1v1h-1v-1zm1 8h-1v1h1v-1zm-1 8h1v1h-1v-1zm1 8h-1v1h1v-1zm-1 8h1v1h-1v-1zm1 8h-1v1h1v-1zM8 1h1v1H8V1zm1 8H8v1h1V9zm-1 8h1v1H8v-1zm1 8H8v1h1v-1zm-1 8h1v1H8v-1zm1 8H8v1h1v-1zm-1 8h1v1H8v-1zm1 8H8v1h1v-1zm3-52h1v1h-1V5zm1 16h-1v1h1v-1zm-1 8h1v1h-1v-1zm1 8h-1v1h1v-1zm-1 16h1v1h-1v-1zm1 8h-1v1h1v-1zM32 1h1v1h-1V1zm1 8h-1v1h1V9zm-1 8h1v1h-1v-1zm1 8h-1v1h1v-1zm-1 8h1v1h-1v-1zm1 8h-1v1h1v-1zm-1 8h1v1h-1v-1zm1 8h-1v1h1v-1zm3-52h1v1h-1V5zm1 8h-1v1h1v-1zm-1 8h1v1h-1v-1zm1 8h-1v1h1v-1zm-1 8h1v1h-1v-1zm1 8h-1v1h1v-1zm-1 8h1v1h-1v-1zm1 8h-1v1h1v-1zM48 1h1v1h-1V1zm1 8h-1v1h1V9zm3 12h1v1h-1v-1zm-3 4h-1v1h1v-1zm-1 8h1v1h-1v-1zm1 8h-1v1h1v-1zm3 12h1v1h-1v-1zm-3 4h-1v1h1v-1zm3-52h1v1h-1V5zm1 8h-1v1h1v-1zm-9 0h1v1h-1v-1zm9 16h-1v1h1v-1zm-1 8h1v1h-1v-1zm1 8h-1v1h1v-1zm-9 0h1v1h-1v-1zm9 16h-1v1h1v-1zM16 1h1v1h-1V1zm1 8h-1v1h1V9zm3 12h1v1h-1v-1zm-3 4h-1v1h1v-1zm-1 8h1v1h-1v-1zm1 8h-1v1h1v-1zm3 12h1v1h-1v-1zm-3 4h-1v1h1v-1zm3-52h1v1h-1V5zm1 8h-1v1h1v-1zm-9 0h1v1h-1v-1zm9 16h-1v1h1v-1zm-1 8h1v1h-1v-1zm1 8h-1v1h1v-1zm-9 0h1v1h-1v-1zm9 16h-1v1h1v-1zM40 1h1v1h-1V1zm1 8h-1v1h1V9zm-1 8h1v1h-1v-1zm9 0h-1v1h1v-1zM16 49h1v1h-1v-1zm25-24h-1v1h1v-1zm-1 8h1v1h-1v-1zm1 8h-1v1h1v-1zm-1 8h1v1h-1v-1zm1 8h-1v1h1v-1zm3-52h1v1h-1V5zm1 16h-1v1h1v-1zm-1 8h1v1h-1v-1zm1 8h-1v1h1v-1zm-1 16h1v1h-1v-1zm1 8h-1v1h1v-1zM56 1h1v1h-1V1zm1 8h-1v1h1V9zm-1 8h1v1h-1v-1zm1 8h-1v1h1v-1zm-1 8h1v1h-1v-1zm1 8h-1v1h1v-1zm-1 8h1v1h-1v-1zm1 8h-1v1h1v-1zm3-52h1v1h-1V5zm1 8h-1v1h1v-1zm-1 8h1v1h-1v-1zm1 8h-1v1h1v-1zm-1 8h1v1h-1v-1zm1 8h-1v1h1v-1zm-1 8h1v1h-1v-1zm1 8h-1v1h1v-1zM10 15c.195 1.688 1.687 3 3.5 3s3.305-1.313 3.5-3h-1c-.181.856-1 2-2.5 2s-2.319-1.144-2.5-2h-1zm9.5 2c1.813 0 3.305 1.313 3.5 3h-1c-.181-.856-1-2-2.5-2s-2.319 1.144-2.5 2h-1c.195-1.688 1.687-3 3.5-3zM42 47c.195 1.688 1.687 3 3.5 3s3.305-1.313 3.5-3h-1c-.181.856-1 2-2.5 2s-2.319-1.144-2.5-2h-1zm9.5 2c1.813 0 3.305 1.313 3.5 3h-1c-.181-.856-1-2-2.5-2s-2.319 1.144-2.5 2h-1c.195-1.688 1.687-3 3.5-3z"
    fill="#000"
  />
</svg>
