<svg viewBox="0 0 64 64" fill="none" xmlns="http://www.w3.org/2000/svg">
  <path fill="#FFF78F" d="M0 0h64v64H0z" />
  <path
    d="M1 1H0v1h1V1zm0 8H0v1h1V9zm-1 8h1v1H0v-1zm1 8H0v1h1v-1zm-1 8h1v1H0v-1zm1 8H0v1h1v-1zm-1 8h1v1H0v-1zm1 8H0v1h1v-1zM4 5h1v1H4V5zm1 8H4v1h1v-1zm-1 8h1v1H4v-1zm1 8H4v1h1v-1zm-1 8h1v1H4v-1zm1 8H4v1h1v-1zm-1 8h1v1H4v-1zm1 8H4v1h1v-1zM24 1h1v1h-1V1zm1 8h-1v1h1V9zm-1 8h1v1h-1v-1zm1 8h-1v1h1v-1zm-1 8h1v1h-1v-1zm1 8h-1v1h1v-1zm-1 8h1v1h-1v-1zm1 8h-1v1h1v-1zm3-52h1v1h-1V5zm1 8h-1v1h1v-1zm-1 8h1v1h-1v-1zm1 8h-1v1h1v-1zm-1 8h1v1h-1v-1zm1 8h-1v1h1v-1zm-1 8h1v1h-1v-1zm1 8h-1v1h1v-1zM8 1h1v1H8V1zm1 8H8v1h1V9zm-1 8h1v1H8v-1zm1 8H8v1h1v-1zm-1 8h1v1H8v-1zm1 8H8v1h1v-1zm-1 8h1v1H8v-1zm1 8H8v1h1v-1zm3-52h1v1h-1V5zm1 16h-1v1h1v-1zm-1 8h1v1h-1v-1zm1 8h-1v1h1v-1zm-1 16h1v1h-1v-1zm1 8h-1v1h1v-1zM32 1h1v1h-1V1zm1 8h-1v1h1V9zm-1 8h1v1h-1v-1zm1 8h-1v1h1v-1zm-1 8h1v1h-1v-1zm1 8h-1v1h1v-1zm-1 8h1v1h-1v-1zm1 8h-1v1h1v-1zm3-52h1v1h-1V5zm1 8h-1v1h1v-1zm-1 8h1v1h-1v-1zm1 8h-1v1h1v-1zm-1 8h1v1h-1v-1zm1 8h-1v1h1v-1zm-1 8h1v1h-1v-1zm1 8h-1v1h1v-1zM48 1h1v1h-1V1zm1 8h-1v1h1V9zm3 12h1v1h-1v-1zm-3 4h-1v1h1v-1zm-1 8h1v1h-1v-1zm1 8h-1v1h1v-1zm3 12h1v1h-1v-1zm-3 5v-1h-1v1h1zm3-53h1v1h-1V5zm1 8h-1v1h1v-1zm-9 0h1v1h-1v-1zm9 16h-1v1h1v-1zm-1 8h1v1h-1v-1zm1 8h-1v1h1v-1zm-9 0h1v1h-1v-1zm9 16h-1v1h1v-1zM16 1h1v1h-1V1zm1 8h-1v1h1V9zm3 12h1v1h-1v-1zm-4 4v1h1v-1h-1zm1 8v1h-1v-1h1zm-1 8v1h1v-1h-1zm4 12h1v1h-1v-1zm-4 4v1h1v-1h-1zm4-52h1v1h-1V5zm1 8h-1v1h1v-1zm-9 0h1v1h-1v-1zm9 16h-1v1h1v-1zm-1 8h1v1h-1v-1zm1 8h-1v1h1v-1zm-9 0h1v1h-1v-1zm9 16h-1v1h1v-1zM40 1h1v1h-1V1zm1 8h-1v1h1V9zm-1 8h1v1h-1v-1zm9 0h-1v1h1v-1zM17 49v1h-1v-1h1zm24-24h-1v1h1v-1zm-1 8h1v1h-1v-1zm1 8h-1v1h1v-1zm-1 8h1v1h-1v-1zm1 8h-1v1h1v-1zm3-52h1v1h-1V5zm1 16h-1v1h1v-1zm-1 8h1v1h-1v-1zm1 8h-1v1h1v-1zm-1 16h1v1h-1v-1zm1 8h-1v1h1v-1zM56 1h1v1h-1V1zm1 8h-1v1h1V9zm-1 8h1v1h-1v-1zm1 8h-1v1h1v-1zm-1 8h1v1h-1v-1zm1 8h-1v1h1v-1zm-1 8h1v1h-1v-1zm1 8h-1v1h1v-1zm3-52h1v1h-1V5zm1 8h-1v1h1v-1zm-1 8h1v1h-1v-1zm1 8h-1v1h1v-1zm-1 8h1v1h-1v-1zm1 8h-1v1h1v-1zm-1 8h1v1h-1v-1zm1 8h-1v1h1v-1zM14 15h1v2.5a1.5 1.5 0 0 0 3 0V15h1v2.5a2.5 2.5 0 0 1-5 0V15zm33 32h-1v2.5a2.5 2.5 0 0 0 5 0V47h-1v2.5a1.5 1.5 0 0 1-3 0V47z"
    fill="#000"
  />
</svg>
