<svg viewBox="0 0 64 64" fill="none" xmlns="http://www.w3.org/2000/svg">
  <path fill="#FFF78F" d="M0 0h64v64H0z" />
  <path
    d="M0 9v1h1V9H0zm0 10h4v-1H3v-1h1v-1H0v1h2v1H0v1zm0 6v1h1v-1H0zm0 10h4v-1H3v-1h1v-1H0v1h2v1H0v1zm0 6v1h1v-1H0zm0 10h4v-1H3v-1h1v-1H0v1h2v1H0v1zm0 6v1h1v-1H0zm64-9h-3v1h1v1h-1v1h3v-1h-1v-1h1v-1zm0-16h-3v1h1v1h-1v1h3v-1h-1v-1h1v-1zm0-16h-3v1h1v1h-1v1h3v-1h-1v-1h1v-1zm0-16h-3v1h1v1h-1v1h3V2h-1V1h1V0z"
    fill="#000"
  />
  <path
    fill-rule="evenodd"
    clip-rule="evenodd"
    d="M52 0h-7v1h1v1h-1v1h7V2h-1V1h1V0zm-2 2h-3V1h3v1zM36 0h-7v1h1v1h-1v1h7V2h-1V1h1V0zm-2 2h-3V1h3v1zM20 0h-7v1h1v1h-1v1h7V2h-1V1h1V0zm-2 2h-3V1h3v1z"
    fill="#000"
  />
  <path
    d="M4 0H0v1h2v1H0v1h4V2H3V1h1V0zm20 1h1v1h-1V1zM5 13H4v1h1v-1zm8 0h-1v1h1v-1zm0 16h-1v1h1v-1zm0 16h-1v1h1v-1zm0 16h-1v1h1v-1zm16-48h-1v1h1v-1zm0 16h-1v1h1v-1zm0 16h-1v1h1v-1zm0 16h-1v1h1v-1zm16-48h-1v1h1v-1zm0 16h-1v1h1v-1zm0 16h-1v1h1v-1zm0 16h-1v1h1v-1zm16-48h-1v1h1v-1zm0 16h-1v1h1v-1zm0 16h-1v1h1v-1zm0 16h-1v1h1v-1zM5 29H4v1h1v-1zm0 16H4v1h1v-1zm0 16H4v1h1v-1zm19-44h1v1h-1v-1zm0 16h1v1h-1v-1zm0 16h1v1h-1v-1zm4-44h1v1h-1V5zm0 16h1v1h-1v-1zm0 16h1v1h-1v-1zm0 16h1v1h-1v-1zM8 1h1v1H8V1zm0 16h1v1H8v-1zm0 16h1v1H8v-1zm0 16h1v1H8v-1zm4-44h1v1h-1V5zM4 5h1v1H4V5zm0 16h1v1H4v-1zm0 16h1v1H4v-1zm0 16h1v1H4v-1zM20 5h1v1h-1V5zm0 16h1v1h-1v-1zm0 16h1v1h-1v-1zm0 16h1v1h-1v-1zM36 5h1v1h-1V5zm0 16h1v1h-1v-1zm0 16h1v1h-1v-1zm0 16h1v1h-1v-1zM52 5h1v1h-1V5zm0 16h1v1h-1v-1zm0 16h1v1h-1v-1zm0 16h1v1h-1v-1zM12 21h1v1h-1v-1zm0 16h1v1h-1v-1zm0 16h1v1h-1v-1zM32 9h1v1h-1V9zm0 16h1v1h-1v-1zm0 16h1v1h-1v-1zm0 16h1v1h-1v-1zm4-44h1v1h-1v-1zm0 16h1v1h-1v-1zm0 16h1v1h-1v-1zm0 16h1v1h-1v-1zM48 9h1v1h-1V9zm0 16h1v1h-1v-1zm0 16h1v1h-1v-1zm0 16h1v1h-1v-1zm4-44h1v1h-1v-1zm0 16h1v1h-1v-1zm0 16h1v1h-1v-1zm0 16h1v1h-1v-1zM16 9h1v1h-1V9zm0 16h1v1h-1v-1zm0 16h1v1h-1v-1zm0 16h1v1h-1v-1zm4-44h1v1h-1v-1zm0 16h1v1h-1v-1zm0 16h1v1h-1v-1zm0 16h1v1h-1v-1zM40 1h1v1h-1V1zm0 16h1v1h-1v-1zm0 16h1v1h-1v-1zm0 16h1v1h-1v-1zm4-44h1v1h-1V5zm0 16h1v1h-1v-1zm0 16h1v1h-1v-1zm0 16h1v1h-1v-1zM56 1h1v1h-1V1zm0 16h1v1h-1v-1zm0 16h1v1h-1v-1zm0 16h1v1h-1v-1zm4-44h1v1h-1V5zm0 16h1v1h-1v-1zm0 16h1v1h-1v-1zm0 16h1v1h-1v-1z"
    fill="#000"
  />
  <path
    fill-rule="evenodd"
    clip-rule="evenodd"
    d="M20 16h-7v1h1v1h-1v1h7v-1h-1v-1h1v-1zm-2 2h-3v-1h3v1zm2 14h-7v1h1v1h-1v1h7v-1h-1v-1h1v-1zm-2 2h-3v-1h3v1zm2 14h-7v1h1v1h-1v1h7v-1h-1v-1h1v-1zm-2 2h-3v-1h3v1zm18-34h-7v1h1v1h-1v1h7v-1h-1v-1h1v-1zm-2 2h-3v-1h3v1zm2 14h-7v1h1v1h-1v1h7v-1h-1v-1h1v-1zm-2 2h-3v-1h3v1zm2 14h-7v1h1v1h-1v1h7v-1h-1v-1h1v-1zm-2 2h-3v-1h3v1zm18-34h-7v1h1v1h-1v1h7v-1h-1v-1h1v-1zm-2 2h-3v-1h3v1zm2 14h-7v1h1v1h-1v1h7v-1h-1v-1h1v-1zm-2 2h-3v-1h3v1zm2 14h-7v1h1v1h-1v1h7v-1h-1v-1h1v-1zm-2 2h-3v-1h3v1zM37 8h7v1h-1v1h1v1h-7v-1h1V9h-1V8zm2 2h3V9h-3v1zm-2 14h7v1h-1v1h1v1h-7v-1h1v-1h-1v-1zm2 2h3v-1h-3v1zm-2 14h7v1h-1v1h1v1h-7v-1h1v-1h-1v-1zm2 2h3v-1h-3v1zm-2 14h7v1h-1v1h1v1h-7v-1h1v-1h-1v-1zm2 2h3v-1h-3v1zM21 8h7v1h-1v1h1v1h-7v-1h1V9h-1V8zm2 2h3V9h-3v1zm-2 14h7v1h-1v1h1v1h-7v-1h1v-1h-1v-1zm2 2h3v-1h-3v1zm-2 14h7v1h-1v1h1v1h-7v-1h1v-1h-1v-1zm2 2h3v-1h-3v1zm-2 14h7v1h-1v1h1v1h-7v-1h1v-1h-1v-1zm2 2h3v-1h-3v1zM5 8h7v1h-1v1h1v1H5v-1h1V9H5V8zm2 2h3V9H7v1zM5 24h7v1h-1v1h1v1H5v-1h1v-1H5v-1zm2 2h3v-1H7v1zM5 40h7v1h-1v1h1v1H5v-1h1v-1H5v-1zm2 2h3v-1H7v1zM5 56h7v1h-1v1h1v1H5v-1h1v-1H5v-1zm2 2h3v-1H7v1zM53 8h7v1h-1v1h1v1h-7v-1h1V9h-1V8zm2 2h3V9h-3v1zm-2 14h7v1h-1v1h1v1h-7v-1h1v-1h-1v-1zm2 2h3v-1h-3v1zm-2 14h7v1h-1v1h1v1h-7v-1h1v-1h-1v-1zm2 2h3v-1h-3v1zm-2 14h7v1h-1v1h1v1h-7v-1h1v-1h-1v-1zm2 2h3v-1h-3v1z"
    fill="#000"
  />
</svg>
