<svg viewBox="0 0 64 64" fill="none" xmlns="http://www.w3.org/2000/svg">
  <path fill="#FFF78F" d="M0 0h64v64H0z" />
  <path
    d="M0 3h.5a.5.5 0 0 0 0-1c-.175 0-.344-.03-.5-.085V.5a.5.5 0 0 0 .5.5 1.5 1.5 0 1 1 0 3H0V3zm0 6v1h1V9H0zm0 10h.5a.5.5 0 0 0 0-1c-.175 0-.344-.03-.5-.085V16.5a.5.5 0 0 0 .5.5 1.5 1.5 0 0 1 0 3H0v-1zm0 6v1h1v-1H0zm0 10h.5a.5.5 0 0 0 0-1c-.175 0-.344-.03-.5-.085V32.5a.5.5 0 0 0 .5.5 1.5 1.5 0 0 1 0 3H0v-1zm0 6v1h1v-1H0zm0 10h.5a.5.5 0 0 0 0-1c-.175 0-.344-.03-.5-.085V48.5a.5.5 0 0 0 .5.5 1.5 1.5 0 0 1 0 3H0v-1zm0 6v1h1v-1H0zm0 6.085C.156 63.03.325 63 .5 63h1v1H0v-.915zM15.085 64a1.5 1.5 0 0 1 1.415-1h1v1h-2.415zm16 0a1.5 1.5 0 0 1 1.415-1h1v1h-2.415zm16 0a1.5 1.5 0 0 1 1.415-1h1v1h-2.415zM64 63.085V64h-.915c.151-.426.489-.764.915-.915zm0-16v2.83a1.5 1.5 0 0 1 0-2.83zm0-16v2.83a1.5 1.5 0 0 1 0-2.83zm0-16v2.83a1.5 1.5 0 0 1 0-2.83zM63.085 0H64v1.915A1.5 1.5 0 0 1 63.085 0zM16.5 0h-1.415A1.5 1.5 0 0 0 16.5 2a.5.5 0 0 1 0 1H15v1h1.5a1.5 1.5 0 0 0 0-3 .5.5 0 0 1 0-1zm14.585 0H32.5a.5.5 0 0 0 0 1 1.5 1.5 0 0 1 0 3H31V3h1.5a.5.5 0 0 0 0-1 1.5 1.5 0 0 1-1.415-2zm16 0H48.5a.5.5 0 0 0 0 1 1.5 1.5 0 0 1 0 3H47V3h1.5a.5.5 0 0 0 0-1 1.5 1.5 0 0 1-1.415-2zM64 3v1h-1V3h1zm0 16v1h-1v-1h1zm0 16v1h-1v-1h1zm0 16v1h-1v-1h1zM0 47.085C.156 47.03.325 47 .5 47h1v1h-1a.5.5 0 0 0-.5.5v-1.415zm0-16C.156 31.03.325 31 .5 31h1v1h-1a.5.5 0 0 0-.5.5v-1.415zm0-16C.156 15.03.325 15 .5 15h1v1h-1a.5.5 0 0 0-.5.5v-1.415zM.5 0a.5.5 0 0 0-.5.5V0h.5zM25 1h-1v1h1V1zM5 13H4v1h1v-1zm7 0h1v1h-1v-1zm1 16h-1v1h1v-1zm-1 16h1v1h-1v-1zm1 16h-1v1h1v-1zm15-48h1v1h-1v-1zm1 16h-1v1h1v-1zm-1 16h1v1h-1v-1zm1 16h-1v1h1v-1zm15-48h1v1h-1v-1zm1 16h-1v1h1v-1zm-1 16h1v1h-1v-1zm1 16h-1v1h1v-1zm15-48h1v1h-1v-1zm1 16h-1v1h1v-1zm-1 16h1v1h-1v-1zm1 16h-1v1h1v-1zM4 29h1v1H4v-1zm1 16H4v1h1v-1zM4 61h1v1H4v-1zm21-44v1h-1v-1h1zm-1 16v1h1v-1h-1zm1 16v1h-1v-1h1zm4-44h-1v1h1V5zm-1 16h1v1h-1v-1zm1 16h-1v1h1v-1zm-1 16h1v1h-1v-1zM9 1H8v1h1V1zM8 17h1v1H8v-1zm1 16H8v1h1v-1zM8 49h1v1H8v-1zm5-44h-1v1h1V5zM4 5h1v1H4V5zm1 16H4v1h1v-1zM4 37h1v1H4v-1zm1 16H4v1h1v-1zM20 5h1v1h-1V5zm1 16h-1v1h1v-1zm-1 16h1v1h-1v-1zm1 16h-1v1h1v-1zM36 5h1v1h-1V5zm1 16h-1v1h1v-1zm-1 16h1v1h-1v-1zm1 16h-1v1h1v-1zM52 5h1v1h-1V5zm1 16h-1v1h1v-1zm-1 16h1v1h-1v-1zm1 16h-1v1h1v-1zM12 21h1v1h-1v-1zm1 16h-1v1h1v-1zm-1 16h1v1h-1v-1zM32 9v1h1V9h-1zm1 16v1h-1v-1h1zm-1 16v1h1v-1h-1zm1 16v1h-1v-1h1zm4-44h-1v1h1v-1zm-1 16h1v1h-1v-1zm1 16h-1v1h1v-1zm-1 16h1v1h-1v-1zM48 9v1h1V9h-1zm1 16v1h-1v-1h1zm-1 16v1h1v-1h-1zm1 16v1h-1v-1h1zm4-44h-1v1h1v-1zm-1 16h1v1h-1v-1zm1 16h-1v1h1v-1zm-1 16h1v1h-1v-1zM17 10V9h-1v1h1zm-1 16v-1h1v1h-1zm1 16v-1h-1v1h1zm-1 16v-1h1v1h-1zm5-45h-1v1h1v-1zm-1 16h1v1h-1v-1zm1 16h-1v1h1v-1zm-1 16h1v1h-1v-1zM41 1h-1v1h1V1zm0 16v1h-1v-1h1zm-1 16v1h1v-1h-1zm1 16v1h-1v-1h1zm4-44h-1v1h1V5zm-1 16h1v1h-1v-1zm1 16h-1v1h1v-1zm-1 16h1v1h-1v-1zM57 1h-1v1h1V1zm0 16v1h-1v-1h1zm-1 16v1h1v-1h-1zm1 16v1h-1v-1h1zm4-44h-1v1h1V5zm-1 16h1v1h-1v-1zm1 16h-1v1h1v-1zm-1 16h1v1h-1v-1zM17.5 15v1h-1a.5.5 0 0 0 0 1 1.5 1.5 0 0 1 0 3H15v-1h1.5a.5.5 0 0 0 0-1 1.5 1.5 0 0 1 0-3h1zm0 17v-1h-1a1.5 1.5 0 0 0 0 3 .5.5 0 0 1 0 1H15v1h1.5a1.5 1.5 0 0 0 0-3 .5.5 0 0 1 0-1h1zm0 15v1h-1a.5.5 0 0 0 0 1 1.5 1.5 0 0 1 0 3H15v-1h1.5a.5.5 0 0 0 0-1 1.5 1.5 0 0 1 0-3h1zm16-31v-1h-1a1.5 1.5 0 0 0 0 3 .5.5 0 0 1 0 1H31v1h1.5a1.5 1.5 0 0 0 0-3 .5.5 0 0 1 0-1h1zm0 15v1h-1a.5.5 0 0 0 0 1 1.5 1.5 0 0 1 0 3H31v-1h1.5a.5.5 0 0 0 0-1 1.5 1.5 0 0 1 0-3h1zm0 17v-1h-1a1.5 1.5 0 0 0 0 3 .5.5 0 0 1 0 1H31v1h1.5a1.5 1.5 0 0 0 0-3 .5.5 0 0 1 0-1h1zm16-32v-1h-1a1.5 1.5 0 0 0 0 3 .5.5 0 0 1 0 1H47v1h1.5a1.5 1.5 0 0 0 0-3 .5.5 0 0 1 0-1h1zm0 15v1h-1a.5.5 0 0 0 0 1 1.5 1.5 0 0 1 0 3H47v-1h1.5a.5.5 0 0 0 0-1 1.5 1.5 0 0 1 0-3h1zm0 17v-1h-1a1.5 1.5 0 0 0 0 3 .5.5 0 0 1 0 1H47v1h1.5a1.5 1.5 0 0 0 0-3 .5.5 0 0 1 0-1h1zm-9-41h1v1h-1a.5.5 0 0 0 0 1 1.5 1.5 0 0 1 0 3H39v-1h1.5a.5.5 0 0 0 0-1 1.5 1.5 0 0 1 0-3zm1 16h-1a1.5 1.5 0 0 0 0 3 .5.5 0 0 1 0 1H39v1h1.5a1.5 1.5 0 0 0 0-3 .5.5 0 0 1 0-1h1v-1zm-1 16h1v1h-1a.5.5 0 0 0 0 1 1.5 1.5 0 0 1 0 3H39v-1h1.5a.5.5 0 0 0 0-1 1.5 1.5 0 0 1 0-3zm1 16h-1a1.5 1.5 0 0 0 0 3 .5.5 0 0 1 0 1H39v1h1.5a1.5 1.5 0 0 0 0-3 .5.5 0 0 1 0-1h1v-1zm-17-48h1v1h-1a.5.5 0 0 0 0 1 1.5 1.5 0 0 1 0 3H23v-1h1.5a.5.5 0 0 0 0-1 1.5 1.5 0 0 1 0-3zm1 16h-1a1.5 1.5 0 0 0 0 3 .5.5 0 0 1 0 1H23v1h1.5a1.5 1.5 0 0 0 0-3 .5.5 0 0 1 0-1h1v-1zm-1 16h1v1h-1a.5.5 0 0 0 0 1 1.5 1.5 0 0 1 0 3H23v-1h1.5a.5.5 0 0 0 0-1 1.5 1.5 0 0 1 0-3zm1 16h-1a1.5 1.5 0 0 0 0 3 .5.5 0 0 1 0 1H23v1h1.5a1.5 1.5 0 0 0 0-3 .5.5 0 0 1 0-1h1v-1zM8.5 7h1v1h-1a.5.5 0 0 0 0 1 1.5 1.5 0 1 1 0 3H7v-1h1.5a.5.5 0 0 0 0-1 1.5 1.5 0 1 1 0-3zm1 16h-1a1.5 1.5 0 0 0 0 3 .5.5 0 0 1 0 1H7v1h1.5a1.5 1.5 0 0 0 0-3 .5.5 0 0 1 0-1h1v-1zm-1 16h1v1h-1a.5.5 0 0 0 0 1 1.5 1.5 0 0 1 0 3H7v-1h1.5a.5.5 0 0 0 0-1 1.5 1.5 0 0 1 0-3zm1 16h-1a1.5 1.5 0 0 0 0 3 .5.5 0 0 1 0 1H7v1h1.5a1.5 1.5 0 0 0 0-3 .5.5 0 0 1 0-1h1v-1zm48-48v1h-1a.5.5 0 0 0 0 1 1.5 1.5 0 0 1 0 3H55v-1h1.5a.5.5 0 0 0 0-1 1.5 1.5 0 0 1 0-3h1zm0 17v-1h-1a1.5 1.5 0 0 0 0 3 .5.5 0 0 1 0 1H55v1h1.5a1.5 1.5 0 0 0 0-3 .5.5 0 0 1 0-1h1zm0 15v1h-1a.5.5 0 0 0 0 1 1.5 1.5 0 0 1 0 3H55v-1h1.5a.5.5 0 0 0 0-1 1.5 1.5 0 0 1 0-3h1zm0 17v-1h-1a1.5 1.5 0 0 0 0 3 .5.5 0 0 1 0 1H55v1h1.5a1.5 1.5 0 0 0 0-3 .5.5 0 0 1 0-1h1z"
    fill="#000"
  />
</svg>
