<svg viewBox="0 0 64 64" fill="none" xmlns="http://www.w3.org/2000/svg">
  <path fill="#FFF78F" d="M0 0h64v64H0z" />
  <path
    d="M18.5 0h-1.118L16.5 1.764 15.618 0H14.5l2 4 2-4zM0 9v1h1V9H0zm0 10 .5 1L3 15H0v1h1.382L.5 17.764l-.5-1V19zm0 6v1h1v-1H0zm0 10 .5 1L3 31H0v1h1.382L.5 33.764l-.5-1V35zm0 6v1h1v-1H0zm0 10 .5 1L3 47H0v1h1.382L.5 49.764l-.5-1V51zm0 6v1h1v-1H0zm2.5 7 .5-1H0v1h2.5zm16 0 .5-1h-5l.5 1h4zm16 0 .5-1h-5l.5 1h4zm16 0 .5-1h-5l.5 1h4zM64 63h-2l.5 1H64v-1zm0-16h-2l2 4v-2.236L63.618 48H64v-1zm0-16h-2l2 4v-2.236L63.618 32H64v-1zm0-16h-2l2 4v-2.236L63.618 16H64v-1zM62.5 0 64 3V.764L63.618 0H62.5zm-16 0 2 4 2-4h-1.118L48.5 1.764 47.618 0H46.5zm-16 0 2 4 2-4h-1.118L32.5 1.764 31.618 0H30.5zM0 3V.764l.5 1L1.382 0H2.5l-2 4L0 3zm25-2h-1v1h1V1zM5 13H4v1h1v-1zm7 0h1v1h-1v-1zm1 16h-1v1h1v-1zm-1 16h1v1h-1v-1zm1 16h-1v1h1v-1zm15-48h1v1h-1v-1zm1 16h-1v1h1v-1zm-1 16h1v1h-1v-1zm1 16h-1v1h1v-1zm15-48h1v1h-1v-1zm1 16h-1v1h1v-1zm-1 16h1v1h-1v-1zm1 16h-1v1h1v-1zm15-48h1v1h-1v-1zm1 16h-1v1h1v-1zm-1 16h1v1h-1v-1zm1 16h-1v1h1v-1zM4 29h1v1H4v-1zm1 16H4v1h1v-1zM4 61h1v1H4v-1zm21-44v1h-1v-1h1zm-1 16v1h1v-1h-1zm1 16v1h-1v-1h1zm4-44h-1v1h1V5zm-1 16h1v1h-1v-1zm1 16h-1v1h1v-1zm-1 16h1v1h-1v-1zM9 1H8v1h1V1zM8 17h1v1H8v-1zm1 16H8v1h1v-1zM8 49h1v1H8v-1zm5-44h-1v1h1V5zM4 5h1v1H4V5zm1 16H4v1h1v-1zM4 37h1v1H4v-1zm1 16H4v1h1v-1zM20 5h1v1h-1V5zm1 16h-1v1h1v-1zm-1 16h1v1h-1v-1zm1 16h-1v1h1v-1zM36 5h1v1h-1V5zm1 16h-1v1h1v-1zm-1 16h1v1h-1v-1zm1 16h-1v1h1v-1zM52 5h1v1h-1V5zm1 16h-1v1h1v-1zm-1 16h1v1h-1v-1zm1 16h-1v1h1v-1zM12 21h1v1h-1v-1zm1 16h-1v1h1v-1zm-1 16h1v1h-1v-1zM32 9v1h1V9h-1zm1 16v1h-1v-1h1zm-1 16v1h1v-1h-1zm1 16v1h-1v-1h1zm4-44h-1v1h1v-1zm-1 16h1v1h-1v-1zm1 16h-1v1h1v-1zm-1 16h1v1h-1v-1zM48 9v1h1V9h-1zm1 16v1h-1v-1h1zm-1 16v1h1v-1h-1zm1 16v1h-1v-1h1zm4-44h-1v1h1v-1zm-1 16h1v1h-1v-1zm1 16h-1v1h1v-1zm-1 16h1v1h-1v-1zM17 10V9h-1v1h1zm-1 16v-1h1v1h-1zm1 16v-1h-1v1h1zm-1 16v-1h1v1h-1zm5-45h-1v1h1v-1zm-1 16h1v1h-1v-1zm1 16h-1v1h1v-1zm-1 16h1v1h-1v-1zM41 1h-1v1h1V1zm0 16v1h-1v-1h1zm-1 16v1h1v-1h-1zm1 16v1h-1v-1h1zm4-44h-1v1h1V5zm-1 16h1v1h-1v-1zm1 16h-1v1h1v-1zm-1 16h1v1h-1v-1zM57 1h-1v1h1V1zm0 16v1h-1v-1h1zm-1 16v1h1v-1h-1zm1 16v1h-1v-1h1zm4-44h-1v1h1V5zm-1 16h1v1h-1v-1zm1 16h-1v1h1v-1zm-1 16h1v1h-1v-1z"
    fill="#000"
  />
  <path
    fill-rule="evenodd"
    clip-rule="evenodd"
    d="m14 15 2.5 5 2.5-5h-5zm1.618 1 .882 1.764.882-1.764h-1.764zm.882 20L14 31h5l-2.5 5zm0-2.236L15.618 32h1.764l-.882 1.764zM14 47l2.5 5 2.5-5h-5zm1.618 1 .882 1.764.882-1.764h-1.764zM32.5 20 30 15h5l-2.5 5zm0-2.236L31.618 16h1.764l-.882 1.764zM30 31l2.5 5 2.5-5h-5zm1.618 1 .882 1.764.882-1.764h-1.764zm.882 20L30 47h5l-2.5 5zm0-2.236L31.618 48h1.764l-.882 1.764zM48.5 20 46 15h5l-2.5 5zm0-2.236L47.618 16h1.764l-.882 1.764zM46 31l2.5 5 2.5-5h-5zm1.618 1 .882 1.764.882-1.764h-1.764zm.882 20L46 47h5l-2.5 5zm0-2.236L47.618 48h1.764l-.882 1.764zM38 7l2.5 5L43 7h-5zm1.618 1 .882 1.764L41.382 8h-1.764zm.882 20L38 23h5l-2.5 5zm0-2.236L39.618 24h1.764l-.882 1.764zM38 39l2.5 5 2.5-5h-5zm1.618 1 .882 1.764.882-1.764h-1.764zm.882 20L38 55h5l-2.5 5zm0-2.236L39.618 56h1.764l-.882 1.764zM22 7l2.5 5L27 7h-5zm1.618 1 .882 1.764L25.382 8h-1.764zm.882 20L22 23h5l-2.5 5zm0-2.236L23.618 24h1.764l-.882 1.764zM22 39l2.5 5 2.5-5h-5zm1.618 1 .882 1.764.882-1.764h-1.764zm.882 20L22 55h5l-2.5 5zm0-2.236L23.618 56h1.764l-.882 1.764zM6 7l2.5 5L11 7H6zm1.618 1L8.5 9.764 9.382 8H7.618zM8.5 28 6 23h5l-2.5 5zm0-2.236L7.618 24h1.764L8.5 25.764zM6 39l2.5 5 2.5-5H6zm1.618 1 .882 1.764L9.382 40H7.618zM8.5 60 6 55h5l-2.5 5zm0-2.236L7.618 56h1.764L8.5 57.764zM54 7l2.5 5L59 7h-5zm1.618 1 .882 1.764L57.382 8h-1.764zm.882 20L54 23h5l-2.5 5zm0-2.236L55.618 24h1.764l-.882 1.764zM54 39l2.5 5 2.5-5h-5zm1.618 1 .882 1.764.882-1.764h-1.764zm.882 20L54 55h5l-2.5 5zm0-2.236L55.618 56h1.764l-.882 1.764z"
    fill="#000"
  />
</svg>
