<svg viewBox="0 0 64 64" fill="none" xmlns="http://www.w3.org/2000/svg">
  <path fill="#FFF78F" d="M0 0h64v64H0z" />
  <path
    d="M15 0v1h.571l1-1h1.379l-1.536 1.536L18.878 4H17.5l-2-2H15v2h-1V0h1zM.571 0H1.95L.414 1.536 2.878 4H1.5L0 2.5V.571L.571 0zM0 9v1h1V9H0zm0 9.5v-1.929L1.571 15H2.95L.414 17.536 2.878 20H1.5L0 18.5zM0 25v1h1v-1H0zm0 9.5v-1.929L1.571 31H2.95L.414 33.536 2.878 36H1.5L0 34.5zM0 41v1h1v-1H0zm0 9.5v-1.929L1.571 47H2.95L.414 49.536 2.878 52H1.5L0 50.5zM0 57v1h1v-1H0zm1.95 7H.57l1-1h1.38l-1 1zM63 64h-1v-1h1v1zm1-15.429V50.5l-.5-.5H63v2h-1v-5h1v2h.571l.429-.429zm0-16V34.5l-.5-.5H63v2h-1v-5h1v2h.571l.429-.429zm0-16V18.5l-.5-.5H63v2h-1v-5h1v2h.571l.429-.429zm0-16V2.5l-.5-.5H63v2h-1V0h1v1h.571L64 .571zM48.571 0h1.379l-1.536 1.536L50.878 4H49.5l-2-2H47v2h-1V0h1v1h.571l1-1zm-16 0h1.379l-1.536 1.536L34.878 4H33.5l-2-2H31v2h-1V0h1v1h.571l1-1zM49.95 64h-1.38l1-1h1.379l-1 1zM47 64h-1v-1h1v1zm-13.05 0h-1.38l1-1h1.379l-1 1zM31 64h-1v-1h1v1zm-13.05 0h-1.38l1-1h1.379l-1 1zM15 64h-1v-1h1v1zM25 1h-1v1h1V1zM5 13H4v1h1v-1zm7 0h1v1h-1v-1zm1 16h-1v1h1v-1zm-1 16h1v1h-1v-1zm1 16h-1v1h1v-1zm15-48h1v1h-1v-1zm1 16h-1v1h1v-1zm-1 16h1v1h-1v-1zm1 16h-1v1h1v-1zm15-48h1v1h-1v-1zm1 16h-1v1h1v-1zm-1 16h1v1h-1v-1zm1 16h-1v1h1v-1zm15-48h1v1h-1v-1zm1 16h-1v1h1v-1zm-1 16h1v1h-1v-1zm1 16h-1v1h1v-1zM4 29h1v1H4v-1zm1 16H4v1h1v-1zM4 61h1v1H4v-1zm20-44h1v1h-1v-1zm1 16h-1v1h1v-1zm-1 16h1v1h-1v-1zm5-44h-1v1h1V5zm-1 16h1v1h-1v-1zm1 16h-1v1h1v-1zm-1 16h1v1h-1v-1zM9 1H8v1h1V1zM8 17h1v1H8v-1zm1 16H8v1h1v-1zM8 49h1v1H8v-1zm5-44h-1v1h1V5zM4 5h1v1H4V5zm1 16H4v1h1v-1zM4 37h1v1H4v-1zm1 16H4v1h1v-1zM20 5h1v1h-1V5zm1 16h-1v1h1v-1zm-1 16h1v1h-1v-1zm1 16h-1v1h1v-1zM36 5h1v1h-1V5zm1 16h-1v1h1v-1zm-1 16h1v1h-1v-1zm1 16h-1v1h1v-1zM52 5h1v1h-1V5zm1 16h-1v1h1v-1zm-1 16h1v1h-1v-1zm1 16h-1v1h1v-1zM12 21h1v1h-1v-1zm1 16h-1v1h1v-1zm-1 16h1v1h-1v-1zM33 9h-1v1h1V9zm-1 16h1v1h-1v-1zm1 16h-1v1h1v-1zm-1 16h1v1h-1v-1zm5-44h-1v1h1v-1zm-1 16h1v1h-1v-1zm1 16h-1v1h1v-1zm-1 16h1v1h-1v-1zM49 9h-1v1h1V9zm-1 16h1v1h-1v-1zm1 16h-1v1h1v-1zm-1 16h1v1h-1v-1zm5-44h-1v1h1v-1zm-1 16h1v1h-1v-1zm1 16h-1v1h1v-1zm-1 16h1v1h-1v-1zM17 9h-1v1h1V9zm-1 16h1v1h-1v-1zm1 16h-1v1h1v-1zm-1 16h1v1h-1v-1zm5-44h-1v1h1v-1zm-1 16h1v1h-1v-1zm1 16h-1v1h1v-1zm-1 16h1v1h-1v-1zM41 1h-1v1h1V1zm-1 16h1v1h-1v-1zm1 16h-1v1h1v-1zm-1 16h1v1h-1v-1zm5-44h-1v1h1V5zm-1 16h1v1h-1v-1zm1 16h-1v1h1v-1zm-1 16h1v1h-1v-1zM57 1h-1v1h1V1zm-1 16h1v1h-1v-1zm1 16h-1v1h1v-1zm-1 16h1v1h-1v-1zm5-44h-1v1h1V5zm-1 16h1v1h-1v-1zm1 16h-1v1h1v-1zm-1 16h1v1h-1v-1zM17.571 15h1.379l-2.536 2.536L18.878 20H17.5l-2-2H15v2h-1v-5h1v2h.571l2-2zm1.379 16h-1.38l-2 2H15v-2h-1v5h1v-2h.5l2 2h1.378l-2.464-2.464L18.95 31zm-1.379 16h1.379l-2.536 2.536L18.878 52H17.5l-2-2H15v2h-1v-5h1v2h.571l2-2zM34.95 15h-1.38l-2 2H31v-2h-1v5h1v-2h.5l2 2h1.378l-2.464-2.464L34.95 15zm-1.379 16h1.379l-2.536 2.536L34.878 36H33.5l-2-2H31v2h-1v-5h1v2h.571l2-2zm1.379 16h-1.38l-2 2H31v-2h-1v5h1v-2h.5l2 2h1.378l-2.464-2.464L34.95 47zm16-32h-1.38l-2 2H47v-2h-1v5h1v-2h.5l2 2h1.378l-2.464-2.464L50.95 15zm-1.379 16h1.379l-2.536 2.536L50.878 36H49.5l-2-2H47v2h-1v-5h1v2h.571l2-2zm1.379 16h-1.38l-2 2H47v-2h-1v5h1v-2h.5l2 2h1.378l-2.464-2.464L50.95 47zM41.571 7h1.379l-2.536 2.536L42.878 12H41.5l-2-2H39v2h-1V7h1v2h.571l2-2zm1.379 16h-1.38l-2 2H39v-2h-1v5h1v-2h.5l2 2h1.378l-2.464-2.464L42.95 23zm-1.379 16h1.379l-2.536 2.536L42.878 44H41.5l-2-2H39v2h-1v-5h1v2h.571l2-2zm1.379 16h-1.38l-2 2H39v-2h-1v5h1v-2h.5l2 2h1.378l-2.464-2.464L42.95 55zM25.571 7h1.379l-2.536 2.536L26.878 12H25.5l-2-2H23v2h-1V7h1v2h.571l2-2zm1.379 16h-1.38l-2 2H23v-2h-1v5h1v-2h.5l2 2h1.378l-2.464-2.464L26.95 23zm-1.379 16h1.379l-2.536 2.536L26.878 44H25.5l-2-2H23v2h-1v-5h1v2h.571l2-2zm1.379 16h-1.38l-2 2H23v-2h-1v5h1v-2h.5l2 2h1.378l-2.464-2.464L26.95 55zM9.571 7h1.379L8.414 9.536 10.878 12H9.5l-2-2H7v2H6V7h1v2h.571l2-2zm1.379 16H9.57l-2 2H7v-2H6v5h1v-2h.5l2 2h1.378l-2.464-2.464L10.95 23zM9.571 39h1.379l-2.536 2.536L10.878 44H9.5l-2-2H7v2H6v-5h1v2h.571l2-2zm1.379 16H9.57l-2 2H7v-2H6v5h1v-2h.5l2 2h1.378l-2.464-2.464L10.95 55zM57.571 7h1.379l-2.536 2.536L58.878 12H57.5l-2-2H55v2h-1V7h1v2h.571l2-2zm1.379 16h-1.38l-2 2H55v-2h-1v5h1v-2h.5l2 2h1.378l-2.464-2.464L58.95 23zm-1.379 16h1.379l-2.536 2.536L58.878 44H57.5l-2-2H55v2h-1v-5h1v2h.571l2-2zm1.379 16h-1.38l-2 2H55v-2h-1v5h1v-2h.5l2 2h1.378l-2.464-2.464L58.95 55z"
    fill="#000"
  />
</svg>
