<svg viewBox="0 0 64 64" fill="none" xmlns="http://www.w3.org/2000/svg">
  <path fill="#FFF78F" d="M0 0h64v64H0z" />
  <path
    d="M0 1h1v1H0V1zm0 8h1v1H0V9zm0 8h1v1H0v-1zm0 8h1v1H0v-1zm0 8h1v1H0v-1zm0 8h1v1H0v-1zm0 8h1v1H0v-1zm0 8h1v1H0v-1zM4 5h1v1H4V5zm0 8h1v1H4v-1zm0 8h1v1H4v-1zm0 8h1v1H4v-1zm0 8h1v1H4v-1zm0 8h1v1H4v-1zm0 8h1v1H4v-1zm0 8h1v1H4v-1zM24 1h1v1h-1V1zm0 16h1v1h-1v-1zm0 16h1v1h-1v-1zm0 16h1v1h-1v-1zm4-44h1v1h-1V5zm0 8h1v1h-1v-1zm0 8h1v1h-1v-1zm0 8h1v1h-1v-1zm0 8h1v1h-1v-1zm0 8h1v1h-1v-1zm0 8h1v1h-1v-1zm0 8h1v1h-1v-1zM8 1h1v1H8V1zm0 16h1v1H8v-1zm0 8h1v1H8v-1zm0 8h1v1H8v-1zm0 16h1v1H8v-1zm4-44h1v1h-1V5zm0 8h1v1h-1v-1zm0 8h1v1h-1v-1zm0 8h1v1h-1v-1zm0 8h1v1h-1v-1zm0 8h1v1h-1v-1zm0 8h1v1h-1v-1zm0 8h1v1h-1v-1zM32 1h1v1h-1V1zm0 8h1v1h-1V9zm0 8h1v1h-1v-1zm0 8h1v1h-1v-1zm0 8h1v1h-1v-1zm0 8h1v1h-1v-1zm24 0h1v1h-1v-1zm-24 8h1v1h-1v-1zm0 8h1v1h-1v-1zm8 0h1v1h-1v-1zM36 5h1v1h-1V5zm0 8h1v1h-1v-1zm0 8h1v1h-1v-1zm0 8h1v1h-1v-1zm0 8h1v1h-1v-1zm0 8h1v1h-1v-1zm0 8h1v1h-1v-1zm0 8h1v1h-1v-1zM48 1h1v1h-1V1zm0 8h1v1h-1V9zm0 8h1v1h-1v-1zm0 8h1v1h-1v-1zm0 8h1v1h-1v-1zm0 8h1v1h-1v-1zm0 8h1v1h-1v-1zm0 8h1v1h-1v-1zm4-52h1v1h-1V5zm0 8h1v1h-1v-1zm0 8h1v1h-1v-1zm0 8h1v1h-1v-1zm0 8h1v1h-1v-1zm0 8h1v1h-1v-1zm0 8h1v1h-1v-1zm0 8h1v1h-1v-1zM16 1h1v1h-1V1zm0 8h1v1h-1V9zm8 0h1v1h-1V9zm32 0h1v1h-1V9zm-40 8h1v1h-1v-1zm0 8h1v1h-1v-1zm0 8h1v1h-1v-1zm0 8h1v1h-1v-1zm8 0h1v1h-1v-1zm-8 8h1v1h-1v-1zm0 8h1v1h-1v-1zm4-52h1v1h-1V5zm0 8h1v1h-1v-1zm0 8h1v1h-1v-1zm0 8h1v1h-1v-1zm0 8h1v1h-1v-1zm0 8h1v1h-1v-1zm0 8h1v1h-1v-1zm0 8h1v1h-1v-1zM40 1h1v1h-1V1zm0 16h1v1h-1v-1zm0 16h1v1h-1v-1zm0 16h1v1h-1v-1zm4-44h1v1h-1V5zm0 8h1v1h-1v-1zm0 8h1v1h-1v-1zm0 8h1v1h-1v-1zm0 8h1v1h-1v-1zm0 8h1v1h-1v-1zm0 8h1v1h-1v-1zm0 8h1v1h-1v-1zM56 1h1v1h-1V1zm0 16h1v1h-1v-1zm0 16h1v1h-1v-1zm0 16h1v1h-1v-1zm4-44h1v1h-1V5zm0 8h1v1h-1v-1zm0 8h1v1h-1v-1zm0 8h1v1h-1v-1zm0 8h1v1h-1v-1zm0 8h1v1h-1v-1zm0 8h1v1h-1v-1zm0 8h1v1h-1v-1zM8 7H7v5h1V7zm2 0H9v5h1V7zM2 9h4v1H2V9zm13 0h-4v1h4V9zM8 39H7v5h1v-5zm2 0H9v5h1v-5zm-8 2h4v1H2v-1zm13 0h-4v1h4v-1zm9-18h-1v5h1v-5zm2 0h-1v5h1v-5zm-8 2h4v1h-4v-1zm13 0h-4v1h4v-1zm-7 30h-1v5h1v-5zm2 0h-1v5h1v-5zm-8 2h4v1h-4v-1zm13 0h-4v1h4v-1zm25-34h-1v5h1v-5zm2 0h-1v5h1v-5zm-8 2h4v1h-4v-1zm13 0h-4v1h4v-1zm-7 30h-1v5h1v-5zm2 0h-1v5h1v-5zm-8 2h4v1h-4v-1zm13 0h-4v1h4v-1zM40 7h-1v5h1V7zm2 0h-1v5h1V7zm-8 2h4v1h-4V9zm13 0h-4v1h4V9zm-7 30h-1v5h1v-5zm2 0h-1v5h1v-5zm-8 2h4v1h-4v-1zm13 0h-4v1h4v-1zM6 60v-5h1l1.5 2.5L10 55h1v5h-1v-2.9l-1.5 2.4L7 57.1V60H6zm32-32v-5h1l1.5 2.5L42 23h1v5h-1v-2.9l-1.5 2.4-1.5-2.4V28h-1z"
    fill="#000"
  />
</svg>
