<svg viewBox="0 0 64 64" fill="none" xmlns="http://www.w3.org/2000/svg">
  <path fill="#FFF78F" d="M0 0h64v64H0z" />
  <path
    d="M0 1h1v1H0V1zm0 8h1v1H0V9zm0 8h1v1H0v-1zm0 8h1v1H0v-1zm0 8h1v1H0v-1zm0 8h1v1H0v-1zm0 8h1v1H0v-1zm0 8h1v1H0v-1zM4 5h1v1H4V5zm0 8h1v1H4v-1zm0 8h1v1H4v-1zm0 8h1v1H4v-1zm0 8h1v1H4v-1zm0 8h1v1H4v-1zm0 8h1v1H4v-1zm0 8h1v1H4v-1zM24 1h1v1h-1V1zm0 8h1v1h-1V9zm0 8h1v1h-1v-1zm0 16h1v1h-1v-1zm0 8h1v1h-1v-1zm0 8h1v1h-1v-1zm4-44h1v1h-1V5zm0 8h1v1h-1v-1zm0 8h1v1h-1v-1zm0 8h1v1h-1v-1zm0 8h1v1h-1v-1zm0 8h1v1h-1v-1zm0 8h1v1h-1v-1zm0 8h1v1h-1v-1zM8 1h1v1H8V1zm0 16h1v1H8v-1zm0 8h1v1H8v-1zm0 8h1v1H8v-1zm0 16h1v1H8v-1zm0 8h1v1H8v-1zm4-52h1v1h-1V5zm0 8h1v1h-1v-1zm0 8h1v1h-1v-1zm0 8h1v1h-1v-1zm0 8h1v1h-1v-1zm0 8h1v1h-1v-1zm0 8h1v1h-1v-1zm0 8h1v1h-1v-1zM32 1h1v1h-1V1zm0 8h1v1h-1V9zm0 8h1v1h-1v-1zm0 8h1v1h-1v-1zm0 8h1v1h-1v-1zm0 8h1v1h-1v-1zm0 8h1v1h-1v-1zm0 8h1v1h-1v-1zm4-52h1v1h-1V5zm0 8h1v1h-1v-1zm0 8h1v1h-1v-1zm0 8h1v1h-1v-1zm0 8h1v1h-1v-1zm0 8h1v1h-1v-1zm0 8h1v1h-1v-1zm0 8h1v1h-1v-1zM48 1h1v1h-1V1zm0 8h1v1h-1V9zm0 8h1v1h-1v-1zm0 8h1v1h-1v-1zm0 8h1v1h-1v-1zm0 8h1v1h-1v-1zm0 8h1v1h-1v-1zm0 8h1v1h-1v-1zm4-52h1v1h-1V5zm0 8h1v1h-1v-1zm0 8h1v1h-1v-1zm0 8h1v1h-1v-1zm0 8h1v1h-1v-1zm0 8h1v1h-1v-1zm0 8h1v1h-1v-1zm0 8h1v1h-1v-1zM16 1h1v1h-1V1zm0 8h1v1h-1V9zm0 8h1v1h-1v-1zm0 8h1v1h-1v-1zm0 8h1v1h-1v-1zm0 8h1v1h-1v-1zm0 8h1v1h-1v-1zm0 8h1v1h-1v-1zm4-52h1v1h-1V5zm0 8h1v1h-1v-1zm0 8h1v1h-1v-1zm0 8h1v1h-1v-1zm0 8h1v1h-1v-1zm0 8h1v1h-1v-1zm0 8h1v1h-1v-1zm0 8h1v1h-1v-1zM40 1h1v1h-1V1zm0 16h1v1h-1v-1zm0 8h1v1h-1v-1zm0 8h1v1h-1v-1zm0 16h1v1h-1v-1zm0 8h1v1h-1v-1zm4-52h1v1h-1V5zm0 8h1v1h-1v-1zm0 8h1v1h-1v-1zm0 8h1v1h-1v-1zm0 8h1v1h-1v-1zm0 8h1v1h-1v-1zm0 8h1v1h-1v-1zm0 8h1v1h-1v-1zM56 1h1v1h-1V1zm0 8h1v1h-1V9zm0 8h1v1h-1v-1zm0 16h1v1h-1v-1zm0 8h1v1h-1v-1zm0 8h1v1h-1v-1zm4-44h1v1h-1V5zm0 8h1v1h-1v-1zm0 8h1v1h-1v-1zm0 8h1v1h-1v-1zm0 8h1v1h-1v-1zm0 8h1v1h-1v-1zm0 8h1v1h-1v-1zm0 8h1v1h-1v-1z"
    fill="#000"
  />
  <path
    fill-rule="evenodd"
    clip-rule="evenodd"
    d="M8 8H7v3h1V8zm2 0H9v3h1V8zM8 40H7v3h1v-3zm2 0H9v3h1v-3zm14-16h-1v3h1v-3zm2 0h-1v3h1v-3zm-2 32h-1v3h1v-3zm2 0h-1v3h1v-3zm30-32h-1v3h1v-3zm2 0h-1v3h1v-3zm-2 32h-1v3h1v-3zm2 0h-1v3h1v-3zM40 8h-1v3h1V8zm2 0h-1v3h1V8zm-2 32h-1v3h1v-3zm2 0h-1v3h1v-3z"
    fill="#000"
  />
</svg>
