<svg viewBox="0 0 64 64" fill="none" xmlns="http://www.w3.org/2000/svg">
  <path fill="#FFF78F" d="M0 0h64v64H0z" />
  <path
    d="M0 1h1v1H0V1zm0 8h1v1H0V9zm0 8h1v1H0v-1zm0 8h1v1H0v-1zm0 8h1v1H0v-1zm0 8h1v1H0v-1zm0 8h1v1H0v-1zm0 8h1v1H0v-1zM4 5h1v1H4V5zm0 8h1v1H4v-1zm0 8h1v1H4v-1zm0 8h1v1H4v-1zm0 8h1v1H4v-1zm0 8h1v1H4v-1zm0 8h1v1H4v-1zm0 8h1v1H4v-1zM24 1h1v1h-1V1zm0 16h1v1h-1v-1zm0 16h1v1h-1v-1zm-8 0h1v1h-1v-1zm8 16h1v1h-1v-1zm-8 0h1v1h-1v-1zM28 5h1v1h-1V5zm0 8h1v1h-1v-1zm0 8h1v1h-1v-1zm0 8h1v1h-1v-1zm0 8h1v1h-1v-1zm0 8h1v1h-1v-1zm0 8h1v1h-1v-1zm0 8h1v1h-1v-1zM8 1h1v1H8V1zm0 16h1v1H8v-1zm0 16h1v1H8v-1zm0 16h1v1H8v-1zm4-44h1v1h-1V5zm0 8h1v1h-1v-1zm0 8h1v1h-1v-1zm0 8h1v1h-1v-1zm0 8h1v1h-1v-1zm0 8h1v1h-1v-1zm0 8h1v1h-1v-1zm0 8h1v1h-1v-1zM32 1h1v1h-1V1zm0 8h1v1h-1V9zm0 8h1v1h-1v-1zm0 8h1v1h-1v-1zm0 8h1v1h-1v-1zm0 8h1v1h-1v-1zm0 8h1v1h-1v-1zm0 8h1v1h-1v-1zm4-52h1v1h-1V5zm0 8h1v1h-1v-1zm0 8h1v1h-1v-1zm0 8h1v1h-1v-1zm0 8h1v1h-1v-1zm0 8h1v1h-1v-1zm0 8h1v1h-1v-1zm0 8h1v1h-1v-1zM48 1h1v1h-1V1zm0 8h1v1h-1V9zm0 16h1v1h-1v-1zm0 16h1v1h-1v-1zm0 16h1v1h-1v-1zm4-52h1v1h-1V5zm0 8h1v1h-1v-1zm0 8h1v1h-1v-1zm0 8h1v1h-1v-1zm0 8h1v1h-1v-1zm0 8h1v1h-1v-1zm0 8h1v1h-1v-1zm0 8h1v1h-1v-1zM16 1h1v1h-1V1zm0 8h1v1h-1V9zm0 16h1v1h-1v-1zm0 16h1v1h-1v-1zm0 16h1v1h-1v-1zm4-52h1v1h-1V5zm0 8h1v1h-1v-1zm0 8h1v1h-1v-1zm0 8h1v1h-1v-1zm0 8h1v1h-1v-1zm0 8h1v1h-1v-1zm0 8h1v1h-1v-1zm0 8h1v1h-1v-1zM40 1h1v1h-1V1zm0 16h1v1h-1v-1zm8 0h1v1h-1v-1zm-8 16h1v1h-1v-1zm8 0h1v1h-1v-1zm-8 16h1v1h-1v-1zm4-44h1v1h-1V5zm0 8h1v1h-1v-1zm0 8h1v1h-1v-1zm0 8h1v1h-1v-1zm0 8h1v1h-1v-1zm0 8h1v1h-1v-1zm0 8h1v1h-1v-1zm0 8h1v1h-1v-1zM56 1h1v1h-1V1zm0 16h1v1h-1v-1zm0 16h1v1h-1v-1zm0 16h1v1h-1v-1zm4-44h1v1h-1V5zm0 8h1v1h-1v-1zm0 8h1v1h-1v-1zm0 8h1v1h-1v-1zm0 8h1v1h-1v-1zm0 8h1v1h-1v-1zm0 8h1v1h-1v-1zm0 8h1v1h-1v-1z"
    fill="#000"
  />
  <path
    fill-rule="evenodd"
    clip-rule="evenodd"
    d="M8 8H7v3h1V8zm2 0H9v3h1V8zM8 40H7v3h1v-3zm2 0H9v3h1v-3zm14-16h-1v3h1v-3zm2 0h-1v3h1v-3zm-2 32h-1v3h1v-3zm2 0h-1v3h1v-3zm30-32h-1v3h1v-3zm2 0h-1v3h1v-3zm-2 32h-1v3h1v-3zm2 0h-1v3h1v-3zM40 8h-1v3h1V8zm2 0h-1v3h1V8zm-2 32h-1v3h1v-3zm2 0h-1v3h1v-3zM21 8h7v1h-1v1h1v1h-7v-1h1V9h-1V8zm2 2h3V9h-3v1zM5 24h7v1h-1v1h1v1H5v-1h1v-1H5v-1zm2 2h3v-1H7v1zm30-2h7v1h-1v1h1v1h-7v-1h1v-1h-1v-1zm2 2h3v-1h-3v1zM53 8h7v1h-1v1h1v1h-7v-1h1V9h-1V8zm2 2h3V9h-3v1zm-2 30h7v1h-1v1h1v1h-7v-1h1v-1h-1v-1zm2 2h3v-1h-3v1zm-34-2h7v1h-1v1h1v1h-7v-1h1v-1h-1v-1zm2 2h3v-1h-3v1zM5 56h7v1h-1v1h1v1H5v-1h1v-1H5v-1zm2 2h3v-1H7v1zm30-2h7v1h-1v1h1v1h-7v-1h1v-1h-1v-1zm2 2h3v-1h-3v1z"
    fill="#000"
  />
  <path
    d="M14 20v-5h1l1.5 2.5L18 15h1v5h-1v-2.9l-1.5 2.4-1.5-2.4V20h-1zm32 32v-5h1l1.5 2.5L50 47h1v5h-1v-2.9l-1.5 2.4-1.5-2.4V52h-1z"
    fill="#000"
  />
</svg>
