<svg viewBox="0 0 64 64" fill="none" xmlns="http://www.w3.org/2000/svg">
  <path fill="#B3D454" d="M0 0h64v64H0z" />
  <path
    fill-rule="evenodd"
    clip-rule="evenodd"
    d="M4 3H3v3h1V3zm2 0H5v3h1V3zM4 19H3v3h1v-3zm2 0H5v3h1v-3zM4 35H3v3h1v-3zm2 0H5v3h1v-3zM4 51H3v3h1v-3zm2 0H5v3h1v-3zm6-40h-1v3h1v-3zm2 0h-1v3h1v-3zm-2 16h-1v3h1v-3zm2 0h-1v3h1v-3zm-2 16h-1v3h1v-3zm2 0h-1v3h1v-3zm-2 16h-1v3h1v-3zm2 0h-1v3h1v-3zm6-56h-1v3h1V3zm2 0h-1v3h1V3zm-2 16h-1v3h1v-3zm2 0h-1v3h1v-3zm-2 16h-1v3h1v-3zm2 0h-1v3h1v-3zm-2 16h-1v3h1v-3zm2 0h-1v3h1v-3zm6-40h-1v3h1v-3zm2 0h-1v3h1v-3zm-2 16h-1v3h1v-3zm2 0h-1v3h1v-3zm-2 16h-1v3h1v-3zm2 0h-1v3h1v-3zm-2 16h-1v3h1v-3zm2 0h-1v3h1v-3zm6-56h-1v3h1V3zm2 0h-1v3h1V3zm-2 16h-1v3h1v-3zm2 0h-1v3h1v-3zm-2 16h-1v3h1v-3zm2 0h-1v3h1v-3zm-2 16h-1v3h1v-3zm2 0h-1v3h1v-3zm6-40h-1v3h1v-3zm2 0h-1v3h1v-3zm-2 16h-1v3h1v-3zm2 0h-1v3h1v-3zm-2 16h-1v3h1v-3zm2 0h-1v3h1v-3zm-2 16h-1v3h1v-3zm2 0h-1v3h1v-3zm6-56h-1v3h1V3zm2 0h-1v3h1V3zm-2 16h-1v3h1v-3zm2 0h-1v3h1v-3zm-2 16h-1v3h1v-3zm2 0h-1v3h1v-3zm-2 16h-1v3h1v-3zm2 0h-1v3h1v-3zm6-40h-1v3h1v-3zm2 0h-1v3h1v-3zm-2 16h-1v3h1v-3zm2 0h-1v3h1v-3zm-2 16h-1v3h1v-3zm2 0h-1v3h1v-3zm-2 16h-1v3h1v-3zm2 0h-1v3h1v-3z"
    fill="#000"
  />
</svg>
