<svg viewBox="0 0 64 64" fill="none" xmlns="http://www.w3.org/2000/svg">
  <path fill="#B3D454" d="M0 0h64v64H0z" />
  <path
    fill-rule="evenodd"
    clip-rule="evenodd"
    d="M2 3H1v3h1V3zm2 0H3v3h1V3zM2 19H1v3h1v-3zm2 0H3v3h1v-3zM2 35H1v3h1v-3zm2 0H3v3h1v-3zM2 51H1v3h1v-3zm2 0H3v3h1v-3zm6-40H9v3h1v-3zm2 0h-1v3h1v-3zm-2 16H9v3h1v-3zm2 0h-1v3h1v-3zm-2 16H9v3h1v-3zm2 0h-1v3h1v-3zm-2 16H9v3h1v-3zm2 0h-1v3h1v-3zm6-56h-1v3h1V3zm2 0h-1v3h1V3zm-2 32h-1v3h1v-3zm2 0h-1v3h1v-3zm6-24h-1v3h1v-3zm2 0h-1v3h1v-3zm-2 16h-1v3h1v-3zm2 0h-1v3h1v-3zm-2 16h-1v3h1v-3zm2 0h-1v3h1v-3zm-2 16h-1v3h1v-3zm2 0h-1v3h1v-3zm6-56h-1v3h1V3zm2 0h-1v3h1V3zm-2 16h-1v3h1v-3zm2 0h-1v3h1v-3zm14 0h-1v3h1v-3zm2 0h-1v3h1v-3zM34 35h-1v3h1v-3zm2 0h-1v3h1v-3zm-2 16h-1v3h1v-3zm2 0h-1v3h1v-3zm-18 0h-1v3h1v-3zm2 0h-1v3h1v-3zm22-40h-1v3h1v-3zm2 0h-1v3h1v-3zm-2 16h-1v3h1v-3zm2 0h-1v3h1v-3zm-2 16h-1v3h1v-3zm2 0h-1v3h1v-3zm-2 16h-1v3h1v-3zm2 0h-1v3h1v-3zm6-56h-1v3h1V3zm2 0h-1v3h1V3zm-2 32h-1v3h1v-3zm2 0h-1v3h1v-3zm6-24h-1v3h1v-3zm2 0h-1v3h1v-3zm-2 16h-1v3h1v-3zm2 0h-1v3h1v-3zm-2 16h-1v3h1v-3zm2 0h-1v3h1v-3zm-2 16h-1v3h1v-3zm2 0h-1v3h1v-3z"
    fill="#000"
  />
  <path
    d="M19 18h-1v1.293l-.914-.915-.707.707.914.915H16v1h1.293l-.914.914.707.707.914-.914V23h1v-1.293l.914.914.707-.707-.914-.914H21v-1h-1.293l.914-.914-.707-.707-.914.914V18zm32 32h-1v1.293l-.914-.915-.707.707.914.915H48v1h1.293l-.914.914.707.707.914-.914V55h1v-1.293l.914.914.707-.707-.914-.914H53v-1h-1.293l.914-.914-.707-.707-.914.914V50z"
    fill="#000"
  />
</svg>
