<svg viewBox="0 0 64 64" fill="none" xmlns="http://www.w3.org/2000/svg">
  <path fill="#B3D454" d="M0 0h64v64H0z" />
  <path
    fill-rule="evenodd"
    clip-rule="evenodd"
    d="M2 3H1v3h1V3zm2 0H3v3h1V3zM2 19H1v3h1v-3zm2 0H3v3h1v-3zM2 35H1v3h1v-3zm2 0H3v3h1v-3zM2 51H1v3h1v-3zm2 0H3v3h1v-3zm6-40H9v3h1v-3zm2 0h-1v3h1v-3zm-2 16H9v3h1v-3zm2 0h-1v3h1v-3zm-2 16H9v3h1v-3zm2 0h-1v3h1v-3zm-2 16H9v3h1v-3zm2 0h-1v3h1v-3zm6-56h-1v3h1V3zm2 0h-1v3h1V3zm-2 32h-1v3h1v-3zm2 0h-1v3h1v-3zm6-24h-1v3h1v-3zm2 0h-1v3h1v-3zm-2 16h-1v3h1v-3zm2 0h-1v3h1v-3zm-2 16h-1v3h1v-3zm2 0h-1v3h1v-3zm-2 16h-1v3h1v-3zm2 0h-1v3h1v-3zm6-56h-1v3h1V3zm2 0h-1v3h1V3zm-2 16h-1v3h1v-3zm2 0h-1v3h1v-3zm-2 16h-1v3h1v-3zm2 0h-1v3h1v-3zm-2 16h-1v3h1v-3zm2 0h-1v3h1v-3zm6-40h-1v3h1v-3zm2 0h-1v3h1v-3zm-2 16h-1v3h1v-3zm2 0h-1v3h1v-3zm-2 16h-1v3h1v-3zm2 0h-1v3h1v-3zm-2 16h-1v3h1v-3zm2 0h-1v3h1v-3zm6-56h-1v3h1V3zm2 0h-1v3h1V3zm-2 32h-1v3h1v-3zm2 0h-1v3h1v-3zm6-24h-1v3h1v-3zm2 0h-1v3h1v-3zm-2 16h-1v3h1v-3zm2 0h-1v3h1v-3zm-2 16h-1v3h1v-3zm2 0h-1v3h1v-3zm-2 16h-1v3h1v-3zm2 0h-1v3h1v-3zM15.576 18.765l.848-.53 2.076 3.322 2.076-3.322.848.53-2.924 4.678-2.924-4.678zm32 0 .848-.53 2.076 3.322 2.076-3.322.848.53-2.924 4.678-2.924-4.678zm0 32 .848-.53 2.076 3.322 2.076-3.322.848.53-2.924 4.678-2.924-4.678zm-32 0 .848-.53 2.076 3.322 2.076-3.322.848.53-2.924 4.678-2.924-4.678z"
    fill="#000"
  />
</svg>
