<svg viewBox="0 0 64 64" fill="none" xmlns="http://www.w3.org/2000/svg">
  <path fill="#B3D454" d="M0 0h64v64H0z" />
  <path
    fill-rule="evenodd"
    clip-rule="evenodd"
    d="M2 3H1v3h1V3zm2 0H3v3h1V3zM2 19H1v3h1v-3zm2 0H3v3h1v-3zM2 35H1v3h1v-3zm2 0H3v3h1v-3zM2 51H1v3h1v-3zm2 0H3v3h1v-3zm6-40H9v3h1v-3zm2 0h-1v3h1v-3zm-2 16H9v3h1v-3zm2 0h-1v3h1v-3zm-2 16H9v3h1v-3zm2 0h-1v3h1v-3zm-2 16H9v3h1v-3zm2 0h-1v3h1v-3zm6-56h-1v3h1V3zm2 0h-1v3h1V3zm-2 32h-1v3h1v-3zm2 0h-1v3h1v-3zm6-24h-1v3h1v-3zm2 0h-1v3h1v-3zm-2 16h-1v3h1v-3zm2 0h-1v3h1v-3zm-2 16h-1v3h1v-3zm2 0h-1v3h1v-3zm-2 16h-1v3h1v-3zm2 0h-1v3h1v-3zm6-56h-1v3h1V3zm2 0h-1v3h1V3zm-2 16h-1v3h1v-3zm2 0h-1v3h1v-3zm-2 16h-1v3h1v-3zm2 0h-1v3h1v-3zm-2 16h-1v3h1v-3zm2 0h-1v3h1v-3zm6-40h-1v3h1v-3zm2 0h-1v3h1v-3zm-2 16h-1v3h1v-3zm2 0h-1v3h1v-3zm-2 16h-1v3h1v-3zm2 0h-1v3h1v-3zm-2 16h-1v3h1v-3zm2 0h-1v3h1v-3zm6-56h-1v3h1V3zm2 0h-1v3h1V3zm-2 32h-1v3h1v-3zm2 0h-1v3h1v-3zm6-24h-1v3h1v-3zm2 0h-1v3h1v-3zm-2 16h-1v3h1v-3zm2 0h-1v3h1v-3zm-2 16h-1v3h1v-3zm2 0h-1v3h1v-3zm-2 16h-1v3h1v-3zm2 0h-1v3h1v-3z"
    fill="#000"
  />
  <path
    d="M20.792 21.5a2.5 2.5 0 1 1 0-2h-1.174a1.5 1.5 0 1 0 0 2h1.174zm32 32a2.5 2.5 0 1 1 0-2h-1.174a1.5 1.5 0 1 0 0 2h1.174zm-32 0a2.5 2.5 0 1 1 0-2h-1.174a1.5 1.5 0 1 0 0 2h1.174zm32-32a2.5 2.5 0 1 1 0-2h-1.174a1.5 1.5 0 1 0 0 2h1.174z"
    fill="#000"
  />
</svg>
