<svg viewBox="0 0 64 64" fill="none" xmlns="http://www.w3.org/2000/svg">
  <path fill="#B3D454" d="M0 0h64v64H0z" />
  <path
    fill-rule="evenodd"
    clip-rule="evenodd"
    d="M2 3H1v3h1V3zm2 0H3v3h1V3zM2 19H1v3h1v-3zm2 0H3v3h1v-3zM2 35H1v3h1v-3zm2 0H3v3h1v-3zM2 51H1v3h1v-3zm2 0H3v3h1v-3zm14-32h-1v3h1v-3zm2 0h-1v3h1v-3zm-10 8H9v3h1v-3zm2 0h-1v3h1v-3zm-2 16H9v3h1v-3zm2 0h-1v3h1v-3zm-2 16H9v3h1v-3zm2 0h-1v3h1v-3zm6-56h-1v3h1V3zm2 0h-1v3h1V3zm-2 32h-1v3h1v-3zm2 0h-1v3h1v-3zm6-24h-1v3h1v-3zm2 0h-1v3h1v-3zm-2 32h-1v3h1v-3zm2 0h-1v3h1v-3zm6-40h-1v3h1V3zm2 0h-1v3h1V3zm-2 16h-1v3h1v-3zm2 0h-1v3h1v-3zm14 0h-1v3h1v-3zm2 0h-1v3h1v-3zM34 35h-1v3h1v-3zm2 0h-1v3h1v-3zm-2 16h-1v3h1v-3zm2 0h-1v3h1v-3zm-18 0h-1v3h1v-3zm2 0h-1v3h1v-3zm22-40h-1v3h1v-3zm2 0h-1v3h1v-3zm-2 16h-1v3h1v-3zm2 0h-1v3h1v-3zm6 24h-1v3h1v-3zm2 0h-1v3h1v-3zm-10 8h-1v3h1v-3zm2 0h-1v3h1v-3zm6-56h-1v3h1V3zm2 0h-1v3h1V3zm-2 32h-1v3h1v-3zm2 0h-1v3h1v-3zm6-24h-1v3h1v-3zm2 0h-1v3h1v-3zm-2 32h-1v3h1v-3zm2 0h-1v3h1v-3zM24 59h7v1h-1v1h1v1h-7v-1h1v-1h-1v-1zm2 2h3v-1h-3v1zm30-2h7v1h-1v1h1v1h-7v-1h1v-1h-1v-1zm2 2h3v-1h-3v1zM23 27h7v1h-1v1h1v1h-7v-1h1v-1h-1v-1zm2 2h3v-1h-3v1zm31-2h7v1h-1v1h1v1h-7v-1h1v-1h-1v-1zm2 2h3v-1h-3v1z"
    fill="#000"
  />
  <path
    d="M10 15v-5h1l1.5 2.5L14 10h1v5h-1v-2.9l-1.5 2.4-1.5-2.4V15h-1zm32 32v-5h1l1.5 2.5L46 42h1v5h-1v-2.9l-1.5 2.4-1.5-2.4V47h-1z"
    fill="#000"
  />
</svg>
