<svg viewBox="0 0 64 64" fill="none" xmlns="http://www.w3.org/2000/svg">
  <path fill="#1FB46C" d="M0 0h64v64H0z" />
  <path
    d="M1 4h7v1H1V4zm0 16h7v1H1v-1zm0 16h7v1H1v-1zm0 16h7v1H1v-1zm8-40h7v1H9v-1zm0 16h7v1H9v-1zm0 16h7v1H9v-1zm0 16h7v1H9v-1zm8-56h7v1h-7V4zm0 16h7v1h-7v-1zm0 16h7v1h-7v-1zm0 16h7v1h-7v-1zm8-40h7v1h-7v-1zm0 16h7v1h-7v-1zm0 16h7v1h-7v-1zm0 16h7v1h-7v-1zm8-56h7v1h-7V4zm0 16h7v1h-7v-1zm0 16h7v1h-7v-1zm0 16h7v1h-7v-1zm8-40h7v1h-7v-1zm0 16h7v1h-7v-1zm0 16h7v1h-7v-1zm0 16h7v1h-7v-1zm8-56h7v1h-7V4zm0 16h7v1h-7v-1zm0 16h7v1h-7v-1zm0 16h7v1h-7v-1zm8-40h7v1h-7v-1zm0 16h7v1h-7v-1zm0 16h7v1h-7v-1zm0 16h7v1h-7v-1z"
    fill="#000"
  />
  <path
    fill-rule="evenodd"
    clip-rule="evenodd"
    d="M12 2h-1v5h1V2zm2 0h-1v5h1V2zm-2 16h-1v5h1v-5zm2 0h-1v5h1v-5zm-2 16h-1v5h1v-5zm2 0h-1v5h1v-5zm-2 16h-1v5h1v-5zm2 0h-1v5h1v-5zM4 10H3v5h1v-5zm2 0H5v5h1v-5zM4 26H3v5h1v-5zm2 0H5v5h1v-5zM4 42H3v5h1v-5zm2 0H5v5h1v-5zM4 58H3v5h1v-5zm2 0H5v5h1v-5zM28 2h-1v5h1V2zm2 0h-1v5h1V2zm-2 16h-1v5h1v-5zm2 0h-1v5h1v-5zm-2 16h-1v5h1v-5zm2 0h-1v5h1v-5zm-2 16h-1v5h1v-5zm2 0h-1v5h1v-5zM20 10h-1v5h1v-5zm2 0h-1v5h1v-5zm-2 16h-1v5h1v-5zm2 0h-1v5h1v-5zm-2 16h-1v5h1v-5zm2 0h-1v5h1v-5zm-2 16h-1v5h1v-5zm2 0h-1v5h1v-5zM44 2h-1v5h1V2zm2 0h-1v5h1V2zm-2 16h-1v5h1v-5zm2 0h-1v5h1v-5zm-2 16h-1v5h1v-5zm2 0h-1v5h1v-5zm-2 16h-1v5h1v-5zm2 0h-1v5h1v-5zM36 10h-1v5h1v-5zm2 0h-1v5h1v-5zm-2 16h-1v5h1v-5zm2 0h-1v5h1v-5zm-2 16h-1v5h1v-5zm2 0h-1v5h1v-5zm-2 16h-1v5h1v-5zm2 0h-1v5h1v-5zM60 2h-1v5h1V2zm2 0h-1v5h1V2zm-2 16h-1v5h1v-5zm2 0h-1v5h1v-5zm-2 16h-1v5h1v-5zm2 0h-1v5h1v-5zm-2 16h-1v5h1v-5zm2 0h-1v5h1v-5zM52 10h-1v5h1v-5zm2 0h-1v5h1v-5zm-2 16h-1v5h1v-5zm2 0h-1v5h1v-5zm-2 16h-1v5h1v-5zm2 0h-1v5h1v-5zm-2 16h-1v5h1v-5zm2 0h-1v5h1v-5z"
    fill="#000"
  />
</svg>
