<svg viewBox="0 0 64 64" fill="none" xmlns="http://www.w3.org/2000/svg">
  <path fill="#1FB46C" d="M0 0h64v64H0z" />
  <path
    d="M0 4h7v1H0V4zm0 16h7v1H0v-1zm0 16h7v1H0v-1zm0 16h7v1H0v-1zm8-40h7v1H8v-1zm0 16h7v1H8v-1zm0 16h7v1H8v-1zm0 16h7v1H8v-1zm8-56h7v1h-7V4zm0 16h7v1h-7v-1zm0 16h7v1h-7v-1zm0 16h7v1h-7v-1zm8-40h7v1h-7v-1zm0 16h7v1h-7v-1zm0 16h7v1h-7v-1zm0 16h7v1h-7v-1zm8-56h7v1h-7V4zm0 16h7v1h-7v-1zm0 16h7v1h-7v-1zm0 16h7v1h-7v-1zm8-40h7v1h-7v-1zm0 16h7v1h-7v-1zm0 16h7v1h-7v-1zm0 16h7v1h-7v-1zm8-56h7v1h-7V4zm0 16h7v1h-7v-1zm0 16h7v1h-7v-1zm0 16h7v1h-7v-1zm8-40h7v1h-7v-1zm0 16h7v1h-7v-1zm0 16h7v1h-7v-1zm0 16h7v1h-7v-1zM8 17h7v1H8v-1z"
    fill="#000"
  />
  <path
    fill-rule="evenodd"
    clip-rule="evenodd"
    d="M11 18h1v.981l.003.004c.037.035.075.06.144.108.037.024.082.055.14.096.14.098.327.242.473.462.153.229.24.508.24.849 0 .34-.087.62-.237.85-.144.223-.328.37-.47.473l-.155.11a.966.966 0 0 0-.138.103V23h1v1h-2v-2a.93.93 0 0 1 .313-.69c.097-.092.233-.186.326-.25l.068-.047a.817.817 0 0 0 .217-.207A.532.532 0 0 0 12 20.5a.504.504 0 0 0-.073-.296.79.79 0 0 0-.214-.197 4.833 4.833 0 0 0-.061-.041 2.621 2.621 0 0 1-.343-.262A.954.954 0 0 1 11 19v-1zm.001.535v-.016.016z"
    fill="#000"
  />
  <path d="M8 33h7v1H8v-1z" fill="#000" />
  <path
    fill-rule="evenodd"
    clip-rule="evenodd"
    d="M11 34h1v.981l.003.004c.037.035.075.06.144.108.037.024.082.055.14.096.14.098.327.242.473.462.153.229.24.508.24.849 0 .34-.087.62-.237.85-.144.223-.328.37-.47.473l-.155.11c-.063.042-.1.068-.138.103V39h1v1h-2v-2a.93.93 0 0 1 .313-.69c.097-.092.233-.186.326-.25l.068-.047a.817.817 0 0 0 .217-.207A.532.532 0 0 0 12 36.5a.504.504 0 0 0-.073-.296.79.79 0 0 0-.214-.197 4.833 4.833 0 0 0-.061-.041 2.621 2.621 0 0 1-.343-.261A.954.954 0 0 1 11 35v-1zm.001.535v-.016.016z"
    fill="#000"
  />
  <path d="M8 49h7v1H8v-1z" fill="#000" />
  <path
    fill-rule="evenodd"
    clip-rule="evenodd"
    d="M11 50h1v.981l.003.004c.037.035.075.06.144.108.037.024.082.055.14.096.14.098.327.242.473.462.153.229.24.508.24.849 0 .34-.087.62-.237.85-.144.223-.328.37-.47.473l-.155.11c-.063.042-.1.068-.138.103V55h1v1h-2v-2a.93.93 0 0 1 .313-.69c.097-.092.233-.186.326-.25l.068-.047a.817.817 0 0 0 .217-.207A.532.532 0 0 0 12 52.5a.504.504 0 0 0-.073-.296.79.79 0 0 0-.214-.197 4.833 4.833 0 0 0-.061-.041 2.621 2.621 0 0 1-.343-.261A.954.954 0 0 1 11 51v-1zm.001.535v-.016.016z"
    fill="#000"
  />
  <path d="M1 9h7v1H1V9z" fill="#000" />
  <path
    fill-rule="evenodd"
    clip-rule="evenodd"
    d="M4 10h1v.981l.003.004c.037.035.075.06.144.108.037.024.082.055.14.096.14.098.327.242.473.462.153.229.24.508.24.849 0 .34-.087.62-.237.85-.144.223-.328.37-.47.473l-.155.11c-.063.042-.1.068-.138.103V15h1v1H4v-2a.93.93 0 0 1 .313-.69c.097-.092.233-.186.326-.25l.068-.047a.819.819 0 0 0 .217-.207A.532.532 0 0 0 5 12.5a.504.504 0 0 0-.073-.296.79.79 0 0 0-.214-.197 4.709 4.709 0 0 0-.061-.041 2.63 2.63 0 0 1-.343-.261A.954.954 0 0 1 4 11v-1zm.001.535v-.016.016z"
    fill="#000"
  />
  <path d="M1 25h7v1H1v-1z" fill="#000" />
  <path
    fill-rule="evenodd"
    clip-rule="evenodd"
    d="M4 26h1v.981l.003.004c.037.035.075.06.144.108.037.024.082.055.14.096.14.098.327.242.473.462.153.229.24.508.24.849 0 .34-.087.62-.237.85-.144.223-.328.37-.47.473l-.155.11a.966.966 0 0 0-.138.103V31h1v1H4v-2a.93.93 0 0 1 .313-.69c.097-.092.233-.186.326-.25l.068-.047a.819.819 0 0 0 .217-.207A.532.532 0 0 0 5 28.5a.504.504 0 0 0-.073-.296.79.79 0 0 0-.214-.197 4.709 4.709 0 0 0-.061-.041 2.63 2.63 0 0 1-.343-.262A.954.954 0 0 1 4 27v-1zm.001.535v-.016.016z"
    fill="#000"
  />
  <path d="M1 41h7v1H1v-1z" fill="#000" />
  <path
    fill-rule="evenodd"
    clip-rule="evenodd"
    d="M4 42h1v.981l.003.004c.037.035.075.06.144.108.037.024.082.055.14.096.14.098.327.242.473.462.153.229.24.508.24.849 0 .34-.087.62-.237.85-.144.223-.328.37-.47.473l-.155.11c-.063.042-.1.068-.138.103V47h1v1H4v-2a.93.93 0 0 1 .313-.69c.097-.092.233-.186.326-.25l.068-.047a.819.819 0 0 0 .217-.207A.532.532 0 0 0 5 44.5a.504.504 0 0 0-.073-.296.79.79 0 0 0-.214-.197 4.709 4.709 0 0 0-.061-.041 2.63 2.63 0 0 1-.343-.261A.954.954 0 0 1 4 43v-1zm.001.535v-.016.016z"
    fill="#000"
  />
  <path d="M1 57h7v1H1v-1z" fill="#000" />
  <path
    fill-rule="evenodd"
    clip-rule="evenodd"
    d="M4 58h1v.981l.003.004c.037.035.075.06.144.108.037.024.082.055.14.096.14.098.327.242.473.462.153.229.24.508.24.849 0 .34-.087.62-.237.85-.144.223-.328.37-.47.473l-.155.11c-.063.042-.1.068-.138.103V63h1v1H4v-2a.93.93 0 0 1 .313-.69c.097-.092.233-.186.326-.25l.068-.047a.819.819 0 0 0 .217-.207A.532.532 0 0 0 5 60.5a.504.504 0 0 0-.073-.296.79.79 0 0 0-.214-.197 4.709 4.709 0 0 0-.061-.041 2.63 2.63 0 0 1-.343-.261A.954.954 0 0 1 4 59v-1zm.001.535v-.016.016z"
    fill="#000"
  />
  <path d="M8 1h7v1H8V1z" fill="#000" />
  <path
    fill-rule="evenodd"
    clip-rule="evenodd"
    d="M11 2h1v.981l.003.004c.037.035.075.061.144.108.037.024.082.055.14.096.14.098.327.242.473.462.153.229.24.508.24.849 0 .34-.087.62-.237.85-.144.223-.328.37-.47.473l-.155.11a.966.966 0 0 0-.138.103V7h1v1h-2V6a.93.93 0 0 1 .313-.69c.097-.092.233-.186.326-.25l.068-.047a.816.816 0 0 0 .217-.207A.531.531 0 0 0 12 4.5a.504.504 0 0 0-.073-.296.788.788 0 0 0-.214-.197l-.061-.041a2.623 2.623 0 0 1-.343-.261A.954.954 0 0 1 11 3V2zm.001.535V2.52v.016z"
    fill="#000"
  />
  <path d="M24 17h7v1h-7v-1z" fill="#000" />
  <path
    fill-rule="evenodd"
    clip-rule="evenodd"
    d="M27 18h1v.981l.003.004c.037.035.075.06.144.108.037.024.082.055.14.096.14.098.327.242.473.462.153.229.24.508.24.849 0 .34-.087.62-.237.85-.144.223-.328.37-.47.473l-.155.11a.966.966 0 0 0-.138.103V23h1v1h-2v-2a.93.93 0 0 1 .313-.69c.097-.092.233-.186.326-.25l.068-.047a.819.819 0 0 0 .217-.207A.532.532 0 0 0 28 20.5a.504.504 0 0 0-.073-.296.79.79 0 0 0-.215-.197 4.833 4.833 0 0 0-.06-.041 2.621 2.621 0 0 1-.343-.262A.954.954 0 0 1 27 19v-1zm.001.535v-.016.016z"
    fill="#000"
  />
  <path d="M24 33h7v1h-7v-1z" fill="#000" />
  <path
    fill-rule="evenodd"
    clip-rule="evenodd"
    d="M27 34h1v.981l.003.004c.037.035.075.06.144.108.037.024.082.055.14.096.14.098.327.242.473.462.153.229.24.508.24.849 0 .34-.087.62-.237.85-.144.223-.328.37-.47.473l-.155.11c-.063.042-.1.068-.138.103V39h1v1h-2v-2a.93.93 0 0 1 .313-.69c.097-.092.233-.186.326-.25l.068-.047a.819.819 0 0 0 .217-.207A.532.532 0 0 0 28 36.5a.504.504 0 0 0-.073-.296.79.79 0 0 0-.215-.197 4.833 4.833 0 0 0-.06-.041 2.621 2.621 0 0 1-.343-.261A.954.954 0 0 1 27 35v-1zm.001.535v-.016.016z"
    fill="#000"
  />
  <path d="M24 49h7v1h-7v-1z" fill="#000" />
  <path
    fill-rule="evenodd"
    clip-rule="evenodd"
    d="M27 50h1v.981l.003.004c.037.035.075.06.144.108.037.024.082.055.14.096.14.098.327.242.473.462.153.229.24.508.24.849 0 .34-.087.62-.237.85-.144.223-.328.37-.47.473l-.155.11c-.063.042-.1.068-.138.103V55h1v1h-2v-2a.93.93 0 0 1 .313-.69c.097-.092.233-.186.326-.25l.068-.047a.819.819 0 0 0 .217-.207A.532.532 0 0 0 28 52.5a.504.504 0 0 0-.073-.296.79.79 0 0 0-.215-.197 4.833 4.833 0 0 0-.06-.041 2.621 2.621 0 0 1-.343-.261A.954.954 0 0 1 27 51v-1zm.001.535v-.016.016z"
    fill="#000"
  />
  <path d="M17 9h7v1h-7V9z" fill="#000" />
  <path
    fill-rule="evenodd"
    clip-rule="evenodd"
    d="M20 10h1v.981l.003.004c.037.035.075.06.144.108.037.024.082.055.14.096.14.098.327.242.473.462.153.229.24.508.24.849 0 .34-.087.62-.237.85-.144.223-.328.37-.47.473l-.155.11c-.063.042-.1.068-.138.103V15h1v1h-2v-2a.93.93 0 0 1 .313-.69c.097-.092.233-.186.326-.25l.068-.047a.819.819 0 0 0 .217-.207A.532.532 0 0 0 21 12.5a.504.504 0 0 0-.073-.296.79.79 0 0 0-.215-.197 4.833 4.833 0 0 0-.06-.041 2.621 2.621 0 0 1-.343-.261A.954.954 0 0 1 20 11v-1zm.001.535v-.016.016z"
    fill="#000"
  />
  <path d="M17 25h7v1h-7v-1z" fill="#000" />
  <path
    fill-rule="evenodd"
    clip-rule="evenodd"
    d="M20 26h1v.981l.003.004c.037.035.075.06.144.108.037.024.082.055.14.096.14.098.327.242.473.462.153.229.24.508.24.849 0 .34-.087.62-.237.85-.144.223-.328.37-.47.473l-.155.11a.966.966 0 0 0-.138.103V31h1v1h-2v-2a.93.93 0 0 1 .313-.69c.097-.092.233-.186.326-.25l.068-.047a.819.819 0 0 0 .217-.207A.532.532 0 0 0 21 28.5a.504.504 0 0 0-.073-.296.79.79 0 0 0-.215-.197 4.833 4.833 0 0 0-.06-.041 2.621 2.621 0 0 1-.343-.262A.954.954 0 0 1 20 27v-1zm.001.535v-.016.016z"
    fill="#000"
  />
  <path d="M17 41h7v1h-7v-1z" fill="#000" />
  <path
    fill-rule="evenodd"
    clip-rule="evenodd"
    d="M20 42h1v.981l.003.004c.037.035.075.06.144.108.037.024.082.055.14.096.14.098.327.242.473.462.153.229.24.508.24.849 0 .34-.087.62-.237.85-.144.223-.328.37-.47.473l-.155.11c-.063.042-.1.068-.138.103V47h1v1h-2v-2a.93.93 0 0 1 .313-.69c.097-.092.233-.186.326-.25l.068-.047a.819.819 0 0 0 .217-.207A.532.532 0 0 0 21 44.5a.504.504 0 0 0-.073-.296.79.79 0 0 0-.215-.197 4.833 4.833 0 0 0-.06-.041 2.621 2.621 0 0 1-.343-.261A.954.954 0 0 1 20 43v-1zm.001.535v-.016.016z"
    fill="#000"
  />
  <path d="M17 57h7v1h-7v-1z" fill="#000" />
  <path
    fill-rule="evenodd"
    clip-rule="evenodd"
    d="M20 58h1v.981l.003.004c.037.035.075.06.144.108.037.024.082.055.14.096.14.098.327.242.473.462.153.229.24.508.24.849 0 .34-.087.62-.237.85-.144.223-.328.37-.47.473l-.155.11c-.063.042-.1.068-.138.103V63h1v1h-2v-2a.93.93 0 0 1 .313-.69c.097-.092.233-.186.326-.25l.068-.047a.819.819 0 0 0 .217-.207A.532.532 0 0 0 21 60.5a.504.504 0 0 0-.073-.296.79.79 0 0 0-.215-.197 4.833 4.833 0 0 0-.06-.041 2.621 2.621 0 0 1-.343-.261A.954.954 0 0 1 20 59v-1zm.001.535v-.016.016z"
    fill="#000"
  />
  <path d="M24 1h7v1h-7V1z" fill="#000" />
  <path
    fill-rule="evenodd"
    clip-rule="evenodd"
    d="M27 2h1v.981l.003.004c.037.035.075.061.144.108.037.024.082.055.14.096.14.098.327.242.473.462.153.229.24.508.24.849 0 .34-.087.62-.237.85-.144.223-.328.37-.47.473l-.155.11a.966.966 0 0 0-.138.103V7h1v1h-2V6a.93.93 0 0 1 .313-.69c.097-.092.233-.186.326-.25l.068-.047a.818.818 0 0 0 .217-.207A.531.531 0 0 0 28 4.5a.504.504 0 0 0-.073-.296.788.788 0 0 0-.215-.197l-.06-.041a2.623 2.623 0 0 1-.343-.261A.954.954 0 0 1 27 3V2zm.001.535V2.52v.016z"
    fill="#000"
  />
  <path d="M40 17h7v1h-7v-1z" fill="#000" />
  <path
    fill-rule="evenodd"
    clip-rule="evenodd"
    d="M43 18h1v.981l.003.004c.037.035.075.06.144.108.037.024.082.055.14.096.14.098.327.242.473.462.153.229.24.508.24.849 0 .34-.087.62-.237.85-.144.223-.328.37-.47.473l-.155.11a.966.966 0 0 0-.138.103V23h1v1h-2v-2a.93.93 0 0 1 .313-.69c.097-.092.233-.186.326-.25l.068-.047a.817.817 0 0 0 .217-.207A.532.532 0 0 0 44 20.5a.504.504 0 0 0-.073-.296.79.79 0 0 0-.215-.197 4.833 4.833 0 0 0-.06-.041 2.621 2.621 0 0 1-.343-.262A.954.954 0 0 1 43 19v-1zm.001.535v-.016.016z"
    fill="#000"
  />
  <path d="M40 33h7v1h-7v-1z" fill="#000" />
  <path
    fill-rule="evenodd"
    clip-rule="evenodd"
    d="M43 34h1v.981l.003.004c.037.035.075.06.144.108.037.024.082.055.14.096.14.098.327.242.473.462.153.229.24.508.24.849 0 .34-.087.62-.237.85-.144.223-.328.37-.47.473l-.155.11c-.063.042-.1.068-.138.103V39h1v1h-2v-2a.93.93 0 0 1 .313-.69c.097-.092.233-.186.326-.25l.068-.047a.817.817 0 0 0 .217-.207A.532.532 0 0 0 44 36.5a.504.504 0 0 0-.073-.296.79.79 0 0 0-.215-.197 4.833 4.833 0 0 0-.06-.041 2.621 2.621 0 0 1-.343-.261A.954.954 0 0 1 43 35v-1zm.001.535v-.016.016z"
    fill="#000"
  />
  <path d="M40 49h7v1h-7v-1z" fill="#000" />
  <path
    fill-rule="evenodd"
    clip-rule="evenodd"
    d="M43 50h1v.981l.003.004c.037.035.075.06.144.108.037.024.082.055.14.096.14.098.327.242.473.462.153.229.24.508.24.849 0 .34-.087.62-.237.85-.144.223-.328.37-.47.473l-.155.11c-.063.042-.1.068-.138.103V55h1v1h-2v-2a.93.93 0 0 1 .313-.69c.097-.092.233-.186.326-.25l.068-.047a.817.817 0 0 0 .217-.207A.532.532 0 0 0 44 52.5a.504.504 0 0 0-.073-.296.79.79 0 0 0-.215-.197 4.833 4.833 0 0 0-.06-.041 2.621 2.621 0 0 1-.343-.261A.954.954 0 0 1 43 51v-1zm.001.535v-.016.016z"
    fill="#000"
  />
  <path d="M33 9h7v1h-7V9z" fill="#000" />
  <path
    fill-rule="evenodd"
    clip-rule="evenodd"
    d="M36 10h1v.981l.003.004c.037.035.075.06.144.108.037.024.082.055.14.096.14.098.327.242.473.462.153.229.24.508.24.849 0 .34-.087.62-.237.85-.144.223-.328.37-.47.473l-.155.11c-.063.042-.1.068-.138.103V15h1v1h-2v-2a.93.93 0 0 1 .313-.69c.097-.092.233-.186.326-.25l.068-.047a.817.817 0 0 0 .217-.207A.532.532 0 0 0 37 12.5a.504.504 0 0 0-.073-.296.79.79 0 0 0-.215-.197 4.833 4.833 0 0 0-.06-.041 2.621 2.621 0 0 1-.343-.261A.954.954 0 0 1 36 11v-1zm.001.535v-.016.016z"
    fill="#000"
  />
  <path d="M33 25h7v1h-7v-1z" fill="#000" />
  <path
    fill-rule="evenodd"
    clip-rule="evenodd"
    d="M36 26h1v.981l.003.004c.037.035.075.06.144.108.037.024.082.055.14.096.14.098.327.242.473.462.153.229.24.508.24.849 0 .34-.087.62-.237.85-.144.223-.328.37-.47.473l-.155.11a.966.966 0 0 0-.138.103V31h1v1h-2v-2a.93.93 0 0 1 .313-.69c.097-.092.233-.186.326-.25l.068-.047a.817.817 0 0 0 .217-.207A.532.532 0 0 0 37 28.5a.504.504 0 0 0-.073-.296.79.79 0 0 0-.215-.197 4.833 4.833 0 0 0-.06-.041 2.621 2.621 0 0 1-.343-.262A.954.954 0 0 1 36 27v-1zm.001.535v-.016.016z"
    fill="#000"
  />
  <path d="M33 41h7v1h-7v-1z" fill="#000" />
  <path
    fill-rule="evenodd"
    clip-rule="evenodd"
    d="M36 42h1v.981l.003.004c.037.035.075.06.144.108.037.024.082.055.14.096.14.098.327.242.473.462.153.229.24.508.24.849 0 .34-.087.62-.237.85-.144.223-.328.37-.47.473l-.155.11c-.063.042-.1.068-.138.103V47h1v1h-2v-2a.93.93 0 0 1 .313-.69c.097-.092.233-.186.326-.25l.068-.047a.817.817 0 0 0 .217-.207A.532.532 0 0 0 37 44.5a.504.504 0 0 0-.073-.296.79.79 0 0 0-.215-.197 4.833 4.833 0 0 0-.06-.041 2.621 2.621 0 0 1-.343-.261A.954.954 0 0 1 36 43v-1zm.001.535v-.016.016z"
    fill="#000"
  />
  <path d="M33 57h7v1h-7v-1z" fill="#000" />
  <path
    fill-rule="evenodd"
    clip-rule="evenodd"
    d="M36 58h1v.981l.003.004c.037.035.075.06.144.108.037.024.082.055.14.096.14.098.327.242.473.462.153.229.24.508.24.849 0 .34-.087.62-.237.85-.144.223-.328.37-.47.473l-.155.11c-.063.042-.1.068-.138.103V63h1v1h-2v-2a.93.93 0 0 1 .313-.69c.097-.092.233-.186.326-.25l.068-.047a.817.817 0 0 0 .217-.207A.532.532 0 0 0 37 60.5a.504.504 0 0 0-.073-.296.79.79 0 0 0-.215-.197 4.833 4.833 0 0 0-.06-.041 2.621 2.621 0 0 1-.343-.261A.954.954 0 0 1 36 59v-1zm.001.535v-.016.016z"
    fill="#000"
  />
  <path d="M40 1h7v1h-7V1z" fill="#000" />
  <path
    fill-rule="evenodd"
    clip-rule="evenodd"
    d="M43 2h1v.981l.003.004c.037.035.075.061.144.108.037.024.082.055.14.096.14.098.327.242.473.462.153.229.24.508.24.849 0 .34-.087.62-.237.85-.144.223-.328.37-.47.473l-.155.11a.966.966 0 0 0-.138.103V7h1v1h-2V6a.93.93 0 0 1 .313-.69c.097-.092.233-.186.326-.25l.068-.047a.816.816 0 0 0 .217-.207A.531.531 0 0 0 44 4.5a.504.504 0 0 0-.073-.296.788.788 0 0 0-.215-.197l-.06-.041a2.623 2.623 0 0 1-.343-.261A.954.954 0 0 1 43 3V2zm.001.535V2.52v.016z"
    fill="#000"
  />
  <path d="M56 17h7v1h-7v-1z" fill="#000" />
  <path
    fill-rule="evenodd"
    clip-rule="evenodd"
    d="M59 18h1v.981l.003.004c.037.035.075.06.144.108.037.024.082.055.14.096.14.098.327.242.473.462.153.229.24.508.24.849 0 .34-.087.62-.237.85-.144.223-.328.37-.47.473l-.155.11a.966.966 0 0 0-.138.103V23h1v1h-2v-2a.93.93 0 0 1 .313-.69c.097-.092.233-.186.326-.25l.068-.047a.817.817 0 0 0 .217-.207A.532.532 0 0 0 60 20.5a.504.504 0 0 0-.073-.296.79.79 0 0 0-.215-.197 4.833 4.833 0 0 0-.06-.041 2.621 2.621 0 0 1-.343-.262A.954.954 0 0 1 59 19v-1zm.001.535v-.016.016z"
    fill="#000"
  />
  <path d="M56 33h7v1h-7v-1z" fill="#000" />
  <path
    fill-rule="evenodd"
    clip-rule="evenodd"
    d="M59 34h1v.981l.003.004c.037.035.075.06.144.108.037.024.082.055.14.096.14.098.327.242.473.462.153.229.24.508.24.849 0 .34-.087.62-.237.85-.144.223-.328.37-.47.473l-.155.11c-.063.042-.1.068-.138.103V39h1v1h-2v-2a.93.93 0 0 1 .313-.69c.097-.092.233-.186.326-.25l.068-.047a.817.817 0 0 0 .217-.207A.532.532 0 0 0 60 36.5a.504.504 0 0 0-.073-.296.79.79 0 0 0-.215-.197 4.833 4.833 0 0 0-.06-.041 2.621 2.621 0 0 1-.343-.261A.954.954 0 0 1 59 35v-1zm.001.535v-.016.016z"
    fill="#000"
  />
  <path d="M56 49h7v1h-7v-1z" fill="#000" />
  <path
    fill-rule="evenodd"
    clip-rule="evenodd"
    d="M59 50h1v.981l.003.004c.037.035.075.06.144.108.037.024.082.055.14.096.14.098.327.242.473.462.153.229.24.508.24.849 0 .34-.087.62-.237.85-.144.223-.328.37-.47.473l-.155.11c-.063.042-.1.068-.138.103V55h1v1h-2v-2a.93.93 0 0 1 .313-.69c.097-.092.233-.186.326-.25l.068-.047a.817.817 0 0 0 .217-.207A.532.532 0 0 0 60 52.5a.504.504 0 0 0-.073-.296.79.79 0 0 0-.215-.197 4.833 4.833 0 0 0-.06-.041 2.621 2.621 0 0 1-.343-.261A.954.954 0 0 1 59 51v-1zm.001.535v-.016.016z"
    fill="#000"
  />
  <path d="M49 9h7v1h-7V9z" fill="#000" />
  <path
    fill-rule="evenodd"
    clip-rule="evenodd"
    d="M52 10h1v.981l.003.004c.037.035.075.06.144.108.037.024.082.055.14.096.14.098.327.242.473.462.153.229.24.508.24.849 0 .34-.087.62-.237.85-.144.223-.328.37-.47.473l-.155.11c-.063.042-.1.068-.138.103V15h1v1h-2v-2a.93.93 0 0 1 .313-.69c.097-.092.233-.186.326-.25l.068-.047a.817.817 0 0 0 .217-.207A.532.532 0 0 0 53 12.5a.504.504 0 0 0-.073-.296.79.79 0 0 0-.215-.197 4.833 4.833 0 0 0-.06-.041 2.621 2.621 0 0 1-.343-.261A.954.954 0 0 1 52 11v-1zm.001.535v-.016.016z"
    fill="#000"
  />
  <path d="M49 25h7v1h-7v-1z" fill="#000" />
  <path
    fill-rule="evenodd"
    clip-rule="evenodd"
    d="M52 26h1v.981l.003.004c.037.035.075.06.144.108.037.024.082.055.14.096.14.098.327.242.473.462.153.229.24.508.24.849 0 .34-.087.62-.237.85-.144.223-.328.37-.47.473l-.155.11a.966.966 0 0 0-.138.103V31h1v1h-2v-2a.93.93 0 0 1 .313-.69c.097-.092.233-.186.326-.25l.068-.047a.817.817 0 0 0 .217-.207A.532.532 0 0 0 53 28.5a.504.504 0 0 0-.073-.296.79.79 0 0 0-.215-.197 4.833 4.833 0 0 0-.06-.041 2.621 2.621 0 0 1-.343-.262A.954.954 0 0 1 52 27v-1zm.001.535v-.016.016z"
    fill="#000"
  />
  <path d="M49 41h7v1h-7v-1z" fill="#000" />
  <path
    fill-rule="evenodd"
    clip-rule="evenodd"
    d="M52 42h1v.981l.003.004c.037.035.075.06.144.108.037.024.082.055.14.096.14.098.327.242.473.462.153.229.24.508.24.849 0 .34-.087.62-.237.85-.144.223-.328.37-.47.473l-.155.11c-.063.042-.1.068-.138.103V47h1v1h-2v-2a.93.93 0 0 1 .313-.69c.097-.092.233-.186.326-.25l.068-.047a.817.817 0 0 0 .217-.207A.532.532 0 0 0 53 44.5a.504.504 0 0 0-.073-.296.79.79 0 0 0-.215-.197 4.833 4.833 0 0 0-.06-.041 2.621 2.621 0 0 1-.343-.261A.954.954 0 0 1 52 43v-1zm.001.535v-.016.016z"
    fill="#000"
  />
  <path d="M49 57h7v1h-7v-1z" fill="#000" />
  <path
    fill-rule="evenodd"
    clip-rule="evenodd"
    d="M52 58h1v.981l.003.004c.037.035.075.06.144.108.037.024.082.055.14.096.14.098.327.242.473.462.153.229.24.508.24.849 0 .34-.087.62-.237.85-.144.223-.328.37-.47.473l-.155.11c-.063.042-.1.068-.138.103V63h1v1h-2v-2a.93.93 0 0 1 .313-.69c.097-.092.233-.186.326-.25l.068-.047a.817.817 0 0 0 .217-.207A.532.532 0 0 0 53 60.5a.504.504 0 0 0-.073-.296.79.79 0 0 0-.215-.197 4.833 4.833 0 0 0-.06-.041 2.621 2.621 0 0 1-.343-.261A.954.954 0 0 1 52 59v-1zm.001.535v-.016.016z"
    fill="#000"
  />
  <path d="M56 1h7v1h-7V1z" fill="#000" />
  <path
    fill-rule="evenodd"
    clip-rule="evenodd"
    d="M59 2h1v.981l.003.004c.037.035.075.061.144.108.037.024.082.055.14.096.14.098.327.242.473.462.153.229.24.508.24.849 0 .34-.087.62-.237.85-.144.223-.328.37-.47.473l-.155.11a.966.966 0 0 0-.138.103V7h1v1h-2V6a.93.93 0 0 1 .313-.69c.097-.092.233-.186.326-.25l.068-.047a.816.816 0 0 0 .217-.207A.531.531 0 0 0 60 4.5a.504.504 0 0 0-.073-.296.788.788 0 0 0-.215-.197l-.06-.041a2.623 2.623 0 0 1-.343-.261A.954.954 0 0 1 59 3V2zm.001.535V2.52v.016z"
    fill="#000"
  />
</svg>
