<svg viewBox="0 0 64 64" fill="none" xmlns="http://www.w3.org/2000/svg">
  <path fill="#65A740" d="M0 0h64v64H0z" />
  <path
    d="M0 4h7v1H0V4zm0 16h7v1H0v-1zm0 16h7v1H0v-1zm0 16h7v1H0v-1zM16 4h7v1h-7V4zm8 24h7v1h-7v-1zm-8 8h7v1h-7v-1zm8 24h7v1h-7v-1zm8-56h7v1h-7V4zm0 16h7v1h-7v-1zm16 0h7v1h-7v-1zM32 36h7v1h-7v-1zm0 16h7v1h-7v-1zm-16 0h7v1h-7v-1zM48 4h7v1h-7V4zm8 24h7v1h-7v-1zm-8 8h7v1h-7v-1zm8 24h7v1h-7v-1zm0-48h7v1h-7v-1zm0 32h7v1h-7v-1zM40 12h7v1h-7v-1zm0 32h7v1h-7v-1zm0-16h7v1h-7v-1zm0 32h7v1h-7v-1zM24 12h7v1h-7v-1zm0 32h7v1h-7v-1zM8 12h7v1H8v-1zm0 32h7v1H8v-1zm0-16h7v1H8v-1zm0 32h7v1H8v-1zm12-42h-1v1.293l-.914-.915-.707.707.914.915H17v1h1.293l-.914.914.707.707.914-.914V23h1v-1.293l.914.914.707-.707-.914-.914H22v-1h-1.293l.914-.914-.707-.707-.914.914V18zm32 32h-1v1.293l-.914-.915-.707.707.914.915H49v1h1.293l-.914.914.707.707.914-.914V55h1v-1.293l.914.914.707-.707-.914-.914H54v-1h-1.293l.914-.914-.707-.707-.914.914V50z"
    fill="#000"
  />
</svg>
