<svg viewBox="0 0 64 64" fill="none" xmlns="http://www.w3.org/2000/svg">
  <path fill="#65A740" d="M0 0h64v64H0z" />
  <path
    d="M0 4h7v1H0V4zm0 16h7v1H0v-1zm0 16h7v1H0v-1zm0 16h7v1H0v-1zM16 4h7v1h-7V4zm8 24h7v1h-7v-1zm-8 8h7v1h-7v-1zm8 24h7v1h-7v-1zm8-56h7v1h-7V4zm0 16h7v1h-7v-1zm16 0h7v1h-7v-1zM32 36h7v1h-7v-1zm0 16h7v1h-7v-1zm-16 0h7v1h-7v-1zM48 4h7v1h-7V4zm8 24h7v1h-7v-1zm-8 8h7v1h-7v-1zm8 24h7v1h-7v-1zm0-48h7v1h-7v-1zm0 32h7v1h-7v-1zM40 12h7v1h-7v-1zm0 32h7v1h-7v-1zm0-16h7v1h-7v-1zm0 32h7v1h-7v-1zM24 12h7v1h-7v-1zm0 32h7v1h-7v-1zM8 12h7v1H8v-1zm0 32h7v1H8v-1zm0-16h7v1H8v-1zm0 32h7v1H8v-1zm11.5-38.5a1 1 0 1 0 0-2 1 1 0 0 0 0 2z"
    fill="#000"
  />
  <path
    fill-rule="evenodd"
    clip-rule="evenodd"
    d="M19.5 25a4.5 4.5 0 1 0 0-9 4.5 4.5 0 0 0 0 9zm0-1a3.5 3.5 0 1 0 0-7 3.5 3.5 0 0 0 0 7z"
    fill="#000"
  />
  <path d="M51.5 53.5a1 1 0 1 0 0-2 1 1 0 0 0 0 2z" fill="#000" />
  <path
    fill-rule="evenodd"
    clip-rule="evenodd"
    d="M51.5 57a4.5 4.5 0 1 0 0-9 4.5 4.5 0 0 0 0 9zm0-1a3.5 3.5 0 1 0 0-7 3.5 3.5 0 0 0 0 7z"
    fill="#000"
  />
</svg>
