<svg viewBox="0 0 64 64" fill="none" xmlns="http://www.w3.org/2000/svg">
  <path fill="#65A740" d="M0 0h64v64H0z" />
  <path
    d="M0 4h7v1H0V4zm0 16h7v1H0v-1zm0 16h7v1H0v-1zm0 16h7v1H0v-1zm8-40h7v1H8v-1zm0 16h7v1H8v-1zm0 16h7v1H8v-1zm0 16h7v1H8v-1zm8-56h7v1h-7V4zm0 16h7v1h-7v-1zm0 16h7v1h-7v-1zm0 16h7v1h-7v-1zm8-40h7v1h-7v-1zm0 16h7v1h-7v-1zm0 16h7v1h-7v-1zm0 16h7v1h-7v-1zm8-56h7v1h-7V4zm0 16h7v1h-7v-1zm0 16h7v1h-7v-1zm0 16h7v1h-7v-1zm8-40h7v1h-7v-1zm0 16h7v1h-7v-1zm0 16h7v1h-7v-1zm0 16h7v1h-7v-1zm8-56h7v1h-7V4zm0 16h7v1h-7v-1zm0 16h7v1h-7v-1zm0 16h7v1h-7v-1zm8-40h7v1h-7v-1zm0 16h7v1h-7v-1zm0 16h7v1h-7v-1zm0 16h7v1h-7v-1zM19 42h1v5h-1v-5zm0 16h1v5h-1v-5zm0-32h1v5h-1v-5zm0-16h1v5h-1v-5zM3 42h1v5H3v-5zm0 16h1v5H3v-5zm0-32h1v5H3v-5zm0-16h1v5H3v-5zm32 32h1v5h-1v-5zm0 16h1v5h-1v-5zm0-32h1v5h-1v-5zm0-16h1v5h-1v-5zm16 32h1v5h-1v-5zm0 16h1v5h-1v-5zm0-32h1v5h-1v-5zm0-16h1v5h-1v-5zM11 34h1v5h-1v-5zm0 16h1v5h-1v-5zm0-32h1v5h-1v-5zm0-16h1v5h-1V2zm16 32h1v5h-1v-5zm0 16h1v5h-1v-5zm0-32h1v5h-1v-5zm0-16h1v5h-1V2zm16 32h1v5h-1v-5zm0 16h1v5h-1v-5zm0-32h1v5h-1v-5zm0-16h1v5h-1V2zm16 32h1v5h-1v-5zm0 16h1v5h-1v-5zm0-32h1v5h-1v-5zm0-16h1v5h-1V2z"
    fill="#000"
  />
</svg>
