<svg viewBox="0 0 64 64" fill="none" xmlns="http://www.w3.org/2000/svg">
  <path fill="#65A740" d="M0 0h64v64H0z" />
  <path
    d="M0 4h7v1H0V4zm0 32h7v1H0v-1zm0-16h7v1H0v-1zm0 32h7v1H0v-1zM16 4h7v1h-7V4zm0 32h7v1h-7v-1zm0-16h7v1h-7v-1zm0 32h7v1h-7v-1zM32 4h7v1h-7V4zm0 32h7v1h-7v-1zm0-16h7v1h-7v-1zm0 32h7v1h-7v-1zM48 4h7v1h-7V4zm0 32h7v1h-7v-1zm0-16h7v1h-7v-1zm0 32h7v1h-7v-1zm-8-40h7v1h-7v-1zm0 32h7v1h-7v-1zm16-16h7v1h-7v-1zm0 32h7v1h-7v-1zM8 12h7v1H8v-1zm0 32h7v1H8v-1zm16-16h7v1h-7v-1zm0 32h7v1h-7v-1zm32-17h7v1h-2.293l-1 1H63v1h-7v-1h2.293l1-1H56v-1zM40 59h7v1h-2.293l-1 1H47v1h-7v-1h2.293l1-1H40v-1zM8 59h7v1h-2.293l-1 1H15v1H8v-1h2.293l1-1H8v-1zm0-32h7v1h-2.293l-1 1H15v1H8v-1h2.293l1-1H8v-1zm32 0h7v1h-2.293l-1 1H47v1h-7v-1h2.293l1-1H40v-1zM24 11h7v1h-2.293l-1 1H31v1h-7v-1h2.293l1-1H24v-1zm32 0h7v1h-2.293l-1 1H63v1h-7v-1h2.293l1-1H56v-1zM24 43h7v1h-2.293l-1 1H31v1h-7v-1h2.293l1-1H24v-1z"
    fill="#000"
  />
</svg>
