<svg viewBox="0 0 64 64" fill="none" xmlns="http://www.w3.org/2000/svg">
  <path fill="#65A740" d="M0 0h64v64H0z" />
  <path
    d="M0 4h7v1H0V4zm0 32h7v1H0v-1zm0-16h7v1H0v-1zm0 32h7v1H0v-1zM16 4h7v1h-7V4zm0 32h7v1h-7v-1zm0-16h7v1h-7v-1zm0 32h7v1h-7v-1zM32 4h7v1h-7V4zm0 32h7v1h-7v-1zm0-16h7v1h-7v-1zm0 32h7v1h-7v-1zM48 4h7v1h-7V4zm0 32h7v1h-7v-1zm0-16h7v1h-7v-1zm0 32h7v1h-7v-1zm-8-40h7v1h-7v-1zm0 32h7v1h-7v-1zm16-16h7v1h-7v-1zm0 32h7v1h-7v-1zM8 12h7v1H8v-1zm0 32h7v1H8v-1zm16-16h7v1h-7v-1zm0 32h7v1h-7v-1zm36.571-18h1.379l-2.536 2.536L61.878 47H60.5l-2-2H58v2h-1v-5h1v2h.571l2-2zm-16 16h1.379l-2.536 2.536L45.878 63H44.5l-2-2H42v2h-1v-5h1v2h.571l2-2zm-32 0h1.379l-2.536 2.536L13.878 63H12.5l-2-2H10v2H9v-5h1v2h.571l2-2zm0-32h1.379l-2.536 2.536L13.878 31H12.5l-2-2H10v2H9v-5h1v2h.571l2-2zm32 0h1.379l-2.536 2.536L45.878 31H44.5l-2-2H42v2h-1v-5h1v2h.571l2-2zm-16-16h1.379l-2.536 2.536L29.878 15H28.5l-2-2H26v2h-1v-5h1v2h.571l2-2zm32 0h1.379l-2.536 2.536L61.878 15H60.5l-2-2H58v2h-1v-5h1v2h.571l2-2zm-32 32h1.379l-2.536 2.536L29.878 47H28.5l-2-2H26v2h-1v-5h1v2h.571l2-2z"
    fill="#000"
  />
</svg>
