<svg viewBox="0 0 64 64" fill="none" xmlns="http://www.w3.org/2000/svg">
  <path fill="#65A740" d="M0 0h64v64H0z" />
  <path
    d="M0 4h7v1H0V4zm0 32h7v1H0v-1zm0-16h7v1H0v-1zm0 32h7v1H0v-1zM16 4h7v1h-7V4zm0 32h7v1h-7v-1zm0-16h7v1h-7v-1zm0 32h7v1h-7v-1zM32 4h7v1h-7V4zm0 32h7v1h-7v-1zm0-16h7v1h-7v-1zm0 32h7v1h-7v-1zM48 4h7v1h-7V4zm0 32h7v1h-7v-1zm0-16h7v1h-7v-1zm0 32h7v1h-7v-1zm-8-40h7v1h-7v-1zm0 32h7v1h-7v-1zm16-16h7v1h-7v-1zm0 32h7v1h-7v-1zM8 12h7v1H8v-1zm0 32h7v1H8v-1zm16-16h7v1h-7v-1zm0 32h7v1h-7v-1zm32-18h1v5h-1v-5zm6 0h1v5h-1v-5zm-2 0h-1v5h1v-5zM40 58h1v5h-1v-5zm6 0h1v5h-1v-5zm-2 0h-1v5h1v-5zM8 58h1v5H8v-5zm6 0h1v5h-1v-5zm-2 0h-1v5h1v-5zM8 26h1v5H8v-5zm6 0h1v5h-1v-5zm-2 0h-1v5h1v-5zm28 0h1v5h-1v-5zm6 0h1v5h-1v-5zm-2 0h-1v5h1v-5zM24 10h1v5h-1v-5zm6 0h1v5h-1v-5zm-2 0h-1v5h1v-5zm28 0h1v5h-1v-5zm6 0h1v5h-1v-5zm-2 0h-1v5h1v-5zM24 42h1v5h-1v-5zm6 0h1v5h-1v-5zm-2 0h-1v5h1v-5z"
    fill="#000"
  />
</svg>
