<svg viewBox="0 0 64 64" fill="none" xmlns="http://www.w3.org/2000/svg">
  <path fill="#65A740" d="M0 0h64v64H0z" />
  <path
    d="M0 4h7v1H0V4zm0 32h7v1H0v-1zm0-16h7v1H0v-1zm0 32h7v1H0v-1zM16 4h7v1h-7V4zm0 32h7v1h-7v-1zm0-16h7v1h-7v-1zm0 32h7v1h-7v-1zM32 4h7v1h-7V4zm0 32h7v1h-7v-1zm0-16h7v1h-7v-1zm0 32h7v1h-7v-1zM48 4h7v1h-7V4zm0 32h7v1h-7v-1zm0-16h7v1h-7v-1zm0 32h7v1h-7v-1zm-8-40h7v1h-7v-1zm0 32h7v1h-7v-1zm16-16h7v1h-7v-1zm0 32h7v1h-7v-1zM8 12h7v1H8v-1zm0 32h7v1H8v-1zm16-16h7v1h-7v-1zm0 32h7v1h-7v-1zm33.5-18h-1a1.5 1.5 0 0 0 0 3 .5.5 0 0 1 0 1H55v1h1.5a1.5 1.5 0 0 0 0-3 .5.5 0 0 1 0-1h1v-1zm1.5 3.5V47h1v-1.5a.5.5 0 0 1 1 0V47h1v-1.5a.5.5 0 0 1 1 0V47h1v-1.5a1.5 1.5 0 0 0-2.5-1.118A1.5 1.5 0 0 0 59 45.5zM41.5 58h-1a1.5 1.5 0 0 0 0 3 .5.5 0 0 1 0 1H39v1h1.5a1.5 1.5 0 0 0 0-3 .5.5 0 0 1 0-1h1v-1zm1.5 3.5V63h1v-1.5a.5.5 0 0 1 1 0V63h1v-1.5a.5.5 0 0 1 1 0V63h1v-1.5a1.5 1.5 0 0 0-2.5-1.118A1.5 1.5 0 0 0 43 61.5zM9.5 58h-1a1.5 1.5 0 0 0 0 3 .5.5 0 0 1 0 1H7v1h1.5a1.5 1.5 0 0 0 0-3 .5.5 0 0 1 0-1h1v-1zm1.5 3.5V63h1v-1.5a.5.5 0 0 1 1 0V63h1v-1.5a.5.5 0 0 1 1 0V63h1v-1.5a1.5 1.5 0 0 0-2.5-1.118A1.5 1.5 0 0 0 11 61.5zM9.5 26h-1a1.5 1.5 0 0 0 0 3 .5.5 0 0 1 0 1H7v1h1.5a1.5 1.5 0 0 0 0-3 .5.5 0 0 1 0-1h1v-1zm1.5 3.5V31h1v-1.5a.5.5 0 0 1 1 0V31h1v-1.5a.5.5 0 0 1 1 0V31h1v-1.5a1.5 1.5 0 0 0-2.5-1.118A1.5 1.5 0 0 0 11 29.5zM41.5 26h-1a1.5 1.5 0 0 0 0 3 .5.5 0 0 1 0 1H39v1h1.5a1.5 1.5 0 0 0 0-3 .5.5 0 0 1 0-1h1v-1zm1.5 3.5V31h1v-1.5a.5.5 0 0 1 1 0V31h1v-1.5a.5.5 0 0 1 1 0V31h1v-1.5a1.5 1.5 0 0 0-2.5-1.118A1.5 1.5 0 0 0 43 29.5zM25.5 10h-1a1.5 1.5 0 0 0 0 3 .5.5 0 0 1 0 1H23v1h1.5a1.5 1.5 0 0 0 0-3 .5.5 0 0 1 0-1h1v-1zm1.5 3.5V15h1v-1.5a.5.5 0 0 1 1 0V15h1v-1.5a.5.5 0 0 1 1 0V15h1v-1.5a1.5 1.5 0 0 0-2.5-1.118A1.5 1.5 0 0 0 27 13.5zM57.5 10h-1a1.5 1.5 0 0 0 0 3 .5.5 0 0 1 0 1H55v1h1.5a1.5 1.5 0 0 0 0-3 .5.5 0 0 1 0-1h1v-1zm1.5 3.5V15h1v-1.5a.5.5 0 0 1 1 0V15h1v-1.5a.5.5 0 0 1 1 0V15h1v-1.5a1.5 1.5 0 0 0-2.5-1.118A1.5 1.5 0 0 0 59 13.5zM25.5 42h-1a1.5 1.5 0 0 0 0 3 .5.5 0 0 1 0 1H23v1h1.5a1.5 1.5 0 0 0 0-3 .5.5 0 0 1 0-1h1v-1zm1.5 3.5V47h1v-1.5a.5.5 0 0 1 1 0V47h1v-1.5a.5.5 0 0 1 1 0V47h1v-1.5a1.5 1.5 0 0 0-2.5-1.118A1.5 1.5 0 0 0 27 45.5z"
    fill="#000"
  />
</svg>
