<svg viewBox="0 0 64 64" fill="none" xmlns="http://www.w3.org/2000/svg">
  <path fill="#65A740" d="M0 0h64v64H0z" />
  <path
    d="M0 4h7v1H0V4zm0 32h7v1H0v-1zm0-16h7v1H0v-1zm0 32h7v1H0v-1zm8-24h7v1H8v-1zm0 32h7v1H8v-1zm8-56h7v1h-7V4zm0 32h7v1h-7v-1zM32 4h7v1h-7V4zm0 32h7v1h-7v-1zm0-16h7v1h-7v-1zm16 0h7v1h-7v-1zM32 52h7v1h-7v-1zm-16 0h7v1h-7v-1zm24-24h7v1h-7v-1zm0 32h7v1h-7v-1zm8-56h7v1h-7V4zm0 32h7v1h-7v-1zM24 12h7v1h-7v-1zm16 0h7v1h-7v-1zm8 40h7v1h-7v-1zM16 20h7v1h-7v-1zM8 44h7v1H8v-1zm16 0h7v1h-7v-1zm32-32h7v1h-7v-1zm0 32h7v1h-7v-1zM25.5 58h-1a1.5 1.5 0 0 0 0 3 .5.5 0 0 1 0 1H23v1h1.5a1.5 1.5 0 0 0 0-3 .5.5 0 0 1 0-1h1v-1zm1.5 3.5V63h1v-1.5a.5.5 0 0 1 1 0V63h1v-1.5a.5.5 0 0 1 1 0V63h1v-1.5a1.5 1.5 0 0 0-2.5-1.118A1.5 1.5 0 0 0 27 61.5zM57.5 58h-1a1.5 1.5 0 0 0 0 3 .5.5 0 0 1 0 1H55v1h1.5a1.5 1.5 0 0 0 0-3 .5.5 0 0 1 0-1h1v-1zm1.5 3.5V63h1v-1.5a.5.5 0 0 1 1 0V63h1v-1.5a.5.5 0 0 1 1 0V63h1v-1.5a1.5 1.5 0 0 0-2.5-1.118A1.5 1.5 0 0 0 59 61.5zM24.5 26h-1a1.5 1.5 0 0 0 0 3 .5.5 0 0 1 0 1H22v1h1.5a1.5 1.5 0 0 0 0-3 .5.5 0 0 1 0-1h1v-1zm1.5 3.5V31h1v-1.5a.5.5 0 0 1 1 0V31h1v-1.5a.5.5 0 0 1 1 0V31h1v-1.5a1.5 1.5 0 0 0-2.5-1.118A1.5 1.5 0 0 0 26 29.5zM57.5 26h-1a1.5 1.5 0 0 0 0 3 .5.5 0 0 1 0 1H55v1h1.5a1.5 1.5 0 0 0 0-3 .5.5 0 0 1 0-1h1v-1zm1.5 3.5V31h1v-1.5a.5.5 0 0 1 1 0V31h1v-1.5a.5.5 0 0 1 1 0V31h1v-1.5a1.5 1.5 0 0 0-2.5-1.118A1.5 1.5 0 0 0 59 29.5zM19 42h1v5h-1v-5zm0 16h1v5h-1v-5zm0-32h1v5h-1v-5zm0-16h1v5h-1v-5zM3 42h1v5H3v-5zm0 16h1v5H3v-5zm0-32h1v5H3v-5zm0-16h1v5H3v-5zm32 32h1v5h-1v-5zm0 16h1v5h-1v-5zm0-32h1v5h-1v-5zm0-16h1v5h-1v-5zm16 32h1v5h-1v-5zm0 16h1v5h-1v-5zm0-32h1v5h-1v-5zm0-16h1v5h-1v-5zM11 34h1v5h-1v-5zm0 16h1v5h-1v-5zm0-32h1v5h-1v-5zm0-16h1v5h-1V2zm16 32h1v5h-1v-5zm0 16h1v5h-1v-5zm0-32h1v5h-1v-5zm0-16h1v5h-1V2zm16 32h1v5h-1v-5zm0 16h1v5h-1v-5zm0-32h1v5h-1v-5zm0-16h1v5h-1V2zm16 32h1v5h-1v-5zm0 16h1v5h-1v-5zm0-32h1v5h-1v-5zm0-16h1v5h-1V2z"
    fill="#000"
  />
  <path d="M16 20h7v1h-7v-1zm32 32h7v1h-7v-1zm-8-8h7v1h-7v-1zM8 12h7v1H8v-1z" fill="#000" />
</svg>
