<svg viewBox="0 0 64 64" fill="none" xmlns="http://www.w3.org/2000/svg">
  <path fill="#65A740" d="M0 0h64v64H0z" />
  <path
    d="M0 4h7v1H0V4zm0 32h7v1H0v-1zm0-16h7v1H0v-1zm0 32h7v1H0v-1zm8-24h7v1H8v-1zm0 32h7v1H8v-1zm8-56h7v1h-7V4zm0 32h7v1h-7v-1zm0-16h7v1h-7v-1zm0 32h7v1h-7v-1zm8-24h7v1h-7v-1zm0 32h7v1h-7v-1zm8-56h7v1h-7V4zm0 32h7v1h-7v-1zm0-16h7v1h-7v-1zm0 32h7v1h-7v-1zm8-24h7v1h-7v-1zm0 32h7v1h-7v-1zm8-56h7v1h-7V4zm0 32h7v1h-7v-1zm0-16h7v1h-7v-1zm0 32h7v1h-7v-1zm8-24h7v1h-7v-1zm0 32h7v1h-7v-1zM24 12h7v1h-7v-1zm0 32h7v1h-7v-1zm32-32h7v1h-7v-1zm0 32h7v1h-7v-1z"
    fill="#000"
  />
  <path
    fill-rule="evenodd"
    clip-rule="evenodd"
    d="M11 11h-1v3h1v-3zm2 0h-1v3h1v-3zm30 0h-1v3h1v-3zm2 0h-1v3h1v-3zM11 43h-1v3h1v-3zm2 0h-1v3h1v-3zm30 0h-1v3h1v-3zm2 0h-1v3h1v-3z"
    fill="#000"
  />
</svg>
