<svg viewBox="0 0 64 64" fill="none" xmlns="http://www.w3.org/2000/svg">
  <path fill="#887000" d="M0 0h64v64H0z" />
  <path
    d="M0 13v-1h6v1H0zm0 16v-1h6v1H0zm0 16v-1h6v1H0zm0 16v-1h6v1H0zm64-1v1h-7v-1h7zm0-16v1h-7v-1h7zm0-16v1h-7v-1h7zm0-16v1h-7v-1h7zM14 4H1v1h13V4zm0 16H1v1h13v-1zM1 36h13v1H1v-1zm13 16H1v1h13v-1zM9 12h13v1H9v-1zm13 16H9v1h13v-1zM9 44h13v1H9v-1zm13 16H9v1h13v-1zM17 4h13v1H17V4zm0 32v1h13v-1H17zm8-24h13v1H25v-1zm13 16H25v1h13v-1zM25 44h13v1H25v-1zm13 16H25v1h13v-1zM33 4h13v1H33V4zm13 16H33v1h13v-1zm3 0h13v1H49v-1zm-3 16H33v1h13v-1zM33 52h13v1H33v-1zm-16 0v1h13v-1H17zm24-40h13v1H41v-1zm13 16H41v1h13v-1zM41 44h13v1H41v-1zm13 16H41v1h13v-1zM49 4h13v1H49V4zm13 32H49v1h13v-1zM25.792 21.5a2.5 2.5 0 1 1 0-2h-1.174a1.5 1.5 0 1 0 0 2h1.174zM55.5 55a2.5 2.5 0 0 0 2.292-1.5h-1.174a1.5 1.5 0 1 1 0-2h1.174A2.5 2.5 0 1 0 55.5 55z"
    fill="#000"
  />
</svg>
