<svg viewBox="0 0 64 64" fill="none" xmlns="http://www.w3.org/2000/svg">
  <path fill="#887000" d="M0 0h64v64H0z" />
  <path
    d="M0 14h3v-1H2v-1h1v-1H0v1h1v1H0v1zm0 15v-1h6v1H0zm0 17h3v-1H2v-1h1v-1H0v1h1v1H0v1zm0 15v-1h6v1H0zm64-1v1h-7v-1h7zm0-17h-4v1h1v1h-1v1h4v-1h-2v-1h2v-1zm0-15v1h-7v-1h7zm0-17h-4v1h1v1h-1v1h4v-1h-2v-1h2v-1zM14 4H1v1h13V4zm0 16H1v1h13v-1zM1 36h13v1H1v-1zm13 16H1v1h13v-1zM9 12h13v1H9v-1zm13 32H9v1h13v-1zM17 4h13v1H17V4zm13 16H17v1h13v-1zM17 36h13v1H17v-1zm13 16H17v1h13v-1zm-5-24h13v1H25v-1zm13 32H25v1h13v-1zM33 4h13v1H33V4zm13 16H33v1h13v-1zM33 36h13v1H33v-1zm13 16H33v1h13v-1zm-5-40h13v1H41v-1zm13 32H41v1h13v-1zM49 4h13v1H49V4zm13 16H49v1h13v-1zM49 36h13v1H49v-1zm13 16H49v1h13v-1z"
    fill="#000"
  />
  <path
    fill-rule="evenodd"
    clip-rule="evenodd"
    d="M28 43h7v1h-1v1h1v1h-7v-1h1v-1h-1v-1zm2 2h3v-1h-3v1zM19 27h-7v1h1v1h-1v1h7v-1h-1v-1h1v-1zm-2 2h-3v-1h3v1zm27-2h7v1h-1v1h1v1h-7v-1h1v-1h-1v-1zm2 2h3v-1h-3v1zm5 30h-7v1h1v1h-1v1h7v-1h-1v-1h1v-1zm-2 2h-3v-1h3v1zm-37-2h7v1h-1v1h1v1h-7v-1h1v-1h-1v-1zm2 2h3v-1h-3v1zm21-50h-7v1h1v1h-1v1h7v-1h-1v-1h1v-1zm-2 2h-3v-1h3v1z"
    fill="#000"
  />
</svg>
