<svg viewBox="0 0 64 64" fill="none" xmlns="http://www.w3.org/2000/svg">
  <path fill="#00A5CB" d="M0 0h64v64H0z" />
  <path d="M28 52h-7v1h7v-1zm-7-32h7v1h-7v-1z" fill="#000" />
  <path
    fill-rule="evenodd"
    clip-rule="evenodd"
    d="M0 0v9h8v7H0v9h8v7H0v9h8v7H0v9h8v7h1v-7h15v7h1v-7h15v7h1v-7h15v7h1v-7h7v-1H49v-7h15v-1h-7v-7h7v-1H49v-7h15v-1h-7v-7h7v-1H49v-7h15v-1h-7V9h7V8H49V1h15V0H0zm48 33v7H33v-7h15zm8 8v7H41v-7h15zM33 56h15v-7H33v7zm15-32v-7H33v7h15zm-7 8h15v-7H41v7zm7-31v7H33V1h15zm8 8v7H41V9h15zM32 33v7H17v-7h15zm8 8v7H25v-7h15zM17 56h15v-7H17v7zm15-32v-7H17v7h15zm-7 8h15v-7H25v7zm7-31v7H17V1h15zm8 8v7H25V9h15zM16 33v7H1v-7h15zm8 8v7H9v-7h15zM1 56h15v-7H1v7zm15-32v-7H1v7h15zm-7 8h15v-7H9v7zm7-31v7H1V1h15zm8 8v7H9V9h15z"
    fill="#000"
  />
  <path d="M60 20h-7v1h7v-1zm-7 32h7v1h-7v-1z" fill="#000" />
</svg>
