<svg viewBox="0 0 64 64" fill="none" xmlns="http://www.w3.org/2000/svg">
  <path fill="#00A5CB" d="M0 0h64v64H0z" />
  <path
    fill-rule="evenodd"
    clip-rule="evenodd"
    d="M0 9h8v7H0v9h8v7H0v9h8v7H0v9h8v7h1l3.536-3.535-.708-.708L9 62.586V57h15v7h1l3.535-3.535-.707-.708L25 62.586V57h15v7h1l3.535-3.535-.707-.708L41 62.586V57h15v7h1l3.535-3.535-.707-.708L57 62.586V57h7v-1H49l3.535-3.535-.707-.708L49 54.586V49h15v-1h-7l3.535-3.535-.707-.708L57 46.586V41h7v-1H49l3.535-3.535-.707-.708L49 38.586V33h15v-1h-7l3.535-3.535-.707-.708L57 30.586V25h7v-1H49l3.535-3.535-.707-.708L49 22.586V17h15v-1h-7l3.535-3.536-.707-.707L57 14.586V9h7V8H49l3.535-3.535-.707-.708L49 6.586V1h15V0H0v9zm48 47v-7H33v5.586l2.828-2.829.707.708L33 56h15zm8-15v7H41l3.535-3.535-.707-.708L41 46.586V41h15zm-8-8v7H33l3.535-3.535-.707-.708L33 38.586V33h15zm0-9v-7H33v5.586l2.828-2.829.707.707L33 24h15zm8 8v-7H41v5.586l2.828-2.829.707.707L41 32h15zm0-23v7H41l3.535-3.536-.707-.707L41 14.586V9h15zm-8-8v7H33l3.535-3.535-.707-.708L33 6.586V1h15zM32 56v-7H17v5.586l2.828-2.829.707.708L17 56h15zm8-15v7H25l3.535-3.535-.707-.708L25 46.586V41h15zm-8-8v7H17l3.535-3.535-.707-.708L17 38.586V33h15zm0-9v-7H17v5.586l2.828-2.829.707.707L17 24h15zm8 8v-7H25v5.586l2.828-2.829.707.707L25 32h15zm0-23v7H25l3.535-3.536-.707-.707L25 14.586V9h15zm-8-8v7H17l3.535-3.535-.707-.708L17 6.586V1h15zM16 56v-7H1v5.586l2.828-2.829.708.708L1 56h15zm8-15v7H9l3.536-3.535-.708-.708L9 46.586V41h15zm-8-8v7H1l3.536-3.535-.708-.708L1 38.586V33h15zm0-9v-7H1v5.586l2.828-2.829.708.707L1 24h15zm8 8v-7H9v5.586l2.828-2.829.708.707L9 32h15zm0-23v7H9l3.536-3.536-.708-.707L9 14.586V9h15zm-8-8v7H1l3.536-3.535-.708-.708L1 6.586V1h15z"
    fill="#000"
  />
</svg>
