<svg viewBox="0 0 64 64" fill="none" xmlns="http://www.w3.org/2000/svg">
  <path fill="#C9F" d="M0 0h64v64H0z" />
  <path
    fill-rule="evenodd"
    clip-rule="evenodd"
    d="M64 1V0H0v1h10L2 8H0v1h10l-8 7H0v1h10l-8 7H0v1h10l-8 7H0v1h10l-8 7H0v1h10l-8 7H0v1h10l-8 7H0v1h10l-8 7h1.5l8-7H26l-8 7h1.5l8-7H42l-8 7h1.5l8-7H58l-8 7h1.5l8-7H64v-1H51.5l8-7H64v-1H51.5l8-7H64v-1H51.5l8-7H64v-1H51.5l8-7H64v-1H51.5l8-7H64v-1H51.5l8-7H64V8H51.5l8-7H64zm-6 48H43.5l-8 7H50l8-7zm0-8-8 7H35.5l8-7H58zm0-8H43.5l-8 7H50l8-7zm0-8-8 7H35.5l8-7H58zm0-8H43.5l-8 7H50l8-7zm0-8-8 7H35.5l8-7H58zm0-8H43.5l-8 7H50l8-7zM42 49H27.5l-8 7H34l8-7zm0-8-8 7H19.5l8-7H42zm0-8H27.5l-8 7H34l8-7zm0-8-8 7H19.5l8-7H42zm0-8H27.5l-8 7H34l8-7zm0-8-8 7H19.5l8-7H42zm0-8H27.5l-8 7H34l8-7zM26 49H11.5l-8 7H18l8-7zm0-8-8 7H3.5l8-7H26zm0-8H11.5l-8 7H18l8-7zm0-8-8 7H3.5l8-7H26zm0-8H11.5l-8 7H18l8-7zm0-8-8 7H3.5l8-7H26zm0-8H11.5l-8 7H18l8-7z"
    fill="#000"
  />
</svg>
