<svg viewBox="0 0 64 64" fill="none" xmlns="http://www.w3.org/2000/svg">
  <path fill="#00A5CB" d="M0 0h64v64H0z" />
  <path
    fill-rule="evenodd"
    clip-rule="evenodd"
    d="M0 9h8v7H0v9h8v7H0v9h8v7H0v9h8v7h1v-7h1v7h1v-7h13v7h1v-7h1v7h1v-7h13v7h1v-7h1v7h1v-7h13v7h1v-7h1v7h1v-7h5v-1H51v-7h13v-1h-5v-7h5v-1H51v-7h13v-1h-5v-7h5v-1H51v-7h13v-1h-5V9h5V8H51V1h13V0H0v9zm50 47v-7h-1v7h1zm-2-7v7H35v-7h13zm10-8v7h-1v-7h1zm-2 0v7H43v-7h13zm-6-8v7h-1v-7h1zm0-9v-7h-1v7h1zm-2 0v-7H35v7h13zm10 8v-7h-1v7h1zm-2 0v-7H43v7h13zm-8 8H35v-7h13v7zM58 9v7h-1V9h1zm-2 0v7H43V9h13zm-6-8v7h-1V1h1zm-2 7H35V1h13v7zM34 56v-7h-1v7h1zm-2-7v7H19v-7h13zm10-8v7h-1v-7h1zm-2 0v7H27v-7h13zm-6-8v7h-1v-7h1zm0-9v-7h-1v7h1zm-2 0v-7H19v7h13zm10 8v-7h-1v7h1zm-2 0v-7H27v7h13zm-8 8H19v-7h13v7zM42 9v7h-1V9h1zm-2 0v7H27V9h13zm-6-8v7h-1V1h1zm-2 7H19V1h13v7zM18 56v-7h-1v7h1zm-2-7v7H3v-7h13zm10-8v7h-1v-7h1zm-2 0v7H11v-7h13zm-6-8v7h-1v-7h1zm0-9v-7h-1v7h1zm-2 0v-7H3v7h13zm10 8v-7h-1v7h1zm-2 0v-7H11v7h13zm-8 8H3v-7h13v7zM26 9v7h-1V9h1zm-2 0v7H11V9h13zm-6-8v7h-1V1h1zm-2 7H3V1h13v7zM2 56v-7H1v7h1zm0-16H1v-7h1v7zm8 8H9v-7h1v7zM2 24v-7H1v7h1zm8 8v-7H9v7h1zM2 8H1V1h1v7zm8 8H9V9h1v7z"
    fill="#000"
  />
</svg>
