<svg viewBox="0 0 64 64" fill="none" xmlns="http://www.w3.org/2000/svg">
  <path fill="#62C8CE" d="M0 0h64v64H0z" />
  <path
    fill-rule="evenodd"
    clip-rule="evenodd"
    d="M3.248 4.218c-.194-.013-.612.101-1.348 1.082l-.8-.6c.764-1.019 1.47-1.53 2.215-1.48.362.024.663.18.904.356a5.371 5.371 0 0 1 .635.57 4.6 4.6 0 0 0 .514.469c.156.113.278.16.384.167.194.013.612-.101 1.348-1.082l.8.6c-.764 1.019-1.47 1.53-2.214 1.48-.363-.024-.663-.18-.905-.356-.232-.168-.443-.379-.622-.558l-.012-.012a4.6 4.6 0 0 0-.515-.469c-.156-.113-.278-.16-.384-.167zm0 16c-.194-.013-.612.101-1.348 1.082l-.8-.6c.764-1.019 1.47-1.53 2.215-1.48.362.024.663.18.904.356a5.361 5.361 0 0 1 .635.57c.193.194.353.352.514.469.156.113.278.16.384.167.194.013.612-.101 1.348-1.082l.8.6c-.764 1.019-1.47 1.53-2.214 1.48-.363-.024-.663-.18-.905-.356-.232-.168-.443-.379-.622-.558a4.605 4.605 0 0 0-.527-.481c-.156-.113-.278-.16-.384-.167zm0 16c-.194-.013-.612.101-1.348 1.082l-.8-.6c.764-1.019 1.47-1.53 2.215-1.48.362.024.663.18.904.356a5.361 5.361 0 0 1 .635.57c.193.194.353.352.514.469.156.113.278.16.384.167.194.013.612-.101 1.348-1.082l.8.6c-.764 1.019-1.47 1.53-2.214 1.48-.363-.024-.663-.18-.905-.356-.232-.168-.443-.379-.622-.557a4.605 4.605 0 0 0-.527-.481c-.156-.114-.278-.161-.384-.168zm0 16c-.194-.013-.612.101-1.348 1.082l-.8-.6c.764-1.019 1.47-1.53 2.215-1.48.362.024.663.18.904.356a5.361 5.361 0 0 1 .635.57c.193.194.353.352.514.469.156.113.278.16.384.167.194.013.612-.101 1.348-1.082l.8.6c-.764 1.019-1.47 1.53-2.214 1.48-.363-.024-.663-.18-.905-.356-.232-.168-.443-.379-.622-.557a4.605 4.605 0 0 0-.527-.481c-.156-.114-.278-.161-.384-.168zm8-40c-.194-.013-.612.101-1.348 1.082l-.8-.6c.764-1.019 1.47-1.53 2.215-1.48.362.024.662.18.905.356a5.36 5.36 0 0 1 .634.57c.193.194.353.352.514.469.156.113.278.16.384.167.194.013.612-.101 1.348-1.082l.8.6c-.764 1.019-1.47 1.53-2.214 1.48-.363-.024-.663-.18-.905-.356-.232-.168-.443-.379-.622-.557l-.012-.013a4.608 4.608 0 0 0-.515-.469c-.156-.113-.278-.16-.384-.167zm0 32c-.194-.013-.612.101-1.348 1.082l-.8-.6c.764-1.019 1.47-1.53 2.215-1.48.362.024.662.18.905.356a5.36 5.36 0 0 1 .634.57c.193.194.353.352.514.469.156.113.278.16.384.167.194.013.612-.101 1.348-1.082l.8.6c-.764 1.019-1.47 1.53-2.214 1.48-.363-.024-.663-.18-.905-.356-.232-.168-.443-.379-.622-.557a4.608 4.608 0 0 0-.527-.481c-.156-.114-.278-.161-.384-.168zm24-40c-.194-.013-.612.101-1.348 1.082l-.8-.6c.764-1.019 1.47-1.53 2.215-1.48.362.024.663.18.904.356a5.37 5.37 0 0 1 .635.57c.193.194.353.352.514.469.156.113.278.16.384.167.194.013.612-.101 1.348-1.082l.8.6c-.764 1.019-1.47 1.53-2.214 1.48-.363-.024-.663-.18-.905-.356a5.251 5.251 0 0 1-.621-.558l-.013-.012a4.593 4.593 0 0 0-.515-.469c-.156-.113-.278-.16-.384-.167zm0 16c-.194-.013-.612.101-1.348 1.082l-.8-.6c.764-1.019 1.47-1.53 2.215-1.48.362.024.663.18.904.356a5.36 5.36 0 0 1 .635.57c.193.194.353.352.514.469.156.113.278.16.384.167.194.013.612-.101 1.348-1.082l.8.6c-.764 1.019-1.47 1.53-2.214 1.48-.363-.024-.663-.18-.905-.356a5.251 5.251 0 0 1-.621-.558 4.599 4.599 0 0 0-.527-.481c-.157-.113-.279-.16-.385-.167zm0 16c-.194-.013-.612.101-1.348 1.082l-.8-.6c.764-1.019 1.47-1.53 2.215-1.48.362.024.663.18.904.356a5.36 5.36 0 0 1 .635.57c.193.194.353.352.514.469.156.113.278.16.384.167.194.013.612-.101 1.348-1.082l.8.6c-.764 1.019-1.47 1.53-2.214 1.48-.363-.024-.663-.18-.905-.356-.232-.168-.443-.379-.621-.557a4.599 4.599 0 0 0-.527-.481c-.157-.114-.279-.161-.385-.168zm0 16c-.194-.013-.612.101-1.348 1.082l-.8-.6c.764-1.019 1.47-1.53 2.215-1.48.362.024.663.18.904.356a5.36 5.36 0 0 1 .635.57c.193.194.353.352.514.469.156.113.278.16.384.167.194.013.612-.101 1.348-1.082l.8.6c-.764 1.019-1.47 1.53-2.214 1.48-.363-.024-.663-.18-.905-.356-.232-.168-.443-.379-.621-.557a4.599 4.599 0 0 0-.527-.481c-.157-.114-.279-.161-.385-.168zm8-40c-.194-.013-.612.101-1.348 1.082l-.8-.6c.764-1.019 1.47-1.53 2.215-1.48.362.024.663.18.904.356a5.36 5.36 0 0 1 .635.57c.193.194.353.352.514.469.156.113.278.16.384.167.194.013.612-.101 1.348-1.082l.8.6c-.764 1.019-1.47 1.53-2.214 1.48-.363-.024-.663-.18-.905-.356-.232-.168-.443-.379-.621-.557a4.599 4.599 0 0 0-.527-.481c-.157-.114-.279-.161-.385-.168zm0 32c-.194-.013-.612.101-1.348 1.082l-.8-.6c.764-1.019 1.47-1.53 2.215-1.48.362.024.663.18.904.356a5.36 5.36 0 0 1 .635.57c.193.194.353.352.514.469.156.113.278.16.384.167.194.013.612-.101 1.348-1.082l.8.6c-.764 1.019-1.47 1.53-2.214 1.48-.363-.024-.663-.18-.905-.356-.232-.168-.443-.379-.621-.557a4.599 4.599 0 0 0-.527-.481c-.157-.114-.279-.161-.385-.168zm-24-40c-.194-.013-.612.101-1.348 1.082l-.8-.6c.764-1.019 1.47-1.53 2.215-1.48.362.024.662.18.904.356a5.37 5.37 0 0 1 .635.57c.193.194.353.352.514.469.156.113.278.16.384.167.194.013.612-.101 1.348-1.082l.8.6c-.764 1.019-1.47 1.53-2.214 1.48-.363-.024-.663-.18-.905-.356a5.251 5.251 0 0 1-.621-.558 4.602 4.602 0 0 0-.527-.481c-.157-.113-.279-.16-.385-.167zm0 16c-.194-.013-.612.101-1.348 1.082l-.8-.6c.764-1.019 1.47-1.53 2.215-1.48.362.024.662.18.904.356a5.36 5.36 0 0 1 .635.57c.193.194.353.352.514.469.156.113.278.16.384.167.194.013.612-.101 1.348-1.082l.8.6c-.764 1.019-1.47 1.53-2.214 1.48-.363-.024-.663-.18-.905-.356a5.251 5.251 0 0 1-.621-.558 4.608 4.608 0 0 0-.527-.481c-.157-.113-.279-.16-.385-.167zm0 16c-.194-.013-.612.101-1.348 1.082l-.8-.6c.764-1.019 1.47-1.53 2.215-1.48.362.024.662.18.904.356a5.36 5.36 0 0 1 .635.57c.193.194.353.352.514.469.156.113.278.16.384.167.194.013.612-.101 1.348-1.082l.8.6c-.764 1.019-1.47 1.53-2.214 1.48-.363-.024-.663-.18-.905-.356-.232-.168-.443-.379-.621-.557a4.608 4.608 0 0 0-.527-.481c-.157-.114-.279-.161-.385-.168zm0 16c-.194-.013-.612.101-1.348 1.082l-.8-.6c.764-1.019 1.47-1.53 2.215-1.48.362.024.662.18.904.356a5.36 5.36 0 0 1 .635.57c.193.194.353.352.514.469.156.113.278.16.384.167.194.013.612-.101 1.348-1.082l.8.6c-.764 1.019-1.47 1.53-2.214 1.48-.363-.024-.663-.18-.905-.356-.232-.168-.443-.379-.621-.557a4.608 4.608 0 0 0-.527-.481c-.157-.114-.279-.161-.385-.168zm8-24c-.194-.013-.612.101-1.348 1.082l-.8-.6c.764-1.019 1.47-1.53 2.215-1.48.362.024.662.18.904.356a5.36 5.36 0 0 1 .635.57c.193.194.353.352.514.469.156.113.278.16.384.167.194.013.612-.101 1.348-1.082l.8.6c-.764 1.019-1.47 1.53-2.214 1.48-.363-.024-.663-.18-.905-.356a5.251 5.251 0 0 1-.621-.558 4.608 4.608 0 0 0-.527-.481c-.157-.113-.279-.16-.385-.167zm0 32c-.194-.013-.612.101-1.348 1.082l-.8-.6c.764-1.019 1.47-1.53 2.215-1.48.362.024.662.18.904.356a5.36 5.36 0 0 1 .635.57c.193.194.353.352.514.469.156.113.278.16.384.167.194.013.612-.101 1.348-1.082l.8.6c-.764 1.019-1.47 1.53-2.214 1.48-.363-.024-.663-.18-.905-.356-.232-.168-.443-.379-.621-.557a4.608 4.608 0 0 0-.527-.481c-.157-.114-.279-.161-.385-.168zm24-56c-.194-.013-.612.101-1.348 1.082l-.8-.6c.764-1.019 1.47-1.53 2.215-1.48.362.024.663.18.904.356a5.37 5.37 0 0 1 .635.57c.193.194.353.352.514.469.156.113.278.16.384.167.194.013.612-.101 1.348-1.082l.8.6c-.764 1.019-1.47 1.53-2.214 1.48-.363-.024-.663-.18-.905-.356a5.251 5.251 0 0 1-.621-.558l-.013-.012a4.593 4.593 0 0 0-.515-.469c-.156-.113-.278-.16-.384-.167zm0 16c-.194-.013-.612.101-1.348 1.082l-.8-.6c.764-1.019 1.47-1.53 2.215-1.48.362.024.663.18.904.356a5.36 5.36 0 0 1 .635.57c.193.194.353.352.514.469.156.113.278.16.384.167.194.013.612-.101 1.348-1.082l.8.6c-.764 1.019-1.47 1.53-2.214 1.48-.363-.024-.663-.18-.905-.356a5.251 5.251 0 0 1-.621-.558 4.599 4.599 0 0 0-.527-.481c-.157-.113-.279-.16-.385-.167zm0 16c-.194-.013-.612.101-1.348 1.082l-.8-.6c.764-1.019 1.47-1.53 2.215-1.48.362.024.663.18.904.356a5.36 5.36 0 0 1 .635.57c.193.194.353.352.514.469.156.113.278.16.384.167.194.013.612-.101 1.348-1.082l.8.6c-.764 1.019-1.47 1.53-2.214 1.48-.363-.024-.663-.18-.905-.356-.232-.168-.443-.379-.621-.557a4.599 4.599 0 0 0-.527-.481c-.157-.114-.279-.161-.385-.168zm0 16c-.194-.013-.612.101-1.348 1.082l-.8-.6c.764-1.019 1.47-1.53 2.215-1.48.362.024.663.18.904.356a5.36 5.36 0 0 1 .635.57c.193.194.353.352.514.469.156.113.278.16.384.167.194.013.612-.101 1.348-1.082l.8.6c-.764 1.019-1.47 1.53-2.214 1.48-.363-.024-.663-.18-.905-.356-.232-.168-.443-.379-.621-.557a4.599 4.599 0 0 0-.527-.481c-.157-.114-.279-.161-.385-.168zm8-24c-.194-.013-.612.101-1.348 1.082l-.8-.6c.764-1.019 1.47-1.53 2.215-1.48.362.024.663.18.904.356a5.36 5.36 0 0 1 .635.57c.193.194.353.352.514.469.156.113.278.16.384.167.194.013.612-.101 1.348-1.082l.8.6c-.764 1.019-1.47 1.53-2.214 1.48-.363-.024-.663-.18-.905-.356a5.251 5.251 0 0 1-.621-.558 4.599 4.599 0 0 0-.527-.481c-.157-.113-.279-.16-.385-.167zm0 32c-.194-.013-.612.101-1.348 1.082l-.8-.6c.764-1.019 1.47-1.53 2.215-1.48.362.024.663.18.904.356a5.36 5.36 0 0 1 .635.57c.193.194.353.352.514.469.156.113.278.16.384.167.194.013.612-.101 1.348-1.082l.8.6c-.764 1.019-1.47 1.53-2.214 1.48-.363-.024-.663-.18-.905-.356-.232-.168-.443-.379-.621-.557a4.599 4.599 0 0 0-.527-.481c-.157-.114-.279-.161-.385-.168zM25 43h7v1h-1v1h1v1h-7v-1h1v-1h-1v-1zm2 2h3v-1h-3v1zM9 27h7v1h-1v1h1v1H9v-1h1v-1H9v-1zm2 2h3v-1h-3v1zm30-2h7v1h-1v1h1v1h-7v-1h1v-1h-1v-1zm2 2h3v-1h-3v1zm-2 30h7v1h-1v1h1v1h-7v-1h1v-1h-1v-1zm2 2h3v-1h-3v1zM9 59h7v1h-1v1h1v1H9v-1h1v-1H9v-1zm2 2h3v-1h-3v1zm46-18h7v1h-1v1h1v1h-7v-1h1v-1h-1v-1zm2 2h3v-1h-3v1zM25 11h7v1h-1v1h1v1h-7v-1h1v-1h-1v-1zm2 2h3v-1h-3v1zm30-2h7v1h-1v1h1v1h-7v-1h1v-1h-1v-1zm2 2h3v-1h-3v1z"
    fill="#000"
  />
</svg>
