<svg viewBox="0 0 64 64" fill="none" xmlns="http://www.w3.org/2000/svg">
  <path fill="#F177AA" d="M0 0h64v64H0z" />
  <path
    fill-rule="evenodd"
    clip-rule="evenodd"
    d="m2.765 7.424-.53-.848L5.556 4.5 2.235 2.424l.53-.848L7.443 4.5 2.765 7.424zm0 16-.53-.848L5.556 20.5l-3.321-2.076.53-.848L7.443 20.5l-4.678 2.924zm0 16-.53-.848L5.556 36.5l-3.321-2.076.53-.848L7.443 36.5l-4.678 2.924zm0 16-.53-.848L5.556 52.5l-3.321-2.076.53-.848L7.443 52.5l-4.678 2.924zm8-40-.53-.848 3.321-2.076-3.321-2.076.53-.848 4.678 2.924-4.678 2.924zm0 16-.53-.848 3.321-2.076-3.321-2.076.53-.848 4.678 2.924-4.678 2.924zm0 16-.53-.848 3.321-2.076-3.321-2.076.53-.848 4.678 2.924-4.678 2.924zm0 16-.53-.848 3.321-2.076-3.321-2.076.53-.848 4.678 2.924-4.678 2.924zm24-56-.53-.848L37.556 4.5l-3.321-2.076.53-.848L39.443 4.5l-4.678 2.924zm0 16-.53-.848 3.321-2.076-3.321-2.076.53-.848 4.678 2.924-4.678 2.924zm0 16-.53-.848 3.321-2.076-3.321-2.076.53-.848 4.678 2.924-4.678 2.924zm0 16-.53-.848 3.321-2.076-3.321-2.076.53-.848 4.678 2.924-4.678 2.924zm8-40-.53-.848 3.321-2.076-3.321-2.076.53-.848 4.678 2.924-4.678 2.924zm0 16-.53-.848 3.321-2.076-3.321-2.076.53-.848 4.678 2.924-4.678 2.924zm0 16-.53-.848 3.321-2.076-3.321-2.076.53-.848 4.678 2.924-4.678 2.924zm0 16-.53-.848 3.321-2.076-3.321-2.076.53-.848 4.678 2.924-4.678 2.924zm-24-56-.53-.848L21.556 4.5l-3.321-2.076.53-.848L23.443 4.5l-4.678 2.924zm0 16-.53-.848 3.321-2.076-3.321-2.076.53-.848 4.678 2.924-4.678 2.924zm0 16-.53-.848 3.321-2.076-3.321-2.076.53-.848 4.678 2.924-4.678 2.924zm0 16-.53-.848 3.321-2.076-3.321-2.076.53-.848 4.678 2.924-4.678 2.924zm8-40-.53-.848 3.321-2.076-3.321-2.076.53-.848 4.678 2.924-4.678 2.924zm0 16-.53-.848 3.321-2.076-3.321-2.076.53-.848 4.678 2.924-4.678 2.924zm0 16-.53-.848 3.321-2.076-3.321-2.076.53-.848 4.678 2.924-4.678 2.924zm0 16-.53-.848 3.321-2.076-3.321-2.076.53-.848 4.678 2.924-4.678 2.924zm24-56-.53-.848L53.556 4.5l-3.321-2.076.53-.848L55.443 4.5l-4.678 2.924zm0 16-.53-.848 3.321-2.076-3.321-2.076.53-.848 4.678 2.924-4.678 2.924zm0 16-.53-.848 3.321-2.076-3.321-2.076.53-.848 4.678 2.924-4.678 2.924zm0 16-.53-.848 3.321-2.076-3.321-2.076.53-.848 4.678 2.924-4.678 2.924zm8-40-.53-.848 3.321-2.076-3.321-2.076.53-.848 4.678 2.924-4.678 2.924zm0 16-.53-.848 3.321-2.076-3.321-2.076.53-.848 4.678 2.924-4.678 2.924zm0 16-.53-.848 3.321-2.076-3.321-2.076.53-.848 4.678 2.924-4.678 2.924zm0 16-.53-.848 3.321-2.076-3.321-2.076.53-.848 4.678 2.924-4.678 2.924z"
    fill="#000"
  />
</svg>
