<svg viewBox="0 0 64 64" fill="none" xmlns="http://www.w3.org/2000/svg">
  <path fill="#F177AA" d="M0 0h64v64H0z" />
  <path
    fill-rule="evenodd"
    clip-rule="evenodd"
    d="m7.424 6.235-.848.53L4.5 3.443 2.424 6.765l-.848-.53L4.5 1.557l2.924 4.678zm0 16-.848.53L4.5 19.443l-2.076 3.322-.848-.53L4.5 17.557l2.924 4.678zm0 16-.848.53L4.5 35.443l-2.076 3.322-.848-.53L4.5 33.557l2.924 4.678zm0 16-.848.53L4.5 51.443l-2.076 3.322-.848-.53L4.5 49.557l2.924 4.678zm8-40-.848.53-2.076-3.322-2.076 3.322-.848-.53L12.5 9.557l2.924 4.678zm0 16-.848.53-2.076-3.322-2.076 3.322-.848-.53 2.924-4.678 2.924 4.678zm0 16-.848.53-2.076-3.322-2.076 3.322-.848-.53 2.924-4.678 2.924 4.678zm0 16-.848.53-2.076-3.322-2.076 3.322-.848-.53 2.924-4.678 2.924 4.678zm24-56-.848.53L36.5 3.443l-2.076 3.322-.848-.53L36.5 1.557l2.924 4.678zm0 16-.848.53-2.076-3.322-2.076 3.322-.848-.53 2.924-4.678 2.924 4.678zm0 16-.848.53-2.076-3.322-2.076 3.322-.848-.53 2.924-4.678 2.924 4.678zm0 16-.848.53-2.076-3.322-2.076 3.322-.848-.53 2.924-4.678 2.924 4.678zm8-40-.848.53-2.076-3.322-2.076 3.322-.848-.53L44.5 9.557l2.924 4.678zm0 16-.848.53-2.076-3.322-2.076 3.322-.848-.53 2.924-4.678 2.924 4.678zm0 16-.848.53-2.076-3.322-2.076 3.322-.848-.53 2.924-4.678 2.924 4.678zm0 16-.848.53-2.076-3.322-2.076 3.322-.848-.53 2.924-4.678 2.924 4.678zm-24-56-.848.53L20.5 3.443l-2.076 3.322-.848-.53L20.5 1.557l2.924 4.678zm0 16-.848.53-2.076-3.322-2.076 3.322-.848-.53 2.924-4.678 2.924 4.678zm0 16-.848.53-2.076-3.322-2.076 3.322-.848-.53 2.924-4.678 2.924 4.678zm0 16-.848.53-2.076-3.322-2.076 3.322-.848-.53 2.924-4.678 2.924 4.678zm8-40-.848.53-2.076-3.322-2.076 3.322-.848-.53L28.5 9.557l2.924 4.678zm0 16-.848.53-2.076-3.322-2.076 3.322-.848-.53 2.924-4.678 2.924 4.678zm0 16-.848.53-2.076-3.322-2.076 3.322-.848-.53 2.924-4.678 2.924 4.678zm0 16-.848.53-2.076-3.322-2.076 3.322-.848-.53 2.924-4.678 2.924 4.678zm24-56-.848.53L52.5 3.443l-2.076 3.322-.848-.53L52.5 1.557l2.924 4.678zm0 16-.848.53-2.076-3.322-2.076 3.322-.848-.53 2.924-4.678 2.924 4.678zm0 16-.848.53-2.076-3.322-2.076 3.322-.848-.53 2.924-4.678 2.924 4.678zm0 16-.848.53-2.076-3.322-2.076 3.322-.848-.53 2.924-4.678 2.924 4.678zm8-40-.848.53-2.076-3.322-2.076 3.322-.848-.53L60.5 9.557l2.924 4.678zm0 16-.848.53-2.076-3.322-2.076 3.322-.848-.53 2.924-4.678 2.924 4.678zm0 16-.848.53-2.076-3.322-2.076 3.322-.848-.53 2.924-4.678 2.924 4.678zm0 16-.848.53-2.076-3.322-2.076 3.322-.848-.53 2.924-4.678 2.924 4.678z"
    fill="#000"
  />
</svg>
