<svg viewBox="0 0 64 64" fill="none" xmlns="http://www.w3.org/2000/svg">
  <g clip-path="url(#a)">
    <path fill="#D380B5" d="M0 0h64v64H0z" />
    <g clip-path="url(#b)" fill-rule="evenodd" clip-rule="evenodd" fill="#000">
      <path
        d="m7.424 58.765-.848-.53L4.5 61.557l-2.076-3.322-.848.53L4.5 63.443l2.924-4.678Zm0-16-.848-.53L4.5 45.557l-2.076-3.322-.848.53L4.5 47.443l2.924-4.678Zm0-16-.848-.53L4.5 29.557l-2.076-3.322-.848.53L4.5 31.443l2.924-4.678Zm0-16-.848-.53L4.5 13.557l-2.076-3.322-.848.53L4.5 15.443l2.924-4.678Zm8 40-.848-.53-2.076 3.322-2.076-3.322-.848.53 2.924 4.678 2.924-4.678Zm0-16-.848-.53-2.076 3.322-2.076-3.322-.848.53 2.924 4.678 2.924-4.678Zm0-16-.848-.53-2.076 3.322-2.076-3.322-.848.53 2.924 4.678 2.924-4.678Zm0-16-.848-.53L12.5 5.557l-2.076-3.322-.848.53L12.5 7.443l2.924-4.678Zm24 56-.848-.53-2.076 3.322-2.076-3.322-.848.53 2.924 4.678 2.924-4.678Zm0-16-.848-.53-2.076 3.322-2.076-3.322-.848.53 2.924 4.678 2.924-4.678Zm0-16-.848-.53-2.076 3.322-2.076-3.322-.848.53 2.924 4.678 2.924-4.678Zm0-16-.848-.53-2.076 3.322-2.076-3.322-.848.53 2.924 4.678 2.924-4.678Zm8 40-.848-.53-2.076 3.322-2.076-3.322-.848.53 2.924 4.678 2.924-4.678Zm0-16-.848-.53-2.076 3.322-2.076-3.322-.848.53 2.924 4.678 2.924-4.678Zm0-16-.848-.53-2.076 3.322-2.076-3.322-.848.53 2.924 4.678 2.924-4.678Zm0-16-.848-.53L44.5 5.557l-2.076-3.322-.848.53L44.5 7.443l2.924-4.678Zm-24 56-.848-.53-2.076 3.322-2.076-3.322-.848.53 2.924 4.678 2.924-4.678Zm0-16-.848-.53-2.076 3.322-2.076-3.322-.848.53 2.924 4.678 2.924-4.678Zm0-16-.848-.53-2.076 3.322-2.076-3.322-.848.53 2.924 4.678 2.924-4.678Zm0-16-.848-.53-2.076 3.322-2.076-3.322-.848.53 2.924 4.678 2.924-4.678Zm8 40-.848-.53-2.076 3.322-2.076-3.322-.848.53 2.924 4.678 2.924-4.678Zm0-16-.848-.53-2.076 3.322-2.076-3.322-.848.53 2.924 4.678 2.924-4.678Zm0-16-.848-.53-2.076 3.322-2.076-3.322-.848.53 2.924 4.678 2.924-4.678Zm0-16-.848-.53L28.5 5.557l-2.076-3.322-.848.53L28.5 7.443l2.924-4.678Zm24 56-.848-.53-2.076 3.322-2.076-3.322-.848.53 2.924 4.678 2.924-4.678Zm0-16-.848-.53-2.076 3.322-2.076-3.322-.848.53 2.924 4.678 2.924-4.678Zm0-16-.848-.53-2.076 3.322-2.076-3.322-.848.53 2.924 4.678 2.924-4.678Zm0-16-.848-.53-2.076 3.322-2.076-3.322-.848.53 2.924 4.678 2.924-4.678Zm8 40-.848-.53-2.076 3.322-2.076-3.322-.848.53 2.924 4.678 2.924-4.678Zm0-16-.848-.53-2.076 3.322-2.076-3.322-.848.53 2.924 4.678 2.924-4.678Zm0-16-.848-.53-2.076 3.322-2.076-3.322-.848.53 2.924 4.678 2.924-4.678Zm0-16-.848-.53L60.5 5.557l-2.076-3.322-.848.53L60.5 7.443l2.924-4.678Z"
      />
    </g>
  </g>
  <defs>
    <clipPath id="a">
      <path fill="#fff" d="M0 0h64v64H0z" />
    </clipPath>
    <clipPath id="b">
      <path fill="#fff" d="M0 0h64v64H0z" />
    </clipPath>
  </defs>
</svg>
