<svg viewBox="0 0 64 64" fill="none" xmlns="http://www.w3.org/2000/svg">
  <g clip-path="url(#a)">
    <path fill="#FF3232" d="M0 0h64v64H0z" />
    <g clip-path="url(#b)" stroke="#000">
      <path
        d="m57 57.5 2.5 4 2.5-4m-5-16 2.5 4 2.5-4m-5-16 2.5 4 2.5-4m-5-16 2.5 4 2.5-4m-13 40 2.5 4 2.5-4m-5-16 2.5 4 2.5-4m-5-16 2.5 4 2.5-4m-5-16 2.5 4 2.5-4m-29 56 2.5 4 2.5-4m-5-16 2.5 4 2.5-4m-5-16 2.5 4 2.5-4m-5-16 2.5 4 2.5-4m-13 40 2.5 4 2.5-4m-5-16 2.5 4 2.5-4m-5-16 2.5 4 2.5-4m-5-16 2.5 4 2.5-4m19 56 2.5 4 2.5-4m-5-16 2.5 4 2.5-4m-5-16 2.5 4 2.5-4m-5-16 2.5 4 2.5-4m-13 40 2.5 4 2.5-4m-5-16 2.5 4 2.5-4m-5-16 2.5 4 2.5-4m-5-16 2.5 4 2.5-4m-29 56 2.5 4 2.5-4m-5-16 2.5 4 2.5-4m-5-16 2.5 4 2.5-4m-5-16 2.5 4 2.5-4m-13 40 2.5 4 2.5-4m-5-16 2.5 4 2.5-4m-5-16 2.5 4 2.5-4m-5-16 2.5 4 2.5-4"
      />
    </g>
  </g>
  <defs>
    <clipPath id="a">
      <path fill="#fff" d="M0 0h64v64H0z" />
    </clipPath>
    <clipPath id="b">
      <path fill="#fff" transform="rotate(180 32 32)" d="M0 0h64v64H0z" />
    </clipPath>
  </defs>
</svg>
