<svg width="64" height="64" viewBox="0 0 64 64" fill="none" xmlns="http://www.w3.org/2000/svg">
  <rect width="64" height="64" fill="#00A5CB" />
  <path
    fill-rule="evenodd"
    clip-rule="evenodd"
    d="M0 0V9H8V16H0V25H8V32H0V41H8V48H0V57H8V64H9V57H24V64H25V57H40V64H41V57H56V64H57V57H64V56H49V49H64V48H57V41H64V40H49V33H64V32H57V25H64V24H49V17H64V16H57V9H64V8H49V1H64V0H0ZM48 33V40H33V33H48ZM56 41V48H41V41H56ZM33 56H48V49H33V56ZM48 24V17H33V24H48ZM41 32H56V25H41V32ZM48 1V8H33V1H48ZM56 9V16H41V9H56ZM32 33V40H17V33H32ZM40 41V48H25V41H40ZM17 56H32V49H17V56ZM32 24V17H17V24H32ZM25 32H40V25H25V32ZM32 1V8H17V1H32ZM40 9V16H25V9H40ZM16 33V40H1V33H16ZM24 41V48H9V41H24ZM1 56H16V49H1V56ZM16 24V17H1V24H16ZM9 32H24V25H9V32ZM16 1V8H1V1H16ZM24 9V16H9V9H24Z"
    fill="black"
  />
</svg>
