<svg width="64" height="64" viewBox="0 0 64 64" fill="none" xmlns="http://www.w3.org/2000/svg">
  <rect width="64" height="64" fill="#00A5CB" />
  <path
    fill-rule="evenodd"
    clip-rule="evenodd"
    d="M0 9H8V16H0V25H8V32H0V41H8V48H0V57H8V64H9.00005L12.5355 60.4645L11.8284 59.7574L9 62.5858V57H24V64H25L28.5355 60.4645L27.8284 59.7574L25 62.5858V57H40V64H41L44.5355 60.4645L43.8284 59.7574L41 62.5858V57H56V64H57L60.5355 60.4645L59.8284 59.7574L57 62.5858V57H64V56H49L52.5355 52.4645L51.8284 51.7574L49 54.5858V49H64V48H57L60.5355 44.4645L59.8284 43.7574L57 46.5858V41H64V40H49L52.5355 36.4645L51.8284 35.7574L49 38.5858V33H64V32H57L60.5355 28.4645L59.8284 27.7574L57 30.5858V25H64V24H49L52.5355 20.4645L51.8284 19.7574L49 22.5858V17H64V16H57L60.5355 12.4645L59.8284 11.7574L57 14.5858V9H64V8H49L52.5355 4.46453L51.8284 3.75742L49 6.58583V1H64V0H0V9ZM48 56V49H33V54.5858L35.8284 51.7574L36.5355 52.4645L33 56H48ZM56 41V48H41L44.5355 44.4645L43.8284 43.7574L41 46.5858V41H56ZM48 33V40H33L36.5355 36.4645L35.8284 35.7574L33 38.5858V33H48ZM48 24V17H33V22.5858L35.8284 19.7574L36.5355 20.4645L33 24H48ZM56 32V25H41V30.5858L43.8284 27.7574L44.5355 28.4645L41 32H56ZM56 9V16H41L44.5355 12.4645L43.8284 11.7574L41 14.5858V9H56ZM48 1V8H33L36.5355 4.46453L35.8284 3.75742L33 6.58583V1H48ZM32 56V49H17V54.5858L19.8284 51.7574L20.5355 52.4645L17 56H32ZM40 41V48H25L28.5355 44.4645L27.8284 43.7574L25 46.5858V41H40ZM32 33V40H17L20.5355 36.4645L19.8284 35.7574L17 38.5858V33H32ZM32 24V17H17V22.5858L19.8284 19.7574L20.5355 20.4645L17 24H32ZM40 32V25H25V30.5858L27.8284 27.7574L28.5355 28.4645L25 32H40ZM40 9V16H25L28.5355 12.4645L27.8284 11.7574L25 14.5858V9H40ZM32 1V8H17L20.5355 4.46453L19.8284 3.75742L17 6.58583V1H32ZM16 56V49H1V54.5858L3.82841 51.7574L4.53552 52.4645L1.00005 56H16ZM24 41V48H9.00005L12.5355 44.4645L11.8284 43.7574L9 46.5858V41H24ZM16 33V40H1.00005L4.53552 36.4645L3.82841 35.7574L1 38.5858V33H16ZM16 24V17H1V22.5858L3.82841 19.7574L4.53552 20.4645L1.00005 24H16ZM24 32V25H9V30.5858L11.8284 27.7574L12.5355 28.4645L9.00005 32H24ZM24 9V16H9.00005L12.5355 12.4645L11.8284 11.7574L9 14.5858V9H24ZM16 1V8H1.00005L4.53552 4.46453L3.82841 3.75742L1 6.58583V1H16Z"
    fill="black"
  />
</svg>
