<svg width="64" height="64" viewBox="0 0 64 64" fill="none" xmlns="http://www.w3.org/2000/svg">
  <rect width="64" height="64" fill="#CC99FF" />
  <path
    fill-rule="evenodd"
    clip-rule="evenodd"
    d="M64 1V0H0V1H10L2 8H0V9H10L2 16H0V17H10L2 24H0V25H10L2 32H0V33H10L2 40H0V41H10L2 48H0V49H10L2 56H0V57H10L2 64H3.5L11.5 57H26L18 64H19.5L27.5 57H42L34 64H35.5L43.5 57H58L50 64H51.5L59.5 57H64V56H51.5L59.5 49H64V48H51.5L59.5 41H64V40H51.5L59.5 33H64V32H51.5L59.5 25H64V24H51.5L59.5 17H64V16H51.5L59.5 9H64V8H51.5L59.5 1H64ZM58 49H43.5L35.5 56H50L58 49ZM58 41L50 48H35.5L43.5 41H58ZM58 33H43.5L35.5 40H50L58 33ZM58 25L50 32H35.5L43.5 25H58ZM58 17H43.5L35.5 24H50L58 17ZM58 9L50 16H35.5L43.5 9H58ZM58 1H43.5L35.5 8H50L58 1ZM42 49H27.5L19.5 56H34L42 49ZM42 41L34 48H19.5L27.5 41H42ZM42 33H27.5L19.5 40H34L42 33ZM42 25L34 32H19.5L27.5 25H42ZM42 17H27.5L19.5 24H34L42 17ZM42 9L34 16H19.5L27.5 9H42ZM42 1H27.5L19.5 8H34L42 1ZM26 49H11.5L3.5 56H18L26 49ZM26 41L18 48H3.5L11.5 41H26ZM26 33H11.5L3.5 40H18L26 33ZM26 25L18 32H3.5L11.5 25H26ZM26 17H11.5L3.5 24H18L26 17ZM26 9L18 16H3.5L11.5 9H26ZM26 1H11.5L3.5 8H18L26 1Z"
    fill="black"
  />
</svg>
