<svg width="64" height="64" viewBox="0 0 64 64" fill="none" xmlns="http://www.w3.org/2000/svg">
  <rect width="64" height="64" fill="#B3D454" />
  <path fill-rule="evenodd" clip-rule="evenodd" d="M4 3H3V6H4V3ZM6 3H5V6H6V3Z" fill="black" />
  <path fill-rule="evenodd" clip-rule="evenodd" d="M4 19H3V22H4V19ZM6 19H5V22H6V19Z" fill="black" />
  <path fill-rule="evenodd" clip-rule="evenodd" d="M4 35H3V38H4V35ZM6 35H5V38H6V35Z" fill="black" />
  <path fill-rule="evenodd" clip-rule="evenodd" d="M4 51H3V54H4V51ZM6 51H5V54H6V51Z" fill="black" />
  <path
    fill-rule="evenodd"
    clip-rule="evenodd"
    d="M12 11H11V14H12V11ZM14 11H13V14H14V11Z"
    fill="black"
  />
  <path
    fill-rule="evenodd"
    clip-rule="evenodd"
    d="M12 27H11V30H12V27ZM14 27H13V30H14V27Z"
    fill="black"
  />
  <path
    fill-rule="evenodd"
    clip-rule="evenodd"
    d="M12 43H11V46H12V43ZM14 43H13V46H14V43Z"
    fill="black"
  />
  <path
    fill-rule="evenodd"
    clip-rule="evenodd"
    d="M12 59H11V62H12V59ZM14 59H13V62H14V59Z"
    fill="black"
  />
  <path fill-rule="evenodd" clip-rule="evenodd" d="M20 3H19V6H20V3ZM22 3H21V6H22V3Z" fill="black" />
  <path
    fill-rule="evenodd"
    clip-rule="evenodd"
    d="M20 19H19V22H20V19ZM22 19H21V22H22V19Z"
    fill="black"
  />
  <path
    fill-rule="evenodd"
    clip-rule="evenodd"
    d="M20 35H19V38H20V35ZM22 35H21V38H22V35Z"
    fill="black"
  />
  <path
    fill-rule="evenodd"
    clip-rule="evenodd"
    d="M20 51H19V54H20V51ZM22 51H21V54H22V51Z"
    fill="black"
  />
  <path
    fill-rule="evenodd"
    clip-rule="evenodd"
    d="M28 11H27V14H28V11ZM30 11H29V14H30V11Z"
    fill="black"
  />
  <path
    fill-rule="evenodd"
    clip-rule="evenodd"
    d="M28 27H27V30H28V27ZM30 27H29V30H30V27Z"
    fill="black"
  />
  <path
    fill-rule="evenodd"
    clip-rule="evenodd"
    d="M28 43H27V46H28V43ZM30 43H29V46H30V43Z"
    fill="black"
  />
  <path
    fill-rule="evenodd"
    clip-rule="evenodd"
    d="M28 59H27V62H28V59ZM30 59H29V62H30V59Z"
    fill="black"
  />
  <path fill-rule="evenodd" clip-rule="evenodd" d="M36 3H35V6H36V3ZM38 3H37V6H38V3Z" fill="black" />
  <path
    fill-rule="evenodd"
    clip-rule="evenodd"
    d="M36 19H35V22H36V19ZM38 19H37V22H38V19Z"
    fill="black"
  />
  <path
    fill-rule="evenodd"
    clip-rule="evenodd"
    d="M36 35H35V38H36V35ZM38 35H37V38H38V35Z"
    fill="black"
  />
  <path
    fill-rule="evenodd"
    clip-rule="evenodd"
    d="M36 51H35V54H36V51ZM38 51H37V54H38V51Z"
    fill="black"
  />
  <path
    fill-rule="evenodd"
    clip-rule="evenodd"
    d="M44 11H43V14H44V11ZM46 11H45V14H46V11Z"
    fill="black"
  />
  <path
    fill-rule="evenodd"
    clip-rule="evenodd"
    d="M44 27H43V30H44V27ZM46 27H45V30H46V27Z"
    fill="black"
  />
  <path
    fill-rule="evenodd"
    clip-rule="evenodd"
    d="M44 43H43V46H44V43ZM46 43H45V46H46V43Z"
    fill="black"
  />
  <path
    fill-rule="evenodd"
    clip-rule="evenodd"
    d="M44 59H43V62H44V59ZM46 59H45V62H46V59Z"
    fill="black"
  />
  <path fill-rule="evenodd" clip-rule="evenodd" d="M52 3H51V6H52V3ZM54 3H53V6H54V3Z" fill="black" />
  <path
    fill-rule="evenodd"
    clip-rule="evenodd"
    d="M52 19H51V22H52V19ZM54 19H53V22H54V19Z"
    fill="black"
  />
  <path
    fill-rule="evenodd"
    clip-rule="evenodd"
    d="M52 35H51V38H52V35ZM54 35H53V38H54V35Z"
    fill="black"
  />
  <path
    fill-rule="evenodd"
    clip-rule="evenodd"
    d="M52 51H51V54H52V51ZM54 51H53V54H54V51Z"
    fill="black"
  />
  <path
    fill-rule="evenodd"
    clip-rule="evenodd"
    d="M60 11H59V14H60V11ZM62 11H61V14H62V11Z"
    fill="black"
  />
  <path
    fill-rule="evenodd"
    clip-rule="evenodd"
    d="M60 27H59V30H60V27ZM62 27H61V30H62V27Z"
    fill="black"
  />
  <path
    fill-rule="evenodd"
    clip-rule="evenodd"
    d="M60 43H59V46H60V43ZM62 43H61V46H62V43Z"
    fill="black"
  />
  <path
    fill-rule="evenodd"
    clip-rule="evenodd"
    d="M60 59H59V62H60V59ZM62 59H61V62H62V59Z"
    fill="black"
  />
</svg>
