<svg width="64" height="64" viewBox="0 0 64 64" fill="none" xmlns="http://www.w3.org/2000/svg">
  <rect width="64" height="64" fill="#B3D454" />
  <path fill-rule="evenodd" clip-rule="evenodd" d="M2 3H1V6H2V3ZM4 3H3V6H4V3Z" fill="black" />
  <path fill-rule="evenodd" clip-rule="evenodd" d="M2 19H1V22H2V19ZM4 19H3V22H4V19Z" fill="black" />
  <path fill-rule="evenodd" clip-rule="evenodd" d="M2 35H1V38H2V35ZM4 35H3V38H4V35Z" fill="black" />
  <path fill-rule="evenodd" clip-rule="evenodd" d="M2 51H1V54H2V51ZM4 51H3V54H4V51Z" fill="black" />
  <path
    fill-rule="evenodd"
    clip-rule="evenodd"
    d="M10 11H9V14H10V11ZM12 11H11V14H12V11Z"
    fill="black"
  />
  <path
    fill-rule="evenodd"
    clip-rule="evenodd"
    d="M10 27H9V30H10V27ZM12 27H11V30H12V27Z"
    fill="black"
  />
  <path
    fill-rule="evenodd"
    clip-rule="evenodd"
    d="M10 43H9V46H10V43ZM12 43H11V46H12V43Z"
    fill="black"
  />
  <path
    fill-rule="evenodd"
    clip-rule="evenodd"
    d="M10 59H9V62H10V59ZM12 59H11V62H12V59Z"
    fill="black"
  />
  <path fill-rule="evenodd" clip-rule="evenodd" d="M18 3H17V6H18V3ZM20 3H19V6H20V3Z" fill="black" />
  <path
    fill-rule="evenodd"
    clip-rule="evenodd"
    d="M18 35H17V38H18V35ZM20 35H19V38H20V35Z"
    fill="black"
  />
  <path
    fill-rule="evenodd"
    clip-rule="evenodd"
    d="M26 11H25V14H26V11ZM28 11H27V14H28V11Z"
    fill="black"
  />
  <path
    fill-rule="evenodd"
    clip-rule="evenodd"
    d="M26 27H25V30H26V27ZM28 27H27V30H28V27Z"
    fill="black"
  />
  <path
    fill-rule="evenodd"
    clip-rule="evenodd"
    d="M26 43H25V46H26V43ZM28 43H27V46H28V43Z"
    fill="black"
  />
  <path
    fill-rule="evenodd"
    clip-rule="evenodd"
    d="M26 59H25V62H26V59ZM28 59H27V62H28V59Z"
    fill="black"
  />
  <path fill-rule="evenodd" clip-rule="evenodd" d="M34 3H33V6H34V3ZM36 3H35V6H36V3Z" fill="black" />
  <path
    fill-rule="evenodd"
    clip-rule="evenodd"
    d="M34 19H33V22H34V19ZM36 19H35V22H36V19Z"
    fill="black"
  />
  <path
    fill-rule="evenodd"
    clip-rule="evenodd"
    d="M34 35H33V38H34V35ZM36 35H35V38H36V35Z"
    fill="black"
  />
  <path
    fill-rule="evenodd"
    clip-rule="evenodd"
    d="M34 51H33V54H34V51ZM36 51H35V54H36V51Z"
    fill="black"
  />
  <path
    fill-rule="evenodd"
    clip-rule="evenodd"
    d="M42 11H41V14H42V11ZM44 11H43V14H44V11Z"
    fill="black"
  />
  <path
    fill-rule="evenodd"
    clip-rule="evenodd"
    d="M42 27H41V30H42V27ZM44 27H43V30H44V27Z"
    fill="black"
  />
  <path
    fill-rule="evenodd"
    clip-rule="evenodd"
    d="M42 43H41V46H42V43ZM44 43H43V46H44V43Z"
    fill="black"
  />
  <path
    fill-rule="evenodd"
    clip-rule="evenodd"
    d="M42 59H41V62H42V59ZM44 59H43V62H44V59Z"
    fill="black"
  />
  <path fill-rule="evenodd" clip-rule="evenodd" d="M50 3H49V6H50V3ZM52 3H51V6H52V3Z" fill="black" />
  <path
    fill-rule="evenodd"
    clip-rule="evenodd"
    d="M50 35H49V38H50V35ZM52 35H51V38H52V35Z"
    fill="black"
  />
  <path
    fill-rule="evenodd"
    clip-rule="evenodd"
    d="M58 11H57V14H58V11ZM60 11H59V14H60V11Z"
    fill="black"
  />
  <path
    fill-rule="evenodd"
    clip-rule="evenodd"
    d="M58 27H57V30H58V27ZM60 27H59V30H60V27Z"
    fill="black"
  />
  <path
    fill-rule="evenodd"
    clip-rule="evenodd"
    d="M58 43H57V46H58V43ZM60 43H59V46H60V43Z"
    fill="black"
  />
  <path
    fill-rule="evenodd"
    clip-rule="evenodd"
    d="M58 59H57V62H58V59ZM60 59H59V62H60V59Z"
    fill="black"
  />
  <path
    fill-rule="evenodd"
    clip-rule="evenodd"
    d="M15.576 18.7651L16.424 18.2351L18.5 21.5566L20.576 18.2351L21.424 18.7651L18.5 23.4434L15.576 18.7651Z"
    fill="black"
  />
  <path
    fill-rule="evenodd"
    clip-rule="evenodd"
    d="M47.576 18.7651L48.424 18.2351L50.5 21.5566L52.576 18.2351L53.424 18.7651L50.5 23.4434L47.576 18.7651Z"
    fill="black"
  />
  <path
    fill-rule="evenodd"
    clip-rule="evenodd"
    d="M47.576 50.7651L48.424 50.2351L50.5 53.5566L52.576 50.2351L53.424 50.7651L50.5 55.4434L47.576 50.7651Z"
    fill="black"
  />
  <path
    fill-rule="evenodd"
    clip-rule="evenodd"
    d="M15.576 50.7651L16.424 50.2351L18.5 53.5566L20.576 50.2351L21.424 50.7651L18.5 55.4434L15.576 50.7651Z"
    fill="black"
  />
</svg>
