<svg width="64" height="64" viewBox="0 0 64 64" fill="none" xmlns="http://www.w3.org/2000/svg">
  <rect width="64" height="64" fill="#B3D454" />
  <path fill-rule="evenodd" clip-rule="evenodd" d="M2 3H1V6H2V3ZM4 3H3V6H4V3Z" fill="black" />
  <path fill-rule="evenodd" clip-rule="evenodd" d="M2 19H1V22H2V19ZM4 19H3V22H4V19Z" fill="black" />
  <path fill-rule="evenodd" clip-rule="evenodd" d="M2 35H1V38H2V35ZM4 35H3V38H4V35Z" fill="black" />
  <path fill-rule="evenodd" clip-rule="evenodd" d="M2 51H1V54H2V51ZM4 51H3V54H4V51Z" fill="black" />
  <path
    fill-rule="evenodd"
    clip-rule="evenodd"
    d="M10 11H9V14H10V11ZM12 11H11V14H12V11Z"
    fill="black"
  />
  <path
    fill-rule="evenodd"
    clip-rule="evenodd"
    d="M10 27H9V30H10V27ZM12 27H11V30H12V27Z"
    fill="black"
  />
  <path
    fill-rule="evenodd"
    clip-rule="evenodd"
    d="M10 43H9V46H10V43ZM12 43H11V46H12V43Z"
    fill="black"
  />
  <path
    fill-rule="evenodd"
    clip-rule="evenodd"
    d="M10 59H9V62H10V59ZM12 59H11V62H12V59Z"
    fill="black"
  />
  <path fill-rule="evenodd" clip-rule="evenodd" d="M18 3H17V6H18V3ZM20 3H19V6H20V3Z" fill="black" />
  <path
    fill-rule="evenodd"
    clip-rule="evenodd"
    d="M18 35H17V38H18V35ZM20 35H19V38H20V35Z"
    fill="black"
  />
  <path
    fill-rule="evenodd"
    clip-rule="evenodd"
    d="M26 11H25V14H26V11ZM28 11H27V14H28V11Z"
    fill="black"
  />
  <path
    fill-rule="evenodd"
    clip-rule="evenodd"
    d="M26 27H25V30H26V27ZM28 27H27V30H28V27Z"
    fill="black"
  />
  <path
    fill-rule="evenodd"
    clip-rule="evenodd"
    d="M26 43H25V46H26V43ZM28 43H27V46H28V43Z"
    fill="black"
  />
  <path
    fill-rule="evenodd"
    clip-rule="evenodd"
    d="M26 59H25V62H26V59ZM28 59H27V62H28V59Z"
    fill="black"
  />
  <path fill-rule="evenodd" clip-rule="evenodd" d="M34 3H33V6H34V3ZM36 3H35V6H36V3Z" fill="black" />
  <path
    fill-rule="evenodd"
    clip-rule="evenodd"
    d="M34 19H33V22H34V19ZM36 19H35V22H36V19Z"
    fill="black"
  />
  <path
    fill-rule="evenodd"
    clip-rule="evenodd"
    d="M50 19H49V22H50V19ZM52 19H51V22H52V19Z"
    fill="black"
  />
  <path
    fill-rule="evenodd"
    clip-rule="evenodd"
    d="M34 35H33V38H34V35ZM36 35H35V38H36V35Z"
    fill="black"
  />
  <path
    fill-rule="evenodd"
    clip-rule="evenodd"
    d="M34 51H33V54H34V51ZM36 51H35V54H36V51Z"
    fill="black"
  />
  <path
    fill-rule="evenodd"
    clip-rule="evenodd"
    d="M18 51H17V54H18V51ZM20 51H19V54H20V51Z"
    fill="black"
  />
  <path
    fill-rule="evenodd"
    clip-rule="evenodd"
    d="M42 11H41V14H42V11ZM44 11H43V14H44V11Z"
    fill="black"
  />
  <path
    fill-rule="evenodd"
    clip-rule="evenodd"
    d="M42 27H41V30H42V27ZM44 27H43V30H44V27Z"
    fill="black"
  />
  <path
    fill-rule="evenodd"
    clip-rule="evenodd"
    d="M42 43H41V46H42V43ZM44 43H43V46H44V43Z"
    fill="black"
  />
  <path
    fill-rule="evenodd"
    clip-rule="evenodd"
    d="M42 59H41V62H42V59ZM44 59H43V62H44V59Z"
    fill="black"
  />
  <path fill-rule="evenodd" clip-rule="evenodd" d="M50 3H49V6H50V3ZM52 3H51V6H52V3Z" fill="black" />
  <path
    fill-rule="evenodd"
    clip-rule="evenodd"
    d="M50 35H49V38H50V35ZM52 35H51V38H52V35Z"
    fill="black"
  />
  <path
    fill-rule="evenodd"
    clip-rule="evenodd"
    d="M58 11H57V14H58V11ZM60 11H59V14H60V11Z"
    fill="black"
  />
  <path
    fill-rule="evenodd"
    clip-rule="evenodd"
    d="M58 27H57V30H58V27ZM60 27H59V30H60V27Z"
    fill="black"
  />
  <path
    fill-rule="evenodd"
    clip-rule="evenodd"
    d="M58 43H57V46H58V43ZM60 43H59V46H60V43Z"
    fill="black"
  />
  <path
    fill-rule="evenodd"
    clip-rule="evenodd"
    d="M58 59H57V62H58V59ZM60 59H59V62H60V59Z"
    fill="black"
  />
  <path
    d="M19 18H18V19.2926L17.0858 18.3783L16.3787 19.0854L17.2932 20H16V21H17.2926L16.3786 21.914L17.0857 22.6211L18 21.7068V23H19V21.7068L19.9142 22.621L20.6213 21.9139L19.7074 21H21V20H19.7068L20.6212 19.0856L19.9141 18.3785L19 19.2926V18Z"
    fill="black"
  />
  <path
    d="M51 50H50V51.2926L49.0858 50.3783L48.3787 51.0854L49.2932 52H48V53H49.2926L48.3786 53.914L49.0857 54.6211L50 53.7068V55H51V53.7068L51.9142 54.621L52.6213 53.9139L51.7074 53H53V52H51.7068L52.6212 51.0856L51.9141 50.3785L51 51.2926V50Z"
    fill="black"
  />
</svg>
