<svg width="64" height="64" viewBox="0 0 64 64" fill="none" xmlns="http://www.w3.org/2000/svg">
  <rect width="64" height="64" fill="#B3D454" />
  <path fill-rule="evenodd" clip-rule="evenodd" d="M2 3H1V6H2V3ZM4 3H3V6H4V3Z" fill="black" />
  <path fill-rule="evenodd" clip-rule="evenodd" d="M2 19H1V22H2V19ZM4 19H3V22H4V19Z" fill="black" />
  <path fill-rule="evenodd" clip-rule="evenodd" d="M2 35H1V38H2V35ZM4 35H3V38H4V35Z" fill="black" />
  <path fill-rule="evenodd" clip-rule="evenodd" d="M2 51H1V54H2V51ZM4 51H3V54H4V51Z" fill="black" />
  <path
    fill-rule="evenodd"
    clip-rule="evenodd"
    d="M10 11H9V14H10V11ZM12 11H11V14H12V11Z"
    fill="black"
  />
  <path
    fill-rule="evenodd"
    clip-rule="evenodd"
    d="M10 27H9V30H10V27ZM12 27H11V30H12V27Z"
    fill="black"
  />
  <path
    fill-rule="evenodd"
    clip-rule="evenodd"
    d="M10 43H9V46H10V43ZM12 43H11V46H12V43Z"
    fill="black"
  />
  <path
    fill-rule="evenodd"
    clip-rule="evenodd"
    d="M10 59H9V62H10V59ZM12 59H11V62H12V59Z"
    fill="black"
  />
  <path fill-rule="evenodd" clip-rule="evenodd" d="M18 3H17V6H18V3ZM20 3H19V6H20V3Z" fill="black" />
  <path
    fill-rule="evenodd"
    clip-rule="evenodd"
    d="M18 35H17V38H18V35ZM20 35H19V38H20V35Z"
    fill="black"
  />
  <path
    fill-rule="evenodd"
    clip-rule="evenodd"
    d="M26 11H25V14H26V11ZM28 11H27V14H28V11Z"
    fill="black"
  />
  <path
    fill-rule="evenodd"
    clip-rule="evenodd"
    d="M26 27H25V30H26V27ZM28 27H27V30H28V27Z"
    fill="black"
  />
  <path
    fill-rule="evenodd"
    clip-rule="evenodd"
    d="M26 43H25V46H26V43ZM28 43H27V46H28V43Z"
    fill="black"
  />
  <path
    fill-rule="evenodd"
    clip-rule="evenodd"
    d="M26 59H25V62H26V59ZM28 59H27V62H28V59Z"
    fill="black"
  />
  <path fill-rule="evenodd" clip-rule="evenodd" d="M34 3H33V6H34V3ZM36 3H35V6H36V3Z" fill="black" />
  <path
    fill-rule="evenodd"
    clip-rule="evenodd"
    d="M34 19H33V22H34V19ZM36 19H35V22H36V19Z"
    fill="black"
  />
  <path
    fill-rule="evenodd"
    clip-rule="evenodd"
    d="M34 35H33V38H34V35ZM36 35H35V38H36V35Z"
    fill="black"
  />
  <path
    fill-rule="evenodd"
    clip-rule="evenodd"
    d="M34 51H33V54H34V51ZM36 51H35V54H36V51Z"
    fill="black"
  />
  <path
    fill-rule="evenodd"
    clip-rule="evenodd"
    d="M42 11H41V14H42V11ZM44 11H43V14H44V11Z"
    fill="black"
  />
  <path
    fill-rule="evenodd"
    clip-rule="evenodd"
    d="M42 27H41V30H42V27ZM44 27H43V30H44V27Z"
    fill="black"
  />
  <path
    fill-rule="evenodd"
    clip-rule="evenodd"
    d="M42 43H41V46H42V43ZM44 43H43V46H44V43Z"
    fill="black"
  />
  <path
    fill-rule="evenodd"
    clip-rule="evenodd"
    d="M42 59H41V62H42V59ZM44 59H43V62H44V59Z"
    fill="black"
  />
  <path fill-rule="evenodd" clip-rule="evenodd" d="M50 3H49V6H50V3ZM52 3H51V6H52V3Z" fill="black" />
  <path
    fill-rule="evenodd"
    clip-rule="evenodd"
    d="M50 35H49V38H50V35ZM52 35H51V38H52V35Z"
    fill="black"
  />
  <path
    fill-rule="evenodd"
    clip-rule="evenodd"
    d="M58 11H57V14H58V11ZM60 11H59V14H60V11Z"
    fill="black"
  />
  <path
    fill-rule="evenodd"
    clip-rule="evenodd"
    d="M58 27H57V30H58V27ZM60 27H59V30H60V27Z"
    fill="black"
  />
  <path
    fill-rule="evenodd"
    clip-rule="evenodd"
    d="M58 43H57V46H58V43ZM60 43H59V46H60V43Z"
    fill="black"
  />
  <path
    fill-rule="evenodd"
    clip-rule="evenodd"
    d="M58 59H57V62H58V59ZM60 59H59V62H60V59Z"
    fill="black"
  />
  <path
    d="M20.792 21.5C20.4062 22.383 19.5252 23 18.5 23C17.1193 23 16 21.8807 16 20.5C16 19.1193 17.1193 18 18.5 18C19.5252 18 20.4062 18.617 20.792 19.5H19.6181C19.3434 19.1931 18.9443 19 18.5 19C17.6716 19 17 19.6716 17 20.5C17 21.3284 17.6716 22 18.5 22C18.9443 22 19.3434 21.8069 19.6181 21.5H20.792Z"
    fill="black"
  />
  <path
    d="M52.792 53.5C52.4062 54.383 51.5252 55 50.5 55C49.1193 55 48 53.8807 48 52.5C48 51.1193 49.1193 50 50.5 50C51.5252 50 52.4062 50.617 52.792 51.5H51.6181C51.3434 51.1931 50.9443 51 50.5 51C49.6716 51 49 51.6716 49 52.5C49 53.3284 49.6716 54 50.5 54C50.9443 54 51.3434 53.8069 51.6181 53.5H52.792Z"
    fill="black"
  />
  <path
    d="M20.792 53.5C20.4062 54.383 19.5252 55 18.5 55C17.1193 55 16 53.8807 16 52.5C16 51.1193 17.1193 50 18.5 50C19.5252 50 20.4062 50.617 20.792 51.5H19.6181C19.3434 51.1931 18.9443 51 18.5 51C17.6716 51 17 51.6716 17 52.5C17 53.3284 17.6716 54 18.5 54C18.9443 54 19.3434 53.8069 19.6181 53.5H20.792Z"
    fill="black"
  />
  <path
    d="M52.792 21.5C52.4062 22.383 51.5252 23 50.5 23C49.1193 23 48 21.8807 48 20.5C48 19.1193 49.1193 18 50.5 18C51.5252 18 52.4062 18.617 52.792 19.5H51.6181C51.3434 19.1931 50.9443 19 50.5 19C49.6716 19 49 19.6716 49 20.5C49 21.3284 49.6716 22 50.5 22C50.9443 22 51.3434 21.8069 51.6181 21.5H52.792Z"
    fill="black"
  />
</svg>
