<svg width="64" height="64" viewBox="0 0 64 64" fill="none" xmlns="http://www.w3.org/2000/svg">
  <rect width="64" height="64" fill="#B3D454" />
  <path fill-rule="evenodd" clip-rule="evenodd" d="M2 3H1V6H2V3ZM4 3H3V6H4V3Z" fill="black" />
  <path fill-rule="evenodd" clip-rule="evenodd" d="M2 19H1V22H2V19ZM4 19H3V22H4V19Z" fill="black" />
  <path fill-rule="evenodd" clip-rule="evenodd" d="M2 35H1V38H2V35ZM4 35H3V38H4V35Z" fill="black" />
  <path fill-rule="evenodd" clip-rule="evenodd" d="M2 51H1V54H2V51ZM4 51H3V54H4V51Z" fill="black" />
  <path
    fill-rule="evenodd"
    clip-rule="evenodd"
    d="M18 19H17V22H18V19ZM20 19H19V22H20V19Z"
    fill="black"
  />
  <path
    fill-rule="evenodd"
    clip-rule="evenodd"
    d="M10 27H9V30H10V27ZM12 27H11V30H12V27Z"
    fill="black"
  />
  <path
    fill-rule="evenodd"
    clip-rule="evenodd"
    d="M10 43H9V46H10V43ZM12 43H11V46H12V43Z"
    fill="black"
  />
  <path
    fill-rule="evenodd"
    clip-rule="evenodd"
    d="M10 59H9V62H10V59ZM12 59H11V62H12V59Z"
    fill="black"
  />
  <path fill-rule="evenodd" clip-rule="evenodd" d="M18 3H17V6H18V3ZM20 3H19V6H20V3Z" fill="black" />
  <path
    fill-rule="evenodd"
    clip-rule="evenodd"
    d="M18 35H17V38H18V35ZM20 35H19V38H20V35Z"
    fill="black"
  />
  <path
    fill-rule="evenodd"
    clip-rule="evenodd"
    d="M26 11H25V14H26V11ZM28 11H27V14H28V11Z"
    fill="black"
  />
  <path
    fill-rule="evenodd"
    clip-rule="evenodd"
    d="M26 43H25V46H26V43ZM28 43H27V46H28V43Z"
    fill="black"
  />
  <path fill-rule="evenodd" clip-rule="evenodd" d="M34 3H33V6H34V3ZM36 3H35V6H36V3Z" fill="black" />
  <path
    fill-rule="evenodd"
    clip-rule="evenodd"
    d="M34 19H33V22H34V19ZM36 19H35V22H36V19Z"
    fill="black"
  />
  <path
    fill-rule="evenodd"
    clip-rule="evenodd"
    d="M50 19H49V22H50V19ZM52 19H51V22H52V19Z"
    fill="black"
  />
  <path
    fill-rule="evenodd"
    clip-rule="evenodd"
    d="M34 35H33V38H34V35ZM36 35H35V38H36V35Z"
    fill="black"
  />
  <path
    fill-rule="evenodd"
    clip-rule="evenodd"
    d="M34 51H33V54H34V51ZM36 51H35V54H36V51Z"
    fill="black"
  />
  <path
    fill-rule="evenodd"
    clip-rule="evenodd"
    d="M18 51H17V54H18V51ZM20 51H19V54H20V51Z"
    fill="black"
  />
  <path
    fill-rule="evenodd"
    clip-rule="evenodd"
    d="M42 11H41V14H42V11ZM44 11H43V14H44V11Z"
    fill="black"
  />
  <path
    fill-rule="evenodd"
    clip-rule="evenodd"
    d="M42 27H41V30H42V27ZM44 27H43V30H44V27Z"
    fill="black"
  />
  <path
    fill-rule="evenodd"
    clip-rule="evenodd"
    d="M50 51H49V54H50V51ZM52 51H51V54H52V51Z"
    fill="black"
  />
  <path
    fill-rule="evenodd"
    clip-rule="evenodd"
    d="M42 59H41V62H42V59ZM44 59H43V62H44V59Z"
    fill="black"
  />
  <path fill-rule="evenodd" clip-rule="evenodd" d="M50 3H49V6H50V3ZM52 3H51V6H52V3Z" fill="black" />
  <path
    fill-rule="evenodd"
    clip-rule="evenodd"
    d="M50 35H49V38H50V35ZM52 35H51V38H52V35Z"
    fill="black"
  />
  <path
    fill-rule="evenodd"
    clip-rule="evenodd"
    d="M58 11H57V14H58V11ZM60 11H59V14H60V11Z"
    fill="black"
  />
  <path
    fill-rule="evenodd"
    clip-rule="evenodd"
    d="M58 43H57V46H58V43ZM60 43H59V46H60V43Z"
    fill="black"
  />
  <path
    fill-rule="evenodd"
    clip-rule="evenodd"
    d="M24 59H31V60H30V61H31V62H24V61H25V60H24V59ZM26 61H29V60H26V61Z"
    fill="black"
  />
  <path
    fill-rule="evenodd"
    clip-rule="evenodd"
    d="M56 59H63V60H62V61H63V62H56V61H57V60H56V59ZM58 61H61V60H58V61Z"
    fill="black"
  />
  <path
    fill-rule="evenodd"
    clip-rule="evenodd"
    d="M23 27H30V28H29V29H30V30H23V29H24V28H23V27ZM25 29H28V28H25V29Z"
    fill="black"
  />
  <path
    fill-rule="evenodd"
    clip-rule="evenodd"
    d="M56 27H63V28H62V29H63V30H56V29H57V28H56V27ZM58 29H61V28H58V29Z"
    fill="black"
  />
  <path d="M10 15V10H11L12.5 12.5L14 10H15V15H14V12.1L12.5 14.5L11 12.1V15H10Z" fill="black" />
  <path d="M42 47V42H43L44.5 44.5L46 42H47V47H46V44.1L44.5 46.5L43 44.1V47H42Z" fill="black" />
</svg>
