<svg width="64" height="64" viewBox="0 0 64 64" fill="none" xmlns="http://www.w3.org/2000/svg">
  <rect width="64" height="64" fill="#1FB46C" />
  <path d="M1 4H8V5H1V4Z" fill="black" />
  <path d="M1 20H8V21H1V20Z" fill="black" />
  <path d="M1 36H8V37H1V36Z" fill="black" />
  <path d="M1 52H8V53H1V52Z" fill="black" />
  <path d="M9 12H16V13H9V12Z" fill="black" />
  <path d="M9 28H16V29H9V28Z" fill="black" />
  <path d="M9 44H16V45H9V44Z" fill="black" />
  <path d="M9 60H16V61H9V60Z" fill="black" />
  <path d="M17 4H24V5H17V4Z" fill="black" />
  <path d="M17 20H24V21H17V20Z" fill="black" />
  <path d="M17 36H24V37H17V36Z" fill="black" />
  <path d="M17 52H24V53H17V52Z" fill="black" />
  <path d="M25 12H32V13H25V12Z" fill="black" />
  <path d="M25 28H32V29H25V28Z" fill="black" />
  <path d="M25 44H32V45H25V44Z" fill="black" />
  <path d="M25 60H32V61H25V60Z" fill="black" />
  <path d="M33 4H40V5H33V4Z" fill="black" />
  <path d="M33 20H40V21H33V20Z" fill="black" />
  <path d="M33 36H40V37H33V36Z" fill="black" />
  <path d="M33 52H40V53H33V52Z" fill="black" />
  <path d="M41 12H48V13H41V12Z" fill="black" />
  <path d="M41 28H48V29H41V28Z" fill="black" />
  <path d="M41 44H48V45H41V44Z" fill="black" />
  <path d="M41 60H48V61H41V60Z" fill="black" />
  <path d="M49 4H56V5H49V4Z" fill="black" />
  <path d="M49 20H56V21H49V20Z" fill="black" />
  <path d="M49 36H56V37H49V36Z" fill="black" />
  <path d="M49 52H56V53H49V52Z" fill="black" />
  <path d="M57 12H64V13H57V12Z" fill="black" />
  <path d="M57 28H64V29H57V28Z" fill="black" />
  <path d="M57 44H64V45H57V44Z" fill="black" />
  <path d="M57 60H64V61H57V60Z" fill="black" />
  <path fill-rule="evenodd" clip-rule="evenodd" d="M12 2H11V7H12V2ZM14 2H13V7H14V2Z" fill="black" />
  <path
    fill-rule="evenodd"
    clip-rule="evenodd"
    d="M12 18H11V23H12V18ZM14 18H13V23H14V18Z"
    fill="black"
  />
  <path
    fill-rule="evenodd"
    clip-rule="evenodd"
    d="M12 34H11V39H12V34ZM14 34H13V39H14V34Z"
    fill="black"
  />
  <path
    fill-rule="evenodd"
    clip-rule="evenodd"
    d="M12 50H11V55H12V50ZM14 50H13V55H14V50Z"
    fill="black"
  />
  <path fill-rule="evenodd" clip-rule="evenodd" d="M4 10H3V15H4V10ZM6 10H5V15H6V10Z" fill="black" />
  <path fill-rule="evenodd" clip-rule="evenodd" d="M4 26H3V31H4V26ZM6 26H5V31H6V26Z" fill="black" />
  <path fill-rule="evenodd" clip-rule="evenodd" d="M4 42H3V47H4V42ZM6 42H5V47H6V42Z" fill="black" />
  <path fill-rule="evenodd" clip-rule="evenodd" d="M4 58H3V63H4V58ZM6 58H5V63H6V58Z" fill="black" />
  <path fill-rule="evenodd" clip-rule="evenodd" d="M28 2H27V7H28V2ZM30 2H29V7H30V2Z" fill="black" />
  <path
    fill-rule="evenodd"
    clip-rule="evenodd"
    d="M28 18H27V23H28V18ZM30 18H29V23H30V18Z"
    fill="black"
  />
  <path
    fill-rule="evenodd"
    clip-rule="evenodd"
    d="M28 34H27V39H28V34ZM30 34H29V39H30V34Z"
    fill="black"
  />
  <path
    fill-rule="evenodd"
    clip-rule="evenodd"
    d="M28 50H27V55H28V50ZM30 50H29V55H30V50Z"
    fill="black"
  />
  <path
    fill-rule="evenodd"
    clip-rule="evenodd"
    d="M20 10H19V15H20V10ZM22 10H21V15H22V10Z"
    fill="black"
  />
  <path
    fill-rule="evenodd"
    clip-rule="evenodd"
    d="M20 26H19V31H20V26ZM22 26H21V31H22V26Z"
    fill="black"
  />
  <path
    fill-rule="evenodd"
    clip-rule="evenodd"
    d="M20 42H19V47H20V42ZM22 42H21V47H22V42Z"
    fill="black"
  />
  <path
    fill-rule="evenodd"
    clip-rule="evenodd"
    d="M20 58H19V63H20V58ZM22 58H21V63H22V58Z"
    fill="black"
  />
  <path fill-rule="evenodd" clip-rule="evenodd" d="M44 2H43V7H44V2ZM46 2H45V7H46V2Z" fill="black" />
  <path
    fill-rule="evenodd"
    clip-rule="evenodd"
    d="M44 18H43V23H44V18ZM46 18H45V23H46V18Z"
    fill="black"
  />
  <path
    fill-rule="evenodd"
    clip-rule="evenodd"
    d="M44 34H43V39H44V34ZM46 34H45V39H46V34Z"
    fill="black"
  />
  <path
    fill-rule="evenodd"
    clip-rule="evenodd"
    d="M44 50H43V55H44V50ZM46 50H45V55H46V50Z"
    fill="black"
  />
  <path
    fill-rule="evenodd"
    clip-rule="evenodd"
    d="M36 10H35V15H36V10ZM38 10H37V15H38V10Z"
    fill="black"
  />
  <path
    fill-rule="evenodd"
    clip-rule="evenodd"
    d="M36 26H35V31H36V26ZM38 26H37V31H38V26Z"
    fill="black"
  />
  <path
    fill-rule="evenodd"
    clip-rule="evenodd"
    d="M36 42H35V47H36V42ZM38 42H37V47H38V42Z"
    fill="black"
  />
  <path
    fill-rule="evenodd"
    clip-rule="evenodd"
    d="M36 58H35V63H36V58ZM38 58H37V63H38V58Z"
    fill="black"
  />
  <path fill-rule="evenodd" clip-rule="evenodd" d="M60 2H59V7H60V2ZM62 2H61V7H62V2Z" fill="black" />
  <path
    fill-rule="evenodd"
    clip-rule="evenodd"
    d="M60 18H59V23H60V18ZM62 18H61V23H62V18Z"
    fill="black"
  />
  <path
    fill-rule="evenodd"
    clip-rule="evenodd"
    d="M60 34H59V39H60V34ZM62 34H61V39H62V34Z"
    fill="black"
  />
  <path
    fill-rule="evenodd"
    clip-rule="evenodd"
    d="M60 50H59V55H60V50ZM62 50H61V55H62V50Z"
    fill="black"
  />
  <path
    fill-rule="evenodd"
    clip-rule="evenodd"
    d="M52 10H51V15H52V10ZM54 10H53V15H54V10Z"
    fill="black"
  />
  <path
    fill-rule="evenodd"
    clip-rule="evenodd"
    d="M52 26H51V31H52V26ZM54 26H53V31H54V26Z"
    fill="black"
  />
  <path
    fill-rule="evenodd"
    clip-rule="evenodd"
    d="M52 42H51V47H52V42ZM54 42H53V47H54V42Z"
    fill="black"
  />
  <path
    fill-rule="evenodd"
    clip-rule="evenodd"
    d="M52 58H51V63H52V58ZM54 58H53V63H54V58Z"
    fill="black"
  />
</svg>
