<svg width="64" height="64" viewBox="0 0 64 64" fill="none" xmlns="http://www.w3.org/2000/svg">
  <rect width="64" height="64" fill="#1FB46C" />
  <path d="M0 4H7V5H0V4Z" fill="black" />
  <path d="M0 20H7V21H0V20Z" fill="black" />
  <path d="M0 36H7V37H0V36Z" fill="black" />
  <path d="M0 52H7V53H0V52Z" fill="black" />
  <path d="M8 12H15V13H8V12Z" fill="black" />
  <path d="M8 28H15V29H8V28Z" fill="black" />
  <path d="M8 44H15V45H8V44Z" fill="black" />
  <path d="M8 60H15V61H8V60Z" fill="black" />
  <path d="M16 4H23V5H16V4Z" fill="black" />
  <path d="M16 20H23V21H16V20Z" fill="black" />
  <path d="M16 36H23V37H16V36Z" fill="black" />
  <path d="M16 52H23V53H16V52Z" fill="black" />
  <path d="M24 12H31V13H24V12Z" fill="black" />
  <path d="M24 28H31V29H24V28Z" fill="black" />
  <path d="M24 44H31V45H24V44Z" fill="black" />
  <path d="M24 60H31V61H24V60Z" fill="black" />
  <path d="M32 4H39V5H32V4Z" fill="black" />
  <path d="M32 20H39V21H32V20Z" fill="black" />
  <path d="M32 36H39V37H32V36Z" fill="black" />
  <path d="M32 52H39V53H32V52Z" fill="black" />
  <path d="M40 12H47V13H40V12Z" fill="black" />
  <path d="M40 28H47V29H40V28Z" fill="black" />
  <path d="M40 44H47V45H40V44Z" fill="black" />
  <path d="M40 60H47V61H40V60Z" fill="black" />
  <path d="M48 4H55V5H48V4Z" fill="black" />
  <path d="M48 20H55V21H48V20Z" fill="black" />
  <path d="M48 36H55V37H48V36Z" fill="black" />
  <path d="M48 52H55V53H48V52Z" fill="black" />
  <path d="M56 12H63V13H56V12Z" fill="black" />
  <path d="M56 28H63V29H56V28Z" fill="black" />
  <path d="M56 44H63V45H56V44Z" fill="black" />
  <path d="M56 60H63V61H56V60Z" fill="black" />
  <path d="M8 17H15V18H8V17Z" fill="black" />
  <path
    fill-rule="evenodd"
    clip-rule="evenodd"
    d="M11 18H11.5H12V18.9814L12.0032 18.9846C12.0403 19.0202 12.0783 19.0459 12.1473 19.0926C12.1839 19.1173 12.2291 19.1478 12.2875 19.1888C12.4275 19.2872 12.6141 19.4308 12.7602 19.6506C12.9126 19.8799 13 20.1593 13 20.5C13 20.8405 12.9127 21.1205 12.7631 21.3509C12.6191 21.5726 12.4351 21.7202 12.2932 21.8229C12.2267 21.871 12.177 21.9051 12.1375 21.9323C12.0753 21.975 12.0382 22.0005 12 22.0363L12 23H13V24H11L11 22C11 21.68 11.1568 21.457 11.3133 21.3095C11.41 21.2183 11.5462 21.1242 11.6391 21.0602C11.666 21.0416 11.6892 21.0256 11.7068 21.0129C11.815 20.9346 11.8809 20.8733 11.9244 20.8063C11.9623 20.748 12 20.6595 12 20.5C12 20.3407 11.9624 20.2569 11.9273 20.2041C11.8859 20.1418 11.8225 20.0843 11.7125 20.007C11.6962 19.9956 11.6755 19.9816 11.6518 19.9656C11.557 19.9018 11.4139 19.8054 11.3093 19.7045C11.1456 19.5468 11 19.3188 11 19V18ZM11.0012 18.5351C11.0009 18.5302 11.0006 18.5239 11.0004 18.5186L11.0012 18.5351Z"
    fill="black"
  />
  <path d="M8 33H15V34H8V33Z" fill="black" />
  <path
    fill-rule="evenodd"
    clip-rule="evenodd"
    d="M11 34H11.5H12V34.9814L12.0032 34.9846C12.0403 35.0202 12.0783 35.0459 12.1473 35.0926C12.1839 35.1173 12.2291 35.1478 12.2875 35.1888C12.4275 35.2872 12.6141 35.4308 12.7602 35.6506C12.9126 35.8799 13 36.1593 13 36.5C13 36.8405 12.9127 37.1205 12.7631 37.3509C12.6191 37.5726 12.4351 37.7202 12.2932 37.8229C12.2267 37.871 12.177 37.9051 12.1375 37.9323C12.0753 37.975 12.0382 38.0005 12 38.0364L12 39H13V40H11L11 38C11 37.68 11.1568 37.457 11.3133 37.3095C11.41 37.2183 11.5462 37.1242 11.6391 37.0602C11.666 37.0416 11.6892 37.0256 11.7068 37.0129C11.815 36.9346 11.8809 36.8733 11.9244 36.8063C11.9623 36.748 12 36.6595 12 36.5C12 36.3407 11.9624 36.2569 11.9273 36.2041C11.8859 36.1418 11.8225 36.0843 11.7125 36.007C11.6962 35.9956 11.6755 35.9816 11.6518 35.9656C11.557 35.9018 11.4139 35.8054 11.3093 35.7045C11.1456 35.5468 11 35.3188 11 35V34ZM11.0012 34.5351C11.0009 34.5302 11.0006 34.5239 11.0004 34.5186L11.0012 34.5351Z"
    fill="black"
  />
  <path d="M8 49H15V50H8V49Z" fill="black" />
  <path
    fill-rule="evenodd"
    clip-rule="evenodd"
    d="M11 50H11.5H12V50.9814L12.0032 50.9846C12.0403 51.0202 12.0783 51.0459 12.1473 51.0926C12.1839 51.1173 12.2291 51.1478 12.2875 51.1888C12.4275 51.2872 12.6141 51.4308 12.7602 51.6506C12.9126 51.8799 13 52.1593 13 52.5C13 52.8405 12.9127 53.1205 12.7631 53.3509C12.6191 53.5726 12.4351 53.7202 12.2932 53.8229C12.2267 53.871 12.177 53.9051 12.1375 53.9323C12.0753 53.975 12.0382 54.0005 12 54.0364L12 55H13V56H11L11 54C11 53.68 11.1568 53.457 11.3133 53.3095C11.41 53.2183 11.5462 53.1242 11.6391 53.0602C11.666 53.0416 11.6892 53.0256 11.7068 53.0129C11.815 52.9346 11.8809 52.8733 11.9244 52.8063C11.9623 52.748 12 52.6595 12 52.5C12 52.3407 11.9624 52.2569 11.9273 52.2041C11.8859 52.1418 11.8225 52.0843 11.7125 52.007C11.6962 51.9956 11.6755 51.9816 11.6518 51.9656C11.557 51.9018 11.4139 51.8054 11.3093 51.7045C11.1456 51.5468 11 51.3188 11 51V50ZM11.0012 50.5351C11.0009 50.5302 11.0006 50.5239 11.0004 50.5186L11.0012 50.5351Z"
    fill="black"
  />
  <path d="M1 9H8V10H1V9Z" fill="black" />
  <path
    fill-rule="evenodd"
    clip-rule="evenodd"
    d="M4 10H4.50001H5L5 10.9814L5.00325 10.9846C5.04026 11.0202 5.07832 11.0459 5.14734 11.0926C5.18389 11.1173 5.22913 11.1478 5.28749 11.1888C5.42751 11.2872 5.61411 11.4308 5.76017 11.6506C5.91259 11.8799 6 12.1593 6 12.5C6 12.8405 5.91273 13.1205 5.76308 13.3509C5.61912 13.5726 5.43505 13.7202 5.29318 13.8229C5.2267 13.871 5.17705 13.9051 5.13752 13.9323C5.07532 13.975 5.0382 14.0005 5 14.0363L5 15H6V16H4L4 14C4 13.68 4.15681 13.457 4.31325 13.3095C4.40997 13.2183 4.54625 13.1242 4.63906 13.0602C4.66598 13.0416 4.68924 13.0256 4.70682 13.0129C4.81495 12.9346 4.88088 12.8733 4.92442 12.8063C4.96227 12.748 5 12.6595 5 12.5C5 12.3407 4.96241 12.2569 4.92733 12.2041C4.88589 12.1418 4.82249 12.0843 4.71251 12.007C4.69621 11.9956 4.67551 11.9816 4.65179 11.9656C4.55703 11.9018 4.41394 11.8054 4.30925 11.7045C4.14562 11.5468 4 11.3188 4 11V10ZM4.00124 10.5351C4.00094 10.5302 4.00064 10.5239 4.00042 10.5186L4.00124 10.5351Z"
    fill="black"
  />
  <path d="M1 25H8V26H1V25Z" fill="black" />
  <path
    fill-rule="evenodd"
    clip-rule="evenodd"
    d="M4 26H4.50001H5L5 26.9814L5.00325 26.9846C5.04026 27.0202 5.07832 27.0459 5.14734 27.0926C5.18389 27.1173 5.22913 27.1478 5.28749 27.1888C5.42751 27.2872 5.61411 27.4308 5.76017 27.6506C5.91259 27.8799 6 28.1593 6 28.5C6 28.8405 5.91273 29.1205 5.76308 29.3509C5.61912 29.5726 5.43505 29.7202 5.29318 29.8229C5.2267 29.871 5.17705 29.9051 5.13752 29.9323C5.07532 29.975 5.0382 30.0005 5 30.0363L5 31H6V32H4L4 30C4 29.68 4.15681 29.457 4.31325 29.3095C4.40997 29.2183 4.54625 29.1242 4.63906 29.0602C4.66598 29.0416 4.68924 29.0256 4.70682 29.0129C4.81495 28.9346 4.88088 28.8733 4.92442 28.8063C4.96227 28.748 5 28.6595 5 28.5C5 28.3407 4.96241 28.2569 4.92733 28.2041C4.88589 28.1418 4.82249 28.0843 4.71251 28.007C4.69621 27.9956 4.67551 27.9816 4.65179 27.9656C4.55703 27.9018 4.41394 27.8054 4.30925 27.7045C4.14562 27.5468 4 27.3188 4 27V26ZM4.00124 26.5351C4.00094 26.5302 4.00064 26.5239 4.00042 26.5186L4.00124 26.5351Z"
    fill="black"
  />
  <path d="M1 41H8V42H1V41Z" fill="black" />
  <path
    fill-rule="evenodd"
    clip-rule="evenodd"
    d="M4 42H4.50001H5L5 42.9814L5.00325 42.9846C5.04026 43.0202 5.07832 43.0459 5.14734 43.0926C5.18389 43.1173 5.22913 43.1478 5.28749 43.1888C5.42751 43.2872 5.61411 43.4308 5.76017 43.6506C5.91259 43.8799 6 44.1593 6 44.5C6 44.8405 5.91273 45.1205 5.76308 45.3509C5.61912 45.5726 5.43505 45.7202 5.29318 45.8229C5.2267 45.871 5.17705 45.9051 5.13752 45.9323C5.07532 45.975 5.0382 46.0005 5 46.0364L5 47H6V48H4L4 46C4 45.68 4.15681 45.457 4.31325 45.3095C4.40997 45.2183 4.54625 45.1242 4.63906 45.0602C4.66598 45.0416 4.68924 45.0256 4.70682 45.0129C4.81495 44.9346 4.88088 44.8733 4.92442 44.8063C4.96227 44.748 5 44.6595 5 44.5C5 44.3407 4.96241 44.2569 4.92733 44.2041C4.88589 44.1418 4.82249 44.0843 4.71251 44.007C4.69621 43.9956 4.67551 43.9816 4.65179 43.9656C4.55703 43.9018 4.41394 43.8054 4.30925 43.7045C4.14562 43.5468 4 43.3188 4 43V42ZM4.00124 42.5351C4.00094 42.5302 4.00064 42.5239 4.00042 42.5186L4.00124 42.5351Z"
    fill="black"
  />
  <path d="M1 57H8V58H1V57Z" fill="black" />
  <path
    fill-rule="evenodd"
    clip-rule="evenodd"
    d="M4 58H4.50001H5L5 58.9814L5.00325 58.9846C5.04026 59.0202 5.07832 59.0459 5.14734 59.0926C5.18389 59.1173 5.22913 59.1478 5.28749 59.1888C5.42751 59.2872 5.61411 59.4308 5.76017 59.6506C5.91259 59.8799 6 60.1593 6 60.5C6 60.8405 5.91273 61.1205 5.76308 61.3509C5.61912 61.5726 5.43505 61.7202 5.29318 61.8229C5.2267 61.871 5.17705 61.9051 5.13752 61.9323C5.07532 61.975 5.0382 62.0005 5 62.0364L5 63H6V64H4L4 62C4 61.68 4.15681 61.457 4.31325 61.3095C4.40997 61.2183 4.54625 61.1242 4.63906 61.0602C4.66598 61.0416 4.68924 61.0256 4.70682 61.0129C4.81495 60.9346 4.88088 60.8733 4.92442 60.8063C4.96227 60.748 5 60.6595 5 60.5C5 60.3407 4.96241 60.2569 4.92733 60.2041C4.88589 60.1418 4.82249 60.0843 4.71251 60.007C4.69621 59.9956 4.67551 59.9816 4.65179 59.9656C4.55703 59.9018 4.41394 59.8054 4.30925 59.7045C4.14562 59.5468 4 59.3188 4 59V58ZM4.00124 58.5351C4.00094 58.5302 4.00064 58.5239 4.00042 58.5186L4.00124 58.5351Z"
    fill="black"
  />
  <path d="M8 1H15V2H8V1Z" fill="black" />
  <path
    fill-rule="evenodd"
    clip-rule="evenodd"
    d="M11 2H11.5H12V2.98137L12.0032 2.98455C12.0403 3.02023 12.0783 3.04595 12.1473 3.09257C12.1839 3.11727 12.2291 3.14783 12.2875 3.18884C12.4275 3.28724 12.6141 3.43083 12.7602 3.65059C12.9126 3.87993 13 4.15934 13 4.5C13 4.84051 12.9127 5.12048 12.7631 5.35092C12.6191 5.57258 12.4351 5.72022 12.2932 5.82292C12.2267 5.87104 12.177 5.90513 12.1375 5.93227C12.0753 5.97498 12.0382 6.00046 12 6.03635L12 7H13V8H11L11 6C11 5.67999 11.1568 5.45695 11.3133 5.30945C11.41 5.21827 11.5462 5.12425 11.6391 5.06021C11.666 5.04164 11.6892 5.02559 11.7068 5.01287C11.815 4.9346 11.8809 4.87329 11.9244 4.80625C11.9623 4.74798 12 4.65949 12 4.5C12 4.34066 11.9624 4.25688 11.9273 4.20411C11.8859 4.14176 11.8225 4.0843 11.7125 4.00701C11.6962 3.99555 11.6755 3.98162 11.6518 3.96564C11.557 3.90181 11.4139 3.80544 11.3093 3.70453C11.1456 3.54681 11 3.3188 11 3V2ZM11.0012 2.53513C11.0009 2.53021 11.0006 2.52392 11.0004 2.51855L11.0012 2.53513Z"
    fill="black"
  />
  <path d="M24 17H31V18H24V17Z" fill="black" />
  <path
    fill-rule="evenodd"
    clip-rule="evenodd"
    d="M27 18H27.5H28V18.9814L28.0033 18.9846C28.0403 19.0202 28.0783 19.0459 28.1473 19.0926C28.1839 19.1173 28.2291 19.1478 28.2875 19.1888C28.4275 19.2872 28.6141 19.4308 28.7602 19.6506C28.9126 19.8799 29 20.1593 29 20.5C29 20.8405 28.9127 21.1205 28.7631 21.3509C28.6191 21.5726 28.4351 21.7202 28.2932 21.8229C28.2267 21.871 28.177 21.9051 28.1375 21.9323C28.0753 21.975 28.0382 22.0005 28 22.0363L28 23H29V24H27L27 22C27 21.68 27.1568 21.457 27.3133 21.3095C27.41 21.2183 27.5462 21.1242 27.6391 21.0602C27.666 21.0416 27.6892 21.0256 27.7068 21.0129C27.8149 20.9346 27.8809 20.8733 27.9244 20.8063C27.9623 20.748 28 20.6595 28 20.5C28 20.3407 27.9624 20.2569 27.9273 20.2041C27.8859 20.1418 27.8225 20.0843 27.7125 20.007C27.6962 19.9956 27.6755 19.9816 27.6518 19.9656C27.557 19.9018 27.4139 19.8054 27.3093 19.7045C27.1456 19.5468 27 19.3188 27 19V18ZM27.0012 18.5351C27.0009 18.5302 27.0006 18.5239 27.0004 18.5186L27.0012 18.5351Z"
    fill="black"
  />
  <path d="M24 33H31V34H24V33Z" fill="black" />
  <path
    fill-rule="evenodd"
    clip-rule="evenodd"
    d="M27 34H27.5H28V34.9814L28.0033 34.9846C28.0403 35.0202 28.0783 35.0459 28.1473 35.0926C28.1839 35.1173 28.2291 35.1478 28.2875 35.1888C28.4275 35.2872 28.6141 35.4308 28.7602 35.6506C28.9126 35.8799 29 36.1593 29 36.5C29 36.8405 28.9127 37.1205 28.7631 37.3509C28.6191 37.5726 28.4351 37.7202 28.2932 37.8229C28.2267 37.871 28.177 37.9051 28.1375 37.9323C28.0753 37.975 28.0382 38.0005 28 38.0364L28 39H29V40H27L27 38C27 37.68 27.1568 37.457 27.3133 37.3095C27.41 37.2183 27.5462 37.1242 27.6391 37.0602C27.666 37.0416 27.6892 37.0256 27.7068 37.0129C27.8149 36.9346 27.8809 36.8733 27.9244 36.8063C27.9623 36.748 28 36.6595 28 36.5C28 36.3407 27.9624 36.2569 27.9273 36.2041C27.8859 36.1418 27.8225 36.0843 27.7125 36.007C27.6962 35.9956 27.6755 35.9816 27.6518 35.9656C27.557 35.9018 27.4139 35.8054 27.3093 35.7045C27.1456 35.5468 27 35.3188 27 35V34ZM27.0012 34.5351C27.0009 34.5302 27.0006 34.5239 27.0004 34.5186L27.0012 34.5351Z"
    fill="black"
  />
  <path d="M24 49H31V50H24V49Z" fill="black" />
  <path
    fill-rule="evenodd"
    clip-rule="evenodd"
    d="M27 50H27.5H28V50.9814L28.0033 50.9846C28.0403 51.0202 28.0783 51.0459 28.1473 51.0926C28.1839 51.1173 28.2291 51.1478 28.2875 51.1888C28.4275 51.2872 28.6141 51.4308 28.7602 51.6506C28.9126 51.8799 29 52.1593 29 52.5C29 52.8405 28.9127 53.1205 28.7631 53.3509C28.6191 53.5726 28.4351 53.7202 28.2932 53.8229C28.2267 53.871 28.177 53.9051 28.1375 53.9323C28.0753 53.975 28.0382 54.0005 28 54.0364L28 55H29V56H27L27 54C27 53.68 27.1568 53.457 27.3133 53.3095C27.41 53.2183 27.5462 53.1242 27.6391 53.0602C27.666 53.0416 27.6892 53.0256 27.7068 53.0129C27.8149 52.9346 27.8809 52.8733 27.9244 52.8063C27.9623 52.748 28 52.6595 28 52.5C28 52.3407 27.9624 52.2569 27.9273 52.2041C27.8859 52.1418 27.8225 52.0843 27.7125 52.007C27.6962 51.9956 27.6755 51.9816 27.6518 51.9656C27.557 51.9018 27.4139 51.8054 27.3093 51.7045C27.1456 51.5468 27 51.3188 27 51V50ZM27.0012 50.5351C27.0009 50.5302 27.0006 50.5239 27.0004 50.5186L27.0012 50.5351Z"
    fill="black"
  />
  <path d="M17 9H24V10H17V9Z" fill="black" />
  <path
    fill-rule="evenodd"
    clip-rule="evenodd"
    d="M20 10H20.5H21V10.9814L21.0033 10.9846C21.0403 11.0202 21.0783 11.0459 21.1473 11.0926C21.1839 11.1173 21.2291 11.1478 21.2875 11.1888C21.4275 11.2872 21.6141 11.4308 21.7602 11.6506C21.9126 11.8799 22 12.1593 22 12.5C22 12.8405 21.9127 13.1205 21.7631 13.3509C21.6191 13.5726 21.4351 13.7202 21.2932 13.8229C21.2267 13.871 21.177 13.9051 21.1375 13.9323C21.0753 13.975 21.0382 14.0005 21 14.0363L21 15H22V16H20L20 14C20 13.68 20.1568 13.457 20.3133 13.3095C20.41 13.2183 20.5462 13.1242 20.6391 13.0602C20.666 13.0416 20.6892 13.0256 20.7068 13.0129C20.8149 12.9346 20.8809 12.8733 20.9244 12.8063C20.9623 12.748 21 12.6595 21 12.5C21 12.3407 20.9624 12.2569 20.9273 12.2041C20.8859 12.1418 20.8225 12.0843 20.7125 12.007C20.6962 11.9956 20.6755 11.9816 20.6518 11.9656C20.557 11.9018 20.4139 11.8054 20.3093 11.7045C20.1456 11.5468 20 11.3188 20 11V10ZM20.0012 10.5351C20.0009 10.5302 20.0006 10.5239 20.0004 10.5186L20.0012 10.5351Z"
    fill="black"
  />
  <path d="M17 25H24V26H17V25Z" fill="black" />
  <path
    fill-rule="evenodd"
    clip-rule="evenodd"
    d="M20 26H20.5H21V26.9814L21.0033 26.9846C21.0403 27.0202 21.0783 27.0459 21.1473 27.0926C21.1839 27.1173 21.2291 27.1478 21.2875 27.1888C21.4275 27.2872 21.6141 27.4308 21.7602 27.6506C21.9126 27.8799 22 28.1593 22 28.5C22 28.8405 21.9127 29.1205 21.7631 29.3509C21.6191 29.5726 21.4351 29.7202 21.2932 29.8229C21.2267 29.871 21.177 29.9051 21.1375 29.9323C21.0753 29.975 21.0382 30.0005 21 30.0363L21 31H22V32H20L20 30C20 29.68 20.1568 29.457 20.3133 29.3095C20.41 29.2183 20.5462 29.1242 20.6391 29.0602C20.666 29.0416 20.6892 29.0256 20.7068 29.0129C20.8149 28.9346 20.8809 28.8733 20.9244 28.8063C20.9623 28.748 21 28.6595 21 28.5C21 28.3407 20.9624 28.2569 20.9273 28.2041C20.8859 28.1418 20.8225 28.0843 20.7125 28.007C20.6962 27.9956 20.6755 27.9816 20.6518 27.9656C20.557 27.9018 20.4139 27.8054 20.3093 27.7045C20.1456 27.5468 20 27.3188 20 27V26ZM20.0012 26.5351C20.0009 26.5302 20.0006 26.5239 20.0004 26.5186L20.0012 26.5351Z"
    fill="black"
  />
  <path d="M17 41H24V42H17V41Z" fill="black" />
  <path
    fill-rule="evenodd"
    clip-rule="evenodd"
    d="M20 42H20.5H21V42.9814L21.0033 42.9846C21.0403 43.0202 21.0783 43.0459 21.1473 43.0926C21.1839 43.1173 21.2291 43.1478 21.2875 43.1888C21.4275 43.2872 21.6141 43.4308 21.7602 43.6506C21.9126 43.8799 22 44.1593 22 44.5C22 44.8405 21.9127 45.1205 21.7631 45.3509C21.6191 45.5726 21.4351 45.7202 21.2932 45.8229C21.2267 45.871 21.177 45.9051 21.1375 45.9323C21.0753 45.975 21.0382 46.0005 21 46.0364L21 47H22V48H20L20 46C20 45.68 20.1568 45.457 20.3133 45.3095C20.41 45.2183 20.5462 45.1242 20.6391 45.0602C20.666 45.0416 20.6892 45.0256 20.7068 45.0129C20.8149 44.9346 20.8809 44.8733 20.9244 44.8063C20.9623 44.748 21 44.6595 21 44.5C21 44.3407 20.9624 44.2569 20.9273 44.2041C20.8859 44.1418 20.8225 44.0843 20.7125 44.007C20.6962 43.9956 20.6755 43.9816 20.6518 43.9656C20.557 43.9018 20.4139 43.8054 20.3093 43.7045C20.1456 43.5468 20 43.3188 20 43V42ZM20.0012 42.5351C20.0009 42.5302 20.0006 42.5239 20.0004 42.5186L20.0012 42.5351Z"
    fill="black"
  />
  <path d="M17 57H24V58H17V57Z" fill="black" />
  <path
    fill-rule="evenodd"
    clip-rule="evenodd"
    d="M20 58H20.5H21V58.9814L21.0033 58.9846C21.0403 59.0202 21.0783 59.0459 21.1473 59.0926C21.1839 59.1173 21.2291 59.1478 21.2875 59.1888C21.4275 59.2872 21.6141 59.4308 21.7602 59.6506C21.9126 59.8799 22 60.1593 22 60.5C22 60.8405 21.9127 61.1205 21.7631 61.3509C21.6191 61.5726 21.4351 61.7202 21.2932 61.8229C21.2267 61.871 21.177 61.9051 21.1375 61.9323C21.0753 61.975 21.0382 62.0005 21 62.0364L21 63H22V64H20L20 62C20 61.68 20.1568 61.457 20.3133 61.3095C20.41 61.2183 20.5462 61.1242 20.6391 61.0602C20.666 61.0416 20.6892 61.0256 20.7068 61.0129C20.8149 60.9346 20.8809 60.8733 20.9244 60.8063C20.9623 60.748 21 60.6595 21 60.5C21 60.3407 20.9624 60.2569 20.9273 60.2041C20.8859 60.1418 20.8225 60.0843 20.7125 60.007C20.6962 59.9956 20.6755 59.9816 20.6518 59.9656C20.557 59.9018 20.4139 59.8054 20.3093 59.7045C20.1456 59.5468 20 59.3188 20 59V58ZM20.0012 58.5351C20.0009 58.5302 20.0006 58.5239 20.0004 58.5186L20.0012 58.5351Z"
    fill="black"
  />
  <path d="M24 1H31V2H24V1Z" fill="black" />
  <path
    fill-rule="evenodd"
    clip-rule="evenodd"
    d="M27 2H27.5H28V2.98137L28.0033 2.98455C28.0403 3.02023 28.0783 3.04595 28.1473 3.09257C28.1839 3.11727 28.2291 3.14783 28.2875 3.18884C28.4275 3.28724 28.6141 3.43083 28.7602 3.65059C28.9126 3.87993 29 4.15934 29 4.5C29 4.84051 28.9127 5.12048 28.7631 5.35092C28.6191 5.57258 28.4351 5.72022 28.2932 5.82292C28.2267 5.87104 28.177 5.90513 28.1375 5.93227C28.0753 5.97498 28.0382 6.00046 28 6.03635L28 7H29V8H27L27 6C27 5.67999 27.1568 5.45695 27.3133 5.30945C27.41 5.21827 27.5462 5.12425 27.6391 5.06021C27.666 5.04164 27.6892 5.02559 27.7068 5.01287C27.8149 4.9346 27.8809 4.87329 27.9244 4.80625C27.9623 4.74798 28 4.65949 28 4.5C28 4.34066 27.9624 4.25688 27.9273 4.20411C27.8859 4.14176 27.8225 4.0843 27.7125 4.00701C27.6962 3.99555 27.6755 3.98162 27.6518 3.96564C27.557 3.90181 27.4139 3.80544 27.3093 3.70453C27.1456 3.54681 27 3.3188 27 3V2ZM27.0012 2.53513C27.0009 2.53021 27.0006 2.52392 27.0004 2.51855L27.0012 2.53513Z"
    fill="black"
  />
  <path d="M40 17H47V18H40V17Z" fill="black" />
  <path
    fill-rule="evenodd"
    clip-rule="evenodd"
    d="M43 18H43.5H44V18.9814L44.0033 18.9846C44.0403 19.0202 44.0783 19.0459 44.1473 19.0926C44.1839 19.1173 44.2291 19.1478 44.2875 19.1888C44.4275 19.2872 44.6141 19.4308 44.7602 19.6506C44.9126 19.8799 45 20.1593 45 20.5C45 20.8405 44.9127 21.1205 44.7631 21.3509C44.6191 21.5726 44.4351 21.7202 44.2932 21.8229C44.2267 21.871 44.177 21.9051 44.1375 21.9323C44.0753 21.975 44.0382 22.0005 44 22.0363L44 23H45V24H43L43 22C43 21.68 43.1568 21.457 43.3133 21.3095C43.41 21.2183 43.5462 21.1242 43.6391 21.0602C43.666 21.0416 43.6892 21.0256 43.7068 21.0129C43.815 20.9346 43.8809 20.8733 43.9244 20.8063C43.9623 20.748 44 20.6595 44 20.5C44 20.3407 43.9624 20.2569 43.9273 20.2041C43.8859 20.1418 43.8225 20.0843 43.7125 20.007C43.6962 19.9956 43.6755 19.9816 43.6518 19.9656C43.557 19.9018 43.4139 19.8054 43.3093 19.7045C43.1456 19.5468 43 19.3188 43 19V18ZM43.0012 18.5351C43.0009 18.5302 43.0006 18.5239 43.0004 18.5186L43.0012 18.5351Z"
    fill="black"
  />
  <path d="M40 33H47V34H40V33Z" fill="black" />
  <path
    fill-rule="evenodd"
    clip-rule="evenodd"
    d="M43 34H43.5H44V34.9814L44.0033 34.9846C44.0403 35.0202 44.0783 35.0459 44.1473 35.0926C44.1839 35.1173 44.2291 35.1478 44.2875 35.1888C44.4275 35.2872 44.6141 35.4308 44.7602 35.6506C44.9126 35.8799 45 36.1593 45 36.5C45 36.8405 44.9127 37.1205 44.7631 37.3509C44.6191 37.5726 44.4351 37.7202 44.2932 37.8229C44.2267 37.871 44.177 37.9051 44.1375 37.9323C44.0753 37.975 44.0382 38.0005 44 38.0364L44 39H45V40H43L43 38C43 37.68 43.1568 37.457 43.3133 37.3095C43.41 37.2183 43.5462 37.1242 43.6391 37.0602C43.666 37.0416 43.6892 37.0256 43.7068 37.0129C43.815 36.9346 43.8809 36.8733 43.9244 36.8063C43.9623 36.748 44 36.6595 44 36.5C44 36.3407 43.9624 36.2569 43.9273 36.2041C43.8859 36.1418 43.8225 36.0843 43.7125 36.007C43.6962 35.9956 43.6755 35.9816 43.6518 35.9656C43.557 35.9018 43.4139 35.8054 43.3093 35.7045C43.1456 35.5468 43 35.3188 43 35V34ZM43.0012 34.5351C43.0009 34.5302 43.0006 34.5239 43.0004 34.5186L43.0012 34.5351Z"
    fill="black"
  />
  <path d="M40 49H47V50H40V49Z" fill="black" />
  <path
    fill-rule="evenodd"
    clip-rule="evenodd"
    d="M43 50H43.5H44V50.9814L44.0033 50.9846C44.0403 51.0202 44.0783 51.0459 44.1473 51.0926C44.1839 51.1173 44.2291 51.1478 44.2875 51.1888C44.4275 51.2872 44.6141 51.4308 44.7602 51.6506C44.9126 51.8799 45 52.1593 45 52.5C45 52.8405 44.9127 53.1205 44.7631 53.3509C44.6191 53.5726 44.4351 53.7202 44.2932 53.8229C44.2267 53.871 44.177 53.9051 44.1375 53.9323C44.0753 53.975 44.0382 54.0005 44 54.0364L44 55H45V56H43L43 54C43 53.68 43.1568 53.457 43.3133 53.3095C43.41 53.2183 43.5462 53.1242 43.6391 53.0602C43.666 53.0416 43.6892 53.0256 43.7068 53.0129C43.815 52.9346 43.8809 52.8733 43.9244 52.8063C43.9623 52.748 44 52.6595 44 52.5C44 52.3407 43.9624 52.2569 43.9273 52.2041C43.8859 52.1418 43.8225 52.0843 43.7125 52.007C43.6962 51.9956 43.6755 51.9816 43.6518 51.9656C43.557 51.9018 43.4139 51.8054 43.3093 51.7045C43.1456 51.5468 43 51.3188 43 51V50ZM43.0012 50.5351C43.0009 50.5302 43.0006 50.5239 43.0004 50.5186L43.0012 50.5351Z"
    fill="black"
  />
  <path d="M33 9H40V10H33V9Z" fill="black" />
  <path
    fill-rule="evenodd"
    clip-rule="evenodd"
    d="M36 10H36.5H37V10.9814L37.0033 10.9846C37.0403 11.0202 37.0783 11.0459 37.1473 11.0926C37.1839 11.1173 37.2291 11.1478 37.2875 11.1888C37.4275 11.2872 37.6141 11.4308 37.7602 11.6506C37.9126 11.8799 38 12.1593 38 12.5C38 12.8405 37.9127 13.1205 37.7631 13.3509C37.6191 13.5726 37.4351 13.7202 37.2932 13.8229C37.2267 13.871 37.177 13.9051 37.1375 13.9323C37.0753 13.975 37.0382 14.0005 37 14.0363L37 15H38V16H36L36 14C36 13.68 36.1568 13.457 36.3133 13.3095C36.41 13.2183 36.5462 13.1242 36.6391 13.0602C36.666 13.0416 36.6892 13.0256 36.7068 13.0129C36.815 12.9346 36.8809 12.8733 36.9244 12.8063C36.9623 12.748 37 12.6595 37 12.5C37 12.3407 36.9624 12.2569 36.9273 12.2041C36.8859 12.1418 36.8225 12.0843 36.7125 12.007C36.6962 11.9956 36.6755 11.9816 36.6518 11.9656C36.557 11.9018 36.4139 11.8054 36.3093 11.7045C36.1456 11.5468 36 11.3188 36 11V10ZM36.0012 10.5351C36.0009 10.5302 36.0006 10.5239 36.0004 10.5186L36.0012 10.5351Z"
    fill="black"
  />
  <path d="M33 25H40V26H33V25Z" fill="black" />
  <path
    fill-rule="evenodd"
    clip-rule="evenodd"
    d="M36 26H36.5H37V26.9814L37.0033 26.9846C37.0403 27.0202 37.0783 27.0459 37.1473 27.0926C37.1839 27.1173 37.2291 27.1478 37.2875 27.1888C37.4275 27.2872 37.6141 27.4308 37.7602 27.6506C37.9126 27.8799 38 28.1593 38 28.5C38 28.8405 37.9127 29.1205 37.7631 29.3509C37.6191 29.5726 37.4351 29.7202 37.2932 29.8229C37.2267 29.871 37.177 29.9051 37.1375 29.9323C37.0753 29.975 37.0382 30.0005 37 30.0363L37 31H38V32H36L36 30C36 29.68 36.1568 29.457 36.3133 29.3095C36.41 29.2183 36.5462 29.1242 36.6391 29.0602C36.666 29.0416 36.6892 29.0256 36.7068 29.0129C36.815 28.9346 36.8809 28.8733 36.9244 28.8063C36.9623 28.748 37 28.6595 37 28.5C37 28.3407 36.9624 28.2569 36.9273 28.2041C36.8859 28.1418 36.8225 28.0843 36.7125 28.007C36.6962 27.9956 36.6755 27.9816 36.6518 27.9656C36.557 27.9018 36.4139 27.8054 36.3093 27.7045C36.1456 27.5468 36 27.3188 36 27V26ZM36.0012 26.5351C36.0009 26.5302 36.0006 26.5239 36.0004 26.5186L36.0012 26.5351Z"
    fill="black"
  />
  <path d="M33 41H40V42H33V41Z" fill="black" />
  <path
    fill-rule="evenodd"
    clip-rule="evenodd"
    d="M36 42H36.5H37V42.9814L37.0033 42.9846C37.0403 43.0202 37.0783 43.0459 37.1473 43.0926C37.1839 43.1173 37.2291 43.1478 37.2875 43.1888C37.4275 43.2872 37.6141 43.4308 37.7602 43.6506C37.9126 43.8799 38 44.1593 38 44.5C38 44.8405 37.9127 45.1205 37.7631 45.3509C37.6191 45.5726 37.4351 45.7202 37.2932 45.8229C37.2267 45.871 37.177 45.9051 37.1375 45.9323C37.0753 45.975 37.0382 46.0005 37 46.0364L37 47H38V48H36L36 46C36 45.68 36.1568 45.457 36.3133 45.3095C36.41 45.2183 36.5462 45.1242 36.6391 45.0602C36.666 45.0416 36.6892 45.0256 36.7068 45.0129C36.815 44.9346 36.8809 44.8733 36.9244 44.8063C36.9623 44.748 37 44.6595 37 44.5C37 44.3407 36.9624 44.2569 36.9273 44.2041C36.8859 44.1418 36.8225 44.0843 36.7125 44.007C36.6962 43.9956 36.6755 43.9816 36.6518 43.9656C36.557 43.9018 36.4139 43.8054 36.3093 43.7045C36.1456 43.5468 36 43.3188 36 43V42ZM36.0012 42.5351C36.0009 42.5302 36.0006 42.5239 36.0004 42.5186L36.0012 42.5351Z"
    fill="black"
  />
  <path d="M33 57H40V58H33V57Z" fill="black" />
  <path
    fill-rule="evenodd"
    clip-rule="evenodd"
    d="M36 58H36.5H37V58.9814L37.0033 58.9846C37.0403 59.0202 37.0783 59.0459 37.1473 59.0926C37.1839 59.1173 37.2291 59.1478 37.2875 59.1888C37.4275 59.2872 37.6141 59.4308 37.7602 59.6506C37.9126 59.8799 38 60.1593 38 60.5C38 60.8405 37.9127 61.1205 37.7631 61.3509C37.6191 61.5726 37.4351 61.7202 37.2932 61.8229C37.2267 61.871 37.177 61.9051 37.1375 61.9323C37.0753 61.975 37.0382 62.0005 37 62.0364L37 63H38V64H36L36 62C36 61.68 36.1568 61.457 36.3133 61.3095C36.41 61.2183 36.5462 61.1242 36.6391 61.0602C36.666 61.0416 36.6892 61.0256 36.7068 61.0129C36.815 60.9346 36.8809 60.8733 36.9244 60.8063C36.9623 60.748 37 60.6595 37 60.5C37 60.3407 36.9624 60.2569 36.9273 60.2041C36.8859 60.1418 36.8225 60.0843 36.7125 60.007C36.6962 59.9956 36.6755 59.9816 36.6518 59.9656C36.557 59.9018 36.4139 59.8054 36.3093 59.7045C36.1456 59.5468 36 59.3188 36 59V58ZM36.0012 58.5351C36.0009 58.5302 36.0006 58.5239 36.0004 58.5186L36.0012 58.5351Z"
    fill="black"
  />
  <path d="M40 1H47V2H40V1Z" fill="black" />
  <path
    fill-rule="evenodd"
    clip-rule="evenodd"
    d="M43 2H43.5H44V2.98137L44.0033 2.98455C44.0403 3.02023 44.0783 3.04595 44.1473 3.09257C44.1839 3.11727 44.2291 3.14783 44.2875 3.18884C44.4275 3.28724 44.6141 3.43083 44.7602 3.65059C44.9126 3.87993 45 4.15934 45 4.5C45 4.84051 44.9127 5.12048 44.7631 5.35092C44.6191 5.57258 44.4351 5.72022 44.2932 5.82292C44.2267 5.87104 44.177 5.90513 44.1375 5.93227C44.0753 5.97498 44.0382 6.00046 44 6.03635L44 7H45V8H43L43 6C43 5.67999 43.1568 5.45695 43.3133 5.30945C43.41 5.21827 43.5462 5.12425 43.6391 5.06021C43.666 5.04164 43.6892 5.02559 43.7068 5.01287C43.815 4.9346 43.8809 4.87329 43.9244 4.80625C43.9623 4.74798 44 4.65949 44 4.5C44 4.34066 43.9624 4.25688 43.9273 4.20411C43.8859 4.14176 43.8225 4.0843 43.7125 4.00701C43.6962 3.99555 43.6755 3.98162 43.6518 3.96564C43.557 3.90181 43.4139 3.80544 43.3093 3.70453C43.1456 3.54681 43 3.3188 43 3V2ZM43.0012 2.53513C43.0009 2.53021 43.0006 2.52392 43.0004 2.51855L43.0012 2.53513Z"
    fill="black"
  />
  <path d="M56 17H63V18H56V17Z" fill="black" />
  <path
    fill-rule="evenodd"
    clip-rule="evenodd"
    d="M59 18H59.5H60V18.9814L60.0033 18.9846C60.0403 19.0202 60.0783 19.0459 60.1473 19.0926C60.1839 19.1173 60.2291 19.1478 60.2875 19.1888C60.4275 19.2872 60.6141 19.4308 60.7602 19.6506C60.9126 19.8799 61 20.1593 61 20.5C61 20.8405 60.9127 21.1205 60.7631 21.3509C60.6191 21.5726 60.4351 21.7202 60.2932 21.8229C60.2267 21.871 60.177 21.9051 60.1375 21.9323C60.0753 21.975 60.0382 22.0005 60 22.0363L60 23H61V24H59L59 22C59 21.68 59.1568 21.457 59.3133 21.3095C59.41 21.2183 59.5462 21.1242 59.6391 21.0602C59.666 21.0416 59.6892 21.0256 59.7068 21.0129C59.815 20.9346 59.8809 20.8733 59.9244 20.8063C59.9623 20.748 60 20.6595 60 20.5C60 20.3407 59.9624 20.2569 59.9273 20.2041C59.8859 20.1418 59.8225 20.0843 59.7125 20.007C59.6962 19.9956 59.6755 19.9816 59.6518 19.9656C59.557 19.9018 59.4139 19.8054 59.3093 19.7045C59.1456 19.5468 59 19.3188 59 19V18ZM59.0012 18.5351C59.0009 18.5302 59.0006 18.5239 59.0004 18.5186L59.0012 18.5351Z"
    fill="black"
  />
  <path d="M56 33H63V34H56V33Z" fill="black" />
  <path
    fill-rule="evenodd"
    clip-rule="evenodd"
    d="M59 34H59.5H60V34.9814L60.0033 34.9846C60.0403 35.0202 60.0783 35.0459 60.1473 35.0926C60.1839 35.1173 60.2291 35.1478 60.2875 35.1888C60.4275 35.2872 60.6141 35.4308 60.7602 35.6506C60.9126 35.8799 61 36.1593 61 36.5C61 36.8405 60.9127 37.1205 60.7631 37.3509C60.6191 37.5726 60.4351 37.7202 60.2932 37.8229C60.2267 37.871 60.177 37.9051 60.1375 37.9323C60.0753 37.975 60.0382 38.0005 60 38.0364L60 39H61V40H59L59 38C59 37.68 59.1568 37.457 59.3133 37.3095C59.41 37.2183 59.5462 37.1242 59.6391 37.0602C59.666 37.0416 59.6892 37.0256 59.7068 37.0129C59.815 36.9346 59.8809 36.8733 59.9244 36.8063C59.9623 36.748 60 36.6595 60 36.5C60 36.3407 59.9624 36.2569 59.9273 36.2041C59.8859 36.1418 59.8225 36.0843 59.7125 36.007C59.6962 35.9956 59.6755 35.9816 59.6518 35.9656C59.557 35.9018 59.4139 35.8054 59.3093 35.7045C59.1456 35.5468 59 35.3188 59 35V34ZM59.0012 34.5351C59.0009 34.5302 59.0006 34.5239 59.0004 34.5186L59.0012 34.5351Z"
    fill="black"
  />
  <path d="M56 49H63V50H56V49Z" fill="black" />
  <path
    fill-rule="evenodd"
    clip-rule="evenodd"
    d="M59 50H59.5H60V50.9814L60.0033 50.9846C60.0403 51.0202 60.0783 51.0459 60.1473 51.0926C60.1839 51.1173 60.2291 51.1478 60.2875 51.1888C60.4275 51.2872 60.6141 51.4308 60.7602 51.6506C60.9126 51.8799 61 52.1593 61 52.5C61 52.8405 60.9127 53.1205 60.7631 53.3509C60.6191 53.5726 60.4351 53.7202 60.2932 53.8229C60.2267 53.871 60.177 53.9051 60.1375 53.9323C60.0753 53.975 60.0382 54.0005 60 54.0364L60 55H61V56H59L59 54C59 53.68 59.1568 53.457 59.3133 53.3095C59.41 53.2183 59.5462 53.1242 59.6391 53.0602C59.666 53.0416 59.6892 53.0256 59.7068 53.0129C59.815 52.9346 59.8809 52.8733 59.9244 52.8063C59.9623 52.748 60 52.6595 60 52.5C60 52.3407 59.9624 52.2569 59.9273 52.2041C59.8859 52.1418 59.8225 52.0843 59.7125 52.007C59.6962 51.9956 59.6755 51.9816 59.6518 51.9656C59.557 51.9018 59.4139 51.8054 59.3093 51.7045C59.1456 51.5468 59 51.3188 59 51V50ZM59.0012 50.5351C59.0009 50.5302 59.0006 50.5239 59.0004 50.5186L59.0012 50.5351Z"
    fill="black"
  />
  <path d="M49 9H56V10H49V9Z" fill="black" />
  <path
    fill-rule="evenodd"
    clip-rule="evenodd"
    d="M52 10H52.5H53V10.9814L53.0033 10.9846C53.0403 11.0202 53.0783 11.0459 53.1473 11.0926C53.1839 11.1173 53.2291 11.1478 53.2875 11.1888C53.4275 11.2872 53.6141 11.4308 53.7602 11.6506C53.9126 11.8799 54 12.1593 54 12.5C54 12.8405 53.9127 13.1205 53.7631 13.3509C53.6191 13.5726 53.4351 13.7202 53.2932 13.8229C53.2267 13.871 53.177 13.9051 53.1375 13.9323C53.0753 13.975 53.0382 14.0005 53 14.0363L53 15H54V16H52L52 14C52 13.68 52.1568 13.457 52.3133 13.3095C52.41 13.2183 52.5462 13.1242 52.6391 13.0602C52.666 13.0416 52.6892 13.0256 52.7068 13.0129C52.815 12.9346 52.8809 12.8733 52.9244 12.8063C52.9623 12.748 53 12.6595 53 12.5C53 12.3407 52.9624 12.2569 52.9273 12.2041C52.8859 12.1418 52.8225 12.0843 52.7125 12.007C52.6962 11.9956 52.6755 11.9816 52.6518 11.9656C52.557 11.9018 52.4139 11.8054 52.3093 11.7045C52.1456 11.5468 52 11.3188 52 11V10ZM52.0012 10.5351C52.0009 10.5302 52.0006 10.5239 52.0004 10.5186L52.0012 10.5351Z"
    fill="black"
  />
  <path d="M49 25H56V26H49V25Z" fill="black" />
  <path
    fill-rule="evenodd"
    clip-rule="evenodd"
    d="M52 26H52.5H53V26.9814L53.0033 26.9846C53.0403 27.0202 53.0783 27.0459 53.1473 27.0926C53.1839 27.1173 53.2291 27.1478 53.2875 27.1888C53.4275 27.2872 53.6141 27.4308 53.7602 27.6506C53.9126 27.8799 54 28.1593 54 28.5C54 28.8405 53.9127 29.1205 53.7631 29.3509C53.6191 29.5726 53.4351 29.7202 53.2932 29.8229C53.2267 29.871 53.177 29.9051 53.1375 29.9323C53.0753 29.975 53.0382 30.0005 53 30.0363L53 31H54V32H52L52 30C52 29.68 52.1568 29.457 52.3133 29.3095C52.41 29.2183 52.5462 29.1242 52.6391 29.0602C52.666 29.0416 52.6892 29.0256 52.7068 29.0129C52.815 28.9346 52.8809 28.8733 52.9244 28.8063C52.9623 28.748 53 28.6595 53 28.5C53 28.3407 52.9624 28.2569 52.9273 28.2041C52.8859 28.1418 52.8225 28.0843 52.7125 28.007C52.6962 27.9956 52.6755 27.9816 52.6518 27.9656C52.557 27.9018 52.4139 27.8054 52.3093 27.7045C52.1456 27.5468 52 27.3188 52 27V26ZM52.0012 26.5351C52.0009 26.5302 52.0006 26.5239 52.0004 26.5186L52.0012 26.5351Z"
    fill="black"
  />
  <path d="M49 41H56V42H49V41Z" fill="black" />
  <path
    fill-rule="evenodd"
    clip-rule="evenodd"
    d="M52 42H52.5H53V42.9814L53.0033 42.9846C53.0403 43.0202 53.0783 43.0459 53.1473 43.0926C53.1839 43.1173 53.2291 43.1478 53.2875 43.1888C53.4275 43.2872 53.6141 43.4308 53.7602 43.6506C53.9126 43.8799 54 44.1593 54 44.5C54 44.8405 53.9127 45.1205 53.7631 45.3509C53.6191 45.5726 53.4351 45.7202 53.2932 45.8229C53.2267 45.871 53.177 45.9051 53.1375 45.9323C53.0753 45.975 53.0382 46.0005 53 46.0364L53 47H54V48H52L52 46C52 45.68 52.1568 45.457 52.3133 45.3095C52.41 45.2183 52.5462 45.1242 52.6391 45.0602C52.666 45.0416 52.6892 45.0256 52.7068 45.0129C52.815 44.9346 52.8809 44.8733 52.9244 44.8063C52.9623 44.748 53 44.6595 53 44.5C53 44.3407 52.9624 44.2569 52.9273 44.2041C52.8859 44.1418 52.8225 44.0843 52.7125 44.007C52.6962 43.9956 52.6755 43.9816 52.6518 43.9656C52.557 43.9018 52.4139 43.8054 52.3093 43.7045C52.1456 43.5468 52 43.3188 52 43V42ZM52.0012 42.5351C52.0009 42.5302 52.0006 42.5239 52.0004 42.5186L52.0012 42.5351Z"
    fill="black"
  />
  <path d="M49 57H56V58H49V57Z" fill="black" />
  <path
    fill-rule="evenodd"
    clip-rule="evenodd"
    d="M52 58H52.5H53V58.9814L53.0033 58.9846C53.0403 59.0202 53.0783 59.0459 53.1473 59.0926C53.1839 59.1173 53.2291 59.1478 53.2875 59.1888C53.4275 59.2872 53.6141 59.4308 53.7602 59.6506C53.9126 59.8799 54 60.1593 54 60.5C54 60.8405 53.9127 61.1205 53.7631 61.3509C53.6191 61.5726 53.4351 61.7202 53.2932 61.8229C53.2267 61.871 53.177 61.9051 53.1375 61.9323C53.0753 61.975 53.0382 62.0005 53 62.0364L53 63H54V64H52L52 62C52 61.68 52.1568 61.457 52.3133 61.3095C52.41 61.2183 52.5462 61.1242 52.6391 61.0602C52.666 61.0416 52.6892 61.0256 52.7068 61.0129C52.815 60.9346 52.8809 60.8733 52.9244 60.8063C52.9623 60.748 53 60.6595 53 60.5C53 60.3407 52.9624 60.2569 52.9273 60.2041C52.8859 60.1418 52.8225 60.0843 52.7125 60.007C52.6962 59.9956 52.6755 59.9816 52.6518 59.9656C52.557 59.9018 52.4139 59.8054 52.3093 59.7045C52.1456 59.5468 52 59.3188 52 59V58ZM52.0012 58.5351C52.0009 58.5302 52.0006 58.5239 52.0004 58.5186L52.0012 58.5351Z"
    fill="black"
  />
  <path d="M56 1H63V2H56V1Z" fill="black" />
  <path
    fill-rule="evenodd"
    clip-rule="evenodd"
    d="M59 2H59.5H60V2.98137L60.0033 2.98455C60.0403 3.02023 60.0783 3.04595 60.1473 3.09257C60.1839 3.11727 60.2291 3.14783 60.2875 3.18884C60.4275 3.28724 60.6141 3.43083 60.7602 3.65059C60.9126 3.87993 61 4.15934 61 4.5C61 4.84051 60.9127 5.12048 60.7631 5.35092C60.6191 5.57258 60.4351 5.72022 60.2932 5.82292C60.2267 5.87104 60.177 5.90513 60.1375 5.93227C60.0753 5.97498 60.0382 6.00046 60 6.03635L60 7H61V8H59L59 6C59 5.67999 59.1568 5.45695 59.3133 5.30945C59.41 5.21827 59.5462 5.12425 59.6391 5.06021C59.666 5.04164 59.6892 5.02559 59.7068 5.01287C59.815 4.9346 59.8809 4.87329 59.9244 4.80625C59.9623 4.74798 60 4.65949 60 4.5C60 4.34066 59.9624 4.25688 59.9273 4.20411C59.8859 4.14176 59.8225 4.0843 59.7125 4.00701C59.6962 3.99555 59.6755 3.98162 59.6518 3.96564C59.557 3.90181 59.4139 3.80544 59.3093 3.70453C59.1456 3.54681 59 3.3188 59 3V2ZM59.0012 2.53513C59.0009 2.53021 59.0006 2.52392 59.0004 2.51855L59.0012 2.53513Z"
    fill="black"
  />
</svg>
