<svg width="64" height="64" viewBox="0 0 64 64" fill="none" xmlns="http://www.w3.org/2000/svg">
  <rect width="64" height="64" fill="#F177AA" />
  <path
    fill-rule="evenodd"
    clip-rule="evenodd"
    d="M2.76486 7.42401L2.23486 6.57601L5.55645 4.50001L2.23486 2.42402L2.76486 1.57602L7.44324 4.50001L2.76486 7.42401Z"
    fill="black"
  />
  <path
    fill-rule="evenodd"
    clip-rule="evenodd"
    d="M2.76486 23.424L2.23486 22.576L5.55645 20.5L2.23486 18.424L2.76486 17.576L7.44324 20.5L2.76486 23.424Z"
    fill="black"
  />
  <path
    fill-rule="evenodd"
    clip-rule="evenodd"
    d="M2.76486 39.424L2.23486 38.576L5.55645 36.5L2.23486 34.424L2.76486 33.576L7.44324 36.5L2.76486 39.424Z"
    fill="black"
  />
  <path
    fill-rule="evenodd"
    clip-rule="evenodd"
    d="M2.76486 55.424L2.23486 54.576L5.55645 52.5L2.23486 50.424L2.76486 49.576L7.44324 52.5L2.76486 55.424Z"
    fill="black"
  />
  <path
    fill-rule="evenodd"
    clip-rule="evenodd"
    d="M10.7649 15.424L10.2349 14.576L13.5564 12.5L10.2349 10.424L10.7649 9.57602L15.4432 12.5L10.7649 15.424Z"
    fill="black"
  />
  <path
    fill-rule="evenodd"
    clip-rule="evenodd"
    d="M10.7649 31.424L10.2349 30.576L13.5564 28.5L10.2349 26.424L10.7649 25.576L15.4432 28.5L10.7649 31.424Z"
    fill="black"
  />
  <path
    fill-rule="evenodd"
    clip-rule="evenodd"
    d="M10.7649 47.424L10.2349 46.576L13.5564 44.5L10.2349 42.424L10.7649 41.576L15.4432 44.5L10.7649 47.424Z"
    fill="black"
  />
  <path
    fill-rule="evenodd"
    clip-rule="evenodd"
    d="M10.7649 63.424L10.2349 62.576L13.5564 60.5L10.2349 58.424L10.7649 57.576L15.4432 60.5L10.7649 63.424Z"
    fill="black"
  />
  <path
    fill-rule="evenodd"
    clip-rule="evenodd"
    d="M34.7649 7.42401L34.2349 6.57601L37.5564 4.50001L34.2349 2.42402L34.7649 1.57602L39.4432 4.50001L34.7649 7.42401Z"
    fill="black"
  />
  <path
    fill-rule="evenodd"
    clip-rule="evenodd"
    d="M34.7649 23.424L34.2349 22.576L37.5564 20.5L34.2349 18.424L34.7649 17.576L39.4432 20.5L34.7649 23.424Z"
    fill="black"
  />
  <path
    fill-rule="evenodd"
    clip-rule="evenodd"
    d="M34.7649 39.424L34.2349 38.576L37.5564 36.5L34.2349 34.424L34.7649 33.576L39.4432 36.5L34.7649 39.424Z"
    fill="black"
  />
  <path
    fill-rule="evenodd"
    clip-rule="evenodd"
    d="M34.7649 55.424L34.2349 54.576L37.5564 52.5L34.2349 50.424L34.7649 49.576L39.4432 52.5L34.7649 55.424Z"
    fill="black"
  />
  <path
    fill-rule="evenodd"
    clip-rule="evenodd"
    d="M42.7649 15.424L42.2349 14.576L45.5564 12.5L42.2349 10.424L42.7649 9.57602L47.4432 12.5L42.7649 15.424Z"
    fill="black"
  />
  <path
    fill-rule="evenodd"
    clip-rule="evenodd"
    d="M42.7649 31.424L42.2349 30.576L45.5564 28.5L42.2349 26.424L42.7649 25.576L47.4432 28.5L42.7649 31.424Z"
    fill="black"
  />
  <path
    fill-rule="evenodd"
    clip-rule="evenodd"
    d="M42.7649 47.424L42.2349 46.576L45.5564 44.5L42.2349 42.424L42.7649 41.576L47.4432 44.5L42.7649 47.424Z"
    fill="black"
  />
  <path
    fill-rule="evenodd"
    clip-rule="evenodd"
    d="M42.7649 63.424L42.2349 62.576L45.5564 60.5L42.2349 58.424L42.7649 57.576L47.4432 60.5L42.7649 63.424Z"
    fill="black"
  />
  <path
    fill-rule="evenodd"
    clip-rule="evenodd"
    d="M18.7649 7.42401L18.2349 6.57601L21.5564 4.50001L18.2349 2.42402L18.7649 1.57602L23.4432 4.50001L18.7649 7.42401Z"
    fill="black"
  />
  <path
    fill-rule="evenodd"
    clip-rule="evenodd"
    d="M18.7649 23.424L18.2349 22.576L21.5564 20.5L18.2349 18.424L18.7649 17.576L23.4432 20.5L18.7649 23.424Z"
    fill="black"
  />
  <path
    fill-rule="evenodd"
    clip-rule="evenodd"
    d="M18.7649 39.424L18.2349 38.576L21.5564 36.5L18.2349 34.424L18.7649 33.576L23.4432 36.5L18.7649 39.424Z"
    fill="black"
  />
  <path
    fill-rule="evenodd"
    clip-rule="evenodd"
    d="M18.7649 55.424L18.2349 54.576L21.5564 52.5L18.2349 50.424L18.7649 49.576L23.4432 52.5L18.7649 55.424Z"
    fill="black"
  />
  <path
    fill-rule="evenodd"
    clip-rule="evenodd"
    d="M26.7649 15.424L26.2349 14.576L29.5564 12.5L26.2349 10.424L26.7649 9.57602L31.4432 12.5L26.7649 15.424Z"
    fill="black"
  />
  <path
    fill-rule="evenodd"
    clip-rule="evenodd"
    d="M26.7649 31.424L26.2349 30.576L29.5564 28.5L26.2349 26.424L26.7649 25.576L31.4432 28.5L26.7649 31.424Z"
    fill="black"
  />
  <path
    fill-rule="evenodd"
    clip-rule="evenodd"
    d="M26.7649 47.424L26.2349 46.576L29.5564 44.5L26.2349 42.424L26.7649 41.576L31.4432 44.5L26.7649 47.424Z"
    fill="black"
  />
  <path
    fill-rule="evenodd"
    clip-rule="evenodd"
    d="M26.7649 63.424L26.2349 62.576L29.5564 60.5L26.2349 58.424L26.7649 57.576L31.4432 60.5L26.7649 63.424Z"
    fill="black"
  />
  <path
    fill-rule="evenodd"
    clip-rule="evenodd"
    d="M50.7649 7.42401L50.2349 6.57601L53.5564 4.50001L50.2349 2.42402L50.7649 1.57602L55.4432 4.50001L50.7649 7.42401Z"
    fill="black"
  />
  <path
    fill-rule="evenodd"
    clip-rule="evenodd"
    d="M50.7649 23.424L50.2349 22.576L53.5564 20.5L50.2349 18.424L50.7649 17.576L55.4432 20.5L50.7649 23.424Z"
    fill="black"
  />
  <path
    fill-rule="evenodd"
    clip-rule="evenodd"
    d="M50.7649 39.424L50.2349 38.576L53.5564 36.5L50.2349 34.424L50.7649 33.576L55.4432 36.5L50.7649 39.424Z"
    fill="black"
  />
  <path
    fill-rule="evenodd"
    clip-rule="evenodd"
    d="M50.7649 55.424L50.2349 54.576L53.5564 52.5L50.2349 50.424L50.7649 49.576L55.4432 52.5L50.7649 55.424Z"
    fill="black"
  />
  <path
    fill-rule="evenodd"
    clip-rule="evenodd"
    d="M58.7649 15.424L58.2349 14.576L61.5564 12.5L58.2349 10.424L58.7649 9.57602L63.4432 12.5L58.7649 15.424Z"
    fill="black"
  />
  <path
    fill-rule="evenodd"
    clip-rule="evenodd"
    d="M58.7649 31.424L58.2349 30.576L61.5564 28.5L58.2349 26.424L58.7649 25.576L63.4432 28.5L58.7649 31.424Z"
    fill="black"
  />
  <path
    fill-rule="evenodd"
    clip-rule="evenodd"
    d="M58.7649 47.424L58.2349 46.576L61.5564 44.5L58.2349 42.424L58.7649 41.576L63.4432 44.5L58.7649 47.424Z"
    fill="black"
  />
  <path
    fill-rule="evenodd"
    clip-rule="evenodd"
    d="M58.7649 63.424L58.2349 62.576L61.5564 60.5L58.2349 58.424L58.7649 57.576L63.4432 60.5L58.7649 63.424Z"
    fill="black"
  />
</svg>
