<svg width="64" height="64" viewBox="0 0 64 64" fill="none" xmlns="http://www.w3.org/2000/svg">
  <rect width="64" height="64" fill="#F177AA" />
  <path
    fill-rule="evenodd"
    clip-rule="evenodd"
    d="M7.42416 6.23499L6.57616 6.76499L4.50016 3.4434L2.42417 6.76499L1.57617 6.23499L4.50016 1.55661L7.42416 6.23499Z"
    fill="black"
  />
  <path
    fill-rule="evenodd"
    clip-rule="evenodd"
    d="M7.42416 22.235L6.57616 22.765L4.50016 19.4434L2.42417 22.765L1.57617 22.235L4.50016 17.5566L7.42416 22.235Z"
    fill="black"
  />
  <path
    fill-rule="evenodd"
    clip-rule="evenodd"
    d="M7.42416 38.235L6.57616 38.765L4.50016 35.4434L2.42417 38.765L1.57617 38.235L4.50016 33.5566L7.42416 38.235Z"
    fill="black"
  />
  <path
    fill-rule="evenodd"
    clip-rule="evenodd"
    d="M7.42416 54.235L6.57616 54.765L4.50016 51.4434L2.42417 54.765L1.57617 54.235L4.50016 49.5566L7.42416 54.235Z"
    fill="black"
  />
  <path
    fill-rule="evenodd"
    clip-rule="evenodd"
    d="M15.4242 14.235L14.5762 14.765L12.5002 11.4434L10.4242 14.765L9.57617 14.235L12.5002 9.55661L15.4242 14.235Z"
    fill="black"
  />
  <path
    fill-rule="evenodd"
    clip-rule="evenodd"
    d="M15.4242 30.235L14.5762 30.765L12.5002 27.4434L10.4242 30.765L9.57617 30.235L12.5002 25.5566L15.4242 30.235Z"
    fill="black"
  />
  <path
    fill-rule="evenodd"
    clip-rule="evenodd"
    d="M15.4242 46.235L14.5762 46.765L12.5002 43.4434L10.4242 46.765L9.57617 46.235L12.5002 41.5566L15.4242 46.235Z"
    fill="black"
  />
  <path
    fill-rule="evenodd"
    clip-rule="evenodd"
    d="M15.4242 62.235L14.5762 62.765L12.5002 59.4434L10.4242 62.765L9.57617 62.235L12.5002 57.5566L15.4242 62.235Z"
    fill="black"
  />
  <path
    fill-rule="evenodd"
    clip-rule="evenodd"
    d="M39.4242 6.23499L38.5762 6.76499L36.5002 3.4434L34.4242 6.76499L33.5762 6.23499L36.5002 1.55661L39.4242 6.23499Z"
    fill="black"
  />
  <path
    fill-rule="evenodd"
    clip-rule="evenodd"
    d="M39.4242 22.235L38.5762 22.765L36.5002 19.4434L34.4242 22.765L33.5762 22.235L36.5002 17.5566L39.4242 22.235Z"
    fill="black"
  />
  <path
    fill-rule="evenodd"
    clip-rule="evenodd"
    d="M39.4242 38.235L38.5762 38.765L36.5002 35.4434L34.4242 38.765L33.5762 38.235L36.5002 33.5566L39.4242 38.235Z"
    fill="black"
  />
  <path
    fill-rule="evenodd"
    clip-rule="evenodd"
    d="M39.4242 54.235L38.5762 54.765L36.5002 51.4434L34.4242 54.765L33.5762 54.235L36.5002 49.5566L39.4242 54.235Z"
    fill="black"
  />
  <path
    fill-rule="evenodd"
    clip-rule="evenodd"
    d="M47.4242 14.235L46.5762 14.765L44.5002 11.4434L42.4242 14.765L41.5762 14.235L44.5002 9.55661L47.4242 14.235Z"
    fill="black"
  />
  <path
    fill-rule="evenodd"
    clip-rule="evenodd"
    d="M47.4242 30.235L46.5762 30.765L44.5002 27.4434L42.4242 30.765L41.5762 30.235L44.5002 25.5566L47.4242 30.235Z"
    fill="black"
  />
  <path
    fill-rule="evenodd"
    clip-rule="evenodd"
    d="M47.4242 46.235L46.5762 46.765L44.5002 43.4434L42.4242 46.765L41.5762 46.235L44.5002 41.5566L47.4242 46.235Z"
    fill="black"
  />
  <path
    fill-rule="evenodd"
    clip-rule="evenodd"
    d="M47.4242 62.235L46.5762 62.765L44.5002 59.4434L42.4242 62.765L41.5762 62.235L44.5002 57.5566L47.4242 62.235Z"
    fill="black"
  />
  <path
    fill-rule="evenodd"
    clip-rule="evenodd"
    d="M23.4242 6.23499L22.5762 6.76499L20.5002 3.4434L18.4242 6.76499L17.5762 6.23499L20.5002 1.55661L23.4242 6.23499Z"
    fill="black"
  />
  <path
    fill-rule="evenodd"
    clip-rule="evenodd"
    d="M23.4242 22.235L22.5762 22.765L20.5002 19.4434L18.4242 22.765L17.5762 22.235L20.5002 17.5566L23.4242 22.235Z"
    fill="black"
  />
  <path
    fill-rule="evenodd"
    clip-rule="evenodd"
    d="M23.4242 38.235L22.5762 38.765L20.5002 35.4434L18.4242 38.765L17.5762 38.235L20.5002 33.5566L23.4242 38.235Z"
    fill="black"
  />
  <path
    fill-rule="evenodd"
    clip-rule="evenodd"
    d="M23.4242 54.235L22.5762 54.765L20.5002 51.4434L18.4242 54.765L17.5762 54.235L20.5002 49.5566L23.4242 54.235Z"
    fill="black"
  />
  <path
    fill-rule="evenodd"
    clip-rule="evenodd"
    d="M31.4242 14.235L30.5762 14.765L28.5002 11.4434L26.4242 14.765L25.5762 14.235L28.5002 9.55661L31.4242 14.235Z"
    fill="black"
  />
  <path
    fill-rule="evenodd"
    clip-rule="evenodd"
    d="M31.4242 30.235L30.5762 30.765L28.5002 27.4434L26.4242 30.765L25.5762 30.235L28.5002 25.5566L31.4242 30.235Z"
    fill="black"
  />
  <path
    fill-rule="evenodd"
    clip-rule="evenodd"
    d="M31.4242 46.235L30.5762 46.765L28.5002 43.4434L26.4242 46.765L25.5762 46.235L28.5002 41.5566L31.4242 46.235Z"
    fill="black"
  />
  <path
    fill-rule="evenodd"
    clip-rule="evenodd"
    d="M31.4242 62.235L30.5762 62.765L28.5002 59.4434L26.4242 62.765L25.5762 62.235L28.5002 57.5566L31.4242 62.235Z"
    fill="black"
  />
  <path
    fill-rule="evenodd"
    clip-rule="evenodd"
    d="M55.4242 6.23499L54.5762 6.76499L52.5002 3.4434L50.4242 6.76499L49.5762 6.23499L52.5002 1.55661L55.4242 6.23499Z"
    fill="black"
  />
  <path
    fill-rule="evenodd"
    clip-rule="evenodd"
    d="M55.4242 22.235L54.5762 22.765L52.5002 19.4434L50.4242 22.765L49.5762 22.235L52.5002 17.5566L55.4242 22.235Z"
    fill="black"
  />
  <path
    fill-rule="evenodd"
    clip-rule="evenodd"
    d="M55.4242 38.235L54.5762 38.765L52.5002 35.4434L50.4242 38.765L49.5762 38.235L52.5002 33.5566L55.4242 38.235Z"
    fill="black"
  />
  <path
    fill-rule="evenodd"
    clip-rule="evenodd"
    d="M55.4242 54.235L54.5762 54.765L52.5002 51.4434L50.4242 54.765L49.5762 54.235L52.5002 49.5566L55.4242 54.235Z"
    fill="black"
  />
  <path
    fill-rule="evenodd"
    clip-rule="evenodd"
    d="M63.4242 14.235L62.5762 14.765L60.5002 11.4434L58.4242 14.765L57.5762 14.235L60.5002 9.55661L63.4242 14.235Z"
    fill="black"
  />
  <path
    fill-rule="evenodd"
    clip-rule="evenodd"
    d="M63.4242 30.235L62.5762 30.765L60.5002 27.4434L58.4242 30.765L57.5762 30.235L60.5002 25.5566L63.4242 30.235Z"
    fill="black"
  />
  <path
    fill-rule="evenodd"
    clip-rule="evenodd"
    d="M63.4242 46.235L62.5762 46.765L60.5002 43.4434L58.4242 46.765L57.5762 46.235L60.5002 41.5566L63.4242 46.235Z"
    fill="black"
  />
  <path
    fill-rule="evenodd"
    clip-rule="evenodd"
    d="M63.4242 62.235L62.5762 62.765L60.5002 59.4434L58.4242 62.765L57.5762 62.235L60.5002 57.5566L63.4242 62.235Z"
    fill="black"
  />
</svg>
