<svg width="64" height="64" viewBox="0 0 64 64" fill="none" xmlns="http://www.w3.org/2000/svg">
  <rect width="64" height="64" fill="#FFF78F" />
  <path d="M1 1H0V2H1V1Z" fill="black" />
  <path d="M1 9H0V10H1V9Z" fill="black" />
  <path d="M0 17H1V18H0V17Z" fill="black" />
  <path d="M1 25H0V26H1V25Z" fill="black" />
  <path d="M0 33H1V34H0V33Z" fill="black" />
  <path d="M1 41H0V42H1V41Z" fill="black" />
  <path d="M0 49H1V50H0V49Z" fill="black" />
  <path d="M1 57H0V58H1V57Z" fill="black" />
  <path d="M4 5H5V6H4V5Z" fill="black" />
  <path d="M5 13H4V14H5V13Z" fill="black" />
  <path d="M4 21H5V22H4V21Z" fill="black" />
  <path d="M5 29H4V30H5V29Z" fill="black" />
  <path d="M4 37H5V38H4V37Z" fill="black" />
  <path d="M5 45H4V46H5V45Z" fill="black" />
  <path d="M4 53H5V54H4V53Z" fill="black" />
  <path d="M5 61H4V62H5V61Z" fill="black" />
  <path d="M24 1H25V2H24V1Z" fill="black" />
  <path d="M25 9H24V10H25V9Z" fill="black" />
  <path d="M24 17H25V18H24V17Z" fill="black" />
  <path d="M25 25H24V26H25V25Z" fill="black" />
  <path d="M24 33H25V34H24V33Z" fill="black" />
  <path d="M25 41H24V42H25V41Z" fill="black" />
  <path d="M24 49H25V50H24V49Z" fill="black" />
  <path d="M25 57H24V58H25V57Z" fill="black" />
  <path d="M28 5H29V6H28V5Z" fill="black" />
  <path d="M29 13H28V14H29V13Z" fill="black" />
  <path d="M28 21H29V22H28V21Z" fill="black" />
  <path d="M29 29H28V30H29V29Z" fill="black" />
  <path d="M28 37H29V38H28V37Z" fill="black" />
  <path d="M29 45H28V46H29V45Z" fill="black" />
  <path d="M28 53H29V54H28V53Z" fill="black" />
  <path d="M29 61H28V62H29V61Z" fill="black" />
  <path d="M8 1H9V2H8V1Z" fill="black" />
  <path d="M9 9H8V10H9V9Z" fill="black" />
  <path d="M8 17H9V18H8V17Z" fill="black" />
  <path d="M9 25H8V26H9V25Z" fill="black" />
  <path d="M8 33H9V34H8V33Z" fill="black" />
  <path d="M9 41H8V42H9V41Z" fill="black" />
  <path d="M8 49H9V50H8V49Z" fill="black" />
  <path d="M9 57H8V58H9V57Z" fill="black" />
  <path d="M12 5H13V6H12V5Z" fill="black" />
  <path d="M13 21H12V22H13V21Z" fill="black" />
  <path d="M12 29H13V30H12V29Z" fill="black" />
  <path d="M13 37H12V38H13V37Z" fill="black" />
  <path d="M12 53H13V54H12V53Z" fill="black" />
  <path d="M13 61H12V62H13V61Z" fill="black" />
  <path d="M32 1H33V2H32V1Z" fill="black" />
  <path d="M33 9H32V10H33V9Z" fill="black" />
  <path d="M32 17H33V18H32V17Z" fill="black" />
  <path d="M33 25H32V26H33V25Z" fill="black" />
  <path d="M32 33H33V34H32V33Z" fill="black" />
  <path d="M33 41H32V42H33V41Z" fill="black" />
  <path d="M32 49H33V50H32V49Z" fill="black" />
  <path d="M33 57H32V58H33V57Z" fill="black" />
  <path d="M36 5H37V6H36V5Z" fill="black" />
  <path d="M37 13H36V14H37V13Z" fill="black" />
  <path d="M36 21H37V22H36V21Z" fill="black" />
  <path d="M37 29H36V30H37V29Z" fill="black" />
  <path d="M36 37H37V38H36V37Z" fill="black" />
  <path d="M37 45H36V46H37V45Z" fill="black" />
  <path d="M36 53H37V54H36V53Z" fill="black" />
  <path d="M37 61H36V62H37V61Z" fill="black" />
  <path d="M48 1H49V2H48V1Z" fill="black" />
  <path d="M49 9H48V10H49V9Z" fill="black" />
  <path d="M52 21H53V22H52V21Z" fill="black" />
  <path d="M49 25H48V26H49V25Z" fill="black" />
  <path d="M48 33H49V34H48V33Z" fill="black" />
  <path d="M49 41H48V42H49V41Z" fill="black" />
  <path d="M52 53H53V54H52V53Z" fill="black" />
  <path d="M49 57H48V58H49V57Z" fill="black" />
  <path d="M52 5H53V6H52V5Z" fill="black" />
  <path d="M53 13H52V14H53V13Z" fill="black" />
  <path d="M44 13H45V14H44V13Z" fill="black" />
  <path d="M53 29H52V30H53V29Z" fill="black" />
  <path d="M52 37H53V38H52V37Z" fill="black" />
  <path d="M53 45H52V46H53V45Z" fill="black" />
  <path d="M44 45H45V46H44V45Z" fill="black" />
  <path d="M53 61H52V62H53V61Z" fill="black" />
  <path d="M16 1H17V2H16V1Z" fill="black" />
  <path d="M17 9H16V10H17V9Z" fill="black" />
  <path d="M20 21H21V22H20V21Z" fill="black" />
  <path d="M17 25H16V26H17V25Z" fill="black" />
  <path d="M16 33H17V34H16V33Z" fill="black" />
  <path d="M17 41H16V42H17V41Z" fill="black" />
  <path d="M20 53H21V54H20V53Z" fill="black" />
  <path d="M17 57H16V58H17V57Z" fill="black" />
  <path d="M20 5H21V6H20V5Z" fill="black" />
  <path d="M21 13H20V14H21V13Z" fill="black" />
  <path d="M12 13H13V14H12V13Z" fill="black" />
  <path d="M21 29H20V30H21V29Z" fill="black" />
  <path d="M20 37H21V38H20V37Z" fill="black" />
  <path d="M21 45H20V46H21V45Z" fill="black" />
  <path d="M12 45H13V46H12V45Z" fill="black" />
  <path d="M21 61H20V62H21V61Z" fill="black" />
  <path d="M40 1H41V2H40V1Z" fill="black" />
  <path d="M41 9H40V10H41V9Z" fill="black" />
  <path d="M40 17H41V18H40V17Z" fill="black" />
  <path d="M49 17H48V18H49V17Z" fill="black" />
  <path d="M16 49H17V50H16V49Z" fill="black" />
  <path d="M41 25H40V26H41V25Z" fill="black" />
  <path d="M40 33H41V34H40V33Z" fill="black" />
  <path d="M41 41H40V42H41V41Z" fill="black" />
  <path d="M40 49H41V50H40V49Z" fill="black" />
  <path d="M41 57H40V58H41V57Z" fill="black" />
  <path d="M44 5H45V6H44V5Z" fill="black" />
  <path d="M45 21H44V22H45V21Z" fill="black" />
  <path d="M44 29H45V30H44V29Z" fill="black" />
  <path d="M45 37H44V38H45V37Z" fill="black" />
  <path d="M44 53H45V54H44V53Z" fill="black" />
  <path d="M45 61H44V62H45V61Z" fill="black" />
  <path d="M56 1H57V2H56V1Z" fill="black" />
  <path d="M57 9H56V10H57V9Z" fill="black" />
  <path d="M56 17H57V18H56V17Z" fill="black" />
  <path d="M57 25H56V26H57V25Z" fill="black" />
  <path d="M56 33H57V34H56V33Z" fill="black" />
  <path d="M57 41H56V42H57V41Z" fill="black" />
  <path d="M56 49H57V50H56V49Z" fill="black" />
  <path d="M57 57H56V58H57V57Z" fill="black" />
  <path d="M60 5H61V6H60V5Z" fill="black" />
  <path d="M61 13H60V14H61V13Z" fill="black" />
  <path d="M60 21H61V22H60V21Z" fill="black" />
  <path d="M61 29H60V30H61V29Z" fill="black" />
  <path d="M60 37H61V38H60V37Z" fill="black" />
  <path d="M61 45H60V46H61V45Z" fill="black" />
  <path d="M60 53H61V54H60V53Z" fill="black" />
  <path d="M61 61H60V62H61V61Z" fill="black" />
  <path
    d="M10 15C10.1946 16.6875 11.6874 18 13.5 18C15.3126 18 16.8054 16.6875 17 15H16C15.8187 15.8558 15 17 13.5 17C12 17 11.1813 15.8558 11 15H10Z"
    fill="black"
  />
  <path
    d="M19.5 17C21.3126 17 22.8054 18.3125 23 20H22C21.8187 19.1442 21 18 19.5 18C18 18 17.1813 19.1442 17 20H16C16.1946 18.3125 17.6874 17 19.5 17Z"
    fill="black"
  />
  <path
    d="M42 47C42.1946 48.6875 43.6874 50 45.5 50C47.3126 50 48.8054 48.6875 49 47H48C47.8187 47.8558 47 49 45.5 49C44 49 43.1813 47.8558 43 47H42Z"
    fill="black"
  />
  <path
    d="M51.5 49C53.3126 49 54.8054 50.3125 55 52H54C53.8187 51.1442 53 50 51.5 50C50 50 49.1813 51.1442 49 52H48C48.1946 50.3125 49.6874 49 51.5 49Z"
    fill="black"
  />
</svg>
