<svg width="64" height="64" viewBox="0 0 64 64" fill="none" xmlns="http://www.w3.org/2000/svg">
  <rect width="64" height="64" fill="#FFF78F" />
  <path d="M0 9V10H1V9H0Z" fill="black" />
  <path d="M0 19H4V18H3V17H4V16H0V17H2V18H0V19Z" fill="black" />
  <path d="M0 25V26H1V25H0Z" fill="black" />
  <path d="M0 35H4V34H3V33H4V32H0V33H2V34H0V35Z" fill="black" />
  <path d="M0 41V42H1V41H0Z" fill="black" />
  <path d="M0 51H4V50H3V49H4V48H0V49H2V50H0V51Z" fill="black" />
  <path d="M0 57V58H1V57H0Z" fill="black" />
  <path d="M64 48H61V49H62V50H61V51H64V50H63V49H64V48Z" fill="black" />
  <path d="M64 32H61V33H62V34H61V35H64V34H63V33H64V32Z" fill="black" />
  <path d="M64 16H61V17H62V18H61V19H64V18H63V17H64V16Z" fill="black" />
  <path d="M64 0H61V1H62V2H61V3H64V2H63V1H64V0Z" fill="black" />
  <path
    fill-rule="evenodd"
    clip-rule="evenodd"
    d="M52 0H45V1H46V2H45V3H52V2H51V1H52V0ZM50 2H47V1H50V2Z"
    fill="black"
  />
  <path
    fill-rule="evenodd"
    clip-rule="evenodd"
    d="M36 0H29V1H30V2H29V3H36V2H35V1H36V0ZM34 2H31V1H34V2Z"
    fill="black"
  />
  <path
    fill-rule="evenodd"
    clip-rule="evenodd"
    d="M20 0H13V1H14V2H13V3H20V2H19V1H20V0ZM18 2H15V1H18V2Z"
    fill="black"
  />
  <path d="M4 0H0V1H2V2H0V3H4V2H3V1H4V0Z" fill="black" />
  <path d="M24 1H25V2H24V1Z" fill="black" />
  <path d="M5 13H4V14H5V13Z" fill="black" />
  <path d="M13 13H12V14H13V13Z" fill="black" />
  <path d="M13 29H12V30H13V29Z" fill="black" />
  <path d="M13 45H12V46H13V45Z" fill="black" />
  <path d="M13 61H12V62H13V61Z" fill="black" />
  <path d="M29 13H28V14H29V13Z" fill="black" />
  <path d="M29 29H28V30H29V29Z" fill="black" />
  <path d="M29 45H28V46H29V45Z" fill="black" />
  <path d="M29 61H28V62H29V61Z" fill="black" />
  <path d="M45 13H44V14H45V13Z" fill="black" />
  <path d="M45 29H44V30H45V29Z" fill="black" />
  <path d="M45 45H44V46H45V45Z" fill="black" />
  <path d="M45 61H44V62H45V61Z" fill="black" />
  <path d="M61 13H60V14H61V13Z" fill="black" />
  <path d="M61 29H60V30H61V29Z" fill="black" />
  <path d="M61 45H60V46H61V45Z" fill="black" />
  <path d="M61 61H60V62H61V61Z" fill="black" />
  <path d="M5 29H4V30H5V29Z" fill="black" />
  <path d="M5 45H4V46H5V45Z" fill="black" />
  <path d="M5 61H4V62H5V61Z" fill="black" />
  <path d="M24 17H25V18H24V17Z" fill="black" />
  <path d="M24 33H25V34H24V33Z" fill="black" />
  <path d="M24 49H25V50H24V49Z" fill="black" />
  <path d="M28 5H29V6H28V5Z" fill="black" />
  <path d="M28 21H29V22H28V21Z" fill="black" />
  <path d="M28 37H29V38H28V37Z" fill="black" />
  <path d="M28 53H29V54H28V53Z" fill="black" />
  <path d="M8 1H9V2H8V1Z" fill="black" />
  <path d="M8 17H9V18H8V17Z" fill="black" />
  <path d="M8 33H9V34H8V33Z" fill="black" />
  <path d="M8 49H9V50H8V49Z" fill="black" />
  <path d="M12 5H13V6H12V5Z" fill="black" />
  <path d="M4 5H5V6H4V5Z" fill="black" />
  <path d="M4 21H5V22H4V21Z" fill="black" />
  <path d="M4 37H5V38H4V37Z" fill="black" />
  <path d="M4 53H5V54H4V53Z" fill="black" />
  <path d="M20 5H21V6H20V5Z" fill="black" />
  <path d="M20 21H21V22H20V21Z" fill="black" />
  <path d="M20 37H21V38H20V37Z" fill="black" />
  <path d="M20 53H21V54H20V53Z" fill="black" />
  <path d="M36 5H37V6H36V5Z" fill="black" />
  <path d="M36 21H37V22H36V21Z" fill="black" />
  <path d="M36 37H37V38H36V37Z" fill="black" />
  <path d="M36 53H37V54H36V53Z" fill="black" />
  <path d="M52 5H53V6H52V5Z" fill="black" />
  <path d="M52 21H53V22H52V21Z" fill="black" />
  <path d="M52 37H53V38H52V37Z" fill="black" />
  <path d="M52 53H53V54H52V53Z" fill="black" />
  <path d="M12 21H13V22H12V21Z" fill="black" />
  <path d="M12 37H13V38H12V37Z" fill="black" />
  <path d="M12 53H13V54H12V53Z" fill="black" />
  <path d="M32 9H33V10H32V9Z" fill="black" />
  <path d="M32 25H33V26H32V25Z" fill="black" />
  <path d="M32 41H33V42H32V41Z" fill="black" />
  <path d="M32 57H33V58H32V57Z" fill="black" />
  <path d="M36 13H37V14H36V13Z" fill="black" />
  <path d="M36 29H37V30H36V29Z" fill="black" />
  <path d="M36 45H37V46H36V45Z" fill="black" />
  <path d="M36 61H37V62H36V61Z" fill="black" />
  <path d="M48 9H49V10H48V9Z" fill="black" />
  <path d="M48 25H49V26H48V25Z" fill="black" />
  <path d="M48 41H49V42H48V41Z" fill="black" />
  <path d="M48 57H49V58H48V57Z" fill="black" />
  <path d="M52 13H53V14H52V13Z" fill="black" />
  <path d="M52 29H53V30H52V29Z" fill="black" />
  <path d="M52 45H53V46H52V45Z" fill="black" />
  <path d="M52 61H53V62H52V61Z" fill="black" />
  <path d="M16 9H17V10H16V9Z" fill="black" />
  <path d="M16 25H17V26H16V25Z" fill="black" />
  <path d="M16 41H17V42H16V41Z" fill="black" />
  <path d="M16 57H17V58H16V57Z" fill="black" />
  <path d="M20 13H21V14H20V13Z" fill="black" />
  <path d="M20 29H21V30H20V29Z" fill="black" />
  <path d="M20 45H21V46H20V45Z" fill="black" />
  <path d="M20 61H21V62H20V61Z" fill="black" />
  <path d="M40 1H41V2H40V1Z" fill="black" />
  <path d="M40 17H41V18H40V17Z" fill="black" />
  <path d="M40 33H41V34H40V33Z" fill="black" />
  <path d="M40 49H41V50H40V49Z" fill="black" />
  <path d="M44 5H45V6H44V5Z" fill="black" />
  <path d="M44 21H45V22H44V21Z" fill="black" />
  <path d="M44 37H45V38H44V37Z" fill="black" />
  <path d="M44 53H45V54H44V53Z" fill="black" />
  <path d="M56 1H57V2H56V1Z" fill="black" />
  <path d="M56 17H57V18H56V17Z" fill="black" />
  <path d="M56 33H57V34H56V33Z" fill="black" />
  <path d="M56 49H57V50H56V49Z" fill="black" />
  <path d="M60 5H61V6H60V5Z" fill="black" />
  <path d="M60 21H61V22H60V21Z" fill="black" />
  <path d="M60 37H61V38H60V37Z" fill="black" />
  <path d="M60 53H61V54H60V53Z" fill="black" />
  <path
    fill-rule="evenodd"
    clip-rule="evenodd"
    d="M20 16H13V17H14V18H13V19H20V18H19V17H20V16ZM18 18H15V17H18V18Z"
    fill="black"
  />
  <path
    fill-rule="evenodd"
    clip-rule="evenodd"
    d="M20 32H13V33H14V34H13V35H20V34H19V33H20V32ZM18 34H15V33H18V34Z"
    fill="black"
  />
  <path
    fill-rule="evenodd"
    clip-rule="evenodd"
    d="M20 48H13V49H14V50H13V51H20V50H19V49H20V48ZM18 50H15V49H18V50Z"
    fill="black"
  />
  <path
    fill-rule="evenodd"
    clip-rule="evenodd"
    d="M36 16H29V17H30V18H29V19H36V18H35V17H36V16ZM34 18H31V17H34V18Z"
    fill="black"
  />
  <path
    fill-rule="evenodd"
    clip-rule="evenodd"
    d="M36 32H29V33H30V34H29V35H36V34H35V33H36V32ZM34 34H31V33H34V34Z"
    fill="black"
  />
  <path
    fill-rule="evenodd"
    clip-rule="evenodd"
    d="M36 48H29V49H30V50H29V51H36V50H35V49H36V48ZM34 50H31V49H34V50Z"
    fill="black"
  />
  <path
    fill-rule="evenodd"
    clip-rule="evenodd"
    d="M52 16H45V17H46V18H45V19H52V18H51V17H52V16ZM50 18H47V17H50V18Z"
    fill="black"
  />
  <path
    fill-rule="evenodd"
    clip-rule="evenodd"
    d="M52 32H45V33H46V34H45V35H52V34H51V33H52V32ZM50 34H47V33H50V34Z"
    fill="black"
  />
  <path
    fill-rule="evenodd"
    clip-rule="evenodd"
    d="M52 48H45V49H46V50H45V51H52V50H51V49H52V48ZM50 50H47V49H50V50Z"
    fill="black"
  />
  <path
    fill-rule="evenodd"
    clip-rule="evenodd"
    d="M37 8H44V9H43V10H44V11H37V10H38V9H37V8ZM39 10H42V9H39V10Z"
    fill="black"
  />
  <path
    fill-rule="evenodd"
    clip-rule="evenodd"
    d="M37 24H44V25H43V26H44V27H37V26H38V25H37V24ZM39 26H42V25H39V26Z"
    fill="black"
  />
  <path
    fill-rule="evenodd"
    clip-rule="evenodd"
    d="M37 40H44V41H43V42H44V43H37V42H38V41H37V40ZM39 42H42V41H39V42Z"
    fill="black"
  />
  <path
    fill-rule="evenodd"
    clip-rule="evenodd"
    d="M37 56H44V57H43V58H44V59H37V58H38V57H37V56ZM39 58H42V57H39V58Z"
    fill="black"
  />
  <path
    fill-rule="evenodd"
    clip-rule="evenodd"
    d="M21 8H28V9H27V10H28V11H21V10H22V9H21V8ZM23 10H26V9H23V10Z"
    fill="black"
  />
  <path
    fill-rule="evenodd"
    clip-rule="evenodd"
    d="M21 24H28V25H27V26H28V27H21V26H22V25H21V24ZM23 26H26V25H23V26Z"
    fill="black"
  />
  <path
    fill-rule="evenodd"
    clip-rule="evenodd"
    d="M21 40H28V41H27V42H28V43H21V42H22V41H21V40ZM23 42H26V41H23V42Z"
    fill="black"
  />
  <path
    fill-rule="evenodd"
    clip-rule="evenodd"
    d="M21 56H28V57H27V58H28V59H21V58H22V57H21V56ZM23 58H26V57H23V58Z"
    fill="black"
  />
  <path
    fill-rule="evenodd"
    clip-rule="evenodd"
    d="M5 8H12V9H11V10H12V11H5V10H6V9H5V8ZM7 10H10V9H7V10Z"
    fill="black"
  />
  <path
    fill-rule="evenodd"
    clip-rule="evenodd"
    d="M5 24H12V25H11V26H12V27H5V26H6V25H5V24ZM7 26H10V25H7V26Z"
    fill="black"
  />
  <path
    fill-rule="evenodd"
    clip-rule="evenodd"
    d="M5 40H12V41H11V42H12V43H5V42H6V41H5V40ZM7 42H10V41H7V42Z"
    fill="black"
  />
  <path
    fill-rule="evenodd"
    clip-rule="evenodd"
    d="M5 56H12V57H11V58H12V59H5V58H6V57H5V56ZM7 58H10V57H7V58Z"
    fill="black"
  />
  <path
    fill-rule="evenodd"
    clip-rule="evenodd"
    d="M53 8H60V9H59V10H60V11H53V10H54V9H53V8ZM55 10H58V9H55V10Z"
    fill="black"
  />
  <path
    fill-rule="evenodd"
    clip-rule="evenodd"
    d="M53 24H60V25H59V26H60V27H53V26H54V25H53V24ZM55 26H58V25H55V26Z"
    fill="black"
  />
  <path
    fill-rule="evenodd"
    clip-rule="evenodd"
    d="M53 40H60V41H59V42H60V43H53V42H54V41H53V40ZM55 42H58V41H55V42Z"
    fill="black"
  />
  <path
    fill-rule="evenodd"
    clip-rule="evenodd"
    d="M53 56H60V57H59V58H60V59H53V58H54V57H53V56ZM55 58H58V57H55V58Z"
    fill="black"
  />
</svg>
