<svg width="64" height="64" viewBox="0 0 64 64" fill="none" xmlns="http://www.w3.org/2000/svg">
  <rect width="64" height="64" fill="#FFF78F" />
  <path
    d="M0 3H0.5C0.776142 3 1 2.77614 1 2.5C1 2.22386 0.776142 2 0.5 2C0.324682 2 0.156389 1.96992 0 1.91465V0.5C0 0.776142 0.223858 1 0.5 1C1.32843 1 2 1.67157 2 2.5C2 3.32843 1.32843 4 0.5 4H0V3Z"
    fill="black"
  />
  <path d="M0 9V10H1V9H0Z" fill="black" />
  <path
    d="M0 19H0.5C0.776142 19 1 18.7761 1 18.5C1 18.2239 0.776142 18 0.5 18C0.324682 18 0.156389 17.9699 0 17.9146V16.5C0 16.7761 0.223858 17 0.5 17C1.32843 17 2 17.6716 2 18.5C2 19.3284 1.32843 20 0.5 20H0V19Z"
    fill="black"
  />
  <path d="M0 25V26H1V25H0Z" fill="black" />
  <path
    d="M0 35H0.5C0.776142 35 1 34.7761 1 34.5C1 34.2239 0.776142 34 0.5 34C0.324682 34 0.156389 33.9699 0 33.9146V32.5C0 32.7761 0.223858 33 0.5 33C1.32843 33 2 33.6716 2 34.5C2 35.3284 1.32843 36 0.5 36H0V35Z"
    fill="black"
  />
  <path d="M0 41V42H1V41H0Z" fill="black" />
  <path
    d="M0 51H0.5C0.776142 51 1 50.7761 1 50.5C1 50.2239 0.776142 50 0.5 50C0.324682 50 0.156389 49.9699 0 49.9146V48.5C0 48.7761 0.223858 49 0.5 49C1.32843 49 2 49.6716 2 50.5C2 51.3284 1.32843 52 0.5 52H0V51Z"
    fill="black"
  />
  <path d="M0 57V58H1V57H0Z" fill="black" />
  <path d="M0 63.0854C0.156389 63.0301 0.324682 63 0.5 63H1.5V64H0V63.0854Z" fill="black" />
  <path d="M15.0854 64C15.2913 63.4174 15.8469 63 16.5 63H17.5V64H15.0854Z" fill="black" />
  <path d="M31.0854 64C31.2913 63.4174 31.8469 63 32.5 63H33.5V64H31.0854Z" fill="black" />
  <path d="M47.0854 64C47.2913 63.4174 47.8469 63 48.5 63H49.5V64H47.0854Z" fill="black" />
  <path d="M64 63.0854V64H63.0854C63.236 63.5738 63.5738 63.236 64 63.0854Z" fill="black" />
  <path
    d="M64 47.0854V49.9146C63.4174 49.7087 63 49.1531 63 48.5C63 47.8469 63.4174 47.2913 64 47.0854Z"
    fill="black"
  />
  <path
    d="M64 31.0854V33.9146C63.4174 33.7087 63 33.1531 63 32.5C63 31.8469 63.4174 31.2913 64 31.0854Z"
    fill="black"
  />
  <path
    d="M64 15.0854V17.9146C63.4174 17.7087 63 17.1531 63 16.5C63 15.8469 63.4174 15.2913 64 15.0854Z"
    fill="black"
  />
  <path
    d="M63.0854 0H64V1.91465C63.4174 1.70873 63 1.15311 63 0.5C63 0.324682 63.0301 0.156389 63.0854 0Z"
    fill="black"
  />
  <path
    d="M16.5 0H15.0854C15.0301 0.156389 15 0.324682 15 0.5C15 1.32843 15.6716 2 16.5 2C16.7761 2 17 2.22386 17 2.5C17 2.77614 16.7761 3 16.5 3H15V4H16.5C17.3284 4 18 3.32843 18 2.5C18 1.67157 17.3284 1 16.5 1C16.2239 1 16 0.776142 16 0.5C16 0.223858 16.2239 0 16.5 0Z"
    fill="black"
  />
  <path
    d="M31.0854 0H32.5C32.2239 0 32 0.223858 32 0.5C32 0.776142 32.2239 1 32.5 1C33.3284 1 34 1.67157 34 2.5C34 3.32843 33.3284 4 32.5 4H31V3H32.5C32.7761 3 33 2.77614 33 2.5C33 2.22386 32.7761 2 32.5 2C31.6716 2 31 1.32843 31 0.5C31 0.324682 31.0301 0.156389 31.0854 0Z"
    fill="black"
  />
  <path
    d="M47.0854 0H48.5C48.2239 0 48 0.223858 48 0.5C48 0.776142 48.2239 1 48.5 1C49.3284 1 50 1.67157 50 2.5C50 3.32843 49.3284 4 48.5 4H47V3H48.5C48.7761 3 49 2.77614 49 2.5C49 2.22386 48.7761 2 48.5 2C47.6716 2 47 1.32843 47 0.5C47 0.324682 47.0301 0.156389 47.0854 0Z"
    fill="black"
  />
  <path d="M64 3V4H63V3H64Z" fill="black" />
  <path d="M64 19V20H63V19H64Z" fill="black" />
  <path d="M64 35V36H63V35H64Z" fill="black" />
  <path d="M64 51V52H63V51H64Z" fill="black" />
  <path
    d="M0 47.0854C0.156389 47.0301 0.324682 47 0.5 47H1.5V48H0.5C0.223858 48 0 48.2239 0 48.5V47.0854Z"
    fill="black"
  />
  <path
    d="M0 31.0854C0.156389 31.0301 0.324682 31 0.5 31H1.5V32H0.5C0.223858 32 0 32.2239 0 32.5V31.0854Z"
    fill="black"
  />
  <path
    d="M0 15.0854C0.156389 15.0301 0.324682 15 0.5 15H1.5V16H0.5C0.223858 16 0 16.2239 0 16.5V15.0854Z"
    fill="black"
  />
  <path d="M0.5 0C0.223858 0 0 0.223858 0 0.5V0H0.5Z" fill="black" />
  <path d="M25 1H24V2H25V1Z" fill="black" />
  <path d="M5 13H4V14H5V13Z" fill="black" />
  <path d="M12 13H13V14H12V13Z" fill="black" />
  <path d="M13 29H12V30H13V29Z" fill="black" />
  <path d="M12 45H13V46H12V45Z" fill="black" />
  <path d="M13 61H12V62H13V61Z" fill="black" />
  <path d="M28 13H29V14H28V13Z" fill="black" />
  <path d="M29 29H28V30H29V29Z" fill="black" />
  <path d="M28 45H29V46H28V45Z" fill="black" />
  <path d="M29 61H28V62H29V61Z" fill="black" />
  <path d="M44 13H45V14H44V13Z" fill="black" />
  <path d="M45 29H44V30H45V29Z" fill="black" />
  <path d="M44 45H45V46H44V45Z" fill="black" />
  <path d="M45 61H44V62H45V61Z" fill="black" />
  <path d="M60 13H61V14H60V13Z" fill="black" />
  <path d="M61 29H60V30H61V29Z" fill="black" />
  <path d="M60 45H61V46H60V45Z" fill="black" />
  <path d="M61 61H60V62H61V61Z" fill="black" />
  <path d="M4 29H5V30H4V29Z" fill="black" />
  <path d="M5 45H4V46H5V45Z" fill="black" />
  <path d="M4 61H5V62H4V61Z" fill="black" />
  <path d="M25 17V18H24V17H25Z" fill="black" />
  <path d="M24 33V34H25V33H24Z" fill="black" />
  <path d="M25 49V50H24V49H25Z" fill="black" />
  <path d="M29 5H28V6H29V5Z" fill="black" />
  <path d="M28 21H29V22H28V21Z" fill="black" />
  <path d="M29 37H28V38H29V37Z" fill="black" />
  <path d="M28 53H29V54H28V53Z" fill="black" />
  <path d="M9 1H8V2H9V1Z" fill="black" />
  <path d="M8 17H9V18H8V17Z" fill="black" />
  <path d="M9 33H8V34H9V33Z" fill="black" />
  <path d="M8 49H9V50H8V49Z" fill="black" />
  <path d="M13 5H12V6H13V5Z" fill="black" />
  <path d="M4 5H5V6H4V5Z" fill="black" />
  <path d="M5 21H4V22H5V21Z" fill="black" />
  <path d="M4 37H5V38H4V37Z" fill="black" />
  <path d="M5 53H4V54H5V53Z" fill="black" />
  <path d="M20 5H21V6H20V5Z" fill="black" />
  <path d="M21 21H20V22H21V21Z" fill="black" />
  <path d="M20 37H21V38H20V37Z" fill="black" />
  <path d="M21 53H20V54H21V53Z" fill="black" />
  <path d="M36 5H37V6H36V5Z" fill="black" />
  <path d="M37 21H36V22H37V21Z" fill="black" />
  <path d="M36 37H37V38H36V37Z" fill="black" />
  <path d="M37 53H36V54H37V53Z" fill="black" />
  <path d="M52 5H53V6H52V5Z" fill="black" />
  <path d="M53 21H52V22H53V21Z" fill="black" />
  <path d="M52 37H53V38H52V37Z" fill="black" />
  <path d="M53 53H52V54H53V53Z" fill="black" />
  <path d="M12 21H13V22H12V21Z" fill="black" />
  <path d="M13 37H12V38H13V37Z" fill="black" />
  <path d="M12 53H13V54H12V53Z" fill="black" />
  <path d="M32 9V10H33V9H32Z" fill="black" />
  <path d="M33 25V26H32V25H33Z" fill="black" />
  <path d="M32 41V42H33V41H32Z" fill="black" />
  <path d="M33 57V58H32V57H33Z" fill="black" />
  <path d="M37 13H36V14H37V13Z" fill="black" />
  <path d="M36 29H37V30H36V29Z" fill="black" />
  <path d="M37 45H36V46H37V45Z" fill="black" />
  <path d="M36 61H37V62H36V61Z" fill="black" />
  <path d="M48 9V10H49V9H48Z" fill="black" />
  <path d="M49 25V26H48V25H49Z" fill="black" />
  <path d="M48 41V42H49V41H48Z" fill="black" />
  <path d="M49 57V58H48V57H49Z" fill="black" />
  <path d="M53 13H52V14H53V13Z" fill="black" />
  <path d="M52 29H53V30H52V29Z" fill="black" />
  <path d="M53 45H52V46H53V45Z" fill="black" />
  <path d="M52 61H53V62H52V61Z" fill="black" />
  <path d="M17 10V9H16V10H17Z" fill="black" />
  <path d="M16 26V25H17V26H16Z" fill="black" />
  <path d="M17 42V41H16V42H17Z" fill="black" />
  <path d="M16 58V57H17V58H16Z" fill="black" />
  <path d="M21 13H20V14H21V13Z" fill="black" />
  <path d="M20 29H21V30H20V29Z" fill="black" />
  <path d="M21 45H20V46H21V45Z" fill="black" />
  <path d="M20 61H21V62H20V61Z" fill="black" />
  <path d="M41 1H40V2H41V1Z" fill="black" />
  <path d="M41 17V18H40V17H41Z" fill="black" />
  <path d="M40 33V34H41V33H40Z" fill="black" />
  <path d="M41 49V50H40V49H41Z" fill="black" />
  <path d="M45 5H44V6H45V5Z" fill="black" />
  <path d="M44 21H45V22H44V21Z" fill="black" />
  <path d="M45 37H44V38H45V37Z" fill="black" />
  <path d="M44 53H45V54H44V53Z" fill="black" />
  <path d="M57 1H56V2H57V1Z" fill="black" />
  <path d="M57 17V18H56V17H57Z" fill="black" />
  <path d="M56 33V34H57V33H56Z" fill="black" />
  <path d="M57 49V50H56V49H57Z" fill="black" />
  <path d="M61 5H60V6H61V5Z" fill="black" />
  <path d="M60 21H61V22H60V21Z" fill="black" />
  <path d="M61 37H60V38H61V37Z" fill="black" />
  <path d="M60 53H61V54H60V53Z" fill="black" />
  <path
    d="M17.5 15V16H16.5C16.2239 16 16 16.2239 16 16.5C16 16.7761 16.2239 17 16.5 17C17.3284 17 18 17.6716 18 18.5C18 19.3284 17.3284 20 16.5 20H15V19H16.5C16.7761 19 17 18.7761 17 18.5C17 18.2239 16.7761 18 16.5 18C15.6716 18 15 17.3284 15 16.5C15 15.6716 15.6716 15 16.5 15H17.5Z"
    fill="black"
  />
  <path
    d="M17.5 32V31H16.5C15.6716 31 15 31.6716 15 32.5C15 33.3284 15.6716 34 16.5 34C16.7761 34 17 34.2239 17 34.5C17 34.7761 16.7761 35 16.5 35H15V36H16.5C17.3284 36 18 35.3284 18 34.5C18 33.6716 17.3284 33 16.5 33C16.2239 33 16 32.7761 16 32.5C16 32.2239 16.2239 32 16.5 32H17.5Z"
    fill="black"
  />
  <path
    d="M17.5 47V48H16.5C16.2239 48 16 48.2239 16 48.5C16 48.7761 16.2239 49 16.5 49C17.3284 49 18 49.6716 18 50.5C18 51.3284 17.3284 52 16.5 52H15V51H16.5C16.7761 51 17 50.7761 17 50.5C17 50.2239 16.7761 50 16.5 50C15.6716 50 15 49.3284 15 48.5C15 47.6716 15.6716 47 16.5 47H17.5Z"
    fill="black"
  />
  <path
    d="M33.5 16V15H32.5C31.6716 15 31 15.6716 31 16.5C31 17.3284 31.6716 18 32.5 18C32.7761 18 33 18.2239 33 18.5C33 18.7761 32.7761 19 32.5 19H31V20H32.5C33.3284 20 34 19.3284 34 18.5C34 17.6716 33.3284 17 32.5 17C32.2239 17 32 16.7761 32 16.5C32 16.2239 32.2239 16 32.5 16H33.5Z"
    fill="black"
  />
  <path
    d="M33.5 31V32H32.5C32.2239 32 32 32.2239 32 32.5C32 32.7761 32.2239 33 32.5 33C33.3284 33 34 33.6716 34 34.5C34 35.3284 33.3284 36 32.5 36H31V35H32.5C32.7761 35 33 34.7761 33 34.5C33 34.2239 32.7761 34 32.5 34C31.6716 34 31 33.3284 31 32.5C31 31.6716 31.6716 31 32.5 31H33.5Z"
    fill="black"
  />
  <path
    d="M33.5 48V47H32.5C31.6716 47 31 47.6716 31 48.5C31 49.3284 31.6716 50 32.5 50C32.7761 50 33 50.2239 33 50.5C33 50.7761 32.7761 51 32.5 51H31V52H32.5C33.3284 52 34 51.3284 34 50.5C34 49.6716 33.3284 49 32.5 49C32.2239 49 32 48.7761 32 48.5C32 48.2239 32.2239 48 32.5 48H33.5Z"
    fill="black"
  />
  <path
    d="M49.5 16V15H48.5C47.6716 15 47 15.6716 47 16.5C47 17.3284 47.6716 18 48.5 18C48.7761 18 49 18.2239 49 18.5C49 18.7761 48.7761 19 48.5 19H47V20H48.5C49.3284 20 50 19.3284 50 18.5C50 17.6716 49.3284 17 48.5 17C48.2239 17 48 16.7761 48 16.5C48 16.2239 48.2239 16 48.5 16H49.5Z"
    fill="black"
  />
  <path
    d="M49.5 31V32H48.5C48.2239 32 48 32.2239 48 32.5C48 32.7761 48.2239 33 48.5 33C49.3284 33 50 33.6716 50 34.5C50 35.3284 49.3284 36 48.5 36H47V35H48.5C48.7761 35 49 34.7761 49 34.5C49 34.2239 48.7761 34 48.5 34C47.6716 34 47 33.3284 47 32.5C47 31.6716 47.6716 31 48.5 31H49.5Z"
    fill="black"
  />
  <path
    d="M49.5 48V47H48.5C47.6716 47 47 47.6716 47 48.5C47 49.3284 47.6716 50 48.5 50C48.7761 50 49 50.2239 49 50.5C49 50.7761 48.7761 51 48.5 51H47V52H48.5C49.3284 52 50 51.3284 50 50.5C50 49.6716 49.3284 49 48.5 49C48.2239 49 48 48.7761 48 48.5C48 48.2239 48.2239 48 48.5 48H49.5Z"
    fill="black"
  />
  <path
    d="M40.5 7H41.5V8H40.5C40.2239 8 40 8.22386 40 8.5C40 8.77614 40.2239 9 40.5 9C41.3284 9 42 9.67157 42 10.5C42 11.3284 41.3284 12 40.5 12H39V11H40.5C40.7761 11 41 10.7761 41 10.5C41 10.2239 40.7761 10 40.5 10C39.6716 10 39 9.32843 39 8.5C39 7.67157 39.6716 7 40.5 7Z"
    fill="black"
  />
  <path
    d="M41.5 23H40.5C39.6716 23 39 23.6716 39 24.5C39 25.3284 39.6716 26 40.5 26C40.7761 26 41 26.2239 41 26.5C41 26.7761 40.7761 27 40.5 27H39V28H40.5C41.3284 28 42 27.3284 42 26.5C42 25.6716 41.3284 25 40.5 25C40.2239 25 40 24.7761 40 24.5C40 24.2239 40.2239 24 40.5 24H41.5V23Z"
    fill="black"
  />
  <path
    d="M40.5 39H41.5V40H40.5C40.2239 40 40 40.2239 40 40.5C40 40.7761 40.2239 41 40.5 41C41.3284 41 42 41.6716 42 42.5C42 43.3284 41.3284 44 40.5 44H39V43H40.5C40.7761 43 41 42.7761 41 42.5C41 42.2239 40.7761 42 40.5 42C39.6716 42 39 41.3284 39 40.5C39 39.6716 39.6716 39 40.5 39Z"
    fill="black"
  />
  <path
    d="M41.5 55H40.5C39.6716 55 39 55.6716 39 56.5C39 57.3284 39.6716 58 40.5 58C40.7761 58 41 58.2239 41 58.5C41 58.7761 40.7761 59 40.5 59H39V60H40.5C41.3284 60 42 59.3284 42 58.5C42 57.6716 41.3284 57 40.5 57C40.2239 57 40 56.7761 40 56.5C40 56.2239 40.2239 56 40.5 56H41.5V55Z"
    fill="black"
  />
  <path
    d="M24.5 7H25.5V8H24.5C24.2239 8 24 8.22386 24 8.5C24 8.77614 24.2239 9 24.5 9C25.3284 9 26 9.67157 26 10.5C26 11.3284 25.3284 12 24.5 12H23V11H24.5C24.7761 11 25 10.7761 25 10.5C25 10.2239 24.7761 10 24.5 10C23.6716 10 23 9.32843 23 8.5C23 7.67157 23.6716 7 24.5 7Z"
    fill="black"
  />
  <path
    d="M25.5 23H24.5C23.6716 23 23 23.6716 23 24.5C23 25.3284 23.6716 26 24.5 26C24.7761 26 25 26.2239 25 26.5C25 26.7761 24.7761 27 24.5 27H23V28H24.5C25.3284 28 26 27.3284 26 26.5C26 25.6716 25.3284 25 24.5 25C24.2239 25 24 24.7761 24 24.5C24 24.2239 24.2239 24 24.5 24H25.5V23Z"
    fill="black"
  />
  <path
    d="M24.5 39H25.5V40H24.5C24.2239 40 24 40.2239 24 40.5C24 40.7761 24.2239 41 24.5 41C25.3284 41 26 41.6716 26 42.5C26 43.3284 25.3284 44 24.5 44H23V43H24.5C24.7761 43 25 42.7761 25 42.5C25 42.2239 24.7761 42 24.5 42C23.6716 42 23 41.3284 23 40.5C23 39.6716 23.6716 39 24.5 39Z"
    fill="black"
  />
  <path
    d="M25.5 55H24.5C23.6716 55 23 55.6716 23 56.5C23 57.3284 23.6716 58 24.5 58C24.7761 58 25 58.2239 25 58.5C25 58.7761 24.7761 59 24.5 59H23V60H24.5C25.3284 60 26 59.3284 26 58.5C26 57.6716 25.3284 57 24.5 57C24.2239 57 24 56.7761 24 56.5C24 56.2239 24.2239 56 24.5 56H25.5V55Z"
    fill="black"
  />
  <path
    d="M8.5 7H9.5V8H8.5C8.22386 8 8 8.22386 8 8.5C8 8.77614 8.22386 9 8.5 9C9.32843 9 10 9.67157 10 10.5C10 11.3284 9.32843 12 8.5 12H7V11H8.5C8.77614 11 9 10.7761 9 10.5C9 10.2239 8.77614 10 8.5 10C7.67157 10 7 9.32843 7 8.5C7 7.67157 7.67157 7 8.5 7Z"
    fill="black"
  />
  <path
    d="M9.5 23H8.5C7.67157 23 7 23.6716 7 24.5C7 25.3284 7.67157 26 8.5 26C8.77614 26 9 26.2239 9 26.5C9 26.7761 8.77614 27 8.5 27H7V28H8.5C9.32843 28 10 27.3284 10 26.5C10 25.6716 9.32843 25 8.5 25C8.22386 25 8 24.7761 8 24.5C8 24.2239 8.22386 24 8.5 24H9.5V23Z"
    fill="black"
  />
  <path
    d="M8.5 39H9.5V40H8.5C8.22386 40 8 40.2239 8 40.5C8 40.7761 8.22386 41 8.5 41C9.32843 41 10 41.6716 10 42.5C10 43.3284 9.32843 44 8.5 44H7V43H8.5C8.77614 43 9 42.7761 9 42.5C9 42.2239 8.77614 42 8.5 42C7.67157 42 7 41.3284 7 40.5C7 39.6716 7.67157 39 8.5 39Z"
    fill="black"
  />
  <path
    d="M9.5 55H8.5C7.67157 55 7 55.6716 7 56.5C7 57.3284 7.67157 58 8.5 58C8.77614 58 9 58.2239 9 58.5C9 58.7761 8.77614 59 8.5 59H7V60H8.5C9.32843 60 10 59.3284 10 58.5C10 57.6716 9.32843 57 8.5 57C8.22386 57 8 56.7761 8 56.5C8 56.2239 8.22386 56 8.5 56H9.5V55Z"
    fill="black"
  />
  <path
    d="M57.5 7V8H56.5C56.2239 8 56 8.22386 56 8.5C56 8.77614 56.2239 9 56.5 9C57.3284 9 58 9.67157 58 10.5C58 11.3284 57.3284 12 56.5 12H55V11H56.5C56.7761 11 57 10.7761 57 10.5C57 10.2239 56.7761 10 56.5 10C55.6716 10 55 9.32843 55 8.5C55 7.67157 55.6716 7 56.5 7H57.5Z"
    fill="black"
  />
  <path
    d="M57.5 24V23H56.5C55.6716 23 55 23.6716 55 24.5C55 25.3284 55.6716 26 56.5 26C56.7761 26 57 26.2239 57 26.5C57 26.7761 56.7761 27 56.5 27H55V28H56.5C57.3284 28 58 27.3284 58 26.5C58 25.6716 57.3284 25 56.5 25C56.2239 25 56 24.7761 56 24.5C56 24.2239 56.2239 24 56.5 24H57.5Z"
    fill="black"
  />
  <path
    d="M57.5 39V40H56.5C56.2239 40 56 40.2239 56 40.5C56 40.7761 56.2239 41 56.5 41C57.3284 41 58 41.6716 58 42.5C58 43.3284 57.3284 44 56.5 44H55V43H56.5C56.7761 43 57 42.7761 57 42.5C57 42.2239 56.7761 42 56.5 42C55.6716 42 55 41.3284 55 40.5C55 39.6716 55.6716 39 56.5 39H57.5Z"
    fill="black"
  />
  <path
    d="M57.5 56V55H56.5C55.6716 55 55 55.6716 55 56.5C55 57.3284 55.6716 58 56.5 58C56.7761 58 57 58.2239 57 58.5C57 58.7761 56.7761 59 56.5 59H55V60H56.5C57.3284 60 58 59.3284 58 58.5C58 57.6716 57.3284 57 56.5 57C56.2239 57 56 56.7761 56 56.5C56 56.2239 56.2239 56 56.5 56H57.5Z"
    fill="black"
  />
</svg>
