<svg width="64" height="64" viewBox="0 0 64 64" fill="none" xmlns="http://www.w3.org/2000/svg">
  <rect width="64" height="64" fill="#FFF78F" />
  <path d="M18.5 0H17.382L16.5 1.76393L15.618 0H14.5L16.5 4L18.5 0Z" fill="black" />
  <path d="M0 9V10H1V9H0Z" fill="black" />
  <path d="M0 19L0.5 20L3 15H0V16H1.38197L0.5 17.7639L0 16.7639V19Z" fill="black" />
  <path d="M0 25V26H1V25H0Z" fill="black" />
  <path d="M0 35L0.5 36L3 31H0V32H1.38197L0.5 33.7639L0 32.7639V35Z" fill="black" />
  <path d="M0 41V42H1V41H0Z" fill="black" />
  <path d="M0 51L0.5 52L3 47H0V48H1.38197L0.5 49.7639L0 48.7639V51Z" fill="black" />
  <path d="M0 57V58H1V57H0Z" fill="black" />
  <path d="M2.5 64L3 63H0V64H2.5Z" fill="black" />
  <path d="M18.5 64L19 63H14L14.5 64H18.5Z" fill="black" />
  <path d="M34.5 64L35 63H30L30.5 64H34.5Z" fill="black" />
  <path d="M50.5 64L51 63H46L46.5 64H50.5Z" fill="black" />
  <path d="M64 63H62L62.5 64H64V63Z" fill="black" />
  <path d="M64 47H62L64 51V48.7639L63.618 48H64V47Z" fill="black" />
  <path d="M64 31H62L64 35V32.7639L63.618 32H64V31Z" fill="black" />
  <path d="M64 15H62L64 19V16.7639L63.618 16H64V15Z" fill="black" />
  <path d="M62.5 0L64 3V0.763932L63.618 0H62.5Z" fill="black" />
  <path d="M46.5 0L48.5 4L50.5 0H49.382L48.5 1.76393L47.618 0H46.5Z" fill="black" />
  <path d="M30.5 0L32.5 4L34.5 0H33.382L32.5 1.76393L31.618 0H30.5Z" fill="black" />
  <path d="M0 3V0.763932L0.5 1.76393L1.38197 0H2.5L0.5 4L0 3Z" fill="black" />
  <path d="M25 1H24V2H25V1Z" fill="black" />
  <path d="M5 13H4V14H5V13Z" fill="black" />
  <path d="M12 13H13V14H12V13Z" fill="black" />
  <path d="M13 29H12V30H13V29Z" fill="black" />
  <path d="M12 45H13V46H12V45Z" fill="black" />
  <path d="M13 61H12V62H13V61Z" fill="black" />
  <path d="M28 13H29V14H28V13Z" fill="black" />
  <path d="M29 29H28V30H29V29Z" fill="black" />
  <path d="M28 45H29V46H28V45Z" fill="black" />
  <path d="M29 61H28V62H29V61Z" fill="black" />
  <path d="M44 13H45V14H44V13Z" fill="black" />
  <path d="M45 29H44V30H45V29Z" fill="black" />
  <path d="M44 45H45V46H44V45Z" fill="black" />
  <path d="M45 61H44V62H45V61Z" fill="black" />
  <path d="M60 13H61V14H60V13Z" fill="black" />
  <path d="M61 29H60V30H61V29Z" fill="black" />
  <path d="M60 45H61V46H60V45Z" fill="black" />
  <path d="M61 61H60V62H61V61Z" fill="black" />
  <path d="M4 29H5V30H4V29Z" fill="black" />
  <path d="M5 45H4V46H5V45Z" fill="black" />
  <path d="M4 61H5V62H4V61Z" fill="black" />
  <path d="M25 17V18H24V17H25Z" fill="black" />
  <path d="M24 33V34H25V33H24Z" fill="black" />
  <path d="M25 49V50H24V49H25Z" fill="black" />
  <path d="M29 5H28V6H29V5Z" fill="black" />
  <path d="M28 21H29V22H28V21Z" fill="black" />
  <path d="M29 37H28V38H29V37Z" fill="black" />
  <path d="M28 53H29V54H28V53Z" fill="black" />
  <path d="M9 1H8V2H9V1Z" fill="black" />
  <path d="M8 17H9V18H8V17Z" fill="black" />
  <path d="M9 33H8V34H9V33Z" fill="black" />
  <path d="M8 49H9V50H8V49Z" fill="black" />
  <path d="M13 5H12V6H13V5Z" fill="black" />
  <path d="M4 5H5V6H4V5Z" fill="black" />
  <path d="M5 21H4V22H5V21Z" fill="black" />
  <path d="M4 37H5V38H4V37Z" fill="black" />
  <path d="M5 53H4V54H5V53Z" fill="black" />
  <path d="M20 5H21V6H20V5Z" fill="black" />
  <path d="M21 21H20V22H21V21Z" fill="black" />
  <path d="M20 37H21V38H20V37Z" fill="black" />
  <path d="M21 53H20V54H21V53Z" fill="black" />
  <path d="M36 5H37V6H36V5Z" fill="black" />
  <path d="M37 21H36V22H37V21Z" fill="black" />
  <path d="M36 37H37V38H36V37Z" fill="black" />
  <path d="M37 53H36V54H37V53Z" fill="black" />
  <path d="M52 5H53V6H52V5Z" fill="black" />
  <path d="M53 21H52V22H53V21Z" fill="black" />
  <path d="M52 37H53V38H52V37Z" fill="black" />
  <path d="M53 53H52V54H53V53Z" fill="black" />
  <path d="M12 21H13V22H12V21Z" fill="black" />
  <path d="M13 37H12V38H13V37Z" fill="black" />
  <path d="M12 53H13V54H12V53Z" fill="black" />
  <path d="M32 9V10H33V9H32Z" fill="black" />
  <path d="M33 25V26H32V25H33Z" fill="black" />
  <path d="M32 41V42H33V41H32Z" fill="black" />
  <path d="M33 57V58H32V57H33Z" fill="black" />
  <path d="M37 13H36V14H37V13Z" fill="black" />
  <path d="M36 29H37V30H36V29Z" fill="black" />
  <path d="M37 45H36V46H37V45Z" fill="black" />
  <path d="M36 61H37V62H36V61Z" fill="black" />
  <path d="M48 9V10H49V9H48Z" fill="black" />
  <path d="M49 25V26H48V25H49Z" fill="black" />
  <path d="M48 41V42H49V41H48Z" fill="black" />
  <path d="M49 57V58H48V57H49Z" fill="black" />
  <path d="M53 13H52V14H53V13Z" fill="black" />
  <path d="M52 29H53V30H52V29Z" fill="black" />
  <path d="M53 45H52V46H53V45Z" fill="black" />
  <path d="M52 61H53V62H52V61Z" fill="black" />
  <path d="M17 10V9H16V10H17Z" fill="black" />
  <path d="M16 26V25H17V26H16Z" fill="black" />
  <path d="M17 42V41H16V42H17Z" fill="black" />
  <path d="M16 58V57H17V58H16Z" fill="black" />
  <path d="M21 13H20V14H21V13Z" fill="black" />
  <path d="M20 29H21V30H20V29Z" fill="black" />
  <path d="M21 45H20V46H21V45Z" fill="black" />
  <path d="M20 61H21V62H20V61Z" fill="black" />
  <path d="M41 1H40V2H41V1Z" fill="black" />
  <path d="M41 17V18H40V17H41Z" fill="black" />
  <path d="M40 33V34H41V33H40Z" fill="black" />
  <path d="M41 49V50H40V49H41Z" fill="black" />
  <path d="M45 5H44V6H45V5Z" fill="black" />
  <path d="M44 21H45V22H44V21Z" fill="black" />
  <path d="M45 37H44V38H45V37Z" fill="black" />
  <path d="M44 53H45V54H44V53Z" fill="black" />
  <path d="M57 1H56V2H57V1Z" fill="black" />
  <path d="M57 17V18H56V17H57Z" fill="black" />
  <path d="M56 33V34H57V33H56Z" fill="black" />
  <path d="M57 49V50H56V49H57Z" fill="black" />
  <path d="M61 5H60V6H61V5Z" fill="black" />
  <path d="M60 21H61V22H60V21Z" fill="black" />
  <path d="M61 37H60V38H61V37Z" fill="black" />
  <path d="M60 53H61V54H60V53Z" fill="black" />
  <path
    fill-rule="evenodd"
    clip-rule="evenodd"
    d="M14 15L16.5 20L19 15H14ZM15.618 16L16.5 17.7639L17.382 16H15.618Z"
    fill="black"
  />
  <path
    fill-rule="evenodd"
    clip-rule="evenodd"
    d="M16.5 36L14 31H19L16.5 36ZM16.5 33.7639L15.618 32H17.382L16.5 33.7639Z"
    fill="black"
  />
  <path
    fill-rule="evenodd"
    clip-rule="evenodd"
    d="M14 47L16.5 52L19 47H14ZM15.618 48L16.5 49.7639L17.382 48H15.618Z"
    fill="black"
  />
  <path
    fill-rule="evenodd"
    clip-rule="evenodd"
    d="M32.5 20L30 15H35L32.5 20ZM32.5 17.7639L31.618 16H33.382L32.5 17.7639Z"
    fill="black"
  />
  <path
    fill-rule="evenodd"
    clip-rule="evenodd"
    d="M30 31L32.5 36L35 31H30ZM31.618 32L32.5 33.7639L33.382 32H31.618Z"
    fill="black"
  />
  <path
    fill-rule="evenodd"
    clip-rule="evenodd"
    d="M32.5 52L30 47H35L32.5 52ZM32.5 49.7639L31.618 48H33.382L32.5 49.7639Z"
    fill="black"
  />
  <path
    fill-rule="evenodd"
    clip-rule="evenodd"
    d="M48.5 20L46 15H51L48.5 20ZM48.5 17.7639L47.618 16H49.382L48.5 17.7639Z"
    fill="black"
  />
  <path
    fill-rule="evenodd"
    clip-rule="evenodd"
    d="M46 31L48.5 36L51 31H46ZM47.618 32L48.5 33.7639L49.382 32H47.618Z"
    fill="black"
  />
  <path
    fill-rule="evenodd"
    clip-rule="evenodd"
    d="M48.5 52L46 47H51L48.5 52ZM48.5 49.7639L47.618 48H49.382L48.5 49.7639Z"
    fill="black"
  />
  <path
    fill-rule="evenodd"
    clip-rule="evenodd"
    d="M38 7L40.5 12L43 7H38ZM39.618 8L40.5 9.76393L41.382 8H39.618Z"
    fill="black"
  />
  <path
    fill-rule="evenodd"
    clip-rule="evenodd"
    d="M40.5 28L38 23H43L40.5 28ZM40.5 25.7639L39.618 24H41.382L40.5 25.7639Z"
    fill="black"
  />
  <path
    fill-rule="evenodd"
    clip-rule="evenodd"
    d="M38 39L40.5 44L43 39H38ZM39.618 40L40.5 41.7639L41.382 40H39.618Z"
    fill="black"
  />
  <path
    fill-rule="evenodd"
    clip-rule="evenodd"
    d="M40.5 60L38 55H43L40.5 60ZM40.5 57.7639L39.618 56H41.382L40.5 57.7639Z"
    fill="black"
  />
  <path
    fill-rule="evenodd"
    clip-rule="evenodd"
    d="M22 7L24.5 12L27 7H22ZM23.618 8L24.5 9.76393L25.382 8H23.618Z"
    fill="black"
  />
  <path
    fill-rule="evenodd"
    clip-rule="evenodd"
    d="M24.5 28L22 23H27L24.5 28ZM24.5 25.7639L23.618 24H25.382L24.5 25.7639Z"
    fill="black"
  />
  <path
    fill-rule="evenodd"
    clip-rule="evenodd"
    d="M22 39L24.5 44L27 39H22ZM23.618 40L24.5 41.7639L25.382 40H23.618Z"
    fill="black"
  />
  <path
    fill-rule="evenodd"
    clip-rule="evenodd"
    d="M24.5 60L22 55H27L24.5 60ZM24.5 57.7639L23.618 56H25.382L24.5 57.7639Z"
    fill="black"
  />
  <path
    fill-rule="evenodd"
    clip-rule="evenodd"
    d="M6 7L8.5 12L11 7H6ZM7.61803 8L8.5 9.76393L9.38197 8H7.61803Z"
    fill="black"
  />
  <path
    fill-rule="evenodd"
    clip-rule="evenodd"
    d="M8.5 28L6 23H11L8.5 28ZM8.5 25.7639L7.61803 24H9.38197L8.5 25.7639Z"
    fill="black"
  />
  <path
    fill-rule="evenodd"
    clip-rule="evenodd"
    d="M6 39L8.5 44L11 39H6ZM7.61803 40L8.5 41.7639L9.38197 40H7.61803Z"
    fill="black"
  />
  <path
    fill-rule="evenodd"
    clip-rule="evenodd"
    d="M8.5 60L6 55H11L8.5 60ZM8.5 57.7639L7.61803 56H9.38197L8.5 57.7639Z"
    fill="black"
  />
  <path
    fill-rule="evenodd"
    clip-rule="evenodd"
    d="M54 7L56.5 12L59 7H54ZM55.618 8L56.5 9.76393L57.382 8H55.618Z"
    fill="black"
  />
  <path
    fill-rule="evenodd"
    clip-rule="evenodd"
    d="M56.5 28L54 23H59L56.5 28ZM56.5 25.7639L55.618 24H57.382L56.5 25.7639Z"
    fill="black"
  />
  <path
    fill-rule="evenodd"
    clip-rule="evenodd"
    d="M54 39L56.5 44L59 39H54ZM55.618 40L56.5 41.7639L57.382 40H55.618Z"
    fill="black"
  />
  <path
    fill-rule="evenodd"
    clip-rule="evenodd"
    d="M56.5 60L54 55H59L56.5 60ZM56.5 57.7639L55.618 56H57.382L56.5 57.7639Z"
    fill="black"
  />
</svg>
