<svg width="64" height="64" viewBox="0 0 64 64" fill="none" xmlns="http://www.w3.org/2000/svg">
  <rect width="64" height="64" fill="#887000" />
  <path d="M0 13V12H6V13H0Z" fill="black" />
  <path d="M0 29V28H6V29H0Z" fill="black" />
  <path d="M0 45V44H6V45H0Z" fill="black" />
  <path d="M0 61V60H6V61H0Z" fill="black" />
  <path d="M64 60V61H57V60H64Z" fill="black" />
  <path d="M64 44V45H57V44H64Z" fill="black" />
  <path d="M64 28V29H57V28H64Z" fill="black" />
  <path d="M64 12V13H57V12H64Z" fill="black" />
  <path d="M14 4H1V5H14V4Z" fill="black" />
  <path d="M14 20H1V21H14V20Z" fill="black" />
  <path d="M1 36H14V37H1V36Z" fill="black" />
  <path d="M14 52H1V53H14V52Z" fill="black" />
  <path d="M9 12H22V13H9V12Z" fill="black" />
  <path d="M22 28H9V29H22V28Z" fill="black" />
  <path d="M9 44H22V45H9V44Z" fill="black" />
  <path d="M22 60H9V61H22V60Z" fill="black" />
  <path d="M17 4H30V5H17V4Z" fill="black" />
  <path d="M30 20H17V21H30V20Z" fill="black" />
  <path d="M17 36H30V37H17V36Z" fill="black" />
  <path d="M30 52H17V53H30V52Z" fill="black" />
  <path d="M25 12H38V13H25V12Z" fill="black" />
  <path d="M38 28H25V29H38V28Z" fill="black" />
  <path d="M25 44H38V45H25V44Z" fill="black" />
  <path d="M38 60H25V61H38V60Z" fill="black" />
  <path d="M33 4H46V5H33V4Z" fill="black" />
  <path d="M46 20H33V21H46V20Z" fill="black" />
  <path d="M33 36H46V37H33V36Z" fill="black" />
  <path d="M46 52H33V53H46V52Z" fill="black" />
  <path d="M41 12H54V13H41V12Z" fill="black" />
  <path d="M54 28H41V29H54V28Z" fill="black" />
  <path d="M41 44H54V45H41V44Z" fill="black" />
  <path d="M54 60H41V61H54V60Z" fill="black" />
  <path d="M49 4H62V5H49V4Z" fill="black" />
  <path d="M62 20H49V21H62V20Z" fill="black" />
  <path d="M49 36H62V37H49V36Z" fill="black" />
  <path d="M62 52H49V53H62V52Z" fill="black" />
</svg>
