<svg width="64" height="64" viewBox="0 0 64 64" fill="none" xmlns="http://www.w3.org/2000/svg">
  <rect width="64" height="64" fill="#887000" />
  <path d="M0 13V12H6V13H0Z" fill="black" />
  <path d="M0 29V28H6V29H0Z" fill="black" />
  <path d="M0 45V44H6V45H0Z" fill="black" />
  <path d="M0 61V60H6V61H0Z" fill="black" />
  <path d="M64 60V61H57V60H64Z" fill="black" />
  <path d="M64 44V45H57V44H64Z" fill="black" />
  <path d="M64 28V29H57V28H64Z" fill="black" />
  <path d="M64 12V13H57V12H64Z" fill="black" />
  <path d="M14 4H1V5H14V4Z" fill="black" />
  <path d="M14 20H1V21H14V20Z" fill="black" />
  <path d="M1 36H14V37H1V36Z" fill="black" />
  <path d="M14 52H1V53H14V52Z" fill="black" />
  <path d="M9 12H22V13H9V12Z" fill="black" />
  <path d="M22 28H9V29H22V28Z" fill="black" />
  <path d="M9 44H22V45H9V44Z" fill="black" />
  <path d="M22 60H9V61H22V60Z" fill="black" />
  <path d="M17 4H30V5H17V4Z" fill="black" />
  <path d="M17 36V37H30V36H17Z" fill="black" />
  <path d="M25 12H38V13H25V12Z" fill="black" />
  <path d="M38 28H25V29H38V28Z" fill="black" />
  <path d="M25 44H38V45H25V44Z" fill="black" />
  <path d="M38 60H25V61H38V60Z" fill="black" />
  <path d="M33 4H46V5H33V4Z" fill="black" />
  <path d="M46 20H33V21H46V20Z" fill="black" />
  <path d="M49 20H62V21H49V20Z" fill="black" />
  <path d="M46 36H33V37H46V36Z" fill="black" />
  <path d="M33 52H46V53H33V52Z" fill="black" />
  <path d="M17 52V53H30V52H17Z" fill="black" />
  <path d="M41 12H54V13H41V12Z" fill="black" />
  <path d="M54 28H41V29H54V28Z" fill="black" />
  <path d="M41 44H54V45H41V44Z" fill="black" />
  <path d="M54 60H41V61H54V60Z" fill="black" />
  <path d="M49 4H62V5H49V4Z" fill="black" />
  <path d="M62 36H49V37H62V36Z" fill="black" />
  <path
    d="M25.792 21.5C25.4062 22.383 24.5252 23 23.5 23C22.1193 23 21 21.8807 21 20.5C21 19.1193 22.1193 18 23.5 18C24.5252 18 25.4062 18.617 25.792 19.5H24.6181C24.3434 19.1931 23.9443 19 23.5 19C22.6716 19 22 19.6716 22 20.5C22 21.3284 22.6716 22 23.5 22C23.9443 22 24.3434 21.8069 24.6181 21.5H25.792Z"
    fill="black"
  />
  <path
    d="M55.5 55C56.5252 55 57.4062 54.383 57.792 53.5H56.6181C56.3434 53.8069 55.9443 54 55.5 54C54.6716 54 54 53.3284 54 52.5C54 51.6716 54.6716 51 55.5 51C55.9443 51 56.3434 51.1931 56.6181 51.5H57.792C57.4062 50.617 56.5252 50 55.5 50C54.1193 50 53 51.1193 53 52.5C53 53.8807 54.1193 55 55.5 55Z"
    fill="black"
  />
</svg>
