<svg width="64" height="64" viewBox="0 0 64 64" fill="none" xmlns="http://www.w3.org/2000/svg">
  <rect width="64" height="64" fill="#62C8CE" />
  <path
    fill-rule="evenodd"
    clip-rule="evenodd"
    d="M3.2481 4.21771C3.05438 4.2048 2.63581 4.31912 1.90009 5.30007L1.1001 4.70006C1.86438 3.68103 2.57081 3.17035 3.3146 3.21992C3.67702 3.24408 3.97754 3.40029 4.21948 3.5758C4.451 3.74376 4.66222 3.95501 4.84074 4.13356C4.84506 4.13788 4.84936 4.14218 4.85364 4.14647C5.04743 4.34025 5.2066 4.49779 5.36792 4.61481C5.52442 4.72835 5.64577 4.77525 5.75209 4.78233C5.94581 4.79524 6.36438 4.68091 7.1001 3.69995L7.9001 4.29995C7.13582 5.31899 6.42939 5.82968 5.6856 5.78012C5.32318 5.75597 5.02265 5.59977 4.78071 5.42425C4.54919 5.2563 4.33797 5.04504 4.15945 4.86649C4.15513 4.86217 4.15083 4.85787 4.14655 4.85359C3.95276 4.65981 3.79359 4.50227 3.63227 4.38524C3.47577 4.2717 3.35442 4.2248 3.2481 4.21771Z"
    fill="black"
  />
  <path
    fill-rule="evenodd"
    clip-rule="evenodd"
    d="M3.2481 20.2177C3.05438 20.2048 2.63581 20.3191 1.90009 21.3001L1.1001 20.7001C1.86438 19.681 2.57081 19.1704 3.3146 19.2199C3.67702 19.2441 3.97754 19.4003 4.21948 19.5758C4.451 19.7438 4.66222 19.955 4.84074 20.1336C4.84506 20.1379 4.84936 20.1422 4.85364 20.1465C5.04743 20.3402 5.2066 20.4978 5.36792 20.6148C5.52442 20.7283 5.64577 20.7752 5.75209 20.7823C5.94581 20.7952 6.36438 20.6809 7.1001 19.6999L7.9001 20.2999C7.13582 21.319 6.42939 21.8297 5.6856 21.7801C5.32318 21.756 5.02265 21.5998 4.78071 21.4243C4.54919 21.2563 4.33797 21.045 4.15945 20.8665C4.15513 20.8622 4.15083 20.8579 4.14655 20.8536C3.95276 20.6598 3.79359 20.5023 3.63227 20.3852C3.47577 20.2717 3.35442 20.2248 3.2481 20.2177Z"
    fill="black"
  />
  <path
    fill-rule="evenodd"
    clip-rule="evenodd"
    d="M3.2481 36.2177C3.05438 36.2048 2.63581 36.3191 1.90009 37.3001L1.1001 36.7001C1.86438 35.681 2.57081 35.1704 3.3146 35.2199C3.67702 35.2441 3.97754 35.4003 4.21948 35.5758C4.451 35.7438 4.66222 35.955 4.84074 36.1336C4.84506 36.1379 4.84936 36.1422 4.85364 36.1465C5.04743 36.3402 5.2066 36.4978 5.36792 36.6148C5.52442 36.7283 5.64577 36.7752 5.75209 36.7823C5.94581 36.7952 6.36438 36.6809 7.1001 35.7L7.9001 36.2999C7.13582 37.319 6.42939 37.8297 5.6856 37.7801C5.32318 37.756 5.02265 37.5998 4.78071 37.4243C4.54919 37.2563 4.33797 37.045 4.15945 36.8665C4.15513 36.8622 4.15083 36.8579 4.14655 36.8536C3.95276 36.6598 3.79359 36.5023 3.63227 36.3852C3.47577 36.2717 3.35442 36.2248 3.2481 36.2177Z"
    fill="black"
  />
  <path
    fill-rule="evenodd"
    clip-rule="evenodd"
    d="M3.2481 52.2177C3.05438 52.2048 2.63581 52.3191 1.90009 53.3001L1.1001 52.7001C1.86438 51.681 2.57081 51.1704 3.3146 51.2199C3.67702 51.2441 3.97754 51.4003 4.21948 51.5758C4.451 51.7438 4.66222 51.955 4.84074 52.1336C4.84506 52.1379 4.84936 52.1422 4.85364 52.1465C5.04743 52.3402 5.2066 52.4978 5.36792 52.6148C5.52442 52.7283 5.64577 52.7752 5.75209 52.7823C5.94581 52.7952 6.36438 52.6809 7.1001 51.7L7.9001 52.2999C7.13582 53.319 6.42939 53.8297 5.6856 53.7801C5.32318 53.756 5.02265 53.5998 4.78071 53.4243C4.54919 53.2563 4.33797 53.045 4.15945 52.8665C4.15513 52.8622 4.15083 52.8579 4.14655 52.8536C3.95276 52.6598 3.79359 52.5023 3.63227 52.3852C3.47577 52.2717 3.35442 52.2248 3.2481 52.2177Z"
    fill="black"
  />
  <path
    fill-rule="evenodd"
    clip-rule="evenodd"
    d="M11.2481 12.2177C11.0544 12.2048 10.6358 12.3191 9.90009 13.3001L9.1001 12.7001C9.86438 11.681 10.5708 11.1704 11.3146 11.2199C11.677 11.2441 11.9775 11.4003 12.2195 11.5758C12.451 11.7438 12.6622 11.955 12.8407 12.1336C12.8451 12.1379 12.8494 12.1422 12.8536 12.1465C13.0474 12.3402 13.2066 12.4978 13.3679 12.6148C13.5244 12.7283 13.6458 12.7752 13.7521 12.7823C13.9458 12.7952 14.3644 12.6809 15.1001 11.6999L15.9001 12.2999C15.1358 13.319 14.4294 13.8297 13.6856 13.7801C13.3232 13.756 13.0227 13.5998 12.7807 13.4243C12.5492 13.2563 12.338 13.045 12.1594 12.8665C12.1551 12.8622 12.1508 12.8579 12.1466 12.8536C11.9528 12.6598 11.7936 12.5023 11.6323 12.3852C11.4758 12.2717 11.3544 12.2248 11.2481 12.2177Z"
    fill="black"
  />
  <path
    fill-rule="evenodd"
    clip-rule="evenodd"
    d="M11.2481 28.2177C11.0544 28.2048 10.6358 28.3191 9.90009 29.3001L9.1001 28.7001C9.86438 27.681 10.5708 27.1704 11.3146 27.2199C11.677 27.2441 11.9775 27.4003 12.2195 27.5758C12.451 27.7438 12.6622 27.955 12.8407 28.1336C12.8451 28.1379 12.8494 28.1422 12.8536 28.1465C13.0474 28.3402 13.2066 28.4978 13.3679 28.6148C13.5244 28.7283 13.6458 28.7752 13.7521 28.7823C13.9458 28.7952 14.3644 28.6809 15.1001 27.6999L15.9001 28.2999C15.1358 29.319 14.4294 29.8297 13.6856 29.7801C13.3232 29.756 13.0227 29.5998 12.7807 29.4243C12.5492 29.2563 12.338 29.045 12.1594 28.8665C12.1551 28.8622 12.1508 28.8579 12.1466 28.8536C11.9528 28.6598 11.7936 28.5023 11.6323 28.3852C11.4758 28.2717 11.3544 28.2248 11.2481 28.2177Z"
    fill="black"
  />
  <path
    fill-rule="evenodd"
    clip-rule="evenodd"
    d="M11.2481 44.2177C11.0544 44.2048 10.6358 44.3191 9.90009 45.3001L9.1001 44.7001C9.86438 43.681 10.5708 43.1704 11.3146 43.2199C11.677 43.2441 11.9775 43.4003 12.2195 43.5758C12.451 43.7438 12.6622 43.955 12.8407 44.1336C12.8451 44.1379 12.8494 44.1422 12.8536 44.1465C13.0474 44.3402 13.2066 44.4978 13.3679 44.6148C13.5244 44.7283 13.6458 44.7752 13.7521 44.7823C13.9458 44.7952 14.3644 44.6809 15.1001 43.7L15.9001 44.2999C15.1358 45.319 14.4294 45.8297 13.6856 45.7801C13.3232 45.756 13.0227 45.5998 12.7807 45.4243C12.5492 45.2563 12.338 45.045 12.1594 44.8665C12.1551 44.8622 12.1508 44.8579 12.1466 44.8536C11.9528 44.6598 11.7936 44.5023 11.6323 44.3852C11.4758 44.2717 11.3544 44.2248 11.2481 44.2177Z"
    fill="black"
  />
  <path
    fill-rule="evenodd"
    clip-rule="evenodd"
    d="M11.2481 60.2177C11.0544 60.2048 10.6358 60.3191 9.90009 61.3001L9.1001 60.7001C9.86438 59.681 10.5708 59.1704 11.3146 59.2199C11.677 59.2441 11.9775 59.4003 12.2195 59.5758C12.451 59.7438 12.6622 59.955 12.8407 60.1336C12.8451 60.1379 12.8494 60.1422 12.8536 60.1465C13.0474 60.3402 13.2066 60.4978 13.3679 60.6148C13.5244 60.7283 13.6458 60.7752 13.7521 60.7823C13.9458 60.7952 14.3644 60.6809 15.1001 59.7L15.9001 60.2999C15.1358 61.319 14.4294 61.8297 13.6856 61.7801C13.3232 61.756 13.0227 61.5998 12.7807 61.4243C12.5492 61.2563 12.338 61.045 12.1594 60.8665C12.1551 60.8622 12.1508 60.8579 12.1466 60.8536C11.9528 60.6598 11.7936 60.5023 11.6323 60.3852C11.4758 60.2717 11.3544 60.2248 11.2481 60.2177Z"
    fill="black"
  />
  <path
    fill-rule="evenodd"
    clip-rule="evenodd"
    d="M35.2481 4.21771C35.0544 4.2048 34.6358 4.31912 33.9001 5.30007L33.1001 4.70006C33.8644 3.68103 34.5708 3.17035 35.3146 3.21992C35.677 3.24408 35.9775 3.40029 36.2195 3.5758C36.451 3.74376 36.6622 3.95501 36.8407 4.13356C36.8451 4.13788 36.8494 4.14218 36.8536 4.14647C37.0474 4.34025 37.2066 4.49779 37.3679 4.61481C37.5244 4.72835 37.6458 4.77525 37.7521 4.78233C37.9458 4.79524 38.3644 4.68091 39.1001 3.69995L39.9001 4.29995C39.1358 5.31899 38.4294 5.82968 37.6856 5.78012C37.3232 5.75597 37.0227 5.59977 36.7807 5.42425C36.5492 5.2563 36.338 5.04504 36.1595 4.86649C36.1551 4.86217 36.1508 4.85787 36.1465 4.85359C35.9528 4.65981 35.7936 4.50227 35.6323 4.38524C35.4758 4.2717 35.3544 4.2248 35.2481 4.21771Z"
    fill="black"
  />
  <path
    fill-rule="evenodd"
    clip-rule="evenodd"
    d="M35.2481 20.2177C35.0544 20.2048 34.6358 20.3191 33.9001 21.3001L33.1001 20.7001C33.8644 19.681 34.5708 19.1704 35.3146 19.2199C35.677 19.2441 35.9775 19.4003 36.2195 19.5758C36.451 19.7438 36.6622 19.955 36.8407 20.1336C36.8451 20.1379 36.8494 20.1422 36.8536 20.1465C37.0474 20.3402 37.2066 20.4978 37.3679 20.6148C37.5244 20.7283 37.6458 20.7752 37.7521 20.7823C37.9458 20.7952 38.3644 20.6809 39.1001 19.6999L39.9001 20.2999C39.1358 21.319 38.4294 21.8297 37.6856 21.7801C37.3232 21.756 37.0227 21.5998 36.7807 21.4243C36.5492 21.2563 36.338 21.045 36.1595 20.8665C36.1551 20.8622 36.1508 20.8579 36.1465 20.8536C35.9528 20.6598 35.7936 20.5023 35.6323 20.3852C35.4758 20.2717 35.3544 20.2248 35.2481 20.2177Z"
    fill="black"
  />
  <path
    fill-rule="evenodd"
    clip-rule="evenodd"
    d="M35.2481 36.2177C35.0544 36.2048 34.6358 36.3191 33.9001 37.3001L33.1001 36.7001C33.8644 35.681 34.5708 35.1704 35.3146 35.2199C35.677 35.2441 35.9775 35.4003 36.2195 35.5758C36.451 35.7438 36.6622 35.955 36.8407 36.1336C36.8451 36.1379 36.8494 36.1422 36.8536 36.1465C37.0474 36.3402 37.2066 36.4978 37.3679 36.6148C37.5244 36.7283 37.6458 36.7752 37.7521 36.7823C37.9458 36.7952 38.3644 36.6809 39.1001 35.7L39.9001 36.2999C39.1358 37.319 38.4294 37.8297 37.6856 37.7801C37.3232 37.756 37.0227 37.5998 36.7807 37.4243C36.5492 37.2563 36.338 37.045 36.1595 36.8665C36.1551 36.8622 36.1508 36.8579 36.1465 36.8536C35.9528 36.6598 35.7936 36.5023 35.6323 36.3852C35.4758 36.2717 35.3544 36.2248 35.2481 36.2177Z"
    fill="black"
  />
  <path
    fill-rule="evenodd"
    clip-rule="evenodd"
    d="M35.2481 52.2177C35.0544 52.2048 34.6358 52.3191 33.9001 53.3001L33.1001 52.7001C33.8644 51.681 34.5708 51.1704 35.3146 51.2199C35.677 51.2441 35.9775 51.4003 36.2195 51.5758C36.451 51.7438 36.6622 51.955 36.8407 52.1336C36.8451 52.1379 36.8494 52.1422 36.8536 52.1465C37.0474 52.3402 37.2066 52.4978 37.3679 52.6148C37.5244 52.7283 37.6458 52.7752 37.7521 52.7823C37.9458 52.7952 38.3644 52.6809 39.1001 51.7L39.9001 52.2999C39.1358 53.319 38.4294 53.8297 37.6856 53.7801C37.3232 53.756 37.0227 53.5998 36.7807 53.4243C36.5492 53.2563 36.338 53.045 36.1595 52.8665C36.1551 52.8622 36.1508 52.8579 36.1465 52.8536C35.9528 52.6598 35.7936 52.5023 35.6323 52.3852C35.4758 52.2717 35.3544 52.2248 35.2481 52.2177Z"
    fill="black"
  />
  <path
    fill-rule="evenodd"
    clip-rule="evenodd"
    d="M43.2481 12.2177C43.0544 12.2048 42.6358 12.3191 41.9001 13.3001L41.1001 12.7001C41.8644 11.681 42.5708 11.1704 43.3146 11.2199C43.677 11.2441 43.9775 11.4003 44.2195 11.5758C44.451 11.7438 44.6622 11.955 44.8407 12.1336C44.8451 12.1379 44.8494 12.1422 44.8536 12.1465C45.0474 12.3402 45.2066 12.4978 45.3679 12.6148C45.5244 12.7283 45.6458 12.7752 45.7521 12.7823C45.9458 12.7952 46.3644 12.6809 47.1001 11.6999L47.9001 12.2999C47.1358 13.319 46.4294 13.8297 45.6856 13.7801C45.3232 13.756 45.0227 13.5998 44.7807 13.4243C44.5492 13.2563 44.338 13.045 44.1595 12.8665C44.1551 12.8622 44.1508 12.8579 44.1465 12.8536C43.9528 12.6598 43.7936 12.5023 43.6323 12.3852C43.4758 12.2717 43.3544 12.2248 43.2481 12.2177Z"
    fill="black"
  />
  <path
    fill-rule="evenodd"
    clip-rule="evenodd"
    d="M43.2481 28.2177C43.0544 28.2048 42.6358 28.3191 41.9001 29.3001L41.1001 28.7001C41.8644 27.681 42.5708 27.1704 43.3146 27.2199C43.677 27.2441 43.9775 27.4003 44.2195 27.5758C44.451 27.7438 44.6622 27.955 44.8407 28.1336C44.8451 28.1379 44.8494 28.1422 44.8536 28.1465C45.0474 28.3402 45.2066 28.4978 45.3679 28.6148C45.5244 28.7283 45.6458 28.7752 45.7521 28.7823C45.9458 28.7952 46.3644 28.6809 47.1001 27.6999L47.9001 28.2999C47.1358 29.319 46.4294 29.8297 45.6856 29.7801C45.3232 29.756 45.0227 29.5998 44.7807 29.4243C44.5492 29.2563 44.338 29.045 44.1595 28.8665C44.1551 28.8622 44.1508 28.8579 44.1465 28.8536C43.9528 28.6598 43.7936 28.5023 43.6323 28.3852C43.4758 28.2717 43.3544 28.2248 43.2481 28.2177Z"
    fill="black"
  />
  <path
    fill-rule="evenodd"
    clip-rule="evenodd"
    d="M43.2481 44.2177C43.0544 44.2048 42.6358 44.3191 41.9001 45.3001L41.1001 44.7001C41.8644 43.681 42.5708 43.1704 43.3146 43.2199C43.677 43.2441 43.9775 43.4003 44.2195 43.5758C44.451 43.7438 44.6622 43.955 44.8407 44.1336C44.8451 44.1379 44.8494 44.1422 44.8536 44.1465C45.0474 44.3402 45.2066 44.4978 45.3679 44.6148C45.5244 44.7283 45.6458 44.7752 45.7521 44.7823C45.9458 44.7952 46.3644 44.6809 47.1001 43.7L47.9001 44.2999C47.1358 45.319 46.4294 45.8297 45.6856 45.7801C45.3232 45.756 45.0227 45.5998 44.7807 45.4243C44.5492 45.2563 44.338 45.045 44.1595 44.8665C44.1551 44.8622 44.1508 44.8579 44.1465 44.8536C43.9528 44.6598 43.7936 44.5023 43.6323 44.3852C43.4758 44.2717 43.3544 44.2248 43.2481 44.2177Z"
    fill="black"
  />
  <path
    fill-rule="evenodd"
    clip-rule="evenodd"
    d="M43.2481 60.2177C43.0544 60.2048 42.6358 60.3191 41.9001 61.3001L41.1001 60.7001C41.8644 59.681 42.5708 59.1704 43.3146 59.2199C43.677 59.2441 43.9775 59.4003 44.2195 59.5758C44.451 59.7438 44.6622 59.955 44.8407 60.1336C44.8451 60.1379 44.8494 60.1422 44.8536 60.1465C45.0474 60.3402 45.2066 60.4978 45.3679 60.6148C45.5244 60.7283 45.6458 60.7752 45.7521 60.7823C45.9458 60.7952 46.3644 60.6809 47.1001 59.7L47.9001 60.2999C47.1358 61.319 46.4294 61.8297 45.6856 61.7801C45.3232 61.756 45.0227 61.5998 44.7807 61.4243C44.5492 61.2563 44.338 61.045 44.1595 60.8665C44.1551 60.8622 44.1508 60.8579 44.1465 60.8536C43.9528 60.6598 43.7936 60.5023 43.6323 60.3852C43.4758 60.2717 43.3544 60.2248 43.2481 60.2177Z"
    fill="black"
  />
  <path
    fill-rule="evenodd"
    clip-rule="evenodd"
    d="M19.2481 4.21771C19.0544 4.2048 18.6358 4.31912 17.9001 5.30007L17.1001 4.70006C17.8644 3.68103 18.5708 3.17035 19.3146 3.21992C19.677 3.24408 19.9775 3.40029 20.2195 3.5758C20.451 3.74376 20.6622 3.95501 20.8407 4.13356C20.8451 4.13788 20.8494 4.14218 20.8536 4.14647C21.0474 4.34025 21.2066 4.49779 21.3679 4.61481C21.5244 4.72835 21.6458 4.77525 21.7521 4.78233C21.9458 4.79524 22.3644 4.68091 23.1001 3.69995L23.9001 4.29995C23.1358 5.31899 22.4294 5.82968 21.6856 5.78012C21.3232 5.75597 21.0227 5.59977 20.7807 5.42425C20.5492 5.2563 20.338 5.04504 20.1595 4.86649C20.1551 4.86217 20.1508 4.85787 20.1466 4.85359C19.9528 4.65981 19.7936 4.50227 19.6323 4.38524C19.4758 4.2717 19.3544 4.2248 19.2481 4.21771Z"
    fill="black"
  />
  <path
    fill-rule="evenodd"
    clip-rule="evenodd"
    d="M19.2481 36.2177C19.0544 36.2048 18.6358 36.3191 17.9001 37.3001L17.1001 36.7001C17.8644 35.681 18.5708 35.1704 19.3146 35.2199C19.677 35.2441 19.9775 35.4003 20.2195 35.5758C20.451 35.7438 20.6622 35.955 20.8407 36.1336C20.8451 36.1379 20.8494 36.1422 20.8536 36.1465C21.0474 36.3402 21.2066 36.4978 21.3679 36.6148C21.5244 36.7283 21.6458 36.7752 21.7521 36.7823C21.9458 36.7952 22.3644 36.6809 23.1001 35.7L23.9001 36.2999C23.1358 37.319 22.4294 37.8297 21.6856 37.7801C21.3232 37.756 21.0227 37.5998 20.7807 37.4243C20.5492 37.2563 20.338 37.045 20.1595 36.8665C20.1551 36.8622 20.1508 36.8579 20.1466 36.8536C19.9528 36.6598 19.7936 36.5023 19.6323 36.3852C19.4758 36.2717 19.3544 36.2248 19.2481 36.2177Z"
    fill="black"
  />
  <path
    fill-rule="evenodd"
    clip-rule="evenodd"
    d="M27.2481 12.2177C27.0544 12.2048 26.6358 12.3191 25.9001 13.3001L25.1001 12.7001C25.8644 11.681 26.5708 11.1704 27.3146 11.2199C27.677 11.2441 27.9775 11.4003 28.2195 11.5758C28.451 11.7438 28.6622 11.955 28.8407 12.1336C28.8451 12.1379 28.8494 12.1422 28.8536 12.1465C29.0474 12.3402 29.2066 12.4978 29.3679 12.6148C29.5244 12.7283 29.6458 12.7752 29.7521 12.7823C29.9458 12.7952 30.3644 12.6809 31.1001 11.6999L31.9001 12.2999C31.1358 13.319 30.4294 13.8297 29.6856 13.7801C29.3232 13.756 29.0227 13.5998 28.7807 13.4243C28.5492 13.2563 28.338 13.045 28.1595 12.8665C28.1551 12.8622 28.1508 12.8579 28.1466 12.8536C27.9528 12.6598 27.7936 12.5023 27.6323 12.3852C27.4758 12.2717 27.3544 12.2248 27.2481 12.2177Z"
    fill="black"
  />
  <path
    fill-rule="evenodd"
    clip-rule="evenodd"
    d="M27.2481 28.2177C27.0544 28.2048 26.6358 28.3191 25.9001 29.3001L25.1001 28.7001C25.8644 27.681 26.5708 27.1704 27.3146 27.2199C27.677 27.2441 27.9775 27.4003 28.2195 27.5758C28.451 27.7438 28.6622 27.955 28.8407 28.1336C28.8451 28.1379 28.8494 28.1422 28.8536 28.1465C29.0474 28.3402 29.2066 28.4978 29.3679 28.6148C29.5244 28.7283 29.6458 28.7752 29.7521 28.7823C29.9458 28.7952 30.3644 28.6809 31.1001 27.6999L31.9001 28.2999C31.1358 29.319 30.4294 29.8297 29.6856 29.7801C29.3232 29.756 29.0227 29.5998 28.7807 29.4243C28.5492 29.2563 28.338 29.045 28.1595 28.8665C28.1551 28.8622 28.1508 28.8579 28.1466 28.8536C27.9528 28.6598 27.7936 28.5023 27.6323 28.3852C27.4758 28.2717 27.3544 28.2248 27.2481 28.2177Z"
    fill="black"
  />
  <path
    fill-rule="evenodd"
    clip-rule="evenodd"
    d="M27.2481 44.2177C27.0544 44.2048 26.6358 44.3191 25.9001 45.3001L25.1001 44.7001C25.8644 43.681 26.5708 43.1704 27.3146 43.2199C27.677 43.2441 27.9775 43.4003 28.2195 43.5758C28.451 43.7438 28.6622 43.955 28.8407 44.1336C28.8451 44.1379 28.8494 44.1422 28.8536 44.1465C29.0474 44.3402 29.2066 44.4978 29.3679 44.6148C29.5244 44.7283 29.6458 44.7752 29.7521 44.7823C29.9458 44.7952 30.3644 44.6809 31.1001 43.7L31.9001 44.2999C31.1358 45.319 30.4294 45.8297 29.6856 45.7801C29.3232 45.756 29.0227 45.5998 28.7807 45.4243C28.5492 45.2563 28.338 45.045 28.1595 44.8665C28.1551 44.8622 28.1508 44.8579 28.1466 44.8536C27.9528 44.6598 27.7936 44.5023 27.6323 44.3852C27.4758 44.2717 27.3544 44.2248 27.2481 44.2177Z"
    fill="black"
  />
  <path
    fill-rule="evenodd"
    clip-rule="evenodd"
    d="M27.2481 60.2177C27.0544 60.2048 26.6358 60.3191 25.9001 61.3001L25.1001 60.7001C25.8644 59.681 26.5708 59.1704 27.3146 59.2199C27.677 59.2441 27.9775 59.4003 28.2195 59.5758C28.451 59.7438 28.6622 59.955 28.8407 60.1336C28.8451 60.1379 28.8494 60.1422 28.8536 60.1465C29.0474 60.3402 29.2066 60.4978 29.3679 60.6148C29.5244 60.7283 29.6458 60.7752 29.7521 60.7823C29.9458 60.7952 30.3644 60.6809 31.1001 59.7L31.9001 60.2999C31.1358 61.319 30.4294 61.8297 29.6856 61.7801C29.3232 61.756 29.0227 61.5998 28.7807 61.4243C28.5492 61.2563 28.338 61.045 28.1595 60.8665C28.1551 60.8622 28.1508 60.8579 28.1466 60.8536C27.9528 60.6598 27.7936 60.5023 27.6323 60.3852C27.4758 60.2717 27.3544 60.2248 27.2481 60.2177Z"
    fill="black"
  />
  <path
    fill-rule="evenodd"
    clip-rule="evenodd"
    d="M51.2481 4.21771C51.0544 4.2048 50.6358 4.31912 49.9001 5.30007L49.1001 4.70006C49.8644 3.68103 50.5708 3.17035 51.3146 3.21992C51.677 3.24408 51.9775 3.40029 52.2195 3.5758C52.451 3.74376 52.6622 3.95501 52.8407 4.13356C52.8451 4.13788 52.8494 4.14218 52.8536 4.14647C53.0474 4.34025 53.2066 4.49779 53.3679 4.61481C53.5244 4.72835 53.6458 4.77525 53.7521 4.78233C53.9458 4.79524 54.3644 4.68091 55.1001 3.69995L55.9001 4.29995C55.1358 5.31899 54.4294 5.82968 53.6856 5.78012C53.3232 5.75597 53.0227 5.59977 52.7807 5.42425C52.5492 5.2563 52.338 5.04504 52.1595 4.86649C52.1551 4.86217 52.1508 4.85787 52.1465 4.85359C51.9528 4.65981 51.7936 4.50227 51.6323 4.38524C51.4758 4.2717 51.3544 4.2248 51.2481 4.21771Z"
    fill="black"
  />
  <path
    fill-rule="evenodd"
    clip-rule="evenodd"
    d="M51.2481 36.2177C51.0544 36.2048 50.6358 36.3191 49.9001 37.3001L49.1001 36.7001C49.8644 35.681 50.5708 35.1704 51.3146 35.2199C51.677 35.2441 51.9775 35.4003 52.2195 35.5758C52.451 35.7438 52.6622 35.955 52.8407 36.1336C52.8451 36.1379 52.8494 36.1422 52.8536 36.1465C53.0474 36.3402 53.2066 36.4978 53.3679 36.6148C53.5244 36.7283 53.6458 36.7752 53.7521 36.7823C53.9458 36.7952 54.3644 36.6809 55.1001 35.7L55.9001 36.2999C55.1358 37.319 54.4294 37.8297 53.6856 37.7801C53.3232 37.756 53.0227 37.5998 52.7807 37.4243C52.5492 37.2563 52.338 37.045 52.1595 36.8665C52.1551 36.8622 52.1508 36.8579 52.1465 36.8536C51.9528 36.6598 51.7936 36.5023 51.6323 36.3852C51.4758 36.2717 51.3544 36.2248 51.2481 36.2177Z"
    fill="black"
  />
  <path
    fill-rule="evenodd"
    clip-rule="evenodd"
    d="M59.2481 12.2177C59.0544 12.2048 58.6358 12.3191 57.9001 13.3001L57.1001 12.7001C57.8644 11.681 58.5708 11.1704 59.3146 11.2199C59.677 11.2441 59.9775 11.4003 60.2195 11.5758C60.451 11.7438 60.6622 11.955 60.8407 12.1336C60.8451 12.1379 60.8494 12.1422 60.8536 12.1465C61.0474 12.3402 61.2066 12.4978 61.3679 12.6148C61.5244 12.7283 61.6458 12.7752 61.7521 12.7823C61.9458 12.7952 62.3644 12.6809 63.1001 11.6999L63.9001 12.2999C63.1358 13.319 62.4294 13.8297 61.6856 13.7801C61.3232 13.756 61.0227 13.5998 60.7807 13.4243C60.5492 13.2563 60.338 13.045 60.1595 12.8665C60.1551 12.8622 60.1508 12.8579 60.1465 12.8536C59.9528 12.6598 59.7936 12.5023 59.6323 12.3852C59.4758 12.2717 59.3544 12.2248 59.2481 12.2177Z"
    fill="black"
  />
  <path
    fill-rule="evenodd"
    clip-rule="evenodd"
    d="M59.2481 28.2177C59.0544 28.2048 58.6358 28.3191 57.9001 29.3001L57.1001 28.7001C57.8644 27.681 58.5708 27.1704 59.3146 27.2199C59.677 27.2441 59.9775 27.4003 60.2195 27.5758C60.451 27.7438 60.6622 27.955 60.8407 28.1336C60.8451 28.1379 60.8494 28.1422 60.8536 28.1465C61.0474 28.3402 61.2066 28.4978 61.3679 28.6148C61.5244 28.7283 61.6458 28.7752 61.7521 28.7823C61.9458 28.7952 62.3644 28.6809 63.1001 27.6999L63.9001 28.2999C63.1358 29.319 62.4294 29.8297 61.6856 29.7801C61.3232 29.756 61.0227 29.5998 60.7807 29.4243C60.5492 29.2563 60.338 29.045 60.1595 28.8665C60.1551 28.8622 60.1508 28.8579 60.1465 28.8536C59.9528 28.6598 59.7936 28.5023 59.6323 28.3852C59.4758 28.2717 59.3544 28.2248 59.2481 28.2177Z"
    fill="black"
  />
  <path
    fill-rule="evenodd"
    clip-rule="evenodd"
    d="M59.2481 44.2177C59.0544 44.2048 58.6358 44.3191 57.9001 45.3001L57.1001 44.7001C57.8644 43.681 58.5708 43.1704 59.3146 43.2199C59.677 43.2441 59.9775 43.4003 60.2195 43.5758C60.451 43.7438 60.6622 43.955 60.8407 44.1336C60.8451 44.1379 60.8494 44.1422 60.8536 44.1465C61.0474 44.3402 61.2066 44.4978 61.3679 44.6148C61.5244 44.7283 61.6458 44.7752 61.7521 44.7823C61.9458 44.7952 62.3644 44.6809 63.1001 43.7L63.9001 44.2999C63.1358 45.319 62.4294 45.8297 61.6856 45.7801C61.3232 45.756 61.0227 45.5998 60.7807 45.4243C60.5492 45.2563 60.338 45.045 60.1595 44.8665C60.1551 44.8622 60.1508 44.8579 60.1465 44.8536C59.9528 44.6598 59.7936 44.5023 59.6323 44.3852C59.4758 44.2717 59.3544 44.2248 59.2481 44.2177Z"
    fill="black"
  />
  <path
    fill-rule="evenodd"
    clip-rule="evenodd"
    d="M59.2481 60.2177C59.0544 60.2048 58.6358 60.3191 57.9001 61.3001L57.1001 60.7001C57.8644 59.681 58.5708 59.1704 59.3146 59.2199C59.677 59.2441 59.9775 59.4003 60.2195 59.5758C60.451 59.7438 60.6622 59.955 60.8407 60.1336C60.8451 60.1379 60.8494 60.1422 60.8536 60.1465C61.0474 60.3402 61.2066 60.4978 61.3679 60.6148C61.5244 60.7283 61.6458 60.7752 61.7521 60.7823C61.9458 60.7952 62.3644 60.6809 63.1001 59.7L63.9001 60.2999C63.1358 61.319 62.4294 61.8297 61.6856 61.7801C61.3232 61.756 61.0227 61.5998 60.7807 61.4243C60.5492 61.2563 60.338 61.045 60.1595 60.8665C60.1551 60.8622 60.1508 60.8579 60.1465 60.8536C59.9528 60.6598 59.7936 60.5023 59.6323 60.3852C59.4758 60.2717 59.3544 60.2248 59.2481 60.2177Z"
    fill="black"
  />
  <path d="M17.0001 20H24.0001V21H17.0001V20Z" fill="black" />
  <path d="M49.0001 20H56.0001V21H49.0001V20Z" fill="black" />
  <path d="M49.0001 52H56.0001V53H49.0001V52Z" fill="black" />
  <path d="M17.0001 52H24.0001V53H17.0001V52Z" fill="black" />
</svg>
